<svg width="1166" height="48" viewBox="0 0 1166 48" fill="none" xmlns="http://www.w3.org/2000/svg">
<path d="M1132.67 8.83999C1132.97 6.13999 1135.57 4.73999 1138.07 5.03999C1141.47 5.43999 1143.37 8.63998 1142.47 11.84C1140.57 18.44 1132.47 24.04 1125.97 25.24C1125.07 25.34 1125.57 24.24 1125.97 24.04C1129.97 21.94 1134.17 20.64 1137.37 17.24C1138.77 15.74 1140.37 13.74 1140.87 11.74C1141.77 7.83998 1135.57 3.63999 1133.77 8.73998C1133.57 8.93999 1132.57 9.43999 1132.67 8.83999Z" fill="#FEC10B" fill-opacity="0.3"/>
<path d="M1126.47 27.64C1130.77 27.84 1135.77 29.94 1138.97 32.94C1141.47 35.24 1143.97 39.24 1142.87 42.84C1141.87 45.94 1139.27 47.74 1135.97 47.54C1131.77 47.24 1129.37 43.14 1132.07 39.64C1132.47 39.14 1133.67 39.14 1133.17 40.04C1131.17 43.94 1136.77 47.74 1139.87 44.84C1141.57 43.24 1141.37 41.14 1140.57 39.24C1138.17 33.04 1131.87 30.54 1125.97 28.54C1125.47 28.24 1126.07 27.54 1126.47 27.64Z" fill="#FEC10B" fill-opacity="0.3"/>
<path d="M1148.87 14.94C1147.27 17.44 1145.47 19.84 1143.47 22.04C1141.67 23.84 1139.67 26.04 1137.17 26.94C1136.27 27.24 1136.27 26.24 1136.77 25.74C1138.77 23.94 1141.07 22.54 1142.97 20.54C1144.77 18.64 1146.37 16.64 1147.97 14.64C1148.27 14.14 1149.27 14.24 1148.87 14.94Z" fill="#FEC10B" fill-opacity="0.3"/>
<path d="M1137.07 25.64C1141.57 26.64 1148.07 30.34 1148.67 35.44C1148.77 36.04 1147.67 36.74 1147.27 36.24C1145.67 34.34 1144.87 32.24 1142.97 30.54C1141.07 28.84 1138.77 27.74 1136.37 26.64C1135.87 26.34 1136.67 25.54 1137.07 25.64Z" fill="#FEC10B" fill-opacity="0.3"/>
<path d="M1153.87 20.04C1152.27 22.64 1150.07 25.74 1147.07 26.74C1146.37 26.94 1146.37 26.14 1146.77 25.84C1147.87 24.84 1149.07 24.14 1150.07 23.04C1151.07 22.04 1151.97 20.84 1152.97 19.74C1153.27 19.24 1154.37 19.34 1153.87 20.04Z" fill="#FEC10B" fill-opacity="0.3"/>
<path d="M1147.47 25.44C1148.97 25.84 1150.37 26.44 1151.57 27.44C1152.67 28.44 1153.87 30.04 1153.77 31.54C1153.77 32.04 1152.97 32.74 1152.47 32.24C1151.97 31.64 1151.77 30.94 1151.37 30.24C1151.07 29.64 1150.67 29.14 1150.17 28.64C1149.17 27.64 1147.87 27.04 1146.67 26.44C1146.07 26.24 1146.97 25.24 1147.47 25.44Z" fill="#FEC10B" fill-opacity="0.3"/>
<path d="M1153.17 25.74C1155.87 24.54 1158.97 23.54 1161.97 23.74C1163.07 23.84 1166.37 24.34 1165.97 26.04C1165.67 27.44 1163.07 28.24 1161.87 28.44C1158.87 28.84 1155.77 28.14 1153.07 26.84C1152.37 26.44 1153.37 25.44 1153.97 25.54C1155.57 25.94 1157.17 26.34 1158.77 26.64C1159.97 26.84 1161.17 26.94 1162.37 26.74C1162.87 26.64 1163.37 26.54 1163.77 26.24C1164.37 25.94 1164.47 25.84 1163.97 26.04C1163.97 25.94 1161.97 25.44 1161.97 25.44C1160.77 25.24 1159.67 25.24 1158.47 25.44C1156.67 25.64 1154.97 26.34 1153.17 26.64C1152.57 26.74 1152.77 25.94 1153.17 25.74Z" fill="#FEC10B" fill-opacity="0.3"/>
<path d="M1113.76 27.3684C1065.67 28.4737 1017.43 27.6842 969.34 27.6842C923.089 27.6842 876.839 27.6842 830.741 27.8421C803.021 27.8421 775.301 27.8421 747.734 27.8421C745.743 27.8421 746.968 25 748.5 25C748.653 25 748.806 25 748.959 25C750.95 25 749.725 27.8421 748.194 27.8421C744.059 27.8421 740.077 27.8421 735.942 27.6842C733.951 27.6842 735.482 24.5263 737.167 25.3158C736.707 25.1579 736.554 25.1579 737.014 25.1579C738.852 25.1579 737.626 27.6842 736.401 27.6842C736.095 27.6842 736.095 27.6842 736.401 27.6842C734.563 28.3158 735.023 25.3158 736.707 25.3158C740.842 25.1579 744.977 25.1579 748.959 25.1579C750.95 25.1579 749.725 28 748.194 28C748.04 28 747.887 28 747.734 28C745.743 28 746.968 25.1579 748.5 25.1579C842.84 25.1579 937.179 25.3158 1031.37 25.3158C1059.09 25.3158 1086.65 25 1114.37 25.6316C1115.6 25.4737 1114.83 27.2105 1113.76 27.3684Z" fill="#FEC10B" fill-opacity="0.3"/>
<path d="M33.3334 8.83999C33.0334 6.13999 30.4334 4.73999 27.9334 5.03999C24.5334 5.43999 22.6334 8.63998 23.5334 11.84C25.4334 18.44 33.5334 24.04 40.0334 25.24C40.9334 25.34 40.4334 24.24 40.0334 24.04C36.0334 21.94 31.8334 20.64 28.6334 17.24C27.2334 15.74 25.6334 13.74 25.1334 11.74C24.2334 7.83998 30.4334 3.63999 32.2334 8.73998C32.4334 8.93999 33.4334 9.43999 33.3334 8.83999Z" fill="#FEC10B" fill-opacity="0.3"/>
<path d="M39.5334 27.64C35.2334 27.84 30.2334 29.94 27.0334 32.94C24.5334 35.24 22.0334 39.24 23.1334 42.84C24.1334 45.94 26.7334 47.74 30.0334 47.54C34.2334 47.24 36.6334 43.14 33.9334 39.64C33.5334 39.14 32.3334 39.14 32.8334 40.04C34.8334 43.94 29.2334 47.74 26.1334 44.84C24.4334 43.24 24.6334 41.14 25.4334 39.24C27.8334 33.04 34.1334 30.54 40.0334 28.54C40.5334 28.24 39.9334 27.54 39.5334 27.64Z" fill="#FEC10B" fill-opacity="0.3"/>
<path d="M17.1334 14.94C18.7334 17.44 20.5334 19.84 22.5334 22.04C24.3334 23.84 26.3334 26.04 28.8334 26.94C29.7334 27.24 29.7334 26.24 29.2334 25.74C27.2334 23.94 24.9334 22.54 23.0334 20.54C21.2334 18.64 19.6334 16.64 18.0334 14.64C17.7334 14.14 16.7334 14.24 17.1334 14.94Z" fill="#FEC10B" fill-opacity="0.3"/>
<path d="M28.9334 25.64C24.4334 26.64 17.9334 30.34 17.3334 35.44C17.2334 36.04 18.3334 36.74 18.7334 36.24C20.3334 34.34 21.1334 32.24 23.0334 30.54C24.9334 28.84 27.2334 27.74 29.6334 26.64C30.1334 26.34 29.3334 25.54 28.9334 25.64Z" fill="#FEC10B" fill-opacity="0.3"/>
<path d="M12.1334 20.04C13.7334 22.64 15.9334 25.74 18.9334 26.74C19.6334 26.94 19.6334 26.14 19.2334 25.84C18.1334 24.84 16.9334 24.14 15.9334 23.04C14.9334 22.04 14.0334 20.84 13.0334 19.74C12.7334 19.24 11.6334 19.34 12.1334 20.04Z" fill="#FEC10B" fill-opacity="0.3"/>
<path d="M18.5334 25.44C17.0334 25.84 15.6334 26.44 14.4334 27.44C13.3334 28.44 12.1334 30.04 12.2334 31.54C12.2334 32.04 13.0334 32.74 13.5334 32.24C14.0334 31.64 14.2334 30.94 14.6334 30.24C14.9334 29.64 15.3334 29.14 15.8334 28.64C16.8334 27.64 18.1334 27.04 19.3334 26.44C19.9334 26.24 19.0334 25.24 18.5334 25.44Z" fill="#FEC10B" fill-opacity="0.3"/>
<path d="M12.8334 25.74C10.1334 24.54 7.03343 23.54 4.03343 23.74C2.93343 23.84 -0.36657 24.34 0.0334303 26.04C0.33343 27.44 2.93343 28.24 4.13343 28.44C7.13343 28.84 10.2334 28.14 12.9334 26.84C13.6334 26.44 12.6334 25.44 12.0334 25.54C10.4334 25.94 8.83343 26.34 7.23343 26.64C6.03343 26.84 4.83343 26.94 3.63343 26.74C3.13343 26.64 2.63343 26.54 2.23343 26.24C1.63343 25.94 1.53343 25.84 2.03343 26.04C2.03343 25.94 4.03343 25.44 4.03343 25.44C5.23343 25.24 6.33343 25.24 7.53343 25.44C9.33343 25.64 11.0334 26.34 12.8334 26.64C13.4334 26.74 13.2334 25.94 12.8334 25.74Z" fill="#FEC10B" fill-opacity="0.3"/>
<path d="M52.2404 27.3684C100.329 28.4737 148.571 27.6842 196.66 27.6842C242.911 27.6842 289.161 27.6842 335.259 27.8421C362.979 27.8421 390.699 27.8421 418.266 27.8421C420.257 27.8421 419.032 25 417.5 25C417.347 25 417.194 25 417.041 25C415.05 25 416.275 27.8421 417.806 27.8421C421.941 27.8421 425.923 27.8421 430.058 27.6842C432.049 27.6842 430.518 24.5263 428.833 25.3158C429.293 25.1579 429.446 25.1579 428.986 25.1579C427.148 25.1579 428.374 27.6842 429.599 27.6842C429.905 27.6842 429.905 27.6842 429.599 27.6842C431.437 28.3158 430.977 25.3158 429.293 25.3158C425.158 25.1579 421.023 25.1579 417.041 25.1579C415.05 25.1579 416.275 28 417.806 28C417.96 28 418.113 28 418.266 28C420.257 28 419.032 25.1579 417.5 25.1579C323.16 25.1579 228.821 25.3158 134.634 25.3158C106.914 25.3158 79.3477 25 51.6278 25.6316C50.4026 25.4737 51.1683 27.2105 52.2404 27.3684Z" fill="#FEC10B" fill-opacity="0.3"/>
<rect x="491" y="25" width="184" height="14" fill="#FEC10B" fill-opacity="0.3"/>
<path d="M517.194 34.64H517.482V35H509.382V34.64H509.706C510.21 34.64 510.582 34.484 510.822 34.172C511.086 33.836 511.218 33.524 511.218 33.236C511.218 32.948 511.17 32.66 511.074 32.372L508.77 26.252H499.05L496.638 32.408C496.542 32.696 496.494 32.984 496.494 33.272C496.494 33.536 496.614 33.836 496.854 34.172C497.118 34.484 497.502 34.64 498.006 34.64H498.33V35H491.094V34.64H491.418C492.018 34.64 492.606 34.448 493.182 34.064C493.758 33.68 494.226 33.116 494.586 32.372L502.722 13.004C503.61 11.06 504.054 9.824 504.054 9.296H504.378L514.026 32.372C514.362 33.116 514.818 33.68 515.394 34.064C515.97 34.448 516.57 34.64 517.194 34.64ZM499.482 25.172H508.338L504.018 13.616L499.482 25.172ZM533.319 16.388C533.679 17.084 533.859 17.924 533.859 18.908C533.859 19.892 533.463 20.804 532.671 21.644C531.879 22.46 530.955 23 529.899 23.264C531.651 23.456 533.091 24.092 534.219 25.172C535.371 26.252 535.947 27.44 535.947 28.736C535.947 30.008 535.695 31.052 535.191 31.868C534.711 32.684 534.063 33.308 533.247 33.74C531.687 34.58 529.923 35 527.955 35H519.027V34.64H519.459C520.059 34.64 520.563 34.46 520.971 34.1C521.379 33.716 521.595 33.248 521.619 32.696V15.704C521.595 14.912 521.235 14.348 520.539 14.012C520.227 13.844 519.867 13.76 519.459 13.76H519.027V13.4H526.371C529.947 13.4 532.263 14.396 533.319 16.388ZM533.391 28.952C533.391 25.376 530.595 23.588 525.003 23.588V23.228C529.227 23.228 531.339 21.752 531.339 18.8C531.339 15.92 529.671 14.48 526.335 14.48H523.887V33.92H527.919C529.551 33.92 530.871 33.512 531.879 32.696C532.887 31.856 533.391 30.608 533.391 28.952ZM545.602 14.336C547.45 13.376 549.478 12.896 551.686 12.896C553.918 12.896 555.958 13.376 557.806 14.336C559.654 15.272 561.118 16.604 562.198 18.332C563.302 20.06 563.854 22.016 563.854 24.2C563.854 26.384 563.302 28.34 562.198 30.068C561.118 31.796 559.654 33.14 557.806 34.1C555.958 35.036 554.062 35.504 552.118 35.504C550.174 35.504 548.458 35.228 546.97 34.676C545.482 34.124 544.186 33.356 543.082 32.372C542.002 31.388 541.138 30.188 540.49 28.772C539.866 27.356 539.554 25.7 539.554 23.804C539.554 21.884 540.094 20.06 541.174 18.332C542.278 16.604 543.754 15.272 545.602 14.336ZM544.918 31.58C546.742 33.476 548.998 34.424 551.686 34.424C554.374 34.424 556.63 33.476 558.454 31.58C560.278 29.66 561.19 27.2 561.19 24.2C561.19 21.2 560.278 18.752 558.454 16.856C556.63 14.936 554.374 13.976 551.686 13.976C548.998 13.976 546.742 14.936 544.918 16.856C543.118 18.752 542.218 21.2 542.218 24.2C542.218 27.2 543.118 29.66 544.918 31.58ZM589.221 13.76H588.681C588.033 13.76 587.541 14.012 587.205 14.516C587.061 14.732 586.977 14.984 586.953 15.272V27.404C586.953 29.9 586.149 31.88 584.541 33.344C582.957 34.784 580.773 35.504 577.989 35.504C575.205 35.504 573.009 34.784 571.401 33.344C569.793 31.904 568.989 29.936 568.989 27.44V15.308C568.989 14.876 568.821 14.516 568.485 14.228C568.149 13.916 567.741 13.76 567.261 13.76H566.721V13.4H573.561V13.76H573.021C572.541 13.76 572.133 13.916 571.797 14.228C571.461 14.516 571.293 14.876 571.293 15.308V27.008C571.293 29.336 571.881 31.172 573.057 32.516C574.257 33.86 575.937 34.532 578.097 34.532C580.281 34.532 582.021 33.896 583.317 32.624C584.637 31.352 585.297 29.612 585.297 27.404V15.308C585.273 14.852 585.093 14.48 584.757 14.192C584.445 13.904 584.049 13.76 583.569 13.76H583.029V13.4H589.221V13.76ZM602.08 14.444V32.732C602.104 33.476 602.464 34.028 603.16 34.388C603.472 34.556 603.82 34.64 604.204 34.64H604.6V35H597.184V34.64H597.616C598.192 34.64 598.684 34.448 599.092 34.064C599.5 33.68 599.716 33.224 599.74 32.696V14.444H593.224C592.672 14.444 592.228 14.624 591.892 14.984C591.58 15.344 591.424 15.776 591.424 16.28V16.856H591.028V12.788C591.508 12.98 592.18 13.124 593.044 13.22C593.932 13.316 594.592 13.364 595.024 13.364H606.76C608.488 13.364 609.832 13.172 610.792 12.788V16.856H610.396V16.28C610.396 15.776 610.228 15.344 609.892 14.984C609.556 14.624 609.124 14.444 608.596 14.444H602.08ZM652.701 34.64H653.277V35H645.465V34.676H646.005C646.413 34.676 646.761 34.52 647.049 34.208C647.337 33.872 647.457 33.512 647.409 33.128L645.789 15.02L638.229 31.832C637.557 33.296 637.149 34.52 637.005 35.504H636.645L627.429 15.524L625.881 33.128C625.833 33.512 625.953 33.872 626.241 34.208C626.529 34.52 626.865 34.676 627.249 34.676H627.825V35H620.841V34.64H621.417C622.089 34.64 622.665 34.436 623.145 34.028C623.649 33.62 623.949 33.068 624.045 32.372L626.745 9.296H627.105L637.149 31.004L646.977 9.296H647.301L650.073 32.372C650.193 33.332 650.673 34.004 651.513 34.388C651.873 34.556 652.269 34.64 652.701 34.64ZM656.433 34.64C657.057 34.64 657.585 34.424 658.017 33.992C658.473 33.536 658.713 32.996 658.737 32.372V12.212C658.665 11.636 658.413 11.156 657.981 10.772C657.549 10.364 657.033 10.16 656.433 10.16H656.001L655.965 9.8H666.513C667.257 9.8 668.061 9.728 668.925 9.584C669.813 9.44 670.437 9.296 670.797 9.152V13.688H670.437V13.04C670.437 12.464 670.233 11.972 669.825 11.564C669.441 11.156 668.973 10.94 668.421 10.916H661.077V22.04H667.161C667.641 22.016 668.049 21.836 668.385 21.5C668.721 21.164 668.889 20.744 668.889 20.24V19.736H669.249V25.424H668.889V24.884C668.889 24.404 668.721 23.996 668.385 23.66C668.073 23.324 667.677 23.144 667.197 23.12H661.077V33.884H666.225C668.001 33.884 669.357 33.488 670.293 32.696C671.229 31.904 672.009 30.728 672.633 29.168H672.993L670.905 35H655.965V34.64H656.433Z" fill="#333333"/>
</svg>
