<svg width="304" height="264" viewBox="0 0 304 264" fill="none" xmlns="http://www.w3.org/2000/svg">
<g opacity="0.5">
<path fill-rule="evenodd" clip-rule="evenodd" d="M219.189 0.799851C217.964 3.7387 216.005 7.41225 216.985 12.8001C217.72 16.9635 218.944 20.882 219.434 24.0657C220.169 28.2291 219.679 32.8823 217.72 36.5558C214.291 42.4335 207.923 46.5969 204.25 48.5561C203.515 48.801 203.27 48.5561 203.27 48.0663C206.454 45.8622 212.087 42.4335 215.026 37.0456C216.74 34.1068 217.23 30.1883 216.74 26.5148C216.005 22.3514 213.556 17.9431 210.617 15.9839L192.25 47.8214C190.78 50.2704 187.841 51.7398 184.657 52.2297C181.474 52.7195 178.045 51.9848 175.351 50.5153C173.637 49.5357 172.412 48.0663 171.922 46.8418C171.188 45.3723 171.433 43.658 172.167 42.1886C173.392 39.9845 176.576 38.515 179.759 38.0252C182.943 37.5354 186.372 38.0252 188.821 39.4947C190.78 40.7192 192.494 41.9437 192.984 43.4131C201.311 28.9638 209.638 14.5145 217.964 0.0651412C218.454 -0.179763 218.944 0.310043 219.189 0.799851Z" fill="url(#paint0_linear)"/>
<path fill-rule="evenodd" clip-rule="evenodd" d="M262.292 87.0059L269.394 80.6384C276.986 82.8425 285.068 82.5976 291.925 78.9241C297.313 75.9852 304.905 66.6789 302.946 64.9646C298.538 61.0461 288.252 63.985 283.844 66.434C280.17 68.3932 276.986 71.0872 273.803 74.026C264.251 71.3321 252.986 67.4136 243.924 73.2913C235.108 79.169 231.924 90.1897 236.822 98.7613C237.557 100.231 238.781 101.7 240.006 103.17L233.149 109.292C232.169 110.272 230.944 111.006 229.965 111.741C226.046 113.7 221.883 113.211 218.699 108.802C217.72 107.578 216.74 104.149 218.209 103.17C218.699 104.884 222.128 108.068 225.801 105.619C228.495 104.149 229.23 100.231 227.516 97.7817C225.557 95.0877 221.393 94.5979 218.699 96.5572C214.536 99.496 214.536 105.864 217.23 109.782C220.658 114.925 225.801 116.149 230.7 113.456C231.434 112.966 232.169 112.721 232.904 111.986L241.72 104.394C246.618 107.823 252.251 109.047 257.394 106.108C263.762 102.68 266.7 95.0877 263.027 88.7202C263.272 88.2304 262.782 87.7406 262.292 87.0059ZM256.414 89.9448L242.21 102.435C241.23 101.455 240.496 100.476 239.761 99.496C235.353 92.3938 236.332 83.0875 243.924 78.9241C251.516 74.7607 260.088 77.6996 267.68 80.3935L261.312 86.0263C257.884 83.0875 252.006 82.1078 248.088 84.312C243.924 86.5161 241.965 91.1693 242.7 95.8225C242.945 96.3123 243.19 96.3123 243.679 96.3123C243.924 96.3123 243.924 96.0674 243.924 95.5775C243.679 92.8836 244.414 90.1897 246.863 88.7202C249.802 86.761 253.965 87.4957 256.414 89.9448ZM295.109 74.7607C289.721 77.9445 282.129 77.2098 276.497 75.0056C278.211 73.2913 280.17 71.8219 282.129 70.8423C285.558 68.883 293.395 66.6789 296.824 70.3525C297.558 71.8219 296.579 73.7811 295.109 74.7607ZM257.394 91.4142C259.843 95.8225 258.619 101.21 254.455 103.904C251.027 106.108 246.618 105.619 243.435 103.659L257.394 91.4142Z" fill="url(#paint1_linear)"/>
<path fill-rule="evenodd" clip-rule="evenodd" d="M129.799 195.253L126.125 194.764C124.901 192.07 122.452 189.621 119.513 188.641C117.309 187.906 112.411 188.151 112.411 189.131C112.411 191.335 116.084 193.539 118.044 194.274C119.513 194.764 121.227 195.009 122.942 195.009C124.656 198.437 126.615 202.845 130.779 203.825C134.942 204.805 138.86 202.601 140.085 198.927C140.33 198.192 140.33 197.458 140.575 196.723L144.248 196.968C144.738 196.968 145.473 197.213 145.718 197.213C147.432 197.702 148.167 199.172 147.922 201.131C147.677 201.866 147.187 202.845 146.452 202.845C146.697 202.356 146.942 200.396 145.228 199.907C144.003 199.662 142.779 200.396 142.534 201.621C142.289 202.845 143.269 204.315 144.493 204.56C146.452 205.05 148.412 203.335 148.657 201.376C149.146 198.927 148.167 197.213 146.207 196.478C145.963 196.478 145.718 196.233 145.228 196.233L140.82 195.743C140.575 193.294 139.35 191.335 137.146 190.845C134.452 189.866 131.513 191.09 130.534 194.029C130.044 194.764 129.799 195.009 129.799 195.253ZM132.003 196.233L139.35 196.968C139.35 197.458 139.35 197.947 139.105 198.437C138.126 201.621 135.432 203.825 132.248 202.601C129.064 201.621 127.595 198.192 126.37 195.498L129.799 195.743C129.799 197.458 131.023 199.417 132.738 199.907C134.452 200.396 136.411 199.907 137.391 198.437C137.391 198.192 137.391 198.192 137.391 198.192H137.146C136.411 198.927 135.432 199.417 134.452 199.172C132.738 198.927 131.758 197.702 132.003 196.233ZM117.309 189.131C119.758 189.866 121.472 192.315 122.207 194.274C121.227 194.274 120.248 194.029 119.513 193.784C118.044 193.294 115.35 191.58 115.595 189.866C115.839 189.131 116.574 189.131 117.309 189.131ZM132.003 195.498C132.493 193.539 134.452 192.56 136.411 193.049C137.881 193.539 138.86 194.764 139.105 196.233L132.003 195.498Z" fill="url(#paint2_linear)"/>
<path fill-rule="evenodd" clip-rule="evenodd" d="M47.2664 171.988L42.6132 171.498C40.8989 168.069 37.96 165.375 34.2865 164.151C31.3476 163.171 25.7148 163.661 25.7148 164.885C25.9597 167.824 30.368 170.273 32.5722 171.008C34.5314 171.498 36.4906 171.988 38.4498 171.988C40.654 176.151 43.103 181.539 48.246 182.763C53.1441 183.988 58.0421 181.294 59.5116 176.641C59.7565 175.906 60.0014 174.927 60.0014 173.947L64.4096 174.192C65.1444 174.192 65.8791 174.437 66.3689 174.437C68.3281 175.171 69.5526 176.886 69.0628 179.335C68.8179 180.07 68.0832 181.539 67.1036 181.294C67.5934 180.559 67.5934 178.355 65.3893 177.865C63.9198 177.376 62.4504 178.355 61.9606 179.825C61.7157 181.539 62.9402 183.008 64.6546 183.253C67.1036 183.743 69.3077 181.539 69.7975 179.335C70.2873 176.396 69.3077 174.192 66.6138 173.457C66.3689 173.457 65.8791 173.212 65.3893 173.212L59.7565 172.722C59.2667 169.784 57.7972 167.579 55.1033 166.6C51.6747 165.62 48.0011 167.09 47.0215 170.518C47.2664 171.253 47.2664 171.743 47.2664 171.988ZM50.2052 173.212L59.2667 173.947C59.2667 174.682 59.2667 175.171 59.0218 175.906C58.0422 179.825 54.3686 182.519 50.4501 181.294C46.5317 180.07 44.5724 176.151 42.8581 172.477L47.0215 172.967C47.0215 175.171 48.7358 177.62 50.9399 178.11C53.1441 178.845 55.3482 177.865 56.8176 176.151C56.8176 175.906 56.8176 175.661 56.5727 175.661H56.3278C55.3482 176.641 54.3686 177.376 52.8992 176.886C51.1848 176.641 50.2052 174.927 50.2052 173.212ZM31.8374 164.641C34.7763 165.375 36.9804 168.314 38.2049 171.008C36.9804 171.008 36.0008 170.763 34.7763 170.518C32.8171 169.784 29.3884 168.069 29.6333 165.62C29.8782 164.885 30.8578 164.396 31.8374 164.641ZM50.2052 172.233C50.9399 169.784 53.1441 168.559 55.5931 169.049C57.5523 169.539 58.7769 171.253 59.2667 172.967L50.2052 172.233Z" fill="url(#paint3_linear)"/>
<path fill-rule="evenodd" clip-rule="evenodd" d="M119.023 51.2499C119.268 53.454 118.289 55.6581 116.574 57.1276C114.86 58.8419 112.411 60.0664 110.452 60.3113C108.982 60.5562 107.758 60.3113 106.778 59.5766C105.798 59.0868 105.064 58.1072 105.064 56.8827C104.819 54.9234 105.798 52.7193 107.513 51.005C109.227 49.2906 111.431 48.0661 113.39 47.5763C115.105 47.3314 116.574 47.3314 117.554 48.0661C115.84 35.8209 114.125 23.8206 112.411 11.5754C112.901 11.0856 113.146 11.0856 113.635 11.3305L119.023 51.2499Z" fill="#FEC10B"/>
<path fill-rule="evenodd" clip-rule="evenodd" d="M104.819 250.602C106.288 251.581 107.023 253.541 107.023 255.5C107.023 257.459 106.533 259.663 105.309 261.133C104.574 262.112 103.594 262.847 102.86 263.092C101.88 263.337 100.9 263.337 100.166 262.602C98.6963 261.623 97.9616 259.663 97.9616 257.704C97.7167 255.745 98.4514 253.541 99.431 252.071C100.166 250.847 101.145 250.112 102.125 249.867C93.5533 243.745 84.9817 237.867 76.41 231.744C76.41 231.254 76.6549 231.01 77.1447 230.765L104.819 250.602Z" fill="url(#paint4_linear)"/>
<path fill-rule="evenodd" clip-rule="evenodd" d="M37.2254 201.131C38.6948 200.886 40.4091 201.376 41.6336 202.6C42.8582 203.825 43.8378 205.294 44.3276 207.009C44.5725 207.988 44.3276 208.968 44.0827 209.703C43.5929 210.437 43.1031 210.927 42.1235 211.172C40.654 211.417 39.1846 210.927 37.9601 209.703C36.7356 208.723 35.5111 207.009 35.2662 205.539C35.0212 204.315 35.0212 203.335 35.5111 202.6C26.9394 204.315 18.3678 206.274 9.79615 207.988C9.30634 207.743 9.30634 207.499 9.55125 207.009L37.2254 201.131Z" fill="url(#paint5_linear)"/>
<path fill-rule="evenodd" clip-rule="evenodd" d="M0.734714 107.333C2.69395 108.313 4.65318 110.027 8.32673 109.782C11.0207 109.537 13.7146 109.048 15.6739 109.048C18.3678 108.803 21.3066 109.537 23.5108 111.252C26.9394 113.946 29.1436 118.354 30.1232 121.048C30.1232 121.538 30.1232 121.538 29.6334 121.538C28.4088 119.334 26.6945 115.415 23.5108 112.966C21.7964 111.742 19.3474 111.007 16.8984 111.007C14.2044 111.007 11.2656 112.231 9.55125 114.191L28.4088 128.64C29.8783 129.864 30.613 131.824 30.613 134.028C30.613 136.232 29.8783 138.436 28.6538 139.905C27.919 140.885 26.9394 141.62 25.9598 141.865C24.9802 142.11 24.0006 141.865 23.021 141.375C21.5515 140.395 21.0617 138.191 21.0617 136.232C21.0617 134.028 21.5515 131.824 22.7761 130.599C23.7557 129.375 24.7353 128.395 25.7149 128.15C17.1433 121.538 8.57163 114.925 0 108.558C0 107.823 0.244907 107.578 0.734714 107.333Z" fill="url(#paint6_linear)"/>
<path fill-rule="evenodd" clip-rule="evenodd" d="M62.4504 122.762C71.0221 127.905 79.5937 133.293 88.1653 138.436C86.9408 139.17 86.2061 139.905 85.7163 140.885C84.002 144.068 84.002 149.211 86.9408 151.171C88.1653 151.905 89.3899 152.395 90.8593 151.66C91.8389 151.171 92.3287 150.436 92.8185 149.456C94.5328 146.518 94.5328 141.13 91.594 139.17L62.9402 121.782C62.6953 121.782 62.4504 122.272 62.4504 122.762ZM87.4306 146.518C87.1857 144.803 87.1857 141.13 88.4103 139.66C88.6552 139.415 89.145 139.17 89.3899 139.415C90.6144 139.905 91.1042 142.354 91.3491 144.803C91.594 147.007 91.1042 149.456 90.3695 150.436C89.8797 150.926 89.6348 151.171 89.145 150.926C88.1653 150.436 87.6755 148.477 87.4306 146.518Z" fill="url(#paint7_linear)"/>
<path fill-rule="evenodd" clip-rule="evenodd" d="M70.7772 202.846C75.6753 205.784 80.8183 208.968 85.7164 211.907C84.9816 212.397 84.4918 212.887 84.2469 213.376C83.2673 215.091 83.2673 218.274 84.9816 219.254C85.7164 219.744 86.4511 219.989 87.1858 219.499C87.6756 219.254 88.1654 218.764 88.4103 218.274C89.3899 216.56 89.3899 213.376 87.6756 212.397L71.0221 202.111C70.7772 202.356 70.7772 202.601 70.7772 202.846ZM85.2265 216.805C85.2265 215.825 84.9816 213.621 85.7164 212.887C85.9613 212.642 86.2062 212.642 86.4511 212.642C87.1858 212.887 87.4307 214.356 87.6756 215.825C87.6756 217.295 87.6756 218.519 87.1858 219.009C86.9409 219.254 86.696 219.499 86.4511 219.254C85.7164 219.009 85.2265 217.785 85.2265 216.805Z" fill="url(#paint8_linear)"/>
<path fill-rule="evenodd" clip-rule="evenodd" d="M73.2262 74.271L86.451 89.455C85.2265 89.455 83.757 90.1897 82.5325 91.4142C80.5733 92.8836 79.3488 95.3327 78.859 97.7817C78.3692 100.231 78.6141 102.68 79.8386 104.394C80.8182 105.374 81.7978 105.864 83.0223 105.864C84.2469 105.864 85.4714 105.374 86.6959 104.394C88.4102 102.925 89.8796 100.476 90.3695 98.0266C90.8593 95.5776 90.6144 93.1286 89.1449 91.4142L61.7157 59.0869L60.7361 59.8216C60.981 60.3114 62.4504 62.5156 61.9606 65.4544C61.4708 68.8831 60.981 71.577 60.981 74.026C60.981 78.6792 63.43 82.8426 65.3893 85.2916C66.3689 86.5161 67.1036 87.0059 68.0832 87.4958C68.573 89.2101 69.3077 90.6795 70.5322 92.1489C72.7364 94.8429 75.6752 96.3123 77.8794 97.047C78.1243 96.8021 78.3692 96.5572 78.1243 96.0674C77.1446 96.0674 73.716 93.8633 72.2466 92.1489C70.5322 89.9448 69.7975 88.7203 69.5526 86.0263C69.7975 83.0875 72.2466 77.6996 73.2262 74.271ZM68.0832 86.761C67.5934 86.2712 67.1036 85.5365 66.6138 85.0467C65.8791 84.0671 64.6545 81.863 64.1647 80.3936C62.6953 75.0057 64.1647 71.3321 65.8791 66.1891C68.0832 69.128 68.8179 73.2913 68.3281 76.4751C67.8383 79.9037 67.5934 81.6181 67.5934 83.8222C67.8383 84.8018 67.8383 85.7814 68.0832 86.761Z" fill="url(#paint9_linear)"/>
<path fill-rule="evenodd" clip-rule="evenodd" d="M95.5125 170.518L108.492 170.029C108.003 170.763 107.758 171.743 108.003 172.967C108.003 174.437 108.737 175.906 109.962 177.131C110.941 178.355 112.411 179.335 113.635 179.335C114.37 179.335 115.105 178.845 115.595 178.11C116.084 177.376 116.329 176.641 116.329 175.661C116.329 174.192 115.595 172.478 114.615 171.253C113.635 170.029 112.166 169.049 110.697 169.294L83.2673 170.518V171.253C83.7571 171.253 85.2266 171.498 86.696 172.967C88.1654 174.682 89.3899 175.906 90.6144 176.886C93.0635 178.845 96.0023 179.335 98.2065 179.09C99.1861 179.09 99.9208 178.845 100.411 178.6C101.39 179.09 102.615 179.335 103.839 179.09C106.043 179.09 108.003 178.11 109.227 177.376C109.227 177.131 109.227 176.886 108.737 176.886C108.248 177.376 105.798 178.355 104.329 178.355C102.615 178.355 101.635 178.355 100.166 177.131C98.6963 175.661 96.9819 172.233 95.5125 170.518ZM99.9208 178.11C99.431 178.11 98.9412 178.11 98.4514 178.11C97.7167 178.11 96.0023 177.866 95.0227 177.376C91.839 175.906 90.3696 173.702 88.4103 170.763C90.8594 170.763 93.3084 172.233 94.5329 173.702C96.0023 175.416 96.737 176.151 97.9616 177.131C98.6963 177.376 99.431 177.866 99.9208 178.11Z" fill="url(#paint10_linear)"/>
<path fill-rule="evenodd" clip-rule="evenodd" d="M156.004 69.3728L154.534 88.4753C153.8 87.4957 152.33 87.2508 150.616 87.2508C148.657 87.0059 146.208 87.7406 144.248 89.21C142.289 90.4345 140.575 92.3938 140.575 94.353C140.575 95.5775 140.82 96.802 141.799 97.5367C142.534 98.2715 143.759 98.7613 145.228 99.0062C147.432 99.2511 149.881 98.5163 152.085 97.2918C154.045 96.0673 155.514 94.1081 155.759 91.9039L158.943 51.9846H157.718C157.473 52.4744 156.983 54.9235 154.779 56.6378C152.085 58.597 150.126 60.0664 148.412 61.7808C145.228 64.9645 144.003 69.3728 143.759 72.3116C143.759 73.7811 143.759 74.7607 144.003 75.7403C143.024 77.2097 142.534 78.6791 142.534 80.3935C141.799 83.0874 142.534 86.0263 143.759 87.9855C144.248 87.9855 144.493 87.9855 144.493 87.4957C144.003 86.761 143.024 83.0874 143.269 80.8833C143.514 78.4342 144.003 76.9648 145.718 75.0056C147.677 72.8015 153.065 70.8422 156.004 69.3728ZM144.003 74.2709C144.003 73.5362 144.003 72.8014 144.248 72.0667C144.493 70.8422 144.983 68.6381 145.718 67.1687C148.412 62.7604 151.84 61.0461 156.494 58.8419C156.004 62.2706 153.555 65.6992 151.106 67.1687C148.412 69.1279 147.187 70.1075 145.718 71.5769C145.228 72.8014 144.738 73.5362 144.003 74.2709Z" fill="url(#paint11_linear)"/>
<path d="M56.0829 139.171C56.0829 139.171 54.1237 139.171 51.6747 136.477C49.4705 134.028 47.0215 128.64 48.9807 122.272C52.8992 108.558 76.8998 103.17 97.2268 113.211C117.799 123.252 134.942 147.252 139.84 175.661C142.289 189.866 141.799 205.295 136.901 219.744C132.003 233.948 123.676 248.643 109.227 255.745C102.37 259.173 93.3083 260.153 86.451 255.745C79.5937 251.581 74.9405 244.969 71.5119 237.867C64.8995 223.418 63.9199 207.254 66.6138 192.315C72.9813 162.436 91.1042 137.456 111.186 121.782C131.268 105.864 154.779 98.7615 172.167 102.435C189.8 105.864 199.107 116.395 202.046 121.048C205.229 125.946 206.944 132.558 204.984 138.191C203.27 143.824 198.372 147.742 193.964 149.701C184.657 153.865 177.8 148.722 177.8 148.232C177.555 147.252 180.249 151.171 188.331 150.191C192.249 149.701 197.392 147.742 201.066 142.844C204.984 138.191 205.964 129.619 201.311 122.272C199.352 118.844 192.005 108.558 175.841 104.149C159.922 99.0064 136.411 104.394 115.839 119.088C95.2675 133.538 76.41 157.538 68.3281 186.927C64.4097 201.621 64.6546 217.785 69.7976 232.724C72.4915 240.071 76.41 247.173 82.5326 252.316C88.4102 257.704 96.9819 259.663 104.574 256.969C119.758 252.071 129.554 237.377 134.942 223.173C140.575 208.723 141.799 193.049 139.595 178.6C135.677 149.946 119.268 124.721 98.4513 113.946C78.1243 102.925 53.6339 108.068 48.9807 121.782C46.7766 128.15 49.2256 133.783 51.4298 136.477C53.8788 139.171 56.0829 139.171 56.0829 139.171Z" fill="url(#paint12_linear)"/>
<path d="M58.287 142.109C58.287 142.109 56.0829 141.864 54.1237 138.681C52.1644 135.742 50.9399 129.374 55.1033 123.742C64.4096 112.231 89.8796 116.149 105.798 133.783C121.962 151.416 131.023 181.294 123.676 210.927C120.003 225.622 110.941 239.826 97.2267 248.398C90.6143 252.806 82.2876 255.5 74.2058 254.52C66.1239 253.296 58.7768 247.908 54.3686 241.05C45.3071 227.091 43.8377 209.458 45.3071 193.294C47.0214 176.886 52.1644 160.967 60.2463 147.252C76.165 119.578 100.9 99.2511 125.88 89.2101C150.861 78.6792 176.82 79.6588 192.739 89.2101C209.148 98.2715 215.515 111.251 217.23 116.884C219.189 122.762 219.434 129.619 216.495 135.252C213.556 140.885 208.413 144.313 203.515 145.783C193.229 148.967 186.617 143.334 186.862 143.089C186.617 142.109 189.311 146.028 197.882 145.783C202.046 145.538 207.433 144.069 212.087 139.66C216.985 135.252 218.944 126.925 216.495 118.354C215.515 114.19 210.862 102.19 195.923 92.3938C188.576 87.4957 179.025 83.8222 167.759 82.8426C156.493 82.1079 144.003 83.8222 131.513 87.9856C106.288 96.5572 80.8182 115.905 63.6749 142.844C55.1033 156.314 48.7358 171.743 46.2867 188.151C43.8377 204.315 44.5724 221.948 52.1644 236.887C55.838 244.234 61.9606 250.847 69.7975 253.296C77.6344 255.99 86.2061 254.275 93.3083 250.357C107.758 242.765 117.799 228.805 122.207 214.356C131.023 184.723 122.452 153.865 106.533 135.497C90.8592 116.884 65.1443 112.476 55.1033 123.497C50.695 129.129 51.9195 135.742 53.6339 138.681C56.0829 141.864 58.5319 142.109 58.287 142.109Z" fill="url(#paint13_linear)"/>
<path d="M59.7565 144.069C60.0014 144.069 57.3075 143.579 55.8381 140.15C54.3686 136.966 54.3687 129.619 60.9811 125.946C74.6957 119.823 97.7166 132.803 106.533 156.314C111.186 168.069 113.146 181.784 111.186 196.233C108.982 210.193 103.349 225.867 90.6144 235.663C78.1243 245.214 59.0218 249.132 44.5725 239.581C30.8579 228.805 26.2047 210.193 26.2047 193.294C26.6945 158.518 43.348 124.966 66.8587 101.211C90.3695 77.4549 120.982 63.4953 149.146 60.0667C163.106 58.3524 176.821 59.5769 188.331 63.0055C200.086 66.6791 209.638 72.5568 216.74 79.1692C231.189 92.6389 234.863 107.088 235.597 113.211C236.577 119.578 235.353 126.681 231.679 132.068C228.005 137.456 221.883 140.395 216.74 141.13C205.719 143.089 199.352 136.966 199.352 136.477C199.352 135.497 201.801 139.66 210.617 140.395C214.781 140.64 220.903 139.905 226.291 135.742C231.924 131.824 235.353 123.497 234.373 114.19C234.128 109.782 231.679 96.5574 218.944 82.8428C206.699 69.1281 182.943 57.8626 154.779 60.0667C126.86 61.781 96.0023 74.516 71.267 97.2921C46.7766 119.823 28.6538 152.885 26.6945 187.906C25.7149 205.05 29.1436 223.662 41.1438 235.908C54.1237 247.908 74.2059 245.459 87.4307 236.887C101.39 228.071 107.758 212.397 110.452 198.192C113.146 183.743 111.431 169.539 107.023 157.538C98.9411 133.783 75.9202 119.823 61.7158 125.701C54.6136 128.885 54.6136 136.722 56.083 139.905C57.3075 143.579 60.0014 143.824 59.7565 144.069Z" fill="url(#paint14_linear)"/>
<path d="M61.2259 144.314C61.4708 144.314 58.7769 143.824 57.5524 139.661C56.3279 136.232 58.7769 127.66 67.1036 128.395C82.5326 129.13 99.9208 149.947 99.6758 176.396C99.6758 189.376 96.2472 204.07 87.1858 216.316C78.3692 228.316 62.2056 237.867 45.5521 233.704C29.1435 229.295 17.6331 212.887 14.2044 195.989C10.2859 178.6 12.4901 160.233 18.1229 142.844C29.3884 108.313 53.389 77.9449 83.2673 59.5771C112.901 40.9644 147.677 33.8622 177.065 37.5358C206.944 40.7195 230.21 56.3933 241.965 72.8019C254.21 89.2105 255.924 104.639 255.68 111.252C255.68 118.109 253.72 125.211 249.067 130.354C244.414 135.252 237.557 137.212 232.169 137.212C220.658 137.212 214.781 130.354 214.781 129.865C214.781 128.885 216.985 133.293 226.046 135.497C230.454 136.477 236.577 136.722 243.189 133.538C249.802 130.354 254.455 122.272 254.945 112.476C255.435 107.823 254.7 93.8636 244.169 77.4551C239.026 69.3733 231.189 61.0465 221.148 53.9443C210.862 47.087 197.882 41.944 183.433 39.2501C154.534 34.1071 120.003 39.495 89.3899 56.6383C58.7769 73.7815 33.3069 103.415 20.5719 137.946C14.4493 155.09 11.2656 173.702 14.2044 191.335C16.6534 208.724 26.6945 225.867 42.6132 232.234C58.7769 238.357 76.41 230.275 85.9612 218.275C95.7574 206.274 99.9208 191.58 100.166 178.111C101.39 151.171 84.002 129.62 68.3282 128.15C59.7565 127.171 56.8177 135.742 58.0422 139.171C58.532 143.579 61.4708 144.069 61.2259 144.314Z" fill="url(#paint15_linear)"/>
<path d="M62.9403 142.844C63.1852 142.844 60.2464 142.11 59.7566 137.701C59.5117 135.742 60.2464 132.803 62.6954 131.089C65.1445 129.13 69.0629 130.109 72.4916 131.824C86.4511 139.171 96.4922 165.375 85.4715 190.845C80.3285 203.091 69.7976 216.071 53.8789 219.254C46.2869 220.969 37.7152 219.499 30.3681 215.826C23.021 211.907 17.1433 205.54 12.735 197.948C-4.16331 166.6 4.89813 125.456 24.2455 94.1084C43.8378 62.026 74.6957 36.556 108.982 24.3108C143.269 12.0656 179.759 13.0452 208.658 23.3312C238.047 33.1274 258.618 53.4544 268.17 72.0671C278.211 90.6797 278.211 106.599 276.986 113.456C276.007 120.313 273.068 127.66 267.19 131.824C261.312 135.987 254.21 136.232 248.577 135.007C237.067 132.558 231.924 124.966 231.924 124.476C231.924 123.497 233.883 127.905 242.7 132.069C247.108 133.783 253.231 135.497 260.333 133.783C267.68 132.313 273.803 124.476 275.517 114.191C276.496 109.292 277.721 94.8431 269.149 76.7202C261.068 58.8423 242.7 37.5356 214.046 26.27C186.127 14.7596 149.636 12.0656 114.86 22.8414C80.0836 33.3723 48.0012 57.8626 27.1844 89.7001C7.10226 120.558 -3.67351 161.457 11.2656 194.274C18.1229 210.438 34.7764 221.458 50.94 219.254C67.1037 217.295 78.8591 204.805 84.247 192.315C96.4922 166.845 86.696 139.905 72.7365 131.824C69.3078 129.864 65.3894 128.885 62.6954 130.599C60.0015 132.313 59.5117 135.252 59.5117 137.211C60.2464 142.11 63.1852 142.844 62.9403 142.844Z" fill="url(#paint16_linear)"/>
</g>
<defs>
<linearGradient id="paint0_linear" x1="-106.378" y1="15.3018" x2="130.411" y2="23.594" gradientUnits="userSpaceOnUse">
<stop stop-color="white"/>
<stop offset="1" stop-color="#FEC10B"/>
</linearGradient>
<linearGradient id="paint1_linear" x1="-108.498" y1="76.1959" x2="128.285" y2="84.4878" gradientUnits="userSpaceOnUse">
<stop stop-color="white"/>
<stop offset="1" stop-color="#FEC10B"/>
</linearGradient>
<linearGradient id="paint2_linear" x1="-112.41" y1="188.308" x2="124.355" y2="196.599" gradientUnits="userSpaceOnUse">
<stop stop-color="white"/>
<stop offset="1" stop-color="#FEC10B"/>
</linearGradient>
<linearGradient id="paint3_linear" x1="-111.734" y1="168.262" x2="125.053" y2="176.554" gradientUnits="userSpaceOnUse">
<stop stop-color="white"/>
<stop offset="1" stop-color="#FEC10B"/>
</linearGradient>
<linearGradient id="paint4_linear" x1="-114.243" y1="240.123" x2="122.539" y2="248.415" gradientUnits="userSpaceOnUse">
<stop stop-color="white"/>
<stop offset="1" stop-color="#FEC10B"/>
</linearGradient>
<linearGradient id="paint5_linear" x1="-112.869" y1="200.811" x2="123.909" y2="209.103" gradientUnits="userSpaceOnUse">
<stop stop-color="white"/>
<stop offset="1" stop-color="#FEC10B"/>
</linearGradient>
<linearGradient id="paint6_linear" x1="-110.064" y1="120.298" x2="126.747" y2="128.591" gradientUnits="userSpaceOnUse">
<stop stop-color="white"/>
<stop offset="1" stop-color="#FEC10B"/>
</linearGradient>
<linearGradient id="paint7_linear" x1="-110.403" y1="130.314" x2="126.382" y2="138.607" gradientUnits="userSpaceOnUse">
<stop stop-color="white"/>
<stop offset="1" stop-color="#FEC10B"/>
</linearGradient>
<linearGradient id="paint8_linear" x1="-112.955" y1="204.354" x2="123.782" y2="212.645" gradientUnits="userSpaceOnUse">
<stop stop-color="white"/>
<stop offset="1" stop-color="#FEC10B"/>
</linearGradient>
<linearGradient id="paint9_linear" x1="-108.483" y1="76.0472" x2="128.28" y2="84.3385" gradientUnits="userSpaceOnUse">
<stop stop-color="white"/>
<stop offset="1" stop-color="#FEC10B"/>
</linearGradient>
<linearGradient id="paint10_linear" x1="-111.655" y1="166.342" x2="125.12" y2="174.634" gradientUnits="userSpaceOnUse">
<stop stop-color="white"/>
<stop offset="1" stop-color="#FEC10B"/>
</linearGradient>
<linearGradient id="paint11_linear" x1="-108.204" y1="65.94" x2="128.632" y2="74.2339" gradientUnits="userSpaceOnUse">
<stop stop-color="white"/>
<stop offset="1" stop-color="#FEC10B"/>
</linearGradient>
<linearGradient id="paint12_linear" x1="-110.09" y1="172.214" x2="192.116" y2="182.349" gradientUnits="userSpaceOnUse">
<stop stop-color="white"/>
<stop offset="1" stop-color="#FEC10B"/>
</linearGradient>
<linearGradient id="paint13_linear" x1="-109.703" y1="160.649" x2="192.503" y2="170.784" gradientUnits="userSpaceOnUse">
<stop stop-color="white"/>
<stop offset="1" stop-color="#FEC10B"/>
</linearGradient>
<linearGradient id="paint14_linear" x1="-109.173" y1="144.732" x2="193.037" y2="154.867" gradientUnits="userSpaceOnUse">
<stop stop-color="white"/>
<stop offset="1" stop-color="#FEC10B"/>
</linearGradient>
<linearGradient id="paint15_linear" x1="-108.621" y1="128.422" x2="193.581" y2="138.557" gradientUnits="userSpaceOnUse">
<stop stop-color="white"/>
<stop offset="1" stop-color="#FEC10B"/>
</linearGradient>
<linearGradient id="paint16_linear" x1="-108.012" y1="110.307" x2="194.193" y2="120.441" gradientUnits="userSpaceOnUse">
<stop stop-color="white"/>
<stop offset="1" stop-color="#FEC10B"/>
</linearGradient>
</defs>
</svg>
