<svg width="48" height="50" viewBox="0 0 48 50" fill="none" xmlns="http://www.w3.org/2000/svg">
<path d="M32.8788 0.543419C35.5328 0.224943 38.1571 1.64562 38.6236 4.26609C38.5586 4.23878 38.4919 4.20652 38.4285 4.17195C38.3761 4.14336 38.3301 4.11542 38.2931 4.09075C37.7208 2.56544 36.7936 1.65298 35.6795 1.29647C34.5497 0.934923 33.3309 1.17873 32.2728 1.75155C30.1889 2.87968 28.4476 5.45479 29.0422 8.03153L29.0421 8.03155L29.0443 8.04037C29.6657 10.526 31.6289 12.9575 33.2762 14.7224L33.2776 14.724C35.2116 16.7789 37.4401 18.1901 39.756 19.3926C40.8736 19.9729 42.0176 20.5076 43.1582 21.0406L43.2775 21.0963C44.4608 21.6494 45.6404 22.2029 46.8036 22.8136L46.8036 22.8137L46.8124 22.8181C46.8124 22.8181 46.8124 22.8181 46.8126 22.8182C46.8143 22.8192 46.8331 22.8303 46.865 22.8615C46.8975 22.8932 46.9343 22.9367 46.9709 22.9899C47.0392 23.0895 47.0893 23.1974 47.1133 23.2861C47.1114 23.2859 47.1094 23.2857 47.1074 23.2855C43.3833 22.5939 39.1753 20.637 35.6216 17.8923C32.0588 15.1405 29.2074 11.6391 28.1304 7.89976C27.1494 4.40873 29.2164 0.974296 32.8777 0.543557L32.8788 0.543419ZM38.6723 4.60676C38.6723 4.60675 38.6722 4.60604 38.6722 4.60467L38.6723 4.60676ZM38.9063 4.34757C38.9079 4.34745 38.9088 4.34744 38.9089 4.34747C38.909 4.34749 38.9082 4.34759 38.9063 4.34757ZM47.1288 23.3847C47.1286 23.3873 47.1284 23.3885 47.1283 23.3884C47.1282 23.3884 47.1283 23.3871 47.1288 23.3847ZM47.2132 23.2853C47.2168 23.2838 47.2189 23.2833 47.219 23.2835C47.2192 23.2836 47.2174 23.2844 47.2132 23.2853ZM46.473 27.1004L46.5227 27.0981L46.5492 27.0914C46.5565 27.0936 46.5686 27.0982 46.5858 27.1074C46.6363 27.1346 46.6903 27.1823 46.7272 27.2356C39.8653 29.5677 32.3152 32.572 29.4194 40.043C28.4504 42.3481 28.1396 45.0816 30.3628 47.174L30.3639 47.1751C32.4058 49.0852 35.2348 48.7526 37.1751 47.3959C39.1224 46.0345 40.3439 43.5186 39.0225 40.942L39.0187 40.9346L39.0147 40.9274C38.9866 40.8767 38.9686 40.8368 38.9572 40.8062C39.0265 40.8027 39.1212 40.8138 39.2223 40.8491C39.3448 40.8919 39.4322 40.9547 39.4776 41.01C40.9479 42.919 41.0051 44.9402 40.1764 46.5188C39.3398 48.1123 37.5659 49.3174 35.2548 49.4834C31.6087 49.7033 28.7634 47.733 27.6577 44.3102C27.0607 42.3521 27.432 40.252 28.3398 38.2804C29.2476 36.3088 30.6729 34.5104 32.1015 33.1961L32.1049 33.1929C35.778 29.7493 41.5398 27.3298 46.473 27.1004ZM38.877 40.8203C38.8769 40.8203 38.8778 40.8198 38.8802 40.8189C38.8783 40.8199 38.8772 40.8204 38.877 40.8203ZM25.7618 28.6024C27.6511 27.1933 29.8394 26.0942 31.8837 25.3789C32.1655 25.5455 32.4531 25.7008 32.7467 25.8426C30.5893 26.8835 28.5167 28.0371 26.7304 29.6354C25.5638 30.6792 24.7419 31.8403 23.987 32.9949C23.8424 33.2161 23.7007 33.4362 23.5598 33.6551C22.9578 34.5901 22.3701 35.5031 21.6291 36.3832L21.6289 36.3831L21.6211 36.3929C21.6189 36.3957 21.6176 36.3969 21.6164 36.3976C21.6156 36.3981 21.6148 36.3984 21.6138 36.3988C21.6086 36.4009 21.5908 36.4066 21.5545 36.4056C21.4765 36.4032 21.3575 36.3701 21.226 36.2912C21.0967 36.2136 20.9889 36.1117 20.9233 36.0138C20.8557 35.9129 20.8581 35.8577 20.8598 35.8475L20.8618 35.8356L20.8632 35.8237C21.1926 33.0233 23.1543 30.5473 25.7618 28.6024ZM33.9542 25.2732C33.7046 25.18 33.4593 25.0753 33.2181 24.9604C33.493 24.8844 33.7631 24.8163 34.0273 24.7563C34.1019 24.8407 34.1618 24.9445 34.1997 25.052C34.2115 25.0856 34.2205 25.1174 34.2271 25.1471C34.1361 25.1891 34.0451 25.2311 33.9542 25.2732ZM31.0367 22.3227C31.739 22.864 32.4319 23.398 33.1037 23.9551C32.7448 24.0513 32.3782 24.1604 32.0062 24.2819C30.348 23.2179 28.8728 21.7283 27.4602 20.3018C27.2515 20.0911 27.0443 19.8818 26.838 19.6755C24.5292 17.1347 22.4473 14.3627 20.593 11.4722C20.6047 11.4755 20.6167 11.4794 20.6288 11.4841C20.6976 11.5106 20.7394 11.549 20.76 11.5832L20.7773 11.6121L20.7983 11.6383L20.8045 11.6461C22.6804 13.9909 24.5712 16.3545 26.7004 18.602L26.7009 18.6025C27.8446 19.8064 29.1036 20.8243 30.355 21.796C30.583 21.973 30.8103 22.1482 31.0367 22.3227ZM20.5218 11.3282C20.5219 11.3282 20.5221 11.3296 20.5222 11.3322C20.5217 11.3294 20.5217 11.3281 20.5218 11.3282ZM14.6028 17.274C14.6029 17.274 14.6035 17.2758 14.604 17.2791C14.6029 17.2756 14.6026 17.274 14.6028 17.274ZM14.5084 17.4617C14.5083 17.4616 14.5095 17.4611 14.5123 17.4602C14.5099 17.4613 14.5085 17.4618 14.5084 17.4617ZM14.7198 17.4711C14.7283 17.4737 14.7369 17.4765 14.7454 17.4796C14.8286 17.5099 14.8693 17.5507 14.8841 17.5754L14.9096 17.6179L14.9429 17.6545C15.414 18.1727 15.8652 18.7092 16.3199 19.2499C16.4245 19.3743 16.5293 19.4988 16.6345 19.6235C17.1909 20.2823 17.7579 20.9394 18.3583 21.5407C18.9738 22.2161 19.6453 22.7639 20.3078 23.2791C20.4375 23.38 20.5663 23.4793 20.6944 23.5779C20.7667 23.6336 20.8388 23.6892 20.9106 23.7447C20.6871 23.8143 20.4652 23.8885 20.2454 23.9676C19.4456 23.4145 18.699 22.7328 18.0016 21.9735C16.7301 20.589 15.6462 18.9727 14.7198 17.4711ZM17.2855 26.7429C18.143 26.03 19.0967 25.4958 20.1235 25.0836C20.3852 25.2464 20.6533 25.3974 20.9281 25.5349C19.9887 26.0374 19.0434 26.6272 18.2485 27.4221C17.6401 28.0305 17.1343 28.6573 16.7512 29.4195C16.5711 29.736 16.4196 30.0606 16.2812 30.357C16.2326 30.4612 16.1856 30.5619 16.1395 30.6576C15.9582 31.0341 15.7779 31.3652 15.5329 31.6644C15.4906 31.7019 15.4574 31.7082 15.424 31.7075C15.3726 31.7064 15.2912 31.6842 15.1931 31.6187C15.0967 31.5545 15.009 31.4645 14.9483 31.3705C14.8844 31.2717 14.8723 31.2038 14.8723 31.1829V31.1663L14.8712 31.1497C14.8218 30.4088 15.0936 29.6012 15.5654 28.8101C16.0321 28.0278 16.6695 27.3042 17.2855 26.7429ZM22.0748 24.9503C21.841 24.8601 21.6111 24.7581 21.3851 24.6454C21.5439 24.5978 21.7041 24.5524 21.8656 24.509C21.9985 24.6214 22.1304 24.7364 22.2612 24.8553L22.263 24.857C22.2191 24.8787 22.1751 24.9006 22.1308 24.9225C22.1122 24.9318 22.0935 24.9411 22.0748 24.9503ZM13.8929 25.6971C11.0637 26.8709 7.94388 27.4465 4.93079 27.0465C4.26156 26.9342 3.19672 26.6528 2.26686 26.2087C1.80059 25.986 1.38749 25.7314 1.07742 25.4515C0.766317 25.1707 0.586873 24.8903 0.52818 24.6164L0.528278 24.6164L0.525987 24.6067C0.452861 24.2959 0.536086 24.0512 0.757872 23.8153C1.00023 23.5575 1.4 23.3265 1.90732 23.1319C2.91199 22.7465 4.14577 22.5752 4.77833 22.5173C7.43763 22.3413 10.1882 22.9969 12.7663 23.9601C12.4969 24.0266 12.2278 24.0925 11.959 24.1575C10.9779 23.8927 9.9664 23.6383 8.92012 23.5208C7.46095 23.279 6.11673 23.2797 4.65685 23.523L4.63716 23.5263L4.61778 23.5311L4.73905 24.0162L4.61773 23.5312L4.61763 23.5312L4.61727 23.5313L4.6159 23.5316L4.61067 23.5329L4.59063 23.538L4.51518 23.557C4.45032 23.5735 4.3578 23.5971 4.24682 23.6257C4.0251 23.683 3.72866 23.7608 3.43153 23.8425C3.13604 23.9238 2.83335 24.0107 2.60179 24.0859C2.51314 24.1148 2.42766 24.1442 2.35406 24.1728C2.29974 24.1536 2.25148 24.138 2.21047 24.1268C2.18659 24.1203 2.15603 24.1127 2.12286 24.1072L2.12176 24.1071C2.10119 24.1036 2.02538 24.0911 1.93533 24.1065C1.89115 24.114 1.77667 24.1387 1.67201 24.237C1.53976 24.3612 1.49832 24.5298 1.51758 24.6723C1.53287 24.7855 1.58242 24.8632 1.60288 24.8932C1.62798 24.9299 1.65311 24.9566 1.66844 24.9719C1.72082 25.0243 1.78242 25.0647 1.81425 25.0852C1.85663 25.1125 1.90678 25.1422 1.96191 25.1733C2.06483 25.2313 2.19935 25.3022 2.36226 25.3842C2.91651 25.7835 3.58269 25.9165 4.12721 26.0252L4.17102 26.0339L4.17892 26.0355L4.18687 26.0368C5.67552 26.2849 7.14793 26.1582 8.58107 25.9193L8.58109 25.9194L8.59101 25.9176C9.71062 25.7077 10.8293 25.4566 11.9441 25.1896C12.015 25.2089 12.086 25.2283 12.1572 25.2477C12.7244 25.4026 13.3035 25.5607 13.8929 25.6971ZM14.232 24.6257C14.2704 24.6237 14.3585 24.6347 14.4883 24.7014C14.5652 24.7409 14.6413 24.7924 14.7102 24.8506C14.4649 24.802 14.2206 24.7478 13.9764 24.6896C14.0617 24.6683 14.1468 24.647 14.232 24.6257Z" fill="#FEC10B" stroke="#FEC10B"/>
</svg>
