<svg width="48" height="50" viewBox="0 0 48 50" fill="none" xmlns="http://www.w3.org/2000/svg">
<path d="M9.20015 4.17195C9.13676 4.20652 9.07008 4.23878 9.00506 4.26609C9.47158 1.64562 12.0959 0.224943 14.7499 0.54342L14.751 0.543556C18.4123 0.974296 20.4793 4.40873 19.4983 7.89976C18.4213 11.6391 15.5699 15.1405 12.007 17.8923C8.45337 20.637 4.24541 22.5939 0.521252 23.2855C0.519246 23.2857 0.517271 23.2859 0.515327 23.2861C0.539359 23.1975 0.589415 23.0895 0.657806 22.9899C0.694354 22.9367 0.731165 22.8932 0.763662 22.8615C0.795596 22.8303 0.814325 22.8192 0.816108 22.8182C0.816241 22.8181 0.81628 22.8181 0.816223 22.8181L0.816267 22.8182L0.825033 22.8136C1.98829 22.2029 3.16789 21.6494 4.35119 21.0963L4.47063 21.0405C5.6111 20.5075 6.75512 19.9729 7.87268 19.3926C10.1886 18.1901 12.4171 16.7789 14.3511 14.724L14.3525 14.7224C15.9998 12.9575 17.9629 10.526 18.5843 8.04037L18.5844 8.04039L18.5865 8.03153C19.1811 5.45479 17.4398 2.87968 15.3559 1.75155C14.2978 1.17873 13.079 0.934922 11.9492 1.29647C10.8351 1.65298 9.90791 2.56544 9.33558 4.09076C9.29858 4.11544 9.25256 4.14336 9.20015 4.17195ZM0.409616 23.2835C0.409767 23.2833 0.411891 23.2838 0.415536 23.2853C0.411287 23.2844 0.409465 23.2836 0.409616 23.2835ZM0.499857 23.3847C0.500371 23.3871 0.500457 23.3884 0.500371 23.3884C0.500286 23.3885 0.500029 23.3873 0.499857 23.3847ZM8.72214 4.34755C8.72048 4.34756 8.7197 4.3475 8.71974 4.34747C8.71978 4.34744 8.7206 4.34744 8.72214 4.34755ZM8.95637 4.60676C8.95634 4.60677 8.95636 4.60611 8.95648 4.60472L8.95637 4.60676ZM1.0429 27.1074C1.06006 27.0982 1.07215 27.0936 1.07942 27.0914L1.10596 27.0981L1.15569 27.1004C6.08889 27.3298 11.8506 29.7493 15.5237 33.1929L15.5272 33.1961C16.9558 34.5104 18.3811 36.3088 19.2889 38.2804C20.1967 40.252 20.568 42.3521 19.9709 44.3102C18.8652 47.733 16.02 49.7033 12.3738 49.4834C10.0627 49.3174 8.28887 48.1123 7.45227 46.5188C6.62354 44.9402 6.68079 42.9189 8.15113 41.01C8.1965 40.9547 8.28388 40.8919 8.4064 40.8491C8.5075 40.8138 8.60216 40.8027 8.6715 40.8062C8.66005 40.8368 8.6421 40.8767 8.61396 40.9274L8.60993 40.9346L8.60613 40.942C7.2848 43.5186 8.50629 46.0345 10.4535 47.3959C12.3938 48.7526 15.2229 49.0852 17.2647 47.1751L17.2658 47.174C19.489 45.0816 19.1782 42.3481 18.2093 40.043C15.3134 32.572 7.76333 29.5677 0.901437 27.2355C0.938347 27.1823 0.992314 27.1346 1.0429 27.1074ZM8.75163 40.8203C8.75155 40.8204 8.75042 40.82 8.7485 40.8189C8.75075 40.8198 8.75171 40.8203 8.75163 40.8203ZM15.745 25.3789C17.7893 26.0942 19.9776 27.1933 21.8668 28.6024C24.4744 30.5473 26.436 33.0233 26.7655 35.8237L26.7669 35.8356L26.7689 35.8475C26.7706 35.8577 26.773 35.9129 26.7054 36.0138C26.6397 36.1117 26.5319 36.2136 26.4027 36.2912C26.2712 36.3701 26.1522 36.4032 26.0741 36.4056C26.0379 36.4066 26.02 36.4009 26.0149 36.3988C26.0138 36.3984 26.013 36.3981 26.0122 36.3976C26.0111 36.3969 26.0098 36.3957 26.0076 36.3929L26.0077 36.3928L25.9996 36.3832C25.2585 35.5032 24.6708 34.5902 24.0689 33.6551C23.928 33.4362 23.7863 33.2161 23.6417 32.9949C22.8868 31.8403 22.0648 30.6792 20.8983 29.6354C19.1119 28.0371 17.0394 26.8835 14.882 25.8426C15.1755 25.7008 15.4631 25.5455 15.745 25.3789ZM15.6225 24.2819C15.2505 24.1604 14.8839 24.0513 14.525 23.9551C15.1967 23.398 15.8896 22.864 16.592 22.3227C16.8184 22.1482 17.0457 21.973 17.2736 21.796C18.5251 20.8243 19.784 19.8064 20.9277 18.6025L20.9282 18.602C23.0575 16.3544 24.9483 13.9909 26.8243 11.646L26.8304 11.6383L26.8514 11.6121L26.8687 11.5832C26.8892 11.549 26.9311 11.5106 26.9998 11.4841C27.012 11.4794 27.024 11.4755 27.0357 11.4722C25.1814 14.3627 23.0995 17.1347 20.7907 19.6755C20.5844 19.8818 20.3771 20.0911 20.1685 20.3018C18.7558 21.7283 17.2807 23.2179 15.6225 24.2819ZM27.1069 11.3282C27.107 11.3281 27.107 11.3295 27.1064 11.3322C27.1065 11.3296 27.1068 11.3282 27.1069 11.3282ZM13.6014 24.7563C13.8655 24.8163 14.1357 24.8844 14.4106 24.9604C14.1693 25.0753 13.924 25.18 13.6744 25.2732C13.5835 25.2311 13.4926 25.1891 13.4015 25.1471C13.4081 25.1174 13.4171 25.0856 13.429 25.052C13.4669 24.9445 13.5268 24.8407 13.6014 24.7563ZM32.8832 17.4796C32.8918 17.4765 32.9004 17.4737 32.9089 17.4711C31.9825 18.9727 30.8985 20.589 29.627 21.9735C28.9297 22.7328 28.183 23.4145 27.3833 23.9676C27.1634 23.8885 26.9416 23.8144 26.718 23.7447C26.7899 23.6892 26.8619 23.6337 26.9343 23.5779C27.0623 23.4793 27.1912 23.38 27.3209 23.2791C27.9833 22.7639 28.6548 22.2161 29.2704 21.5407C29.8708 20.9394 30.4378 20.2824 30.9942 19.6235C31.0994 19.4989 31.2041 19.3743 31.3087 19.25C31.7635 18.7092 32.2146 18.1728 32.6858 17.6545L32.7191 17.6179L32.7446 17.5754C32.7594 17.5507 32.8001 17.5099 32.8832 17.4796ZM25.763 24.509C25.9245 24.5524 26.0847 24.5978 26.2436 24.6454C26.0176 24.7581 25.7877 24.8601 25.5539 24.9503C25.5352 24.9411 25.5165 24.9318 25.4978 24.9225C25.4536 24.9006 25.4095 24.8787 25.3657 24.857L25.3675 24.8553C25.4983 24.7364 25.6301 24.6214 25.763 24.509ZM26.7006 25.5349C26.9753 25.3974 27.2435 25.2464 27.5051 25.0837C28.532 25.4958 29.4857 26.0301 30.3431 26.7429C30.9592 27.3042 31.5966 28.0278 32.0632 28.8101C32.5351 29.6012 32.8069 30.4088 32.7575 31.1497L32.7564 31.1663V31.1829C32.7564 31.2038 32.7443 31.2717 32.6804 31.3705C32.6196 31.4645 32.532 31.5545 32.4356 31.6187C32.3375 31.6842 32.2561 31.7064 32.2047 31.7075C32.1712 31.7082 32.138 31.7019 32.0958 31.6644C31.8507 31.3652 31.6705 31.0341 31.4892 30.6576C31.4431 30.5619 31.3961 30.4612 31.3474 30.357C31.209 30.0605 31.0575 29.736 30.8775 29.4195C30.4943 28.6573 29.9886 28.0305 29.3801 27.4221C28.5853 26.6272 27.64 26.0374 26.7006 25.5349ZM33.1164 17.4602C33.1192 17.4611 33.1204 17.4616 33.1203 17.4617C33.1202 17.4618 33.1188 17.4613 33.1164 17.4602ZM33.0246 17.2791C33.0251 17.2758 33.0257 17.274 33.0259 17.274C33.026 17.274 33.0257 17.2757 33.0246 17.2791ZM42.6979 27.0465C39.6848 27.4465 36.565 26.8709 33.7358 25.6971C34.3252 25.5607 34.9042 25.4026 35.4714 25.2477C35.5427 25.2283 35.6137 25.2089 35.6845 25.1896C36.7994 25.4566 37.918 25.7077 39.0377 25.9176L39.0376 25.9177L39.0476 25.9193C40.4807 26.1582 41.9531 26.2849 43.4418 26.0368L43.4497 26.0355L43.4576 26.0339L43.5014 26.0252C44.046 25.9165 44.7122 25.7835 45.2664 25.3842C45.4293 25.3022 45.5638 25.2313 45.6668 25.1733C45.7219 25.1422 45.772 25.1126 45.8144 25.0852C45.8462 25.0647 45.9078 25.0243 45.9602 24.9719C45.9756 24.9566 46.0007 24.9299 46.0258 24.8932C46.0462 24.8633 46.0958 24.7855 46.1111 24.6723C46.1303 24.5298 46.0889 24.3612 45.9566 24.237C45.852 24.1387 45.7375 24.114 45.6933 24.1065C45.6033 24.0911 45.5275 24.1037 45.5069 24.1071L45.5058 24.1072C45.4726 24.1127 45.4421 24.1203 45.4182 24.1268C45.3772 24.138 45.3289 24.1536 45.2746 24.1728C45.201 24.1442 45.1155 24.1148 45.0269 24.0859C44.7953 24.0107 44.4926 23.9238 44.1971 23.8425C43.9 23.7608 43.6036 23.683 43.3818 23.6257C43.2709 23.5971 43.1783 23.5735 43.1135 23.557L43.038 23.538L43.018 23.5329L43.0128 23.5316L43.0114 23.5313L43.011 23.5312L43.0109 23.5312L42.8896 24.0162L43.0109 23.5311L42.9915 23.5263L42.9718 23.523C41.5119 23.2797 40.1677 23.279 38.7085 23.5208C37.6623 23.6383 36.6508 23.8927 35.6697 24.1575C35.4009 24.0925 35.1318 24.0266 34.8624 23.9601C37.4404 22.9969 40.191 22.3413 42.8503 22.5173C43.4829 22.5752 44.7167 22.7465 45.7213 23.1319C46.2287 23.3265 46.6284 23.5575 46.8708 23.8153C47.0926 24.0512 47.1758 24.2959 47.1027 24.6067L47.1026 24.6066L47.1005 24.6164C47.0418 24.8903 46.8623 25.1707 46.5512 25.4515C46.2412 25.7314 45.8281 25.986 45.3618 26.2087C44.4319 26.6528 43.3671 26.9342 42.6979 27.0465ZM33.3967 24.6257C33.4818 24.647 33.567 24.6683 33.6522 24.6896C33.408 24.7478 33.1638 24.802 32.9185 24.8506C32.9874 24.7924 33.0634 24.7409 33.1404 24.7014C33.2702 24.6347 33.3583 24.6237 33.3967 24.6257Z" fill="#FEC10B" stroke="#FEC10B"/>
</svg>
