<svg width="355" height="285" viewBox="0 0 355 285" fill="none" xmlns="http://www.w3.org/2000/svg">
<g opacity="0.5">
<g clip-path="url(#clip0)">
<path d="M21.5733 82.9134C36.113 89.8533 46.9187 93.1827 66.202 96.3155C76.6618 98.3543 108.41 100.683 137.43 101.437C166.451 102.192 192.649 105.316 192.764 105.746C192.764 105.746 219.392 108.756 245.386 122.309C271.423 135.16 295.118 156.477 302.744 163.425C316.903 176.691 324.602 184.772 335.762 196.307C324.917 184.227 317.376 175.873 303.058 162.879C295.706 156.088 271.738 134.614 245.429 121.606C219.434 108.053 192.533 104.886 192.806 105.043C192.964 104.771 166.493 101.489 137.473 100.734C108.452 99.9802 76.9768 97.8088 66.5169 95.77C47.2336 92.6372 36.4279 89.3078 21.5733 82.9134Z" fill="url(#paint0_linear)"/>
<path d="M19.5262 86.4591C34.0659 93.3989 44.8716 96.7284 63.8399 100.407C74.1423 102.718 105.418 105.865 134.239 107.595C163.06 109.325 189.016 114.128 189.016 114.128C189.016 114.128 215.286 118.386 240.336 133.576C265.586 147.79 288.378 170.041 295.688 177.534C309.261 191.189 316.802 199.543 327.531 211.192C317.117 198.997 310.006 190.528 296.161 176.716C288.85 169.222 266.058 146.972 240.809 132.758C215.759 117.568 189.215 113.153 189.488 113.31C189.645 113.037 163.532 108.507 134.711 106.777C105.89 105.047 74.6147 101.9 64.3123 99.5884C44.9138 96.0254 34.3808 92.8535 19.5262 86.4591Z" fill="url(#paint1_linear)"/>
<path d="M17.6366 89.7319C32.1762 96.6718 42.8245 100.274 61.4779 104.498C71.6228 107.082 102.856 110.932 131.32 113.91C159.941 116.616 185.54 122.668 185.382 122.94C185.382 122.94 211.411 128.877 235.128 145.115C259.161 160.809 281.05 183.992 288.088 191.329C301.072 205.371 308.183 213.84 318.871 226.193C308.613 213.725 301.775 205.413 288.675 190.941C281.522 183.174 259.906 160.148 235.601 144.297C211.611 127.901 185.582 121.965 185.582 121.965C185.74 121.692 160.141 115.64 131.52 112.935C102.898 110.229 71.8225 106.106 61.6776 103.522C42.8667 99.571 32.3337 96.399 17.6366 89.7319Z" fill="url(#paint2_linear)"/>
<path d="M15.747 93.0048C30.1292 100.217 40.5047 103.662 59.2734 108.316C69.2609 111.173 100.295 115.999 128.559 119.953C156.823 123.907 182.064 131.207 181.907 131.48C181.907 131.48 207.421 138.937 230.193 156.812C253.438 173.869 273.88 197.672 280.602 205.553C293.272 220.141 299.953 228.726 310.21 241.194C300.383 228.611 293.702 220.026 281.19 205.165C274.467 197.284 253.753 173.324 230.508 156.267C207.736 138.392 182.379 130.662 182.222 130.934C182.222 130.934 157.138 123.361 128.601 119.25C100.337 115.296 69.3031 110.47 59.3156 107.613C40.8196 103.117 30.4442 99.6719 15.747 93.0048Z" fill="url(#paint3_linear)"/>
<path d="M13.8574 96.2777C28.2396 103.49 38.4576 107.208 56.9113 112.407C66.8988 115.264 97.7329 121.066 125.913 126.426C154.25 131.513 178.547 140.449 178.547 140.449C178.547 140.449 203.389 149.701 224.986 168.352C247.17 186.615 266.709 211.351 273.159 219.075C285.241 234.051 291.764 242.909 301.749 255.219C292.079 242.363 285.829 233.663 273.747 218.687C267.181 210.533 247.485 186.07 225.458 167.534C203.746 148.452 178.473 139.316 178.746 139.474C178.746 139.474 154.177 130.38 125.84 125.293C97.6599 119.933 66.941 114.561 57.111 111.432C38.6151 106.935 28.397 103.218 13.8574 96.2777Z" fill="url(#paint4_linear)"/>
<path d="M11.9678 99.5506C26.1925 107.036 36.4105 110.753 54.9796 116.383C64.8096 119.513 95.444 126.29 123.424 132.626C151.404 138.961 175.344 149.146 175.344 149.146C175.501 148.873 199.398 159.761 220.208 179.776C241.333 199.246 259.854 224.485 265.989 232.754C277.483 248.118 284.006 256.976 293.676 269.832C284.436 256.86 278.071 247.73 266.576 232.366C260.441 224.097 241.648 198.7 220.523 179.231C199.713 159.216 175.543 148.17 175.386 148.443C175.386 148.443 151.331 137.828 123.194 131.765C95.2135 125.43 64.8517 118.81 54.749 115.523C36.568 110.481 26.35 106.763 11.9678 99.5506Z" fill="url(#paint5_linear)"/>
<path d="M9.92071 103.096C24.1455 110.582 34.4787 114.729 52.6176 120.474C62.5628 124.034 92.8824 131.357 120.505 138.941C148.286 146.252 171.553 158.231 171.553 158.231C171.711 157.958 195.093 170.367 214.57 191.431C234.635 212.107 252.411 238.007 258.388 246.549C269.295 262.301 275.661 271.431 284.9 284.402C275.818 271.158 269.883 261.913 258.976 246.161C252.998 237.619 235.223 211.719 215.158 191.043C195.408 169.822 172.026 157.413 171.868 157.686C172.026 157.413 148.601 145.707 120.548 138.238C92.9246 130.654 62.3323 123.174 52.6598 119.771C34.5209 114.026 24.4604 110.036 9.92071 103.096Z" fill="url(#paint6_linear)"/>
<path fill-rule="evenodd" clip-rule="evenodd" d="M96.4288 98.1298L90.9483 109.512C90.7178 108.651 89.8995 108.179 88.6511 107.822C87.5601 107.192 85.724 107.223 84.1607 107.411C82.5973 107.6 81.2645 108.648 80.6346 109.739C80.1622 110.558 80.3928 111.418 80.7808 112.006C81.1688 112.593 81.8295 113.339 82.6478 113.811C84.0115 114.598 85.8476 114.567 87.411 114.379C88.9743 114.191 90.3072 113.142 90.937 112.051L102.413 87.7656L101.594 87.2932C101.437 87.566 100.65 88.9297 98.4985 89.5061C96.3474 90.0824 94.6266 90.5435 93.1785 91.1621C90.2823 92.3992 88.5924 94.6964 87.7628 96.7631C87.2904 97.5813 87.2482 98.2843 87.206 98.9872C86.4609 99.648 85.5583 100.581 85.0859 101.4C84.2564 103.466 83.857 105.418 84.0454 106.981C84.3181 107.139 84.3181 107.139 84.4756 106.866C84.3603 106.436 84.5291 103.624 85.3164 102.26C86.1038 100.896 86.7336 99.8054 88.1817 99.1869C90.4903 98.3377 94.2777 98.7062 96.4288 98.1298ZM87.7937 98.5992C87.9512 98.3264 88.2661 97.781 88.5811 97.2355C89.0535 96.4173 89.9561 95.4838 90.8587 94.5503C93.5243 92.4527 96.2209 92.1913 99.6203 91.972C98.5181 93.8812 96.1674 95.4333 94.4465 95.8944C92.2955 96.4708 91.4351 96.7013 89.987 97.3199C88.9691 97.8232 88.3814 98.2112 87.7937 98.5992Z" fill="url(#paint7_linear)"/>
<path fill-rule="evenodd" clip-rule="evenodd" d="M210.469 156.334L200.495 176.759C199.876 175.311 198.512 174.523 196.603 173.421C194.264 172.434 191.179 172.108 188.598 172.799C185.744 173.334 183.121 174.728 182.291 176.795C181.504 178.159 181.692 179.722 182.468 180.897C183.244 182.073 184.02 183.248 185.814 183.92C188.154 184.907 191.238 185.233 194.092 184.699C196.946 184.165 199.297 182.613 200.556 180.431L221.491 137.242L220.128 136.455C219.813 137 218.123 139.297 214.954 140.377C211.082 141.415 208.228 141.949 205.605 143.343C200.673 145.587 197.45 149.909 195.991 153.066C195.203 154.43 194.846 155.679 194.762 157.084C193.272 158.406 192.054 159.885 190.952 161.794C189.177 165.497 188.966 169.012 189.228 171.708C189.501 171.866 189.931 171.751 190.088 171.478C189.858 170.618 190.426 165.854 191.413 163.515C192.988 160.788 193.775 159.424 196.671 158.187C199.997 156.834 206.481 156.941 210.469 156.334ZM195.192 156.969C195.507 156.424 195.864 155.175 196.337 154.357C197.124 152.993 198.656 150.969 200.147 149.647C204.89 145.84 209.58 145.275 215.792 145.225C214.017 148.928 209.631 151.486 206.189 152.409C202.475 153.173 200.596 153.907 198.13 155.029C197.113 155.532 196.095 156.036 195.192 156.969Z" fill="url(#paint8_linear)"/>
<path fill-rule="evenodd" clip-rule="evenodd" d="M102.889 138.589C102.375 140.11 101.199 140.886 99.4786 141.347C98.0305 141.966 96.3519 141.724 94.8307 141.209C93.855 141.01 93.1942 140.265 92.8062 139.677C92.4182 139.089 92.1877 138.229 92.6601 137.411C93.0172 136.162 94.35 135.113 95.9134 134.925C97.3615 134.306 99.1976 134.276 100.289 134.905C101.537 135.263 102.082 135.578 102.586 136.595C105.159 128.99 108.004 121.541 110.577 113.935C111.008 113.82 111.28 113.977 111.553 114.135L102.889 138.589Z" fill="url(#paint9_linear)"/>
<path fill-rule="evenodd" clip-rule="evenodd" d="M58.63 86.1253C58.2307 88.0767 57.4011 90.1433 58.6383 93.0395C59.4874 95.348 60.4939 97.3838 60.955 99.1046C61.8042 101.413 62.0656 104.11 61.2361 106.176C59.8919 109.764 56.7539 112.68 54.8334 114.117C54.4032 114.232 54.4032 114.232 54.2879 113.802C55.9357 112.208 58.7588 109.837 59.6727 106.365C60.3448 104.571 60.1986 102.304 59.4648 100.426C58.6156 98.1177 56.9061 96.0397 54.8395 95.2102L47.6042 114.67C47.0896 116.192 45.4841 117.083 43.6058 117.817C41.8849 118.278 39.7761 118.151 38.2549 117.637C37.2792 117.437 36.3457 116.534 35.9577 115.947C35.297 115.202 35.4966 114.226 35.6963 113.25C36.2109 111.729 37.8164 110.838 39.5373 110.377C41.2581 109.916 43.2517 109.612 44.6154 110.399C45.8638 110.756 46.9548 111.386 47.1853 112.247C50.5456 103.277 53.7485 94.5803 57.1088 85.6107C58.0845 85.8104 58.0845 85.8104 58.63 86.1253Z" fill="url(#paint10_linear)"/>
<path fill-rule="evenodd" clip-rule="evenodd" d="M268.66 115.381C267.788 118.151 266.602 121.466 268.027 125.926C269.107 129.095 270.732 132.578 271.423 135.16C272.618 138.759 272.523 142.704 271.336 146.019C269.047 151.243 264.261 155.753 261.323 157.693C260.735 158.081 260.463 157.924 260.505 157.221C262.898 154.966 267.484 151.432 269.185 146.595C270.214 143.553 270.268 140.311 269.461 137.299C268.539 133.858 265.78 130.447 263.053 128.872L251.009 157.921C250.022 160.26 247.672 161.812 245.09 162.504C242.509 163.196 239.424 162.869 237.085 161.882C235.564 161.368 234.358 160.308 233.739 158.86C232.963 157.684 233.047 156.278 233.405 155.03C234.234 152.963 236.585 151.411 239.439 150.877C242.02 150.185 245.262 150.239 247.329 151.068C249.123 151.74 250.759 152.685 251.378 154.133C256.827 140.915 262.55 127.854 267.999 114.636C267.999 114.636 268.545 114.951 268.66 115.381Z" fill="url(#paint11_linear)"/>
<path fill-rule="evenodd" clip-rule="evenodd" d="M195.683 99.4311C191.892 108.516 187.829 117.443 184.038 126.528C183.262 125.353 182.444 124.88 181.196 124.523C177.881 123.337 173.033 124.174 171.301 127.175C170.514 128.538 170.429 129.944 171.205 131.12C171.866 131.865 172.684 132.337 173.502 132.81C176.66 134.269 181.938 133.316 183.397 130.158L196.501 99.9035C196.386 99.4733 195.955 99.5885 195.683 99.4311ZM175.834 126.882C177.554 126.421 181.111 125.929 182.475 126.717C182.748 126.874 183.136 127.462 182.978 127.734C182.621 128.983 180.313 129.832 178.162 130.408C176.011 130.985 173.472 130.973 172.381 130.344C171.835 130.029 171.562 129.871 171.877 129.326C172.077 128.35 173.683 127.459 175.834 126.882Z" fill="url(#paint12_linear)"/>
<path fill-rule="evenodd" clip-rule="evenodd" d="M294.085 204.246L299.166 194.816C307.801 194.346 316.332 190.908 322.22 184.488C326.891 179.548 331.323 166.833 328.553 165.962C322.626 163.63 312.908 170.384 309.255 174.821C306.075 178.44 303.871 182.258 301.509 186.349C290.607 186.965 277.051 187.139 269.977 196.873C263.059 206.335 263.863 218.799 272.307 226.22C273.786 227.438 275.265 228.655 277.332 229.485L272.565 238.37C271.778 239.734 270.991 241.097 270.088 242.031C266.635 245.492 262.06 246.487 257.193 242.95C255.557 242.005 253.344 238.909 254.719 237.158C255.883 238.921 260.562 240.895 263.469 237.118C265.747 234.433 265.297 230.173 262.297 228.441C259.612 226.164 255.037 227.159 252.875 230.274C249.495 234.869 251.927 241.364 256.248 244.586C261.934 248.596 267.6 248.231 271.84 243.406C272.585 242.745 273.057 241.927 273.53 241.109L279.986 229.926C286.501 231.869 292.639 230.686 296.879 225.861C302.18 219.829 302.571 210.964 296.267 205.506C295.721 205.191 294.903 204.719 294.085 204.246ZM288.984 209.302L278.864 227.46C277.5 226.673 276.409 226.043 275.046 225.256C267.766 219.598 265.272 209.431 271.633 202.193C277.993 194.956 288.307 194.728 297.057 194.689L292.333 202.871C287.654 200.897 281.086 202.196 277.906 205.815C274.568 209.706 274.231 215.33 276.789 219.716C277.062 219.874 277.607 220.189 277.765 219.916C277.922 219.643 278.08 219.371 277.807 219.213C276.57 216.317 276.193 213.19 278.313 210.778C280.864 208.25 285.554 207.685 288.984 209.302ZM323.691 178.792C319.409 184.32 311.119 186.08 304.205 186.088C305.465 183.906 306.882 181.451 308.415 179.427C311.437 176.081 318.532 170.722 323.441 173.556C325.465 175.089 324.909 177.313 323.691 178.792ZM290.893 210.404C295.33 214.057 295.811 220.153 292.431 224.747C289.681 228.251 284.949 229.519 280.773 228.562L290.893 210.404Z" fill="url(#paint13_linear)"/>
<path fill-rule="evenodd" clip-rule="evenodd" d="M144.178 130.062L145.806 124.092C150.696 122.552 154.695 119.405 156.941 114.884C158.716 111.181 159.452 103.606 157.616 103.637C153.829 103.268 149.704 108.523 148.129 111.251C146.985 113.863 145.998 116.202 145.556 118.857C139.649 120.901 131.905 122.976 129.531 129.606C127.043 135.806 129.433 143.004 135.202 145.608C136.293 146.238 137.269 146.438 138.518 146.795L137.047 152.491C136.847 153.467 136.375 154.285 136.333 154.988C134.915 157.443 132.722 158.722 129.407 157.536C128.431 157.336 126.68 155.961 127.037 154.712C127.698 155.458 130.782 155.784 131.927 153.172C132.599 151.378 131.75 149.069 129.956 148.397C127.889 147.568 125.538 149.12 124.866 150.914C123.837 153.956 125.892 157.325 128.935 158.354C132.523 159.698 135.691 158.618 137.581 155.345C137.896 154.8 138.053 154.527 138.096 153.824L140.081 146.606C144.026 146.702 147.352 145.35 148.969 141.919C151.058 137.671 149.948 132.666 145.699 130.576C144.996 130.534 144.724 130.377 144.178 130.062ZM141.974 133.88L138.875 145.546C137.899 145.347 137.196 145.304 136.378 144.832C131.426 142.701 128.637 137.454 131.041 132.66C133.603 127.593 139.196 126.094 144.085 124.553L142.772 129.977C139.96 129.809 136.477 131.434 135.059 133.888C133.915 136.501 134.292 139.627 136.547 142.02C136.819 142.178 137.25 142.062 137.25 142.062C137.25 142.062 137.407 141.79 137.134 141.632C136.086 140.299 135.352 138.421 136.296 136.785C137.283 134.445 140.022 133.481 141.974 133.88ZM156.995 111.642C155.22 115.345 150.991 117.631 147.12 118.668C147.634 117.147 147.719 115.741 148.506 114.378C149.766 112.196 152.988 107.874 156.03 108.903C157.279 109.26 157.352 110.393 156.995 111.642ZM143.222 134.237C146.107 135.539 147.459 138.866 146.157 141.75C145.17 144.09 142.82 145.642 140.281 145.631L143.222 134.237Z" fill="url(#paint14_linear)"/>
</g>
</g>
<defs>
<linearGradient id="paint0_linear" x1="30.2874" y1="42.5857" x2="368.38" y2="237.784" gradientUnits="userSpaceOnUse">
<stop stop-color="white"/>
<stop offset="0.3515" stop-color="#FEC10B"/>
<stop offset="0.4848" stop-color="#FEC10B"/>
<stop offset="0.6303" stop-color="#FEC10B"/>
<stop offset="1" stop-color="white"/>
</linearGradient>
<linearGradient id="paint1_linear" x1="26.1891" y1="49.6841" x2="364.282" y2="244.882" gradientUnits="userSpaceOnUse">
<stop stop-color="white"/>
<stop offset="0.3515" stop-color="#FEC10B"/>
<stop offset="0.4848" stop-color="#FEC10B"/>
<stop offset="0.6303" stop-color="#FEC10B"/>
<stop offset="1" stop-color="white"/>
</linearGradient>
<linearGradient id="paint2_linear" x1="22.2275" y1="56.5457" x2="360.32" y2="251.743" gradientUnits="userSpaceOnUse">
<stop stop-color="white"/>
<stop offset="0.3515" stop-color="#FEC10B"/>
<stop offset="0.4848" stop-color="#FEC10B"/>
<stop offset="0.6303" stop-color="#FEC10B"/>
<stop offset="1" stop-color="white"/>
</linearGradient>
<linearGradient id="paint3_linear" x1="18.3611" y1="63.2426" x2="356.454" y2="258.44" gradientUnits="userSpaceOnUse">
<stop stop-color="white"/>
<stop offset="0.3515" stop-color="#FEC10B"/>
<stop offset="0.4848" stop-color="#FEC10B"/>
<stop offset="0.6303" stop-color="#FEC10B"/>
<stop offset="1" stop-color="white"/>
</linearGradient>
<linearGradient id="paint4_linear" x1="14.5877" y1="69.7783" x2="352.68" y2="264.976" gradientUnits="userSpaceOnUse">
<stop stop-color="white"/>
<stop offset="0.3515" stop-color="#FEC10B"/>
<stop offset="0.4848" stop-color="#FEC10B"/>
<stop offset="0.6303" stop-color="#FEC10B"/>
<stop offset="1" stop-color="white"/>
</linearGradient>
<linearGradient id="paint5_linear" x1="9.29851" y1="78.9394" x2="347.391" y2="274.137" gradientUnits="userSpaceOnUse">
<stop stop-color="white"/>
<stop offset="0.3515" stop-color="#FEC10B"/>
<stop offset="0.4848" stop-color="#FEC10B"/>
<stop offset="0.6303" stop-color="#FEC10B"/>
<stop offset="1" stop-color="white"/>
</linearGradient>
<linearGradient id="paint6_linear" x1="2.47752" y1="90.7539" x2="340.57" y2="285.952" gradientUnits="userSpaceOnUse">
<stop stop-color="white"/>
<stop offset="0.3515" stop-color="#FEC10B"/>
<stop offset="0.4848" stop-color="#FEC10B"/>
<stop offset="0.6303" stop-color="#FEC10B"/>
<stop offset="1" stop-color="white"/>
</linearGradient>
<linearGradient id="paint7_linear" x1="20.6212" y1="59.3367" x2="358.698" y2="254.525" gradientUnits="userSpaceOnUse">
<stop stop-color="white"/>
<stop offset="0.3515" stop-color="#FEC10B"/>
<stop offset="0.4848" stop-color="#FEC10B"/>
<stop offset="0.6303" stop-color="#FEC10B"/>
<stop offset="1" stop-color="white"/>
</linearGradient>
<linearGradient id="paint8_linear" x1="22.2299" y1="56.446" x2="360.403" y2="251.69" gradientUnits="userSpaceOnUse">
<stop stop-color="white"/>
<stop offset="0.3515" stop-color="#FEC10B"/>
<stop offset="0.4848" stop-color="#FEC10B"/>
<stop offset="0.6303" stop-color="#FEC10B"/>
<stop offset="1" stop-color="white"/>
</linearGradient>
<linearGradient id="paint9_linear" x1="11.852" y1="74.5349" x2="349.92" y2="269.718" gradientUnits="userSpaceOnUse">
<stop stop-color="white"/>
<stop offset="0.3515" stop-color="#FEC10B"/>
<stop offset="0.4848" stop-color="#FEC10B"/>
<stop offset="0.6303" stop-color="#FEC10B"/>
<stop offset="1" stop-color="white"/>
</linearGradient>
<linearGradient id="paint10_linear" x1="9.09358" y1="79.2975" x2="347.179" y2="274.491" gradientUnits="userSpaceOnUse">
<stop stop-color="white"/>
<stop offset="0.3515" stop-color="#FEC10B"/>
<stop offset="0.4848" stop-color="#FEC10B"/>
<stop offset="0.6303" stop-color="#FEC10B"/>
<stop offset="1" stop-color="white"/>
</linearGradient>
<linearGradient id="paint11_linear" x1="44.3065" y1="18.3126" x2="382.395" y2="213.508" gradientUnits="userSpaceOnUse">
<stop stop-color="white"/>
<stop offset="0.3515" stop-color="#FEC10B"/>
<stop offset="0.4848" stop-color="#FEC10B"/>
<stop offset="0.6303" stop-color="#FEC10B"/>
<stop offset="1" stop-color="white"/>
</linearGradient>
<linearGradient id="paint12_linear" x1="37.0593" y1="30.8441" x2="375.17" y2="226.052" gradientUnits="userSpaceOnUse">
<stop stop-color="white"/>
<stop offset="0.3515" stop-color="#FEC10B"/>
<stop offset="0.4848" stop-color="#FEC10B"/>
<stop offset="0.6303" stop-color="#FEC10B"/>
<stop offset="1" stop-color="white"/>
</linearGradient>
<linearGradient id="paint13_linear" x1="25.3624" y1="51.088" x2="363.471" y2="246.295" gradientUnits="userSpaceOnUse">
<stop stop-color="white"/>
<stop offset="0.3515" stop-color="#FEC10B"/>
<stop offset="0.4848" stop-color="#FEC10B"/>
<stop offset="0.6303" stop-color="#FEC10B"/>
<stop offset="1" stop-color="white"/>
</linearGradient>
<linearGradient id="paint14_linear" x1="20.2819" y1="59.9369" x2="358.352" y2="255.122" gradientUnits="userSpaceOnUse">
<stop stop-color="white"/>
<stop offset="0.3515" stop-color="#FEC10B"/>
<stop offset="0.4848" stop-color="#FEC10B"/>
<stop offset="0.6303" stop-color="#FEC10B"/>
<stop offset="1" stop-color="white"/>
</linearGradient>
<clipPath id="clip0">
<rect x="69.4434" width="329.107" height="138.886" transform="rotate(30 69.4434 0)" fill="white"/>
</clipPath>
</defs>
</svg>
