<svg width="64" height="64" viewBox="0 0 64 64" fill="none" xmlns="http://www.w3.org/2000/svg">
<path fill-rule="evenodd" clip-rule="evenodd" d="M31.9994 0.00012207C14.3264 0.00012207 -0.000488281 14.327 -0.000488281 32C-0.000488281 49.6731 14.3264 64 31.9994 64C49.6725 64 63.9993 49.6731 63.9993 32C63.9993 14.327 49.6725 0.00012207 31.9994 0.00012207ZM32.9489 38.7411H34.0423C33.9512 39.3407 33.8601 39.8261 33.7689 40.3114C33.7234 40.5541 33.6778 40.7968 33.6323 41.0538C33.2222 42.724 32.2655 43.4949 30.3521 43.4949H22.8351C22.5618 43.4949 22.1518 43.6234 22.0151 43.7519C21.6051 44.3943 21.1951 45.0688 20.785 45.7433C20.375 46.4179 19.965 47.0924 19.555 47.7348V47.9918H19.6917H28.302H28.3021C29.1221 47.9918 29.9421 47.9918 30.7621 47.8633C34.0423 47.4778 37.4591 45.5506 38.2791 41.5677C38.9625 38.6127 39.5092 35.6576 40.0559 32.7026C40.5342 30.3257 40.9784 27.9809 41.4226 25.6361C41.8668 23.2913 42.311 20.9466 42.7893 18.5697C42.926 17.7988 43.0627 16.8994 43.1993 16.0001H39.3725C37.0491 16.0001 34.7256 16.0001 32.4022 16.1286C28.4387 16.3855 25.4319 18.9551 24.7486 22.5526C24.0652 25.5076 23.5185 28.4627 22.9718 31.4178C22.6985 32.5741 22.5618 33.6019 22.8351 34.7583C23.3818 36.8139 25.1586 38.3557 27.7553 38.6127C29.5321 38.7411 31.1722 38.7411 32.9489 38.7411ZM33.0856 34.3086C32.7781 34.3086 32.4705 34.3086 32.1289 34.2443C31.8692 34.2443 31.5959 34.2572 31.3088 34.2707C30.6893 34.2999 30.0059 34.3321 29.2587 34.2443C28.1654 34.1158 27.482 33.345 27.6187 32.3171C27.7553 31.5462 27.892 30.8075 28.0287 30.0687C28.1654 29.33 28.302 28.5912 28.4387 27.8203C28.5605 27.1334 28.7094 26.421 28.8613 25.6945C29.0503 24.7903 29.2438 23.8642 29.3954 22.938C29.8054 21.3963 30.8988 20.4969 32.5389 20.4969H34.999C36.5024 20.6254 37.3224 21.3963 37.0491 22.8096L34.999 33.6019C34.8623 34.2443 34.7256 34.3728 34.0423 34.3728C33.7006 34.3086 33.3931 34.3086 33.0856 34.3086Z" fill="#FEC10B"/>
</svg>
