<svg width="36" height="36" viewBox="0 0 36 36" fill="none" xmlns="http://www.w3.org/2000/svg">
<rect x="9" y="6" width="20" height="22" fill="#181818"/>
<path fill-rule="evenodd" clip-rule="evenodd" d="M18 0C8.05888 0 0 8.05888 0 18C0 27.9411 8.05888 36 18 36C27.9411 36 36 27.9411 36 18C36 8.05888 27.9411 0 18 0ZM18.5341 21.7919H19.1491C19.0979 22.1292 19.0466 22.4022 18.9954 22.6752C18.9697 22.8117 18.9441 22.9482 18.9185 23.0928C18.6879 24.0323 18.1497 24.4659 17.0734 24.4659H12.8451C12.6913 24.4659 12.4607 24.5382 12.3838 24.6104C12.1532 24.9718 11.9225 25.3512 11.6919 25.7306C11.4613 26.1101 11.2306 26.4895 11 26.8508V26.9954H11.0769H15.9202H15.9203C16.3815 26.9954 16.8428 26.9954 17.304 26.9231C19.1491 26.7063 21.0711 25.6222 21.5324 23.3818C21.9167 21.7196 22.2243 20.0574 22.5318 18.3952C22.8009 17.0582 23.0507 15.7392 23.3006 14.4203C23.5504 13.1014 23.8003 11.7824 24.0693 10.4454C24.1462 10.0118 24.2231 9.50589 24.3 9H22.1474C20.8405 9 19.5335 9 18.2266 9.07227C15.9971 9.21681 14.3058 10.6622 13.9214 12.6858C13.537 14.348 13.2295 16.0102 12.922 17.6725C12.7682 18.3229 12.6913 18.9011 12.8451 19.5515C13.1526 20.7078 14.152 21.5751 15.6127 21.7196C16.6121 21.7919 17.5347 21.7919 18.5341 21.7919ZM18.611 19.2985C18.438 19.2985 18.265 19.2985 18.0728 19.2624C17.9268 19.2624 17.773 19.2697 17.6116 19.2773C17.2631 19.2937 16.8787 19.3118 16.4584 19.2624C15.8433 19.1901 15.459 18.7565 15.5358 18.1784C15.6127 17.7447 15.6896 17.3292 15.7665 16.9136C15.8433 16.4981 15.9202 16.0825 15.9971 15.6489C16.0656 15.2625 16.1494 14.8618 16.2348 14.4531C16.3411 13.9445 16.45 13.4236 16.5353 12.9026C16.7659 12.0354 17.3809 11.5295 18.3035 11.5295H19.6873C20.5329 11.6017 20.9942 12.0354 20.8405 12.8303L19.6873 18.9011C19.6104 19.2624 19.5335 19.3347 19.1491 19.3347C18.9569 19.2986 18.784 19.2985 18.611 19.2985Z" fill="#FEC10B"/>
</svg>
