<svg width="102" height="102" viewBox="0 0 102 102" fill="none" xmlns="http://www.w3.org/2000/svg">
<path d="M0 51C0 22.8335 22.8335 0 51 0C79.1665 0 102 22.8335 102 51C102 79.1665 79.1665 102 51 102C22.8335 102 0 79.1665 0 51Z" fill="#FEC10B"/>
<path fill-rule="evenodd" clip-rule="evenodd" d="M54.2559 61.7437C53.6025 61.7437 52.949 61.7437 52.5134 61.7437C49.6817 61.7437 47.0678 61.7437 44.2361 61.5389C40.0975 61.1294 37.2658 58.6722 36.3945 55.3959C35.9588 53.553 36.1767 51.9149 36.6123 50.072C37.4836 45.3623 38.3549 40.6527 39.444 35.9431C40.5331 30.2096 45.3252 26.1143 51.6421 25.7048C55.345 25.5 59.048 25.5 62.751 25.5C64.7114 25.5 66.6718 25.5 68.85 25.5C68.6322 26.9334 68.4144 28.3667 68.1966 29.5953C66.6718 37.1717 65.3649 44.5433 63.8401 52.1196C62.9688 56.8293 62.0975 61.5389 61.0084 66.2485C59.7015 72.5963 54.2559 75.6678 49.0282 76.2821C47.7213 76.4869 46.4143 76.4869 45.1074 76.4869C40.5331 76.4869 35.9588 76.4869 31.3846 76.4869H31.1667C31.1667 76.2821 31.1667 76.2821 31.1667 76.0773C32.4737 74.0297 33.7806 71.7772 35.0876 69.7296C35.3054 69.5248 35.9588 69.32 36.3945 69.32C40.3153 69.32 44.4539 69.32 48.3747 69.32C51.4242 69.32 52.949 68.0914 53.6025 65.4295C53.8203 64.2009 54.0381 63.177 54.2559 61.7437ZM51.2064 54.5768C52.2955 54.7816 53.1668 54.5768 54.2559 54.7816C55.345 54.7816 55.5629 54.5768 55.7807 53.553C56.8698 47.8195 57.9589 42.0861 59.048 36.3526C59.4837 34.1002 58.1767 32.8716 55.7807 32.6668C54.4738 32.6668 53.1668 32.6668 51.8599 32.6668C49.246 32.6668 47.5034 34.1002 46.85 36.5574C46.4143 39.2194 45.7609 41.8813 45.3252 44.3385C44.8896 46.7957 44.4539 49.0481 44.0183 51.5053C43.8005 53.1435 44.8896 54.3721 46.6321 54.5768C48.3747 54.7816 49.8995 54.5768 51.2064 54.5768Z" fill="white"/>
</svg>
