<svg width="1236" height="48" viewBox="0 0 1236 48" fill="none" xmlns="http://www.w3.org/2000/svg">
<path d="M1202.67 8.83999C1202.97 6.13999 1205.57 4.73999 1208.07 5.03999C1211.47 5.43999 1213.37 8.63998 1212.47 11.84C1210.57 18.44 1202.47 24.04 1195.97 25.24C1195.07 25.34 1195.57 24.24 1195.97 24.04C1199.97 21.94 1204.17 20.64 1207.37 17.24C1208.77 15.74 1210.37 13.74 1210.87 11.74C1211.77 7.83998 1205.57 3.63999 1203.77 8.73998C1203.57 8.93999 1202.57 9.43999 1202.67 8.83999Z" fill="#FEC10B" fill-opacity="0.3"/>
<path d="M1196.47 27.64C1200.77 27.84 1205.77 29.94 1208.97 32.94C1211.47 35.24 1213.97 39.24 1212.87 42.84C1211.87 45.94 1209.27 47.74 1205.97 47.54C1201.77 47.24 1199.37 43.14 1202.07 39.64C1202.47 39.14 1203.67 39.14 1203.17 40.04C1201.17 43.94 1206.77 47.74 1209.87 44.84C1211.57 43.24 1211.37 41.14 1210.57 39.24C1208.17 33.04 1201.87 30.54 1195.97 28.54C1195.47 28.24 1196.07 27.54 1196.47 27.64Z" fill="#FEC10B" fill-opacity="0.3"/>
<path d="M1218.87 14.94C1217.27 17.44 1215.47 19.84 1213.47 22.04C1211.67 23.84 1209.67 26.04 1207.17 26.94C1206.27 27.24 1206.27 26.24 1206.77 25.74C1208.77 23.94 1211.07 22.54 1212.97 20.54C1214.77 18.64 1216.37 16.64 1217.97 14.64C1218.27 14.14 1219.27 14.24 1218.87 14.94Z" fill="#FEC10B" fill-opacity="0.3"/>
<path d="M1207.07 25.64C1211.57 26.64 1218.07 30.34 1218.67 35.44C1218.77 36.04 1217.67 36.74 1217.27 36.24C1215.67 34.34 1214.87 32.24 1212.97 30.54C1211.07 28.84 1208.77 27.74 1206.37 26.64C1205.87 26.34 1206.67 25.54 1207.07 25.64Z" fill="#FEC10B" fill-opacity="0.3"/>
<path d="M1223.87 20.04C1222.27 22.64 1220.07 25.74 1217.07 26.74C1216.37 26.94 1216.37 26.14 1216.77 25.84C1217.87 24.84 1219.07 24.14 1220.07 23.04C1221.07 22.04 1221.97 20.84 1222.97 19.74C1223.27 19.24 1224.37 19.34 1223.87 20.04Z" fill="#FEC10B" fill-opacity="0.3"/>
<path d="M1217.47 25.44C1218.97 25.84 1220.37 26.44 1221.57 27.44C1222.67 28.44 1223.87 30.04 1223.77 31.54C1223.77 32.04 1222.97 32.74 1222.47 32.24C1221.97 31.64 1221.77 30.94 1221.37 30.24C1221.07 29.64 1220.67 29.14 1220.17 28.64C1219.17 27.64 1217.87 27.04 1216.67 26.44C1216.07 26.24 1216.97 25.24 1217.47 25.44Z" fill="#FEC10B" fill-opacity="0.3"/>
<path d="M1223.17 25.74C1225.87 24.54 1228.97 23.54 1231.97 23.74C1233.07 23.84 1236.37 24.34 1235.97 26.04C1235.67 27.44 1233.07 28.24 1231.87 28.44C1228.87 28.84 1225.77 28.14 1223.07 26.84C1222.37 26.44 1223.37 25.44 1223.97 25.54C1225.57 25.94 1227.17 26.34 1228.77 26.64C1229.97 26.84 1231.17 26.94 1232.37 26.74C1232.87 26.64 1233.37 26.54 1233.77 26.24C1234.37 25.94 1234.47 25.84 1233.97 26.04C1233.97 25.94 1231.97 25.44 1231.97 25.44C1230.77 25.24 1229.67 25.24 1228.47 25.44C1226.67 25.64 1224.97 26.34 1223.17 26.64C1222.57 26.74 1222.77 25.94 1223.17 25.74Z" fill="#FEC10B" fill-opacity="0.3"/>
<path d="M1183.76 27.3684C1135.67 28.4737 1087.43 27.6842 1039.34 27.6842C993.089 27.6842 946.839 27.6842 900.741 27.8421C873.021 27.8421 845.301 27.8421 817.734 27.8421C815.743 27.8421 816.968 25 818.5 25C818.653 25 818.806 25 818.959 25C820.95 25 819.725 27.8421 818.194 27.8421C814.059 27.8421 810.077 27.8421 805.942 27.6842C803.951 27.6842 805.482 24.5263 807.167 25.3158C806.707 25.1579 806.554 25.1579 807.014 25.1579C808.852 25.1579 807.626 27.6842 806.401 27.6842C806.095 27.6842 806.095 27.6842 806.401 27.6842C804.563 28.3158 805.023 25.3158 806.707 25.3158C810.842 25.1579 814.977 25.1579 818.959 25.1579C820.95 25.1579 819.725 28 818.194 28C818.04 28 817.887 28 817.734 28C815.743 28 816.968 25.1579 818.5 25.1579C912.84 25.1579 1007.18 25.3158 1101.37 25.3158C1129.09 25.3158 1156.65 25 1184.37 25.6316C1185.6 25.4737 1184.83 27.2105 1183.76 27.3684Z" fill="#FEC10B" fill-opacity="0.3"/>
<path d="M33.3334 8.83999C33.0334 6.13999 30.4334 4.73999 27.9334 5.03999C24.5334 5.43999 22.6334 8.63998 23.5334 11.84C25.4334 18.44 33.5334 24.04 40.0334 25.24C40.9334 25.34 40.4334 24.24 40.0334 24.04C36.0334 21.94 31.8334 20.64 28.6334 17.24C27.2334 15.74 25.6334 13.74 25.1334 11.74C24.2334 7.83998 30.4334 3.63999 32.2334 8.73998C32.4334 8.93999 33.4334 9.43999 33.3334 8.83999Z" fill="#FEC10B" fill-opacity="0.3"/>
<path d="M39.5334 27.64C35.2334 27.84 30.2334 29.94 27.0334 32.94C24.5334 35.24 22.0334 39.24 23.1334 42.84C24.1334 45.94 26.7334 47.74 30.0334 47.54C34.2334 47.24 36.6334 43.14 33.9334 39.64C33.5334 39.14 32.3334 39.14 32.8334 40.04C34.8334 43.94 29.2334 47.74 26.1334 44.84C24.4334 43.24 24.6334 41.14 25.4334 39.24C27.8334 33.04 34.1334 30.54 40.0334 28.54C40.5334 28.24 39.9334 27.54 39.5334 27.64Z" fill="#FEC10B" fill-opacity="0.3"/>
<path d="M17.1334 14.94C18.7334 17.44 20.5334 19.84 22.5334 22.04C24.3334 23.84 26.3334 26.04 28.8334 26.94C29.7334 27.24 29.7334 26.24 29.2334 25.74C27.2334 23.94 24.9334 22.54 23.0334 20.54C21.2334 18.64 19.6334 16.64 18.0334 14.64C17.7334 14.14 16.7334 14.24 17.1334 14.94Z" fill="#FEC10B" fill-opacity="0.3"/>
<path d="M28.9334 25.64C24.4334 26.64 17.9334 30.34 17.3334 35.44C17.2334 36.04 18.3334 36.74 18.7334 36.24C20.3334 34.34 21.1334 32.24 23.0334 30.54C24.9334 28.84 27.2334 27.74 29.6334 26.64C30.1334 26.34 29.3334 25.54 28.9334 25.64Z" fill="#FEC10B" fill-opacity="0.3"/>
<path d="M12.1334 20.04C13.7334 22.64 15.9334 25.74 18.9334 26.74C19.6334 26.94 19.6334 26.14 19.2334 25.84C18.1334 24.84 16.9334 24.14 15.9334 23.04C14.9334 22.04 14.0334 20.84 13.0334 19.74C12.7334 19.24 11.6334 19.34 12.1334 20.04Z" fill="#FEC10B" fill-opacity="0.3"/>
<path d="M18.5334 25.44C17.0334 25.84 15.6334 26.44 14.4334 27.44C13.3334 28.44 12.1334 30.04 12.2334 31.54C12.2334 32.04 13.0334 32.74 13.5334 32.24C14.0334 31.64 14.2334 30.94 14.6334 30.24C14.9334 29.64 15.3334 29.14 15.8334 28.64C16.8334 27.64 18.1334 27.04 19.3334 26.44C19.9334 26.24 19.0334 25.24 18.5334 25.44Z" fill="#FEC10B" fill-opacity="0.3"/>
<path d="M12.8334 25.74C10.1334 24.54 7.03343 23.54 4.03343 23.74C2.93343 23.84 -0.36657 24.34 0.0334303 26.04C0.33343 27.44 2.93343 28.24 4.13343 28.44C7.13343 28.84 10.2334 28.14 12.9334 26.84C13.6334 26.44 12.6334 25.44 12.0334 25.54C10.4334 25.94 8.83343 26.34 7.23343 26.64C6.03343 26.84 4.83343 26.94 3.63343 26.74C3.13343 26.64 2.63343 26.54 2.23343 26.24C1.63343 25.94 1.53343 25.84 2.03343 26.04C2.03343 25.94 4.03343 25.44 4.03343 25.44C5.23343 25.24 6.33343 25.24 7.53343 25.44C9.33343 25.64 11.0334 26.34 12.8334 26.64C13.4334 26.74 13.2334 25.94 12.8334 25.74Z" fill="#FEC10B" fill-opacity="0.3"/>
<path d="M52.2404 27.3684C100.329 28.4737 148.571 27.6842 196.66 27.6842C242.911 27.6842 289.161 27.6842 335.259 27.8421C362.979 27.8421 390.699 27.8421 418.266 27.8421C420.257 27.8421 419.032 25 417.5 25C417.347 25 417.194 25 417.041 25C415.05 25 416.275 27.8421 417.806 27.8421C421.941 27.8421 425.923 27.8421 430.058 27.6842C432.049 27.6842 430.518 24.5263 428.833 25.3158C429.293 25.1579 429.446 25.1579 428.986 25.1579C427.148 25.1579 428.374 27.6842 429.599 27.6842C429.905 27.6842 429.905 27.6842 429.599 27.6842C431.437 28.3158 430.977 25.3158 429.293 25.3158C425.158 25.1579 421.023 25.1579 417.041 25.1579C415.05 25.1579 416.275 28 417.806 28C417.96 28 418.113 28 418.266 28C420.257 28 419.032 25.1579 417.5 25.1579C323.16 25.1579 228.821 25.3158 134.634 25.3158C106.914 25.3158 79.3477 25 51.6278 25.6316C50.4026 25.4737 51.1683 27.2105 52.2404 27.3684Z" fill="#FEC10B" fill-opacity="0.3"/>
<rect x="491" y="25" width="254" height="14" fill="#FEC10B" fill-opacity="0.3"/>
<path d="M506.486 35.504C502.646 35.48 499.526 34.268 497.126 31.868C494.75 29.468 493.562 26.312 493.562 22.4C493.562 18.488 494.75 15.332 497.126 12.932C499.526 10.508 502.646 9.296 506.486 9.296C509.798 9.296 512.714 10.112 515.234 11.744L515.954 16.82H515.63C515.102 14.756 514.034 13.172 512.426 12.068C510.842 10.94 508.862 10.376 506.486 10.376C503.438 10.376 500.966 11.48 499.07 13.688C497.198 15.896 496.262 18.8 496.262 22.4C496.262 26 497.198 28.904 499.07 31.112C500.966 33.296 503.438 34.4 506.486 34.424C508.046 34.424 509.522 34.148 510.914 33.596C512.33 33.044 513.566 32.276 514.622 31.292V24.92C514.622 24.392 514.454 23.996 514.118 23.732C513.806 23.444 513.362 23.3 512.786 23.3H512.21V22.94H519.266V23.3H518.726C518.126 23.3 517.67 23.444 517.358 23.732C517.046 23.996 516.902 24.392 516.926 24.92V30.86C516.302 31.676 515.558 32.408 514.694 33.056C513.83 33.704 512.666 34.28 511.202 34.784C509.762 35.264 508.19 35.504 506.486 35.504ZM544.065 13.76H543.525C542.877 13.76 542.385 14.012 542.049 14.516C541.905 14.732 541.821 14.984 541.797 15.272V27.404C541.797 29.9 540.993 31.88 539.385 33.344C537.801 34.784 535.617 35.504 532.833 35.504C530.049 35.504 527.853 34.784 526.245 33.344C524.637 31.904 523.833 29.936 523.833 27.44V15.308C523.833 14.876 523.665 14.516 523.329 14.228C522.993 13.916 522.585 13.76 522.105 13.76H521.565V13.4H528.405V13.76H527.865C527.385 13.76 526.977 13.916 526.641 14.228C526.305 14.516 526.137 14.876 526.137 15.308V27.008C526.137 29.336 526.725 31.172 527.901 32.516C529.101 33.86 530.781 34.532 532.941 34.532C535.125 34.532 536.865 33.896 538.161 32.624C539.481 31.352 540.141 29.612 540.141 27.404V15.308C540.117 14.852 539.937 14.48 539.601 14.192C539.289 13.904 538.893 13.76 538.413 13.76H537.873V13.4H544.065V13.76ZM554.044 14.516H552.136V32.696C552.16 33.44 552.496 34.004 553.144 34.388C553.456 34.556 553.804 34.64 554.188 34.64H554.656L554.692 35H547.312V34.64H547.816C548.368 34.64 548.836 34.46 549.22 34.1C549.628 33.716 549.832 33.26 549.832 32.732V15.632C549.832 15.104 549.628 14.66 549.22 14.3C548.836 13.94 548.368 13.76 547.816 13.76H547.312V13.4H556.348C558.604 13.4 560.38 13.916 561.676 14.948C562.996 15.98 563.656 17.336 563.656 19.016C563.656 20.696 563.128 22.1 562.072 23.228C561.016 24.356 559.672 25.004 558.04 25.172C558.808 25.508 559.732 26.444 560.812 27.98C560.788 27.98 561.196 28.508 562.036 29.564C562.9 30.62 563.584 31.448 564.088 32.048C564.616 32.624 565.048 33.068 565.384 33.38C566.272 34.22 567.292 34.64 568.444 34.64V35H567.328C565.432 35 563.944 34.628 562.864 33.884C562.048 33.332 561.304 32.648 560.632 31.832C560.488 31.64 559.876 30.8 558.796 29.312C557.74 27.8 557.176 26.996 557.104 26.9C555.808 25.292 554.596 24.488 553.468 24.488V24.128C556.276 24.128 557.968 23.984 558.544 23.696C559.336 23.288 559.876 22.856 560.164 22.4C560.764 21.44 561.064 20.384 561.064 19.232C561.064 17.768 560.632 16.64 559.768 15.848C558.904 15.056 557.74 14.624 556.276 14.552C555.628 14.528 554.884 14.516 554.044 14.516ZM591.139 13.76H590.599C589.951 13.76 589.459 14.012 589.123 14.516C588.979 14.732 588.895 14.984 588.871 15.272V27.404C588.871 29.9 588.067 31.88 586.459 33.344C584.875 34.784 582.691 35.504 579.907 35.504C577.123 35.504 574.927 34.784 573.319 33.344C571.711 31.904 570.907 29.936 570.907 27.44V15.308C570.907 14.876 570.739 14.516 570.403 14.228C570.067 13.916 569.659 13.76 569.179 13.76H568.639V13.4H575.479V13.76H574.939C574.459 13.76 574.051 13.916 573.715 14.228C573.379 14.516 573.211 14.876 573.211 15.308V27.008C573.211 29.336 573.799 31.172 574.975 32.516C576.175 33.86 577.855 34.532 580.015 34.532C582.199 34.532 583.939 33.896 585.235 32.624C586.555 31.352 587.215 29.612 587.215 27.404V15.308C587.191 14.852 587.011 14.48 586.675 14.192C586.363 13.904 585.967 13.76 585.487 13.76H584.947V13.4H591.139V13.76ZM603.602 33.524C603.53 33.188 603.494 32.54 603.494 31.58C603.494 30.62 603.674 29.6 604.034 28.52H604.358C604.334 28.784 604.322 29.048 604.322 29.312C604.322 30.776 604.766 32 605.654 32.984C606.542 33.944 607.718 34.424 609.182 34.424C610.694 34.424 611.93 33.968 612.89 33.056C613.874 32.144 614.366 31.004 614.366 29.636C614.366 28.244 613.898 27.116 612.962 26.252L606.05 19.844C604.754 18.644 604.106 17.192 604.106 15.488C604.106 13.784 604.67 12.332 605.798 11.132C606.95 9.908 608.498 9.296 610.442 9.296C611.354 9.296 612.386 9.416 613.538 9.656H614.942V14.084H614.618C614.618 12.956 614.222 12.056 613.43 11.384C612.662 10.712 611.666 10.376 610.442 10.376C609.218 10.376 608.186 10.784 607.346 11.6C606.53 12.416 606.122 13.436 606.122 14.66C606.122 15.884 606.602 16.94 607.562 17.828L614.654 24.38C615.854 25.484 616.454 26.996 616.454 28.916C616.454 30.836 615.842 32.42 614.618 33.668C613.394 34.892 611.762 35.504 609.722 35.504C608.666 35.504 607.538 35.336 606.338 35C605.162 34.688 604.25 34.196 603.602 33.524ZM636.492 34.64C637.044 34.64 637.524 34.46 637.932 34.1C638.34 33.716 638.556 33.26 638.58 32.732V24.884H625.296V32.732C625.32 33.26 625.536 33.716 625.944 34.1C626.352 34.46 626.832 34.64 627.384 34.64H627.816V35H620.472V34.64H620.904C621.48 34.64 621.96 34.448 622.344 34.064C622.752 33.68 622.968 33.224 622.992 32.696V15.704C622.968 15.176 622.752 14.72 622.344 14.336C621.936 13.952 621.456 13.76 620.904 13.76H620.472V13.4H627.816V13.76H627.384C626.832 13.76 626.352 13.952 625.944 14.336C625.536 14.696 625.32 15.14 625.296 15.668V23.804H638.58V15.704C638.58 15.176 638.424 14.768 638.112 14.48C637.608 14 637.068 13.76 636.492 13.76H636.06V13.4H643.404V13.76H642.972C642.42 13.76 641.94 13.94 641.532 14.3C641.124 14.66 640.908 15.104 640.884 15.632V32.732C640.908 33.26 641.064 33.656 641.352 33.92C641.88 34.4 642.42 34.64 642.972 34.64H643.404V35H636.06V34.64H636.492ZM647.836 34.64C648.484 34.64 649.048 34.448 649.528 34.064C650.008 33.68 650.248 33.224 650.248 32.696V15.704C650.248 15.176 650.008 14.72 649.528 14.336C649.048 13.952 648.472 13.76 647.8 13.76H647.332V13.4H655.468V13.76H655C654.352 13.76 653.788 13.94 653.308 14.3C652.852 14.66 652.6 15.104 652.552 15.632V32.732C652.576 33.26 652.828 33.716 653.308 34.1C653.788 34.46 654.352 34.64 655 34.64H655.468L655.504 35H647.332V34.64H647.836ZM659.533 33.812C659.461 33.524 659.425 32.936 659.425 32.048C659.425 31.16 659.581 30.26 659.893 29.348H660.325C660.301 29.564 660.289 29.78 660.289 29.996C660.289 31.292 660.709 32.36 661.549 33.2C662.413 34.016 663.601 34.424 665.113 34.424C666.697 34.424 667.933 34.064 668.821 33.344C669.709 32.6 670.153 31.652 670.153 30.5C670.153 29.324 669.721 28.352 668.857 27.584L661.657 22.04C660.505 21.056 659.929 19.736 659.929 18.08C659.929 17.144 660.181 16.28 660.685 15.488C661.213 14.696 661.933 14.072 662.845 13.616C663.781 13.136 664.873 12.896 666.121 12.896C667.369 12.896 668.473 13.004 669.433 13.22H670.621L670.693 17.144H670.297C670.297 16.136 669.949 15.356 669.253 14.804C668.557 14.252 667.561 13.976 666.265 13.976C664.969 13.976 663.901 14.312 663.061 14.984C662.221 15.632 661.801 16.484 661.801 17.54C661.801 18.572 662.269 19.472 663.205 20.24L670.477 25.856C671.581 26.768 672.133 28.04 672.133 29.672C672.133 31.304 671.509 32.684 670.261 33.812C669.037 34.94 667.537 35.504 665.761 35.504C664.585 35.504 663.409 35.36 662.233 35.072C661.057 34.784 660.157 34.364 659.533 33.812ZM692.074 34.64C692.626 34.64 693.106 34.46 693.514 34.1C693.922 33.716 694.138 33.26 694.162 32.732V24.884H680.878V32.732C680.902 33.26 681.118 33.716 681.526 34.1C681.934 34.46 682.414 34.64 682.966 34.64H683.398V35H676.054V34.64H676.486C677.062 34.64 677.542 34.448 677.926 34.064C678.334 33.68 678.55 33.224 678.574 32.696V15.704C678.55 15.176 678.334 14.72 677.926 14.336C677.518 13.952 677.038 13.76 676.486 13.76H676.054V13.4H683.398V13.76H682.966C682.414 13.76 681.934 13.952 681.526 14.336C681.118 14.696 680.902 15.14 680.878 15.668V23.804H694.162V15.704C694.162 15.176 694.006 14.768 693.694 14.48C693.19 14 692.65 13.76 692.074 13.76H691.642V13.4H698.986V13.76H698.554C698.002 13.76 697.522 13.94 697.114 14.3C696.706 14.66 696.49 15.104 696.466 15.632V32.732C696.49 33.26 696.646 33.656 696.934 33.92C697.462 34.4 698.002 34.64 698.554 34.64H698.986V35H691.642V34.64H692.074ZM724.154 13.76H723.722C723.074 13.76 722.45 13.94 721.85 14.3C721.274 14.636 720.794 15.068 720.41 15.596L713.498 26.072V32.696C713.498 33.224 713.702 33.68 714.11 34.064C714.518 34.448 715.01 34.64 715.586 34.64H716.018V35H708.638V34.64H709.07C709.646 34.64 710.138 34.448 710.546 34.064C710.954 33.68 711.158 33.224 711.158 32.696V26.036L704.498 15.56C703.682 14.36 702.578 13.76 701.186 13.76H700.754V13.4H709.106V13.76H708.674C708.218 13.76 707.882 13.904 707.666 14.192C707.474 14.48 707.378 14.732 707.378 14.948C707.378 15.14 707.402 15.32 707.45 15.488L712.706 24.812L718.286 15.524C718.358 15.332 718.394 15.14 718.394 14.948C718.394 14.732 718.286 14.48 718.07 14.192C717.878 13.904 717.542 13.76 717.062 13.76H716.63V13.4H724.154V13.76ZM744.487 34.64H744.775V35H737.395V34.64H737.683C738.139 34.64 738.487 34.484 738.727 34.172C738.967 33.86 739.087 33.572 739.087 33.308C739.087 33.02 739.039 32.744 738.943 32.48L736.963 27.692H727.855L725.875 32.372C725.755 32.684 725.695 32.984 725.695 33.272C725.695 33.536 725.815 33.836 726.055 34.172C726.295 34.484 726.655 34.64 727.135 34.64H727.423V35H720.547V34.64H720.835C721.339 34.64 721.843 34.472 722.347 34.136C722.875 33.776 723.307 33.248 723.643 32.552C728.899 21.32 731.635 15.44 731.851 14.912C732.259 13.904 732.475 13.232 732.499 12.896H732.823L741.715 32.552C742.411 33.944 743.335 34.64 744.487 34.64ZM728.323 26.612H736.531L732.499 16.748L728.323 26.612Z" fill="#333333"/>
</svg>
