<svg width="411" height="323" viewBox="0 0 411 323" fill="none" xmlns="http://www.w3.org/2000/svg">
<g opacity="0.5">
<g clip-path="url(#clip0)">
<path d="M58.257 104.013C53.9254 108.494 48.3257 111.544 42.8478 112.57C40.1089 113.083 37.4105 112.921 34.9038 111.823C32.1355 110.574 31.7743 107.573 31.9366 104.874C33.8245 93.7468 43.0517 84.4134 55.4602 76.2186C62.2284 71.7487 77.0735 63.5644 96.9908 61.1011C116.646 58.4866 141.746 62.1571 160.317 75.3226C179.301 88.3774 188.878 109.265 192.969 124.542C197.322 139.971 196.824 150.504 197.236 150.394C197.236 150.394 198.239 160.746 196.741 176.637C195.993 184.582 194.75 193.988 193.467 204.068C193.032 209.052 191.62 214.52 192.906 220.15C193.93 225.628 197.956 230.745 203.835 232.045C209.564 233.607 215.344 232.057 221.084 231.182C226.562 230.156 232.452 229.019 237.82 227.58C248.927 225.266 259.621 223.063 269.338 221.343C289.034 218.054 305.829 217.977 313.924 218.461C329.027 219.502 340.897 222.515 351.336 226.797C361.776 231.079 371.197 236.519 380.265 245.594C371.349 236.257 362.078 230.555 351.638 226.273C341.199 221.991 329.329 218.978 314.226 217.938C305.869 217.302 289.336 217.53 269.378 220.668C259.4 222.237 248.705 224.441 237.599 226.755C231.969 228.043 226.492 229.069 221.014 230.095C215.274 230.97 209.494 232.519 204.178 230.847C198.711 229.436 194.797 224.732 193.772 219.254C192.597 214.037 193.747 208.418 194.182 203.433C195.465 193.353 196.708 183.948 197.457 176.003C198.954 160.112 197.952 149.759 197.952 149.759C197.952 149.759 198.037 139.337 193.835 123.646C189.744 108.369 180.168 87.4813 161.073 74.0136C142.391 60.4352 117.14 57.0265 97.4848 59.641C77.1547 62.215 62.3096 70.3993 55.5413 74.8692C42.9817 83.3258 33.7545 92.6592 31.7155 104.048C31.1403 106.858 32.0249 110.161 34.7933 111.41C37.5616 112.66 40.4112 112.559 43.1501 112.046C48.5874 111.695 53.7742 108.755 58.257 104.013Z" fill="url(#paint0_linear)"/>
<path d="M54.8769 97.1747C50.9582 101.544 46.1843 104.373 41.2704 105.027C38.6826 105.278 35.7225 104.965 34.4951 102.86C33.6805 100.645 34.9303 97.8758 35.8777 95.6303C40.7551 86.578 49.7094 79.5306 61.9962 73.3598C68.6833 70.2393 82.9938 64.1899 101.289 63.9316C119.322 63.5222 141.602 69.0551 157.586 82.4719C173.569 95.8886 181.918 114.671 185.677 128.71C189.437 142.749 189.543 152.235 189.805 152.386C189.805 152.386 190.737 161.651 190.257 176.384C190.224 183.695 189.435 192.315 189.692 201.539C188.711 211.096 195.785 221.812 206.8 223.284C227.712 224.537 248.99 219.718 267.174 219.046C285.399 217.701 300.462 219.415 307.841 220.535C334.733 225.938 349.732 233.201 367.094 248.461C350.296 232.829 335.186 225.152 307.882 219.86C300.653 218.479 285.44 217.026 266.953 218.221C248.507 218.741 227.078 223.822 206.578 222.459C195.977 220.876 189.275 210.723 190.105 201.429C189.847 192.204 190.637 183.584 190.67 176.273C191.15 161.54 190.218 152.275 190.218 152.275C190.218 152.275 190.111 142.789 186.09 128.599C182.331 114.561 173.982 95.7779 157.737 82.2101C141.905 68.5315 119.212 63.1093 101.178 63.5187C82.732 64.0388 68.311 69.6753 61.4727 73.0576C49.3371 78.9665 40.3828 86.014 35.616 95.4792C34.6685 97.7247 33.4188 100.494 34.0822 102.971C35.4202 105.489 38.5315 105.54 40.9681 105.551C46.446 104.524 51.2199 101.696 54.8769 97.1747Z" fill="url(#paint1_linear)"/>
<path d="M51.4968 90.3364C48.4038 94.4848 43.8916 97.4647 39.28 97.5947C38.1926 97.665 36.7328 97.1713 36.6628 96.0836C36.5928 94.996 37.1974 93.9488 37.802 92.9016C38.7495 90.6562 40.331 89.1258 41.8019 87.1825C48.1684 80.3863 57.001 75.3629 69.0149 71.4781C75.5103 69.2941 88.9839 65.903 105.546 67.4369C122.109 68.9708 141.307 76.2151 154.592 89.4702C167.877 102.725 175.522 119.705 178.949 132.505C182.377 145.305 182.937 154.006 183.088 153.744C183.088 153.744 184.061 162.335 184.901 175.386C185.583 182.063 185.66 189.787 188.546 198.085C191.845 206.273 200.441 211.934 209.694 213.436C228.501 215.917 248.227 214.39 264.94 215.662C281.543 216.522 295.175 219.505 301.427 221.369C325.499 228.635 338.172 236.301 354.004 249.979C338.474 235.777 325.801 228.111 301.468 220.695C294.954 218.679 281.584 215.847 264.719 214.837C248.005 213.565 228.28 215.091 209.734 212.762C200.482 211.259 192.298 205.487 189.11 197.713C186.334 189.827 186.147 181.69 185.314 175.275C184.474 162.224 183.501 153.634 183.501 153.634C183.501 153.634 182.941 144.933 179.513 132.133C175.934 119.595 168.854 102.242 154.894 88.9466C141.499 75.2786 122.039 67.8832 105.325 66.6111C88.501 64.9261 74.8763 68.579 68.532 70.5012C56.5182 74.386 47.5344 79.6712 41.1679 86.4674C39.697 88.4107 38.1155 89.941 37.168 92.1865C36.8251 93.3848 35.9588 94.2809 36.2905 95.5196C36.4711 97.0201 38.082 97.2521 39.1695 97.1818C44.1533 97.6158 48.4038 94.4848 51.4968 90.3364Z" fill="url(#paint2_linear)"/>
<path d="M48.2678 83.2362C46.7969 85.1795 45.4771 86.861 43.6339 88.2402C42.9187 88.8745 41.7907 89.6195 40.965 89.8409C39.9881 90.3241 38.3772 90.0922 39.3946 88.9343C41.7724 85.4202 45.3077 82.9234 48.6918 80.6885C55.9835 76.5208 64.5839 73.1086 75.8014 71.2075C81.6922 70.0707 94.48 69.0763 109.118 73.3388C123.495 77.4503 139.157 87.1913 150.872 99.5398C175.499 124.579 176.995 158.255 177.861 157.359C177.861 157.359 179.025 165.012 182.121 176.574C183.669 182.354 186.224 189.414 192.011 194.501C197.647 199.849 205.691 203.446 213.966 205.431C230.669 209.14 248.581 210.755 263.149 213.93C277.868 216.843 289.506 221.468 295.194 223.704C316.032 232.943 326.832 240.226 341.658 252.625C327.245 240.115 316.334 232.419 295.496 223.181C289.808 220.944 278.17 216.32 263.189 213.255C248.359 209.929 230.448 208.315 214.007 204.757C205.731 202.771 197.95 199.326 192.313 193.977C186.677 188.629 184.234 181.982 182.685 176.201C179.589 164.64 178.425 156.986 178.425 156.986C177.559 157.882 175.802 124.056 151.325 98.7544C139.047 86.7784 123.384 77.0374 108.746 72.7748C94.1077 68.5122 81.3199 69.5067 75.4291 70.6435C64.2116 72.5446 55.6113 75.9568 48.1684 80.3863C44.6331 82.883 41.3596 85.5309 38.9818 89.045C37.8131 90.4646 40.3604 90.8881 41.0755 90.2538C42.0524 89.7706 43.0293 89.2874 43.8956 88.3913C45.5877 87.2739 47.0586 85.3306 48.2678 83.2362Z" fill="url(#paint3_linear)"/>
<path d="M44.8878 76.3978C36.2834 88.8833 48.1796 77.9493 54.3321 76.9636C61.6532 74.5582 70.0212 72.7572 80.1807 72.6887C85.8798 72.4884 97.4584 73.5883 109.992 79.0791C122.676 84.308 136.164 94.1896 146.268 106.306C156.522 118.161 163.021 131.687 166.873 141.939C170.724 152.191 173.168 158.838 173.43 158.989C173.43 158.989 175.722 165.898 181.528 175.184C187.444 184.883 200.903 193.002 215.762 198.09C245.632 208.005 276.91 221.526 286.855 227.268C305.216 237.17 315.232 244 328.638 255.231C315.383 243.738 305.518 236.647 287.157 226.744C277.212 221.002 245.934 207.482 216.064 197.567C201.467 192.629 188.008 184.51 182.354 174.962C176.548 165.676 174.256 158.768 174.256 158.768C174.256 158.768 171.812 152.121 167.698 141.717C163.847 131.465 157.499 117.678 146.983 105.672C136.879 93.5553 123.391 83.6737 110.445 78.2937C97.499 72.9136 85.9203 71.8137 80.2213 72.014C69.6489 72.1932 61.4321 73.7324 53.9598 76.3996C50.3545 77.8087 46.7493 79.2178 43.3652 81.4528C37.9461 86.0035 44.0103 79.7309 44.8878 76.3978Z" fill="url(#paint4_linear)"/>
<path d="M41.6589 69.2977C41.2754 71.1707 40.7408 73.3055 41.032 75.2189C40.7591 77.5048 43.568 78.0794 45.109 77.2237C48.6737 76.4893 52.2383 75.7548 55.803 75.0204C63.043 73.9644 70.8064 73.2107 80.623 74.3404C85.8686 74.9255 96.4298 77.1833 107.986 83.1573C119.543 89.1312 131.681 98.932 141.302 110.072C151.074 120.949 157.613 133.8 163.459 142.412C169.305 151.023 173.743 156.029 173.743 156.029C173.482 155.878 190.438 177.884 217.709 190.488C244.003 203.574 270.798 221.837 279.353 228.173C295.307 239.827 304.235 246.727 316.746 257.092C304.125 246.314 295.761 239.042 279.656 227.649C270.536 221.686 244.003 203.574 217.447 190.337C190.438 177.884 173.633 155.616 173.743 156.029C173.743 156.029 169.305 151.023 163.459 142.412C157.462 134.062 151.185 121.362 141.302 110.072C131.681 98.932 119.694 88.8694 107.876 82.7444C96.3192 76.7704 85.4963 74.3615 80.2507 73.7764C70.4341 72.6466 62.409 73.2493 55.4307 74.4564C51.8661 75.1908 48.3014 75.9253 44.7367 76.6597C43.0446 77.7772 40.7591 77.5048 40.7703 75.0678C40.7408 73.3055 41.1243 71.4325 41.6589 69.2977Z" fill="url(#paint5_linear)"/>
<path d="M38.0171 62.3082C38.1865 66.2457 39.7051 70.264 43.5609 71.443C47.0039 72.7327 50.4174 72.26 54.0521 72.6132C61.0598 73.1684 68.4803 73.613 77.6923 75.7899C82.6356 76.8986 92.5922 80.2036 103.282 87.0736C114.123 93.6819 125.175 103.553 134.836 114.018C144.497 124.483 152.92 135.28 160.65 141.837C167.967 148.505 173.272 152.615 173.272 152.615C173.12 152.876 193.855 168.338 217.701 183.851C241.245 199.888 262.772 222.439 270.351 229.258C284.049 242.403 292 249.786 304.249 260C292.302 249.262 284.613 242.03 270.654 228.735C263.075 221.916 241.548 199.364 217.742 183.177C193.896 167.664 173.01 152.464 173.312 151.94C173.312 151.94 168.269 147.981 160.691 141.162C152.961 134.605 144.8 123.959 135.138 113.494C125.477 103.029 114.426 93.1583 103.585 86.55C92.7434 79.9418 82.9379 76.375 77.9946 75.2663C68.7826 73.0894 61.1004 72.4937 53.9416 72.2003C50.3069 71.8471 46.8933 72.3198 43.7121 71.1812C40.118 70.1533 38.1865 66.2457 38.0171 62.3082Z" fill="url(#paint6_linear)"/>
<path fill-rule="evenodd" clip-rule="evenodd" d="M173.704 131.92L159.371 142.844C159.301 141.756 158.708 140.366 157.701 139.087C156.433 137.657 154.491 136.186 152.356 135.652C150.222 135.118 147.785 135.107 146.506 136.114C145.64 137.01 145.186 137.796 145.256 138.883C145.326 139.971 145.658 141.21 146.403 142.338C147.519 144.03 149.613 145.238 152.009 145.924C154.144 146.458 156.319 146.317 158.011 145.2L187.956 122.346L187.322 121.631C186.909 121.742 184.804 122.97 182.256 122.546C179.448 121.972 177.051 121.287 174.615 121.276C170.567 121.034 166.66 122.966 164.252 124.718C163.124 125.463 162.671 126.248 162.218 127.034C160.717 127.215 159.327 127.809 157.897 129.077C155.339 131.091 153.717 133.296 153.182 135.431C153.293 135.844 153.705 135.733 154.118 135.622C154.31 134.686 156.386 131.695 158.078 130.578C159.921 129.198 161.311 128.605 163.747 128.615C166.184 128.626 170.784 130.933 173.704 131.92ZM163.043 126.812C163.607 126.44 164.171 126.067 164.735 125.695C165.863 124.95 167.404 124.094 169.056 123.652C173.859 122.585 177.151 124.136 181.641 126.031C179.082 128.044 175.145 128.215 172.336 127.64C169.527 127.065 167.917 126.834 165.893 126.712C164.805 126.783 163.869 126.591 163.043 126.812Z" fill="url(#paint7_linear)"/>
<path fill-rule="evenodd" clip-rule="evenodd" d="M234.897 210.883C235.491 212.273 235.107 214.146 234.2 215.717C233.293 217.288 231.863 218.556 230.211 218.999C229.235 219.482 228.298 219.291 227.362 219.099C226.426 218.908 226.053 218.344 225.57 217.367C224.977 215.977 225.36 214.104 226.378 212.946C227.285 211.375 228.715 210.107 230.105 209.513C231.344 209.181 232.32 208.698 233.106 209.151C229.958 200.701 226.397 192.362 223.249 183.913C223.552 183.389 223.552 183.389 224.226 183.43L234.897 210.883Z" fill="url(#paint8_linear)"/>
<path fill-rule="evenodd" clip-rule="evenodd" d="M187.928 161.076C186.277 161.519 184.968 160.764 183.398 159.857C181.979 158.689 181.123 157.148 180.53 155.758C180.309 154.932 180.239 153.844 180.692 153.059C181.146 152.274 181.71 151.901 182.535 151.68C183.774 151.348 185.496 151.993 186.653 153.01C187.81 154.027 189.079 155.457 189.41 156.696C189.742 157.935 189.963 158.761 189.51 159.546C197.767 157.332 206.286 155.269 214.544 153.056C214.805 153.207 214.916 153.62 214.765 153.881L187.928 161.076Z" fill="url(#paint9_linear)"/>
<path fill-rule="evenodd" clip-rule="evenodd" d="M360.187 225.973C357.78 227.724 354.547 229.698 352.652 234.189C351.361 237.632 350.443 241.64 349.194 244.409C347.752 248.115 345.113 251.478 341.88 253.451C336.28 256.501 329.493 256.772 325.446 256.529C324.771 256.489 324.661 256.076 324.963 255.552C328.638 255.231 334.861 255.333 339.635 252.504C342.304 250.903 344.903 248.215 346.042 245.033C347.332 241.589 347.616 236.866 346.319 233.674L316.367 249.891C313.849 251.23 310.889 250.917 308.12 249.668C305.352 248.419 302.775 246.233 301.699 243.866C300.844 242.325 300.402 240.674 300.896 239.214C301.128 237.603 302.145 236.445 303.274 235.7C305.378 234.471 308.339 234.784 311.107 236.033C313.875 237.283 316.452 239.468 317.679 241.573C318.645 243.527 319.349 245.33 319.117 246.941C332.834 239.502 346.138 232.173 359.855 224.734C360.117 224.885 360.489 225.449 360.187 225.973Z" fill="url(#paint10_linear)"/>
<path fill-rule="evenodd" clip-rule="evenodd" d="M203.509 196.95C203.387 198.974 203.225 201.673 205.086 204.493C206.575 206.749 208.216 208.743 209.332 210.435C210.822 212.691 211.596 215.582 211.433 218.28C210.777 222.439 208.097 226.477 206.213 228.531C206.062 228.793 205.649 228.903 205.539 228.491C206.748 226.396 209.387 223.033 209.892 219.136C210.165 216.85 209.502 214.373 208.385 212.681C206.896 210.425 204.581 208.39 202.034 207.967L198.59 231.46C198.206 233.333 196.886 235.014 195.084 235.719C193.13 236.685 191.066 237.239 189.193 236.856C187.844 236.775 186.797 236.171 186.163 235.455C185.529 234.74 185.046 233.763 185.238 232.827C185.47 231.216 187.052 229.685 188.744 228.568C190.436 227.45 192.762 227.048 194.373 227.28C195.984 227.512 197.182 227.855 197.816 228.57C199.401 217.966 200.987 207.362 202.311 196.607C202.985 196.648 203.398 196.537 203.509 196.95Z" fill="url(#paint11_linear)"/>
<path fill-rule="evenodd" clip-rule="evenodd" d="M119.795 42.1531C119.673 44.1772 119.511 46.876 121.373 49.6961C122.862 51.9521 124.502 53.9464 125.619 55.6384C127.108 57.8944 127.882 60.7848 127.72 63.4836C127.064 67.6425 124.383 71.6801 122.5 73.7341C122.348 73.9959 121.936 74.1066 121.825 73.6937C123.034 71.5993 125.674 68.2364 126.179 64.3392C126.452 62.0533 125.788 59.5759 124.672 57.8839C123.182 55.6278 120.867 53.5932 118.32 53.1698L114.876 76.6631C114.493 78.5361 113.173 80.2176 111.37 80.9222C109.417 81.8885 107.352 82.442 105.48 82.059C104.282 81.7163 103.084 81.3737 102.449 80.6586C101.815 79.9435 101.333 78.9666 101.524 78.0301C101.757 76.4189 103.338 74.8885 105.03 73.771C106.722 72.6535 109.048 72.2512 110.659 72.4831C112.27 72.715 113.468 73.0577 114.102 73.7728C115.688 63.1691 117.273 52.5653 118.597 41.8105C119.01 41.6998 119.272 41.8509 119.795 42.1531Z" fill="url(#paint12_linear)"/>
<path fill-rule="evenodd" clip-rule="evenodd" d="M85.8138 62.3275C86.1233 68.4403 86.4327 74.553 86.4803 80.5146C85.6952 80.0613 84.7589 79.8698 84.0843 79.8294C81.6476 79.8188 78.7169 81.2684 78.7058 83.7054C78.514 84.6419 78.9969 85.6188 79.7821 86.0721C80.3055 86.3744 80.9801 86.4148 81.9164 86.6063C84.3531 86.6168 87.4349 84.9055 87.2949 82.7303L86.7502 62.5191C86.4884 62.3679 86.2267 62.2168 85.8138 62.3275ZM81.747 82.6688C82.7239 82.1856 84.8288 80.9574 86.0269 81.3C86.2886 81.4511 86.5503 81.6022 86.8121 81.7533C87.0332 82.5792 85.754 83.5859 84.626 84.3309C83.4979 85.0759 81.8464 85.5187 81.1718 85.4783C80.4972 85.4379 80.4972 85.4379 80.3867 85.0249C79.7527 84.3098 80.619 83.4137 81.747 82.6688Z" fill="url(#paint13_linear)"/>
<path fill-rule="evenodd" clip-rule="evenodd" d="M281.86 229.271L282.999 226.089C285.889 225.314 288.558 223.713 289.919 221.357C291.128 219.263 291.784 215.104 290.848 214.912C288.713 214.378 285.963 217.328 285.056 218.899C284.301 220.208 283.807 221.668 283.313 223.128C279.748 223.863 275.358 224.818 273.654 228.373C271.951 231.927 273.057 236.056 276.197 237.87C276.721 238.172 277.244 238.474 278.181 238.666L277.041 241.848C276.739 242.371 276.85 242.784 276.547 243.308C275.641 244.879 274.402 245.211 272.419 244.415C271.895 244.112 271 243.246 271.302 242.723C271.825 243.025 273.285 243.519 274.041 242.21C274.645 241.162 274.052 239.773 273.267 239.319C272.22 238.715 270.679 239.57 270.074 240.618C269.429 242.34 270.395 244.293 272.116 244.938C274.361 245.885 276.013 245.443 277.071 243.61C277.222 243.348 277.373 243.086 277.524 242.825L278.855 238.706C281.141 238.978 282.943 238.274 284.153 236.179C285.513 233.823 285.152 230.822 282.796 229.462C282.535 229.311 282.122 229.422 281.86 229.271ZM280.389 231.214L278.221 237.991C277.698 237.689 277.285 237.799 276.762 237.497C274.144 235.986 272.696 233.055 274.358 230.176C276.021 227.296 279.173 226.672 282.173 226.31L281.185 229.23C279.575 228.998 277.51 229.552 276.603 231.123C275.696 232.693 275.987 234.607 276.994 235.886C276.994 235.886 277.256 236.037 277.407 235.775L277.558 235.513C276.924 234.798 276.592 233.56 277.046 232.774C277.801 231.465 279.191 230.871 280.389 231.214ZM289.93 218.92C288.721 221.014 286.354 222.091 284.028 222.494C284.22 221.557 284.673 220.772 285.126 219.987C285.882 218.678 287.917 216.362 289.639 217.007C290.273 217.722 290.232 218.396 289.93 218.92ZM281.064 231.254C282.634 232.161 283.187 234.226 282.542 235.947C281.786 237.256 280.396 237.85 279.047 237.77L281.064 231.254Z" fill="url(#paint14_linear)"/>
<path fill-rule="evenodd" clip-rule="evenodd" d="M153.313 90.477L158.068 83.4488C164.814 83.853 171.984 81.7094 176.729 77.1182C180.607 73.4232 185.112 63.8069 183.129 63.011C178.528 60.704 170.522 65.506 167.359 68.5667C164.76 71.255 162.573 73.8326 160.609 77.2359C152.101 76.8617 141.458 75.9533 135.202 83.1624C129.097 90.1097 128.64 99.9685 134.759 106.294C135.916 107.311 137.074 108.328 138.644 109.235L134.191 115.74C133.586 116.787 132.72 117.683 131.854 118.579C128.993 121.116 125.318 121.438 121.845 118.386C120.688 117.368 119.35 114.851 120.367 113.693C121.112 114.821 124.776 116.936 127.375 114.248C129.259 112.194 129.31 109.082 127.257 107.199C124.942 105.164 121.378 105.898 119.494 107.952C116.593 111.164 117.879 116.794 121.241 119.433C125.237 122.787 129.959 123.07 133.424 119.486C133.988 119.113 134.29 118.59 135.005 117.955L140.779 109.769C145.681 111.553 150.706 111.312 154.433 107.879C159.026 103.549 159.996 96.4298 155.517 92.0987C154.209 91.3432 153.836 90.7792 153.313 90.477ZM148.76 94.1316L139.289 107.513C138.242 106.909 137.196 106.304 136.562 105.589C131.449 100.543 130.174 92.4765 135.633 87.2511C141.093 82.0256 149.188 82.5106 156.045 83.3276L151.742 89.5704C148.189 87.8678 143.164 88.1085 140.153 90.9075C137.141 93.7064 136.333 98.1271 138.154 101.622C138.416 101.773 138.678 101.924 139.091 101.813C139.242 101.552 139.242 101.552 139.131 101.139C138.317 98.9231 138.328 96.486 140.06 94.6939C142.619 92.6803 146.143 92.6206 148.76 94.1316ZM178.211 72.7379C174.182 76.6948 167.767 77.5294 162.522 76.9443C163.58 75.1117 164.9 73.4302 166.33 72.1616C169.039 69.8863 175.093 66.0507 178.454 68.6897C179.874 69.8582 179.228 71.5801 178.211 72.7379ZM149.918 95.1489C152.977 98.3116 152.955 103.186 150.053 106.398C147.606 108.824 144.041 109.558 140.86 108.42L149.918 95.1489Z" fill="url(#paint15_linear)"/>
</g>
</g>
<defs>
<linearGradient id="paint0_linear" x1="19.0404" y1="57.2529" x2="389.545" y2="275.814" gradientUnits="userSpaceOnUse">
<stop stop-color="white"/>
<stop offset="0.3515" stop-color="#FEC10B"/>
<stop offset="0.4848" stop-color="#FEC10B"/>
<stop offset="0.6303" stop-color="#FEC10B"/>
<stop offset="1" stop-color="white"/>
</linearGradient>
<linearGradient id="paint1_linear" x1="19.4629" y1="56.5357" x2="389.969" y2="275.098" gradientUnits="userSpaceOnUse">
<stop stop-color="white"/>
<stop offset="0.3515" stop-color="#FEC10B"/>
<stop offset="0.4848" stop-color="#FEC10B"/>
<stop offset="0.6303" stop-color="#FEC10B"/>
<stop offset="1" stop-color="white"/>
</linearGradient>
<linearGradient id="paint2_linear" x1="19.9212" y1="55.7599" x2="390.426" y2="274.321" gradientUnits="userSpaceOnUse">
<stop stop-color="white"/>
<stop offset="0.3515" stop-color="#FEC10B"/>
<stop offset="0.4848" stop-color="#FEC10B"/>
<stop offset="0.6303" stop-color="#FEC10B"/>
<stop offset="1" stop-color="white"/>
</linearGradient>
<linearGradient id="paint3_linear" x1="19.7969" y1="55.9751" x2="390.302" y2="274.536" gradientUnits="userSpaceOnUse">
<stop stop-color="white"/>
<stop offset="0.3515" stop-color="#FEC10B"/>
<stop offset="0.4848" stop-color="#FEC10B"/>
<stop offset="0.6303" stop-color="#FEC10B"/>
<stop offset="1" stop-color="white"/>
</linearGradient>
<linearGradient id="paint4_linear" x1="20.4497" y1="54.8681" x2="390.95" y2="273.427" gradientUnits="userSpaceOnUse">
<stop stop-color="white"/>
<stop offset="0.3515" stop-color="#FEC10B"/>
<stop offset="0.4848" stop-color="#FEC10B"/>
<stop offset="0.6303" stop-color="#FEC10B"/>
<stop offset="1" stop-color="white"/>
</linearGradient>
<linearGradient id="paint5_linear" x1="19.5343" y1="56.4152" x2="390.04" y2="274.977" gradientUnits="userSpaceOnUse">
<stop stop-color="white"/>
<stop offset="0.3515" stop-color="#FEC10B"/>
<stop offset="0.4848" stop-color="#FEC10B"/>
<stop offset="0.6303" stop-color="#FEC10B"/>
<stop offset="1" stop-color="white"/>
</linearGradient>
<linearGradient id="paint6_linear" x1="16.082" y1="62.2738" x2="386.584" y2="280.834" gradientUnits="userSpaceOnUse">
<stop stop-color="white"/>
<stop offset="0.3515" stop-color="#FEC10B"/>
<stop offset="0.4848" stop-color="#FEC10B"/>
<stop offset="0.6303" stop-color="#FEC10B"/>
<stop offset="1" stop-color="white"/>
</linearGradient>
<linearGradient id="paint7_linear" x1="24.2261" y1="48.4602" x2="394.732" y2="267.022" gradientUnits="userSpaceOnUse">
<stop stop-color="white"/>
<stop offset="0.3515" stop-color="#FEC10B"/>
<stop offset="0.4848" stop-color="#FEC10B"/>
<stop offset="0.6303" stop-color="#FEC10B"/>
<stop offset="1" stop-color="white"/>
</linearGradient>
<linearGradient id="paint8_linear" x1="9.32938" y1="73.7124" x2="379.835" y2="292.274" gradientUnits="userSpaceOnUse">
<stop stop-color="white"/>
<stop offset="0.3515" stop-color="#FEC10B"/>
<stop offset="0.4848" stop-color="#FEC10B"/>
<stop offset="0.6303" stop-color="#FEC10B"/>
<stop offset="1" stop-color="white"/>
</linearGradient>
<linearGradient id="paint9_linear" x1="22.1539" y1="51.981" x2="392.658" y2="270.542" gradientUnits="userSpaceOnUse">
<stop stop-color="white"/>
<stop offset="0.3515" stop-color="#FEC10B"/>
<stop offset="0.4848" stop-color="#FEC10B"/>
<stop offset="0.6303" stop-color="#FEC10B"/>
<stop offset="1" stop-color="white"/>
</linearGradient>
<linearGradient id="paint10_linear" x1="21.5707" y1="52.9907" x2="392.063" y2="271.545" gradientUnits="userSpaceOnUse">
<stop stop-color="white"/>
<stop offset="0.3515" stop-color="#FEC10B"/>
<stop offset="0.4848" stop-color="#FEC10B"/>
<stop offset="0.6303" stop-color="#FEC10B"/>
<stop offset="1" stop-color="white"/>
</linearGradient>
<linearGradient id="paint11_linear" x1="-5.1017" y1="98.2544" x2="365.346" y2="316.782" gradientUnits="userSpaceOnUse">
<stop stop-color="white"/>
<stop offset="0.3515" stop-color="#FEC10B"/>
<stop offset="0.4848" stop-color="#FEC10B"/>
<stop offset="0.609375" stop-color="#FEC10B"/>
<stop offset="0.6303" stop-color="#212121"/>
<stop offset="1" stop-color="white"/>
</linearGradient>
<linearGradient id="paint12_linear" x1="40.9388" y1="20.1181" x2="411.472" y2="238.696" gradientUnits="userSpaceOnUse">
<stop stop-color="white"/>
<stop offset="0.3515" stop-color="#FEC10B"/>
<stop offset="0.4848" stop-color="#FEC10B"/>
<stop offset="0.6303" stop-color="#FEC10B"/>
<stop offset="1" stop-color="white"/>
</linearGradient>
<linearGradient id="paint13_linear" x1="28.1731" y1="41.7532" x2="398.723" y2="260.341" gradientUnits="userSpaceOnUse">
<stop stop-color="white"/>
<stop offset="0.3515" stop-color="#FEC10B"/>
<stop offset="0.4848" stop-color="#FEC10B"/>
<stop offset="0.6303" stop-color="#FEC10B"/>
<stop offset="1" stop-color="white"/>
</linearGradient>
<linearGradient id="paint14_linear" x1="11.329" y1="70.3237" x2="381.833" y2="288.885" gradientUnits="userSpaceOnUse">
<stop stop-color="white"/>
<stop offset="0.3515" stop-color="#FEC10B"/>
<stop offset="0.4848" stop-color="#FEC10B"/>
<stop offset="0.6303" stop-color="#FEC10B"/>
<stop offset="1" stop-color="white"/>
</linearGradient>
<linearGradient id="paint15_linear" x1="38.4084" y1="24.3973" x2="408.945" y2="242.977" gradientUnits="userSpaceOnUse">
<stop stop-color="white"/>
<stop offset="0.3515" stop-color="#FEC10B"/>
<stop offset="0.4848" stop-color="#FEC10B"/>
<stop offset="0.6303" stop-color="#FEC10B"/>
<stop offset="1" stop-color="white"/>
</linearGradient>
<clipPath id="clip0">
<rect x="73.9907" width="388.039" height="147.824" transform="rotate(30 73.9907 0)" fill="white"/>
</clipPath>
</defs>
</svg>
