<svg width="36" height="36" viewBox="0 0 36 36" fill="none" xmlns="http://www.w3.org/2000/svg">
<path fill-rule="evenodd" clip-rule="evenodd" d="M36 18C36 27.9411 27.9411 36 18 36C8.05887 36 0 27.9411 0 18C0 8.05887 8.05887 0 18 0C27.9411 0 36 8.05887 36 18ZM24.3017 22.7472V15.4406L24.2998 15.4348V8.1032C24.2998 8.00821 24.2941 7.91322 24.2845 7.81823C24.2442 7.41811 23.9688 7.16864 23.5744 7.20318C23.3208 7.22117 23.0665 7.2713 22.8154 7.32076L22.7253 7.33847C22.2954 7.42339 21.8669 7.50952 21.4385 7.59564C21.0101 7.68175 20.5817 7.76786 20.1519 7.85277L17.2484 8.44286C16.4443 8.60139 15.6437 8.76344 14.8405 8.92599L14.4351 9.00801C14.3377 9.02876 14.2397 9.04858 14.1416 9.06842C13.9085 9.11557 13.6748 9.16284 13.4459 9.22294C13.0966 9.30834 12.8366 9.51847 12.7464 9.88308C12.7119 10.0385 12.6917 10.1978 12.6917 10.358V21.9124C12.6668 22.4123 12.4115 22.7222 11.9222 22.8268L10.8226 23.0514C10.338 23.1511 9.86309 23.2557 9.40349 23.4457C8.22426 23.9456 7.7493 25.0654 7.92969 26.1045C8.13886 27.3087 9.15881 28.1233 10.3831 28.0782C10.8504 28.063 11.314 27.9892 11.7629 27.8585C12.6121 27.6138 13.2415 27.0986 13.5965 26.2791C13.8105 25.7802 13.8709 25.2505 13.8709 24.7103C13.8733 23.0466 13.8733 21.3825 13.8733 19.7184C13.8733 18.0542 13.8733 16.39 13.8757 14.7257C13.8757 14.7075 13.8752 14.6892 13.8747 14.6709C13.8736 14.6341 13.8725 14.5972 13.8757 14.5607C13.8911 14.1913 14.0158 14.031 14.3709 13.9312C14.3845 13.9312 14.4004 13.9264 14.4156 13.9217C14.4227 13.9196 14.4296 13.9174 14.4361 13.9159L19.1684 12.9612C20.1384 12.7616 21.1123 12.5668 22.0872 12.3768C22.2868 12.3365 22.4864 12.301 22.6917 12.2914C22.8913 12.2819 23.0314 12.397 23.0813 12.5918C23.1025 12.6684 23.1141 12.7474 23.1158 12.8269V19.7929C23.1158 19.8725 23.111 19.9579 23.0908 20.0375C23.0208 20.4031 22.7915 20.618 22.4365 20.6977C22.1341 20.7672 21.8299 20.8307 21.5249 20.8942C21.346 20.9316 21.1668 20.9689 20.9876 21.0076C20.5434 21.0978 20.0981 21.2177 19.6884 21.4173C19.2141 21.6438 18.8271 22.0197 18.587 22.4874C18.347 22.9551 18.267 23.4886 18.3595 24.0061C18.4605 24.5812 18.7694 25.0992 19.2274 25.4614C19.6855 25.8235 20.2608 26.0046 20.8437 25.9702C21.3072 25.952 21.7669 25.8783 22.2129 25.7505C23.0179 25.5202 23.6176 25.0452 23.987 24.291C24.2269 23.8065 24.3017 23.2816 24.3017 22.7472Z" fill="#FEC10B"/>
</svg>
