<svg width="102" height="102" viewBox="0 0 102 102" fill="none" xmlns="http://www.w3.org/2000/svg">
<circle r="51" transform="matrix(-1 0 0 1 51 51)" fill="white"/>
<circle r="51" transform="matrix(-1 0 0 1 51 51)" fill="#FEC10B"/>
<path d="M34.3802 48.51L56.6642 25.8147C57.1796 25.2894 57.8676 25 58.6012 25C59.3348 25 60.0228 25.2894 60.5382 25.8147L62.1793 27.4857C63.2471 28.5745 63.2471 30.3442 62.1793 31.4313L43.4669 50.4894L62.2 69.5687C62.7154 70.094 63 70.7943 63 71.5411C63 72.2886 62.7154 72.989 62.2 73.5147L60.559 75.1853C60.0432 75.7106 59.3556 76 58.6219 76C57.8883 76 57.2003 75.7106 56.6849 75.1853L34.3802 52.4693C33.8636 51.9423 33.5798 51.2387 33.5815 50.4907C33.5798 49.7398 33.8636 49.0366 34.3802 48.51Z" fill="white"/>
</svg>
