<svg width="14" height="14" viewBox="0 0 14 14" fill="none" xmlns="http://www.w3.org/2000/svg">
<path d="M7.07027 0C4.27451 0 2 2.27451 2 5.07024C2 8.53983 6.53739 13.6334 6.73058 13.8485C6.91203 14.0506 7.22884 14.0503 7.40996 13.8485C7.60314 13.6334 12.1405 8.53983 12.1405 5.07024C12.1405 2.27451 9.866 0 7.07027 0ZM7.07027 7.62122C5.66365 7.62122 4.51932 6.47686 4.51932 5.07024C4.51932 3.66362 5.66368 2.51929 7.07027 2.51929C8.47686 2.51929 9.62119 3.66365 9.62119 5.07027C9.62119 6.47689 8.47686 7.62122 7.07027 7.62122Z" fill="#666666"/>
</svg>
