<svg width="291" height="140" viewBox="0 0 291 140" fill="none" xmlns="http://www.w3.org/2000/svg">
<path d="M102.806 61.2729C102.713 60.8392 102.667 60.0027 102.667 58.7636C102.667 57.5245 102.899 56.2079 103.364 54.8138H103.782C103.751 55.1546 103.735 55.4954 103.735 55.8361C103.735 57.7258 104.309 59.3057 105.455 60.5758C106.601 61.815 108.119 62.4346 110.009 62.4346C111.96 62.4346 113.556 61.846 114.795 60.6688C116.065 59.4916 116.7 58.0201 116.7 56.2543C116.7 54.4576 116.096 53.0016 114.888 51.8864L105.966 43.6151C104.293 42.0662 103.457 40.1919 103.457 37.9925C103.457 35.793 104.185 33.9188 105.641 32.3699C107.128 30.79 109.126 30 111.635 30C112.812 30 114.144 30.1549 115.631 30.4647H117.443V36.1802H117.025C117.025 34.7242 116.514 33.5625 115.492 32.6951C114.5 31.8277 113.215 31.394 111.635 31.394C110.055 31.394 108.723 31.9207 107.639 32.9739C106.585 34.0272 106.059 35.3438 106.059 36.9237C106.059 38.5036 106.678 39.8667 107.918 41.0129L117.072 49.47C118.621 50.895 119.395 52.8467 119.395 55.325C119.395 57.8033 118.605 59.8479 117.025 61.4587C115.445 63.0386 113.339 63.8286 110.706 63.8286C109.343 63.8286 107.887 63.6117 106.338 63.1781C104.82 62.7753 103.643 62.1403 102.806 61.2729Z" fill="#666666"/>
<path d="M149.751 62.7908H150.061V63.1781H141.349V62.7908H141.697C142.239 62.7908 142.639 62.623 142.897 62.2874C143.181 61.926 143.323 61.5904 143.323 61.2806C143.323 60.9708 143.272 60.661 143.168 60.3513L140.69 53.7683H130.235L127.64 60.39C127.537 60.6998 127.486 61.0096 127.486 61.3193C127.486 61.6033 127.615 61.926 127.873 62.2874C128.157 62.623 128.57 62.7908 129.112 62.7908H129.46V63.1781H121.677V62.7908H122.026C122.671 62.7908 123.303 62.5843 123.923 62.1712C124.543 61.7582 125.046 61.1515 125.433 60.3513L134.185 39.5182C135.14 37.4271 135.617 36.0976 135.617 35.5297H135.966L146.344 60.3513C146.705 61.1515 147.196 61.7582 147.815 62.1712C148.435 62.5843 149.08 62.7908 149.751 62.7908ZM130.7 52.6066H140.226L135.579 40.1765L130.7 52.6066Z" fill="#666666"/>
<path d="M184.444 62.7908H185.064V63.1781H176.661V62.8295H177.242C177.68 62.8295 178.055 62.6617 178.365 62.3261C178.674 61.9647 178.803 61.5775 178.752 61.1644L177.009 41.6867L168.877 59.7704C168.155 61.3451 167.716 62.6617 167.561 63.7202H167.174L157.26 42.2288L155.595 61.1644C155.544 61.5775 155.673 61.9647 155.983 62.3261C156.292 62.6617 156.654 62.8295 157.067 62.8295H157.686V63.1781H150.174V62.7908H150.794C151.516 62.7908 152.136 62.5714 152.652 62.1325C153.194 61.6937 153.517 61.0999 153.62 60.3513L156.525 35.5297H156.912L167.716 58.8798L178.287 35.5297H178.636L181.617 60.3513C181.746 61.3839 182.263 62.1067 183.166 62.5198C183.553 62.7005 183.979 62.7908 184.444 62.7908Z" fill="#666666"/>
<path d="M213.357 62.7908H213.667V63.1781H204.954V62.7908H205.303C205.845 62.7908 206.245 62.623 206.503 62.2874C206.787 61.926 206.929 61.5904 206.929 61.2806C206.929 60.9708 206.878 60.661 206.774 60.3513L204.296 53.7683H193.841L191.246 60.39C191.143 60.6998 191.091 61.0096 191.091 61.3193C191.091 61.6033 191.221 61.926 191.479 62.2874C191.763 62.623 192.176 62.7908 192.718 62.7908H193.066V63.1781H185.283V62.7908H185.632C186.277 62.7908 186.909 62.5843 187.529 62.1712C188.149 61.7582 188.652 61.1515 189.039 60.3513L197.791 39.5182C198.746 37.4271 199.223 36.0976 199.223 35.5297H199.572L209.95 60.3513C210.311 61.1515 210.802 61.7582 211.421 62.1712C212.041 62.5843 212.686 62.7908 213.357 62.7908ZM194.306 52.6066H203.831L199.185 40.1765L194.306 52.6066Z" fill="#666666"/>
<path d="M223.499 37.2722H221.021V60.3513C221.021 61.0225 221.254 61.6033 221.718 62.0938C222.209 62.5585 222.802 62.7908 223.499 62.7908H223.964L224.003 63.1781H215.523V62.7908H216.026C216.697 62.7908 217.265 62.5585 217.73 62.0938C218.22 61.6291 218.478 61.0612 218.504 60.39V38.8986C218.478 38.2274 218.22 37.6595 217.73 37.1948C217.265 36.7043 216.697 36.459 216.026 36.459H215.523V36.0718H225.978C228.327 36.0718 230.173 36.7301 231.515 38.0467C232.858 39.3375 233.529 41.0284 233.529 43.1194C233.529 45.1847 232.883 46.9788 231.593 48.502C230.328 49.9992 228.779 50.7479 226.946 50.7479C227.333 50.9286 227.785 51.29 228.301 51.8321C228.843 52.3485 229.321 52.8906 229.734 53.4585C231.954 56.6338 233.4 58.5958 234.071 59.3444C234.742 60.0673 235.22 60.5707 235.504 60.8547C235.788 61.1128 236.097 61.371 236.433 61.6291C236.769 61.8873 237.104 62.0938 237.44 62.2487C238.188 62.6101 238.989 62.7908 239.841 62.7908V63.1781H237.711C236.601 63.1781 235.568 62.9844 234.613 62.5972C233.658 62.1842 232.935 61.7711 232.445 61.3581C231.98 60.9192 231.567 60.5061 231.205 60.1189C230.87 59.7059 229.915 58.3635 228.34 56.0917C226.765 53.8199 225.849 52.5292 225.591 52.2194C225.332 51.8838 225.061 51.5611 224.777 51.2513C223.951 50.3736 223.125 49.9347 222.299 49.9347V49.5475C222.506 49.5733 222.777 49.5862 223.112 49.5862C223.448 49.5862 223.861 49.5733 224.351 49.5475C227.553 49.47 229.566 48.1276 230.392 45.5203C230.547 45.004 230.625 44.5264 230.625 44.0875C230.625 43.6228 230.625 43.3259 230.625 43.1969C230.573 41.4672 230.121 40.0732 229.269 39.0148C228.417 37.9563 227.269 37.3884 225.823 37.3109C225.203 37.2851 224.429 37.2722 223.499 37.2722Z" fill="#666666"/>
<path d="M260.096 39.5182C260.096 38.8986 259.876 38.3694 259.437 37.9305C258.998 37.4658 258.482 37.2206 257.888 37.1948H250.531V60.39C250.557 61.0612 250.802 61.6291 251.267 62.0938C251.757 62.5585 252.338 62.7908 253.009 62.7908H253.513V63.1781H245.032V62.7908H245.536C246.207 62.7908 246.775 62.5585 247.24 62.0938C247.73 61.6291 247.988 61.0741 248.014 60.4287V37.1948H240.657C240.037 37.2206 239.508 37.4658 239.069 37.9305C238.656 38.3694 238.449 38.8986 238.449 39.5182V40.1765L238.062 40.2152V35.3361C238.449 35.491 239.121 35.6458 240.076 35.8007C241.031 35.9556 241.909 36.0331 242.709 36.0331H255.797C257.062 36.0331 258.108 35.9427 258.934 35.762C259.786 35.5555 260.302 35.4135 260.483 35.3361V40.2152L260.096 40.1765V39.5182Z" fill="#666666"/>
<path d="M282.407 62.7908C283.078 62.7908 283.646 62.5585 284.11 62.0938C284.601 61.6291 284.859 61.0612 284.885 60.39V50.3607H269.047V60.3513C269.047 61.0225 269.292 61.6033 269.783 62.0938C270.273 62.5585 270.854 62.7908 271.525 62.7908H272.029V63.1781H263.548V62.7908H264.052C264.723 62.7908 265.291 62.5585 265.756 62.0938C266.246 61.6033 266.504 61.0225 266.53 60.3513V38.8599C266.504 38.1887 266.246 37.6207 265.756 37.156C265.291 36.6914 264.723 36.459 264.052 36.459H263.548V36.0718H272.029V36.459H271.525C270.854 36.459 270.273 36.6914 269.783 37.156C269.318 37.6207 269.073 38.1887 269.047 38.8599V49.199H284.885V38.8599C284.859 37.9305 284.446 37.2335 283.646 36.7688C283.258 36.5623 282.845 36.459 282.407 36.459H281.903V36.0718H290.384V36.459H289.88C289.209 36.459 288.628 36.7043 288.138 37.1948C287.673 37.6595 287.428 38.2274 287.402 38.8986V60.3513C287.428 61.0225 287.673 61.6033 288.138 62.0938C288.628 62.5585 289.209 62.7908 289.88 62.7908H290.384V63.1781H281.903V62.7908H282.407Z" fill="#666666"/>
<path d="M118.512 76.9304C123.469 76.9304 127.481 78.4328 130.547 81.4378C133.645 84.4117 135.194 88.3305 135.194 93.1941C135.194 98.0578 133.645 101.992 130.547 104.997C127.481 107.971 123.469 109.458 118.512 109.458H102.76V108.993H103.364C104.169 108.993 104.851 108.714 105.408 108.157C105.997 107.568 106.307 106.871 106.338 106.066V80.0437C106.338 79.3002 106.028 78.6807 105.408 78.185C104.82 77.6584 104.138 77.3951 103.364 77.3951H102.806L102.76 76.9304H118.512ZM109.358 78.3244V108.064H118.512C121.114 108.064 123.407 107.444 125.389 106.205C127.403 104.966 128.952 103.231 130.036 101.001C131.151 98.7393 131.709 96.1371 131.709 93.1941C131.709 88.7332 130.485 85.1397 128.038 82.4136C125.622 79.6875 122.447 78.3244 118.512 78.3244H109.358Z" fill="#666666"/>
<path d="M140.281 109.071C140.952 109.071 141.52 108.838 141.985 108.374C142.476 107.883 142.734 107.302 142.759 106.631V84.9461C142.682 84.3265 142.411 83.8102 141.946 83.3972C141.482 82.9583 140.927 82.7389 140.281 82.7389H139.817L139.778 82.3516H151.124C151.924 82.3516 152.789 82.2742 153.718 82.1193C154.673 81.9644 155.345 81.8095 155.732 81.6546V86.5337H155.345V85.8367C155.345 85.2171 155.125 84.6879 154.686 84.2491C154.273 83.8102 153.77 83.5779 153.176 83.5521H145.276V95.5175H151.821C152.337 95.4917 152.776 95.2981 153.137 94.9367C153.499 94.5753 153.679 94.1235 153.679 93.5814V93.0392H154.067V99.1575H153.679V98.5767C153.679 98.0603 153.499 97.6215 153.137 97.2601C152.802 96.8987 152.376 96.705 151.859 96.6792H145.276V108.257H150.814C152.724 108.257 154.183 107.832 155.19 106.98C156.196 106.128 157.035 104.863 157.707 103.185H158.094L155.848 109.458H139.778V109.071H140.281Z" fill="#666666"/>
<path d="M162.166 107.87C162.088 107.509 162.049 106.812 162.049 105.779C162.049 104.747 162.243 103.649 162.63 102.488H162.979C162.953 102.772 162.94 103.056 162.94 103.34C162.94 104.914 163.418 106.231 164.373 107.289C165.328 108.322 166.593 108.838 168.168 108.838C169.794 108.838 171.124 108.348 172.156 107.367C173.215 106.386 173.744 105.16 173.744 103.688C173.744 102.191 173.24 100.977 172.234 100.048L164.799 93.1554C163.405 91.8646 162.708 90.3028 162.708 88.4699C162.708 86.637 163.314 85.0752 164.528 83.7844C165.767 82.4678 167.432 81.8095 169.523 81.8095C170.504 81.8095 171.614 81.9386 172.853 82.1967H174.363V86.9597H174.015C174.015 85.7464 173.589 84.7783 172.737 84.0555C171.911 83.3326 170.84 82.9712 169.523 82.9712C168.206 82.9712 167.096 83.4101 166.193 84.2878C165.315 85.1655 164.876 86.2627 164.876 87.5793C164.876 88.8959 165.392 90.0317 166.425 90.9869L174.054 98.0345C175.344 99.222 175.99 100.848 175.99 102.914C175.99 104.979 175.331 106.683 174.015 108.025C172.698 109.342 170.943 110 168.749 110C167.613 110 166.399 109.819 165.109 109.458C163.844 109.122 162.863 108.593 162.166 107.87Z" fill="#666666"/>
<path d="M205.908 109.071H206.217V109.458H197.505V109.071H197.853C198.395 109.071 198.795 108.903 199.054 108.567C199.338 108.206 199.48 107.87 199.48 107.56C199.48 107.251 199.428 106.941 199.325 106.631L196.846 100.048H186.391L183.797 106.67C183.693 106.98 183.642 107.289 183.642 107.599C183.642 107.883 183.771 108.206 184.029 108.567C184.313 108.903 184.726 109.071 185.268 109.071H185.617V109.458H177.833V109.071H178.182C178.827 109.071 179.46 108.864 180.079 108.451C180.699 108.038 181.202 107.431 181.589 106.631L190.341 85.798C191.296 83.7069 191.774 82.3774 191.774 81.8095H192.122L202.5 106.631C202.861 107.431 203.352 108.038 203.971 108.451C204.591 108.864 205.236 109.071 205.908 109.071ZM186.856 98.8864H196.382L191.735 86.4563L186.856 98.8864Z" fill="#666666"/>
<path d="M208.576 109.071C209.247 109.071 209.815 108.838 210.28 108.374C210.771 107.883 211.029 107.302 211.055 106.631V85.1397C211.029 84.4685 210.771 83.9006 210.28 83.4359C209.815 82.9712 209.247 82.7389 208.576 82.7389H208.073V82.3516H216.553V82.7389H216.05C215.379 82.7389 214.798 82.9712 214.307 83.4359C213.843 83.9006 213.597 84.4685 213.572 85.1397V106.631C213.572 107.302 213.817 107.883 214.307 108.374C214.798 108.838 215.379 109.071 216.05 109.071H216.553V109.458H208.073V109.071H208.576Z" fill="#666666"/>
<path d="M234.212 105.586C234.212 107.724 232.478 109.458 230.34 109.458C228.201 109.458 226.467 107.724 226.467 105.586C226.467 103.447 228.201 101.713 230.34 101.713C232.478 101.713 234.212 103.447 234.212 105.586Z" fill="#E79607"/>
<path d="M64.4075 18.246C60.4091 24.5447 56.4073 30.8411 52.4021 37.1353C52.0058 37.7595 51.6146 38.713 51.0809 39.2163C50.4775 39.7854 49.2964 38.9682 48.5737 38.7078C46.9999 38.1393 45.3876 37.6859 43.7493 37.3512C40.7904 36.7358 37.7578 36.5641 34.7493 36.8417C29.812 37.3231 24.6812 39.2147 21.3352 43.0581C17.1383 47.8789 16.2628 55.2828 16.8102 61.4226C16.9401 62.8788 17.1421 64.3344 17.6472 65.7126C17.9947 66.5638 18.3903 67.394 18.8322 68.1993C20.0555 70.6354 20.7634 73.3944 21.0714 76.1032C21.2894 78.0206 19.9667 80.0149 18.615 81.3927C16.5085 83.5399 14.0184 85.3948 11.6216 87.1932C8.56988 89.4829 5.01246 91.05 2.96504 94.4374C-0.108213 99.5221 -0.379063 106.155 0.317109 111.915C1.04594 117.946 3.6331 123.48 7.41606 128.174C12.7686 134.816 20.8996 138.876 29.2909 139.79C34.1338 140.318 39.3427 139.879 43.9302 138.14C49.4536 136.039 53.9598 131.866 56.5084 126.491C60.5799 118.009 60.2437 106.965 55.7798 98.7539C53.3908 94.3816 49.8974 90.7262 45.6548 88.1595C44.045 87.1729 42.3506 86.3343 40.5921 85.6539C38.8479 84.9809 37.1925 84.4307 35.6825 83.2483C33.8202 81.8039 32.3841 79.8733 31.5294 77.665C31.3518 77.2038 31.2075 76.7302 31.0976 76.2481C31.08 76.1691 30.9828 75.6339 31.011 75.8176C30.9916 75.691 30.9734 75.5619 30.9627 75.4343C30.9266 75.0036 30.9597 75.7901 30.9624 75.3588C30.9649 74.9839 30.9671 75.488 30.9659 75.4895C31.0954 75.3314 30.9506 75.1176 30.9634 75.4946C30.9481 75.0436 30.9032 75.6141 30.9988 75.1743C30.9531 75.3847 31.0653 74.8376 31.0829 74.7627C31.143 74.5039 31.2164 74.2484 31.303 73.9973C32.9578 69.2164 37.9571 66.7025 42.7587 66.7229C45.3597 66.7425 47.9076 67.4673 50.1361 68.8216L50.304 68.7181C58.7716 52.579 67.6545 36.6677 76.3045 20.6286C78.7331 16.1255 81.1381 11.6095 83.5196 7.08075C84.0657 6.03984 84.0318 4.66342 83.9608 3.51525C83.9268 2.96566 83.9158 2.28089 83.6705 1.78302C83.6096 1.65939 83.3684 1.14009 83.1838 1.49083C74.1096 18.7277 64.807 35.8402 55.5069 52.9534C50.8872 61.454 46.2779 69.9604 41.679 78.4724C39.3698 82.7579 37.0694 87.0482 34.7776 91.3432C33.6498 93.4582 32.5249 95.5747 31.4029 97.6928C30.3053 99.7651 28.826 101.917 28.2166 104.19C27.5664 106.499 27.3913 108.918 27.7021 111.298C27.9212 112.808 28.4576 113.917 29.7698 114.7C30.4001 115.075 31.0516 115.469 31.7986 115.396C32.614 115.283 33.388 114.964 34.0484 114.468C35.7853 113.26 36.8133 111.251 37.1619 109.187C37.3872 107.852 37.4677 106.418 37.1619 105.088C36.9546 104.186 36.4565 103.975 36.2686 105.088C36.0094 106.623 34.9924 108.021 33.7126 108.878C33.1415 109.271 32.4848 109.518 31.7986 109.599C31.117 109.667 30.5241 109.346 29.9442 109.005C29.5526 108.792 29.206 108.505 28.9239 108.158C28.8602 108.073 28.7578 107.872 28.7091 107.824C28.4643 107.584 28.7314 107.98 28.763 108.193C28.8198 108.613 28.8287 109.038 28.7896 109.459C28.7558 109.893 28.7535 109.983 28.7825 109.729C28.9651 109.319 29.0704 108.369 29.3691 107.768C29.9023 106.697 30.4871 105.649 31.0465 104.591C35.2347 96.6713 39.4604 88.7723 43.7238 80.8938C52.2123 65.1707 60.7891 49.4965 69.274 33.7715C74.0628 24.8966 78.8113 15.9997 83.5196 7.08076L83.1838 1.49083C76.0574 15.0735 68.637 28.4954 61.3085 41.9672C57.6514 48.69 54.0336 55.4345 50.4552 62.2006C50.2544 62.5825 50.1814 62.8925 49.7347 62.7871C49.4288 62.7149 49.075 62.4277 48.7804 62.288C48.143 61.986 47.4842 61.7325 46.8095 61.5295C45.541 61.1489 44.2266 60.9464 42.9033 60.928C40.317 60.8798 37.7694 61.5668 35.5513 62.9104C30.6577 65.9114 29.3728 71.7171 29.7605 77.1559C30.1377 82.4459 32.4428 87.3674 37.1474 90.036C38.5475 90.8302 40.1081 91.2248 41.5821 91.8528C43.58 92.698 45.4801 93.7616 47.2486 95.0246C51.291 97.9002 54.47 101.845 56.4364 106.426C57.3255 108.541 58.0048 110.844 58.0332 113.157C58.0353 113.333 58.0201 114.04 58.0348 113.445C58.0497 112.836 58.0039 113.875 57.9914 114.091C57.9573 114.682 58.0495 113.666 57.9869 114.156C57.9632 114.341 57.9457 114.527 57.9221 114.713C57.8925 114.946 57.8589 115.178 57.8237 115.41C57.7848 115.667 57.8291 115.389 57.8361 115.349C57.8111 115.495 57.7838 115.64 57.7558 115.786C56.7087 121.28 53.6511 126.176 49.1914 129.498C45.1288 132.504 40.1759 133.772 35.2166 134.111C29.5444 134.485 23.8692 133.43 18.701 131.041C15.5577 129.593 12.5661 127.694 10.1089 125.225C6.03562 121.133 2.53065 115.736 1.54147 109.946C1.47141 109.536 1.3907 108.924 1.3446 108.414C1.37234 108.721 1.31621 107.892 1.31024 107.791C1.29019 107.45 1.30342 107.756 1.3054 107.821C1.29931 107.623 1.30228 107.424 1.29873 107.225C1.29758 107.161 1.30289 106.659 1.29198 107.098C1.2957 106.948 1.30435 106.798 1.31235 106.648C1.32268 106.455 1.35717 105.98 1.36072 105.946C1.42876 105.363 1.52588 104.784 1.6517 104.211C2.19592 101.667 3.46043 99.3363 5.2916 97.5034C6.28745 96.5316 7.48885 95.8399 8.64841 95.0916C11.082 93.521 13.3536 91.7291 15.6053 89.9067C17.4509 88.413 19.505 86.8643 20.6798 84.7392C22.5119 81.4251 22.5802 77.1998 22.1977 73.523C21.8689 70.3624 21.1915 66.9688 19.8854 64.0622C19.054 62.2122 17.9976 60.6273 17.9445 58.7549C17.7993 53.6255 20.737 48.5335 24.9883 45.8007C29.7922 42.7127 35.9211 42.0453 41.4661 42.7679C44.7224 43.2116 47.9017 44.1109 50.9122 45.44L51.0801 45.3365C55.631 38.1674 60.1854 31.0005 64.7433 23.8359C65.3494 22.8812 65.2514 21.3531 65.1845 20.2704C65.171 20.053 64.7775 17.6632 64.4075 18.246V18.246Z" fill="url(#paint0_linear)"/>
<path d="M32.9403 110.787C35.3188 110.787 37.2469 108.672 37.2469 106.064C37.2469 103.455 35.3188 101.34 32.9403 101.34C30.5618 101.34 28.6336 103.455 28.6336 106.064C28.6336 108.672 30.5618 110.787 32.9403 110.787Z" fill="#EA9D07"/>
<path d="M68.2972 16.5322C69.2955 16.5322 70.1049 15.7151 70.1049 14.7072C70.1049 13.6993 69.2955 12.8822 68.2972 12.8822C67.2988 12.8822 66.4894 13.6993 66.4894 14.7072C66.4894 15.7151 67.2988 16.5322 68.2972 16.5322Z" fill="url(#paint1_linear)"/>
<path d="M76.8041 3.64996C77.8025 3.64996 78.6118 2.83289 78.6118 1.82498C78.6118 0.817072 77.8025 0 76.8041 0C75.8057 0 74.9964 0.817072 74.9964 1.82498C74.9964 2.83289 75.8057 3.64996 76.8041 3.64996Z" fill="url(#paint2_linear)"/>
<path d="M72.5506 9.66168C73.549 9.66168 74.3584 8.84461 74.3584 7.8367C74.3584 6.82879 73.549 6.01172 72.5506 6.01172C71.5523 6.01172 70.7429 6.82879 70.7429 7.8367C70.7429 8.84461 71.5523 9.66168 72.5506 9.66168Z" fill="url(#paint3_linear)"/>
<defs>
<linearGradient id="paint0_linear" x1="84" y1="1.37109" x2="-13.3438" y2="166.25" gradientUnits="userSpaceOnUse">
<stop stop-color="#FFC20B"/>
<stop offset="1" stop-color="#DE8705"/>
</linearGradient>
<linearGradient id="paint1_linear" x1="70.1049" y1="12.8822" x2="68.2345" y2="18.061" gradientUnits="userSpaceOnUse">
<stop stop-color="#FFC20B"/>
<stop offset="1" stop-color="#DE8705"/>
</linearGradient>
<linearGradient id="paint2_linear" x1="78.6118" y1="0" x2="76.7415" y2="5.17877" gradientUnits="userSpaceOnUse">
<stop stop-color="#FFC20B"/>
<stop offset="1" stop-color="#DE8705"/>
</linearGradient>
<linearGradient id="paint3_linear" x1="74.3584" y1="6.01172" x2="72.488" y2="11.1905" gradientUnits="userSpaceOnUse">
<stop stop-color="#FFC20B"/>
<stop offset="1" stop-color="#DE8705"/>
</linearGradient>
</defs>
</svg>
