<svg width="290" height="139" viewBox="0 0 290 139" fill="none" xmlns="http://www.w3.org/2000/svg">
<path d="M75.1123 0.611993C66.863 13.504 58.6138 26.396 50.3645 39.288C50.0736 39.7549 49.9281 40.2218 49.3879 40.2218C49.0762 40.2218 48.5983 39.8846 48.2866 39.7808C47.5593 39.4955 46.8113 39.2361 46.084 39.0026C44.6502 38.5617 43.1749 38.1985 41.6996 37.9651C38.9568 37.4981 36.1724 37.3944 33.4088 37.7316C29.0244 38.2504 24.3699 39.8587 21.0037 43.568C16.7232 48.289 15.8089 56.46 16.4946 63.1784C16.6401 64.6051 16.8894 66.0317 17.4089 67.3287C17.8245 68.3404 18.344 69.2483 18.8219 70.208C19.4453 71.5309 19.8401 72.9836 20.1725 74.4621C20.3388 75.1625 20.4842 75.8888 20.5881 76.6151C20.6089 76.7967 20.7128 77.108 20.6504 77.2377C20.6297 76.9783 20.6297 76.7448 20.6504 76.4854C20.6089 76.7708 20.5465 77.0302 20.4634 77.2896C19.8401 79.4944 18.2401 80.9211 16.7648 82.1921C14.5206 84.1117 12.1934 85.9534 9.82456 87.5876C6.89471 89.6109 4.00642 91.0376 2.21942 94.8247C-0.357178 100.298 -0.440295 107.743 0.702553 113.787C1.86618 119.96 5.04538 125.252 8.84794 129.299C14.4375 135.291 22.1673 138.248 29.4192 138.87C38.7698 139.674 49.9489 136.899 55.1437 126.108C59.2371 117.574 58.9878 105.564 54.4164 97.4187C51.8606 92.8793 48.2866 89.5071 44.2762 87.1466C42.7178 86.2128 41.097 85.4605 39.4347 84.838C37.7308 84.1895 36.0685 83.6188 34.5724 82.3737C32.9309 80.9989 31.4348 79.0794 30.6659 76.7967C30.5413 76.4335 30.4374 76.0704 30.3543 75.7072C30.3543 75.7072 30.2088 74.7993 30.2919 75.3181C30.4166 76.1223 30.3543 74.6437 30.3127 75.7072C30.3127 75.9666 30.1257 76.6411 30.3127 76.0963C30.2088 76.4076 30.3127 76.1482 30.3335 75.9926C30.4789 75.396 30.6659 74.7993 30.9153 74.2546C33.0971 69.5336 38.0633 67.8994 42.136 68.0032C44.5256 68.055 46.8736 68.7554 49.0138 70.0265C49.0762 69.9746 49.1177 69.9486 49.1801 69.8968C57.4294 54.307 67.0708 39.9624 75.9435 24.9174C78.4578 20.6633 80.9097 16.3314 83.2369 11.9217C83.8395 10.7803 83.7356 8.91268 83.6733 7.61569C83.6525 7.3563 83.2785 4.477 82.9045 5.17737C73.9903 21.9862 64.4111 38.2245 54.8735 54.4627C50.1359 62.5299 45.3983 70.5971 40.7438 78.7162C38.3957 82.8147 36.0685 86.9391 33.7828 91.0894C32.6607 93.1387 31.5387 95.1619 30.4374 97.2112C29.3776 99.1567 28.0686 101.102 27.5283 103.359C26.9257 105.927 26.6971 108.858 27.1751 111.478C27.466 113.034 28.0893 113.89 29.2322 114.565C29.9179 114.954 30.5413 115.265 31.3101 115.161C32.0997 115.032 32.827 114.643 33.5127 114.124C35.0295 112.957 35.9646 111.141 36.3594 108.962C36.6295 107.38 36.6503 105.59 36.3594 104.007C36.1516 102.866 35.7152 102.71 35.4867 104.007C35.2165 105.512 33.9906 106.861 32.9309 107.535C31.6841 108.313 30.6036 108.339 29.3569 107.639C28.9828 107.431 28.6088 107.198 28.3179 106.835C28.2348 106.731 28.1309 106.549 28.0686 106.472C27.8608 105.797 27.8815 106.264 28.0893 107.898C28.214 108.469 28.2348 109.04 28.1517 109.584C28.1309 109.714 28.1309 109.688 28.1725 109.507C28.4426 108.702 28.6296 108.002 29.0244 107.25C29.5647 106.212 30.1257 105.201 30.6867 104.163C34.7802 96.5627 39.0191 89.0661 43.2996 81.6215C51.8398 66.784 60.6293 52.18 69.1487 37.3425C73.9695 28.964 78.7071 20.5077 83.2577 11.8957C83.1538 9.63898 83.0292 7.38224 82.9253 5.15143C75.8812 18.4585 67.8397 30.8576 60.1099 43.568C58.1566 46.7845 56.2242 50.0011 54.3541 53.2694C53.5229 54.6961 52.7125 56.1487 51.9021 57.6014C51.4658 58.3796 51.0294 59.1837 50.593 59.9878C50.3853 60.3769 50.1567 60.7919 49.9489 61.181C49.7619 61.5182 49.3879 62.6077 49.097 62.7893C48.619 63.0746 47.8294 62.4002 47.3515 62.1927C46.7697 61.9333 46.1879 61.7258 45.6061 61.5701C44.3386 61.207 43.0295 61.0254 41.7204 61.0513C39.4555 61.0513 37.1282 61.5961 35.0711 62.8152C33.201 63.9047 31.5179 65.5389 30.4997 67.7956C29.2322 70.6231 28.9621 74.0471 29.1283 77.2377C29.4192 83.0481 31.7049 87.7951 35.923 90.3891C37.336 91.271 38.8321 91.6601 40.3282 92.2567C42.1775 93.009 44.0061 93.9687 45.7308 95.1101C49.5749 97.6781 52.9619 101.465 55.1229 106.238C56.0164 108.21 56.5151 110.414 56.7852 112.49C56.8891 113.346 56.8268 111.556 56.7852 112.386C56.7852 112.542 56.7644 112.697 56.7644 112.853C56.806 111.841 56.806 112.464 56.7644 112.723C56.7436 112.905 56.7229 113.112 56.7021 113.294C56.619 113.994 56.806 112.697 56.6813 113.423C56.5982 113.89 56.5359 114.383 56.432 114.824C55.1644 120.635 51.4242 125.511 47.1022 128.235C43.071 130.777 38.5412 131.763 34.0737 131.996C28.9413 132.282 23.7673 131.348 18.9258 129.247C16.1414 128.027 13.357 126.471 10.9466 124.318C6.9986 120.79 3.11292 115.499 1.76228 109.558C1.65839 109.143 1.59605 108.702 1.51294 108.261C1.3467 107.276 1.55449 108.702 1.42982 107.691C1.42982 107.691 1.3467 106.627 1.38826 107.198C1.38826 107.146 1.30515 106.057 1.36748 106.783C1.28437 105.797 1.30515 107.354 1.36748 106.368C1.38826 106.031 1.42982 105.538 1.55449 104.889C2.09475 102.088 3.44539 99.5976 5.25316 97.8597C6.18822 96.9518 7.26873 96.3552 8.30768 95.6807C10.4895 94.28 12.5882 92.6717 14.6453 91.0376C16.4739 89.5849 18.5725 88.1323 19.9647 86.0053C21.8348 83.1519 22.0426 78.9237 21.8972 75.4219C21.7309 71.7125 20.9829 67.6659 19.5907 64.3457C18.905 62.7374 17.5751 60.9995 17.6167 59.1837C17.679 56.6416 19.0089 53.5548 20.4011 51.5834C21.8141 49.612 23.6426 48.1853 25.5751 47.1477C30.3958 44.5797 35.8815 44.1646 41.0347 44.8909C44.0269 45.3319 46.9775 46.1879 49.8242 47.433C49.8866 47.3811 49.9281 47.3552 49.9905 47.3033C58.4268 33.9444 66.9462 20.6633 75.4448 7.3563C76.0889 6.34465 75.9435 4.24354 75.8811 3.05032C75.8604 2.76498 75.5487 -0.0883769 75.1123 0.611993Z" fill="url(#paint0_linear)"/>
<path d="M75.5287 6.96514C76.8671 6.32073 79.1269 6.56858 80.4213 7.16342C81.7377 7.73348 82.4617 9.29495 82.8786 10.7325C83.2735 12.0957 83.7342 9.84022 83.7781 9.5428C83.9536 8.05569 83.9536 6.39508 83.5368 4.95754C83.076 3.3465 82.2862 1.56197 80.9259 0.719276C79.9386 0.124432 78.7539 0.00050582 77.635 0.00050582C76.9768 0.00050582 76.1431 -0.0242793 75.5287 0.273143C74.7609 0.64492 74.8706 2.87559 74.8706 3.61914C74.8925 3.86699 75.0461 7.18821 75.5287 6.96514Z" fill="url(#paint1_linear)"/>
<path d="M32.4114 110.051C34.741 110.051 36.6295 107.996 36.6295 105.46C36.6295 102.924 34.741 100.869 32.4114 100.869C30.0818 100.869 28.1932 102.924 28.1932 105.46C28.1932 107.996 30.0818 110.051 32.4114 110.051Z" fill="url(#paint2_linear)"/>
<path d="M102.67 60.8354C102.578 60.4048 102.531 59.5743 102.531 58.344C102.531 57.1137 102.763 55.8066 103.227 54.4225H103.645C103.614 54.7608 103.599 55.0991 103.599 55.4375C103.599 57.3137 104.171 58.8823 105.316 60.1433C106.46 61.3736 107.976 61.9888 109.863 61.9888C111.813 61.9888 113.406 61.4044 114.643 60.2356C115.912 59.0668 116.546 57.6059 116.546 55.8527C116.546 54.0688 115.943 52.6232 114.736 51.5159L105.826 43.3037C104.155 41.7659 103.32 39.905 103.32 37.7213C103.32 35.5375 104.047 33.6767 105.501 32.1388C106.986 30.5702 108.982 29.7859 111.488 29.7859C112.663 29.7859 113.994 29.9397 115.479 30.2472H117.289V35.922H116.871C116.871 34.4764 116.36 33.323 115.339 32.4618C114.349 31.6006 113.066 31.17 111.488 31.17C109.91 31.17 108.58 31.6928 107.497 32.7386C106.445 33.7843 105.919 35.0915 105.919 36.6601C105.919 38.2288 106.538 39.5821 107.775 40.7201L116.917 49.1168C118.464 50.5317 119.238 52.4694 119.238 54.93C119.238 57.3906 118.449 59.4205 116.871 61.0199C115.293 62.5885 113.189 63.3729 110.56 63.3729C109.198 63.3729 107.744 63.1576 106.197 62.727C104.681 62.3271 103.506 61.6966 102.67 60.8354Z" fill="white"/>
<path d="M149.554 62.3425H149.863V62.727H141.162V62.3425H141.51C142.051 62.3425 142.451 62.1759 142.709 61.8427C142.992 61.4838 143.134 61.1506 143.134 60.8431C143.134 60.5355 143.083 60.2279 142.98 59.9203L140.505 53.3844H130.063L127.472 59.9588C127.369 60.2664 127.317 60.5739 127.317 60.8815C127.317 61.1635 127.446 61.4838 127.704 61.8427C127.988 62.1759 128.4 62.3425 128.942 62.3425H129.29V62.727H121.517V62.3425H121.865C122.509 62.3425 123.141 62.1374 123.76 61.7273C124.378 61.3172 124.881 60.7149 125.268 59.9203L134.008 39.2361C134.962 37.16 135.439 35.84 135.439 35.2761H135.787L146.151 59.9203C146.512 60.7149 147.001 61.3172 147.62 61.7273C148.239 62.1374 148.884 62.3425 149.554 62.3425ZM130.527 52.231H140.04L135.4 39.8897L130.527 52.231Z" fill="white"/>
<path d="M184.201 62.3425H184.819V62.727H176.428V62.3809H177.008C177.446 62.3809 177.82 62.2143 178.129 61.8811C178.439 61.5223 178.567 61.1378 178.516 60.7277L176.776 41.3891L168.654 59.3436C167.933 60.9071 167.494 62.2143 167.34 63.2652H166.953L157.053 41.9273L155.39 60.7277C155.338 61.1378 155.467 61.5223 155.777 61.8811C156.086 62.2143 156.447 62.3809 156.86 62.3809H157.478V62.727H149.976V62.3425H150.595C151.317 62.3425 151.935 62.1246 152.451 61.6889C152.992 61.2532 153.315 60.6637 153.418 59.9203L156.318 35.2761H156.705L167.494 58.4594L178.052 35.2761H178.4L181.378 59.9203C181.507 60.9456 182.022 61.6633 182.924 62.0734C183.311 62.2528 183.737 62.3425 184.201 62.3425Z" fill="white"/>
<path d="M213.076 62.3425H213.385V62.727H204.684V62.3425H205.032C205.573 62.3425 205.973 62.1759 206.231 61.8427C206.514 61.4838 206.656 61.1506 206.656 60.8431C206.656 60.5355 206.605 60.2279 206.501 59.9203L204.026 53.3844H193.585L190.994 59.9588C190.891 60.2664 190.839 60.5739 190.839 60.8815C190.839 61.1635 190.968 61.4838 191.226 61.8427C191.51 62.1759 191.922 62.3425 192.464 62.3425H192.812V62.727H185.038V62.3425H185.387C186.031 62.3425 186.663 62.1374 187.281 61.7273C187.9 61.3172 188.403 60.7149 188.79 59.9203L197.53 39.2361C198.483 37.16 198.96 35.84 198.96 35.2761H199.308L209.673 59.9203C210.034 60.7149 210.523 61.3172 211.142 61.7273C211.761 62.1374 212.405 62.3425 213.076 62.3425ZM194.049 52.231H203.562L198.922 39.8897L194.049 52.231Z" fill="white"/>
<path d="M223.204 37.0062H220.729V59.9203C220.729 60.5868 220.961 61.1635 221.426 61.6504C221.915 62.1118 222.508 62.3425 223.204 62.3425H223.669L223.707 62.727H215.238V62.3425H215.741C216.411 62.3425 216.978 62.1118 217.442 61.6504C217.932 61.1891 218.19 60.6252 218.216 59.9588V38.6209C218.19 37.9545 217.932 37.3906 217.442 36.9293C216.978 36.4423 216.411 36.1988 215.741 36.1988H215.238V35.8143H225.679C228.026 35.8143 229.869 36.4679 231.21 37.7751C232.55 39.0567 233.221 40.7355 233.221 42.8116C233.221 44.8621 232.576 46.6434 231.287 48.1557C230.024 49.6423 228.477 50.3856 226.646 50.3856C227.033 50.565 227.484 50.9238 228 51.4621C228.541 51.9747 229.018 52.513 229.431 53.0769C231.648 56.2295 233.092 58.1774 233.762 58.9207C234.432 59.6384 234.909 60.1382 235.193 60.4202C235.476 60.6765 235.786 60.9328 236.121 61.1891C236.456 61.4454 236.791 61.6504 237.126 61.8042C237.874 62.1631 238.673 62.3425 239.524 62.3425V62.727H237.397C236.289 62.727 235.257 62.5347 234.303 62.1503C233.349 61.7402 232.628 61.3301 232.138 60.92C231.674 60.4842 231.261 60.0741 230.9 59.6897C230.565 59.2796 229.611 57.9468 228.038 55.6912C226.466 53.4357 225.551 52.1541 225.293 51.8466C225.035 51.5134 224.764 51.193 224.481 50.8854C223.656 50.0139 222.831 49.5782 222.006 49.5782V49.1937C222.212 49.2194 222.483 49.2322 222.818 49.2322C223.153 49.2322 223.565 49.2194 224.055 49.1937C227.252 49.1168 229.263 47.784 230.088 45.1953C230.243 44.6827 230.32 44.2085 230.32 43.7728C230.32 43.3114 230.32 43.0167 230.32 42.8885C230.269 41.1712 229.817 39.7871 228.967 38.7363C228.116 37.6854 226.969 37.1215 225.525 37.0446C224.906 37.019 224.133 37.0062 223.204 37.0062Z" fill="white"/>
<path d="M259.752 39.2361C259.752 38.6209 259.533 38.0955 259.095 37.6598C258.657 37.1984 258.141 36.9549 257.548 36.9293H250.2V59.9588C250.226 60.6252 250.471 61.1891 250.935 61.6504C251.425 62.1118 252.005 62.3425 252.675 62.3425H253.178V62.727H244.709V62.3425H245.212C245.882 62.3425 246.449 62.1118 246.913 61.6504C247.403 61.1891 247.661 60.638 247.687 59.9972V36.9293H240.339C239.72 36.9549 239.192 37.1984 238.753 37.6598C238.341 38.0955 238.135 38.6209 238.135 39.2361V39.8897L237.748 39.9281V35.0838C238.135 35.2376 238.805 35.3914 239.759 35.5452C240.713 35.699 241.589 35.7759 242.389 35.7759H255.46C256.723 35.7759 257.767 35.6862 258.592 35.5067C259.443 35.3017 259.959 35.1607 260.139 35.0838V39.9281L259.752 39.8897V39.2361Z" fill="white"/>
<path d="M282.034 62.3425C282.704 62.3425 283.271 62.1118 283.735 61.6504C284.225 61.1891 284.483 60.6252 284.509 59.9588V50.0011H268.692V59.9203C268.692 60.5868 268.937 61.1635 269.427 61.6504C269.917 62.1118 270.497 62.3425 271.167 62.3425H271.67V62.727H263.2V62.3425H263.703C264.373 62.3425 264.941 62.1118 265.405 61.6504C265.895 61.1635 266.152 60.5868 266.178 59.9203V38.5825C266.152 37.9161 265.895 37.3522 265.405 36.8908C264.941 36.4295 264.373 36.1988 263.703 36.1988H263.2V35.8143H271.67V36.1988H271.167C270.497 36.1988 269.917 36.4295 269.427 36.8908C268.963 37.3522 268.718 37.9161 268.692 38.5825V48.8477H284.509V38.5825C284.483 37.6598 284.07 36.9677 283.271 36.5064C282.885 36.3013 282.472 36.1988 282.034 36.1988H281.531V35.8143H290V36.1988H289.497C288.827 36.1988 288.247 36.4423 287.757 36.9293C287.293 37.3906 287.048 37.9545 287.022 38.6209V59.9203C287.048 60.5868 287.293 61.1635 287.757 61.6504C288.247 62.1118 288.827 62.3425 289.497 62.3425H290V62.727H281.531V62.3425H282.034Z" fill="white"/>
<path d="M118.356 76.3811C123.306 76.3811 127.312 77.8728 130.375 80.8562C133.469 83.8089 135.016 87.6997 135.016 92.5286C135.016 97.3575 133.469 101.264 130.375 104.247C127.312 107.2 123.306 108.676 118.356 108.676H102.624V108.215H103.227C104.032 108.215 104.712 107.938 105.269 107.384C105.857 106.8 106.166 106.108 106.197 105.308V79.4722C106.197 78.734 105.888 78.1188 105.269 77.6267C104.681 77.1039 104.001 76.8424 103.227 76.8424H102.67L102.624 76.3811H118.356ZM109.214 77.7651V107.292H118.356C120.955 107.292 123.244 106.677 125.224 105.447C127.235 104.216 128.782 102.494 129.865 100.279C130.978 98.0342 131.535 95.4506 131.535 92.5286C131.535 88.0996 130.313 84.5317 127.869 81.8251C125.456 79.1185 122.285 77.7651 118.356 77.7651H109.214Z" fill="white"/>
<path d="M140.096 108.292C140.766 108.292 141.334 108.061 141.798 107.6C142.288 107.113 142.545 106.536 142.571 105.87V84.3395C142.494 83.7244 142.223 83.2117 141.759 82.8016C141.295 82.3659 140.741 82.148 140.096 82.148H139.632L139.593 81.7636H150.924C151.723 81.7636 152.587 81.6867 153.515 81.5329C154.469 81.3791 155.14 81.2253 155.526 81.0715V85.9158H155.14V85.2238C155.14 84.6086 154.92 84.0832 154.482 83.6475C154.07 83.2117 153.567 82.9811 152.974 82.9554H145.085V94.8354H151.62C152.136 94.8098 152.574 94.6176 152.935 94.2587C153.296 93.8999 153.477 93.4513 153.477 92.9131V92.3748H153.863V98.4494H153.477V97.8727C153.477 97.3601 153.296 96.9244 152.935 96.5655C152.6 96.2067 152.175 96.0145 151.659 95.9888H145.085V107.484H150.615C152.523 107.484 153.979 107.061 154.985 106.216C155.99 105.37 156.828 104.114 157.499 102.448H157.885L155.642 108.676H139.593V108.292H140.096Z" fill="white"/>
<path d="M161.952 107.1C161.874 106.741 161.836 106.049 161.836 105.024C161.836 103.999 162.029 102.909 162.416 101.756H162.764C162.738 102.038 162.725 102.32 162.725 102.602C162.725 104.165 163.202 105.472 164.156 106.523C165.11 107.548 166.373 108.061 167.946 108.061C169.57 108.061 170.898 107.574 171.929 106.6C172.986 105.626 173.514 104.409 173.514 102.948C173.514 101.461 173.012 100.256 172.006 99.3337L164.581 92.4902C163.189 91.2086 162.493 89.658 162.493 87.8381C162.493 86.0183 163.099 84.4677 164.311 83.1861C165.548 81.8789 167.211 81.2253 169.299 81.2253C170.279 81.2253 171.388 81.3535 172.625 81.6098H174.133V86.3387H173.785C173.785 85.1341 173.36 84.1729 172.509 83.4552C171.684 82.7376 170.614 82.3787 169.299 82.3787C167.984 82.3787 166.876 82.8145 165.973 83.6859C165.097 84.5574 164.659 85.6467 164.659 86.9539C164.659 88.2611 165.174 89.3888 166.205 90.3372L173.824 97.3345C175.113 98.5135 175.757 100.128 175.757 102.179C175.757 104.229 175.1 105.921 173.785 107.254C172.47 108.561 170.717 109.214 168.526 109.214C167.391 109.214 166.18 109.035 164.891 108.676C163.627 108.343 162.648 107.818 161.952 107.1Z" fill="white"/>
<path d="M205.636 108.292H205.945V108.676H197.244V108.292H197.592C198.133 108.292 198.533 108.125 198.791 107.792C199.075 107.433 199.216 107.1 199.216 106.792C199.216 106.485 199.165 106.177 199.062 105.87L196.587 99.3337H186.145L183.554 105.908C183.451 106.216 183.399 106.523 183.399 106.831C183.399 107.113 183.528 107.433 183.786 107.792C184.07 108.125 184.482 108.292 185.024 108.292H185.372V108.676H177.599V108.292H177.947C178.591 108.292 179.223 108.087 179.842 107.677C180.46 107.267 180.963 106.664 181.35 105.87L190.09 85.1853C191.044 83.1092 191.521 81.7892 191.521 81.2253H191.869L202.233 105.87C202.594 106.664 203.084 107.267 203.702 107.677C204.321 108.087 204.966 108.292 205.636 108.292ZM186.609 98.1803H196.123L191.482 85.8389L186.609 98.1803Z" fill="white"/>
<path d="M208.301 108.292C208.971 108.292 209.538 108.061 210.002 107.6C210.492 107.113 210.75 106.536 210.776 105.87V84.5317C210.75 83.8653 210.492 83.3014 210.002 82.8401C209.538 82.3787 208.971 82.148 208.301 82.148H207.798V81.7636H216.267V82.148H215.765C215.094 82.148 214.514 82.3787 214.024 82.8401C213.56 83.3014 213.315 83.8653 213.29 84.5317V105.87C213.29 106.536 213.535 107.113 214.024 107.6C214.514 108.061 215.094 108.292 215.765 108.292H216.267V108.676H207.798V108.292H208.301Z" fill="white"/>
<path d="M233.903 104.832C233.903 106.955 232.172 108.676 230.036 108.676C227.9 108.676 226.169 106.955 226.169 104.832C226.169 102.708 227.9 100.987 230.036 100.987C232.172 100.987 233.903 102.708 233.903 104.832Z" fill="#E79607"/>
<defs>
<linearGradient id="paint0_linear" x1="83.8891" y1="0" x2="-13.9032" y2="164.978" gradientUnits="userSpaceOnUse">
<stop stop-color="#FFC20B"/>
<stop offset="1" stop-color="#DE8705"/>
</linearGradient>
<linearGradient id="paint1_linear" x1="83.8891" y1="0" x2="-13.9032" y2="164.978" gradientUnits="userSpaceOnUse">
<stop stop-color="#FFC20B"/>
<stop offset="1" stop-color="#DE8705"/>
</linearGradient>
<linearGradient id="paint2_linear" x1="83.8891" y1="0" x2="-13.9032" y2="164.978" gradientUnits="userSpaceOnUse">
<stop stop-color="#FFC20B"/>
<stop offset="1" stop-color="#DE8705"/>
</linearGradient>
</defs>
</svg>
