<svg width="84" height="140" viewBox="0 0 84 140" fill="none" xmlns="http://www.w3.org/2000/svg">
<path d="M75.1123 0.616396C66.863 13.6011 58.6138 26.5859 50.3645 39.5706C50.0736 40.0409 49.9281 40.5112 49.3879 40.5112C49.0762 40.5112 48.5983 40.1715 48.2866 40.067C47.5593 39.7796 46.8113 39.5184 46.084 39.2832C44.6502 38.8391 43.1749 38.4733 41.6996 38.2382C38.9568 37.7679 36.1724 37.6634 33.4088 38.0031C29.0244 38.5256 24.3699 40.1454 21.0037 43.8815C16.7232 48.6364 15.8089 56.8662 16.4946 63.6329C16.6401 65.0698 16.8894 66.5068 17.4089 67.8131C17.8245 68.832 18.344 69.7464 18.8219 70.7131C19.4453 72.0456 19.8401 73.5086 20.1725 74.9978C20.3388 75.7032 20.4842 76.4348 20.5881 77.1663C20.6089 77.3492 20.7128 77.6627 20.6504 77.7933C20.6297 77.5321 20.6297 77.2969 20.6504 77.0357C20.6089 77.3231 20.5465 77.5843 20.4634 77.8456C19.8401 80.0663 18.2401 81.5033 16.7648 82.7834C14.5206 84.7168 12.1934 86.5717 9.82456 88.2177C6.89471 90.2555 4.00642 91.6925 2.21942 95.5069C-0.357178 101.02 -0.440295 108.518 0.702553 114.605C1.86618 120.823 5.04538 126.153 8.84794 130.229C14.4375 136.264 22.1673 139.242 29.4192 139.869C38.7698 140.679 49.9489 137.884 55.1437 127.015C59.2371 118.42 58.9878 106.323 54.4164 98.1196C51.8606 93.5475 48.2866 90.151 44.2762 87.7736C42.7178 86.833 41.097 86.0754 39.4347 85.4483C37.7308 84.7952 36.0685 84.2204 34.5724 82.9663C32.9309 81.5816 31.4348 79.6483 30.6659 77.3492C30.5413 76.9834 30.4374 76.6177 30.3543 76.2519C30.3543 76.2519 30.2088 75.3375 30.2919 75.86C30.4166 76.6699 30.3543 75.1807 30.3127 76.2519C30.3127 76.5131 30.1257 77.1924 30.3127 76.6438C30.2088 76.9573 30.3127 76.696 30.3335 76.5393C30.4789 75.9384 30.6659 75.3375 30.9153 74.7888C33.0971 70.0338 38.0633 68.3879 42.136 68.4924C44.5256 68.5446 46.8736 69.2501 49.0138 70.5302C49.0762 70.478 49.1177 70.4519 49.1801 70.3996C57.4294 54.6977 67.0708 40.2499 75.9435 25.0967C78.4578 20.812 80.9097 16.4489 83.2369 12.0074C83.8395 10.8579 83.7356 8.9768 83.6733 7.67048C83.6525 7.40922 83.2785 4.50921 82.9045 5.21462C73.9903 22.1444 64.4111 38.4995 54.8735 54.8545C50.1359 62.9797 45.3983 71.105 40.7438 79.2825C38.3957 83.4105 36.0685 87.5646 33.7828 91.7448C32.6607 93.8087 31.5387 95.8466 30.4374 97.9105C29.3776 99.87 28.0686 101.829 27.5283 104.102C26.9257 106.689 26.6971 109.641 27.1751 112.28C27.466 113.848 28.0893 114.71 29.2322 115.389C29.9179 115.781 30.5413 116.094 31.3101 115.99C32.0997 115.859 32.827 115.467 33.5127 114.945C35.0295 113.769 35.9646 111.94 36.3594 109.746C36.6295 108.152 36.6503 106.349 36.3594 104.756C36.1516 103.606 35.7152 103.449 35.4867 104.756C35.2165 106.271 33.9906 107.63 32.9309 108.309C31.6841 109.093 30.6036 109.119 29.3569 108.413C28.9828 108.204 28.6088 107.969 28.3179 107.603C28.2348 107.499 28.1309 107.316 28.0686 107.238C27.8608 106.558 27.8815 107.029 28.0893 108.675C28.214 109.249 28.2348 109.824 28.1517 110.373C28.1309 110.503 28.1309 110.477 28.1725 110.294C28.4426 109.484 28.6296 108.779 29.0244 108.021C29.5647 106.976 30.1257 105.957 30.6867 104.912C34.7802 97.2574 39.0191 89.7069 43.2996 82.2087C51.8398 67.2645 60.6293 52.5554 69.1487 37.6112C73.9695 29.1724 78.7071 20.6552 83.2577 11.9813C83.1538 9.70833 83.0292 7.43535 82.9253 5.18849C75.8812 18.5913 67.8397 31.0796 60.1099 43.8815C58.1566 47.1211 56.2242 50.3608 54.3541 53.6527C53.5229 55.0896 52.7125 56.5527 51.9021 58.0158C51.4658 58.7995 51.0294 59.6095 50.593 60.4194C50.3853 60.8113 50.1567 61.2293 49.9489 61.6212C49.7619 61.9608 49.3879 63.0581 49.097 63.241C48.619 63.5284 47.8294 62.8491 47.3515 62.6401C46.7697 62.3788 46.1879 62.1698 45.6061 62.0131C44.3386 61.6473 43.0295 61.4644 41.7204 61.4906C39.4555 61.4906 37.1282 62.0392 35.0711 63.2671C33.201 64.3644 31.5179 66.0104 30.4997 68.2834C29.2322 71.1311 28.9621 74.5798 29.1283 77.7933C29.4192 83.6456 31.7049 88.4267 35.923 91.0393C37.336 91.9276 38.8321 92.3195 40.3282 92.9204C42.1775 93.6781 44.0061 94.6448 45.7308 95.7943C49.5749 98.3808 52.9619 102.195 55.1229 107.002C56.0164 108.988 56.5151 111.209 56.7852 113.299C56.8891 114.161 56.8268 112.358 56.7852 113.194C56.7852 113.351 56.7644 113.508 56.7644 113.665C56.806 112.646 56.806 113.273 56.7644 113.534C56.7436 113.717 56.7229 113.926 56.7021 114.109C56.619 114.814 56.806 113.508 56.6813 114.239C56.5982 114.71 56.5359 115.206 56.432 115.65C55.1644 121.503 51.4242 126.414 47.1022 129.158C43.071 131.718 38.5412 132.711 34.0737 132.946C28.9413 133.233 23.7673 132.293 18.9258 130.176C16.1414 128.949 13.357 127.381 10.9466 125.212C6.9986 121.659 3.11292 116.33 1.76228 110.347C1.65839 109.929 1.59605 109.484 1.51294 109.04C1.3467 108.048 1.55449 109.484 1.42982 108.466C1.42982 108.466 1.3467 107.394 1.38826 107.969C1.38826 107.917 1.30515 106.82 1.36748 107.551C1.28437 106.558 1.30515 108.126 1.36748 107.133C1.38826 106.793 1.42982 106.297 1.55449 105.644C2.09475 102.822 3.44539 100.314 5.25316 98.5637C6.18822 97.6493 7.26873 97.0484 8.30768 96.3691C10.4895 94.9583 12.5882 93.3384 14.6453 91.6925C16.4739 90.2294 18.5725 88.7664 19.9647 86.624C21.8348 83.7501 22.0426 79.4915 21.8972 75.9645C21.7309 72.2284 20.9829 68.1527 19.5907 64.8086C18.905 63.1888 17.5751 61.4383 17.6167 59.6095C17.679 57.0491 19.0089 53.9401 20.4011 51.9545C21.8141 49.9689 23.6426 48.5319 25.5751 47.4869C30.3958 44.9004 35.8815 44.4824 41.0347 45.2139C44.0269 45.658 46.9775 46.5202 49.8242 47.7743C49.8866 47.722 49.9281 47.6959 49.9905 47.6436C58.4268 34.1886 66.9462 20.812 75.4448 7.40922C76.0889 6.3903 75.9435 4.27407 75.8811 3.07226C75.8604 2.78487 75.5487 -0.0890127 75.1123 0.616396Z" fill="url(#paint0_linear)"/>
<path d="M75.5287 7.01525C76.8671 6.3662 79.1269 6.61583 80.4213 7.21496C81.7377 7.78912 82.4617 9.36182 82.8786 10.8097C83.2735 12.1827 83.7342 9.91101 83.7781 9.61145C83.9536 8.11364 83.9536 6.44109 83.5368 4.99321C83.076 3.37058 82.2862 1.57321 80.9259 0.724451C79.9386 0.125327 78.7539 0.000509458 77.635 0.000509458C76.9768 0.000509458 76.1431 -0.024454 75.5287 0.275108C74.7609 0.64956 74.8706 2.89627 74.8706 3.64518C74.8925 3.89481 75.0461 7.23992 75.5287 7.01525Z" fill="url(#paint1_linear)"/>
<path d="M32.4114 110.843C34.741 110.843 36.6295 108.773 36.6295 106.219C36.6295 103.665 34.741 101.594 32.4114 101.594C30.0818 101.594 28.1932 103.665 28.1932 106.219C28.1932 108.773 30.0818 110.843 32.4114 110.843Z" fill="url(#paint2_linear)"/>
<defs>
<linearGradient id="paint0_linear" x1="83.8891" y1="0" x2="-14.9443" y2="165.543" gradientUnits="userSpaceOnUse">
<stop stop-color="#FFC20B"/>
<stop offset="1" stop-color="#DE8705"/>
</linearGradient>
<linearGradient id="paint1_linear" x1="83.8891" y1="0" x2="-14.9443" y2="165.543" gradientUnits="userSpaceOnUse">
<stop stop-color="#FFC20B"/>
<stop offset="1" stop-color="#DE8705"/>
</linearGradient>
<linearGradient id="paint2_linear" x1="83.8891" y1="0" x2="-14.9443" y2="165.543" gradientUnits="userSpaceOnUse">
<stop stop-color="#FFC20B"/>
<stop offset="1" stop-color="#DE8705"/>
</linearGradient>
</defs>
</svg>
