<svg width="293" height="140" viewBox="0 0 293 140" fill="none" xmlns="http://www.w3.org/2000/svg">
<path d="M104.806 61.2729C104.713 60.8392 104.667 60.0027 104.667 58.7636C104.667 57.5245 104.899 56.2079 105.364 54.8138H105.782C105.751 55.1546 105.735 55.4954 105.735 55.8361C105.735 57.7258 106.309 59.3057 107.455 60.5758C108.601 61.815 110.119 62.4346 112.009 62.4346C113.96 62.4346 115.556 61.846 116.795 60.6688C118.065 59.4916 118.7 58.0201 118.7 56.2543C118.7 54.4576 118.096 53.0016 116.888 51.8864L107.966 43.6151C106.293 42.0662 105.457 40.1919 105.457 37.9925C105.457 35.793 106.185 33.9188 107.641 32.3699C109.128 30.79 111.126 30 113.635 30C114.812 30 116.144 30.1549 117.631 30.4647H119.443V36.1802H119.025C119.025 34.7242 118.514 33.5625 117.492 32.6951C116.5 31.8277 115.215 31.394 113.635 31.394C112.055 31.394 110.723 31.9207 109.639 32.9739C108.585 34.0272 108.059 35.3438 108.059 36.9237C108.059 38.5036 108.678 39.8667 109.918 41.0129L119.072 49.47C120.621 50.895 121.395 52.8467 121.395 55.325C121.395 57.8033 120.605 59.8479 119.025 61.4587C117.445 63.0386 115.339 63.8286 112.706 63.8286C111.343 63.8286 109.887 63.6117 108.338 63.1781C106.82 62.7753 105.643 62.1403 104.806 61.2729Z" fill="#666666"/>
<path d="M151.751 62.7908H152.061V63.1781H143.349V62.7908H143.697C144.239 62.7908 144.639 62.623 144.897 62.2874C145.181 61.926 145.323 61.5904 145.323 61.2806C145.323 60.9708 145.272 60.661 145.168 60.3513L142.69 53.7683H132.235L129.64 60.39C129.537 60.6998 129.486 61.0096 129.486 61.3193C129.486 61.6033 129.615 61.926 129.873 62.2874C130.157 62.623 130.57 62.7908 131.112 62.7908H131.46V63.1781H123.677V62.7908H124.026C124.671 62.7908 125.303 62.5843 125.923 62.1712C126.543 61.7582 127.046 61.1515 127.433 60.3513L136.185 39.5182C137.14 37.4271 137.617 36.0976 137.617 35.5297H137.966L148.344 60.3513C148.705 61.1515 149.196 61.7582 149.815 62.1712C150.435 62.5843 151.08 62.7908 151.751 62.7908ZM132.7 52.6066H142.226L137.579 40.1765L132.7 52.6066Z" fill="#666666"/>
<path d="M186.444 62.7908H187.064V63.1781H178.661V62.8295H179.242C179.68 62.8295 180.055 62.6617 180.365 62.3261C180.674 61.9647 180.803 61.5775 180.752 61.1644L179.009 41.6867L170.877 59.7704C170.155 61.3451 169.716 62.6617 169.561 63.7202H169.174L159.26 42.2288L157.595 61.1644C157.544 61.5775 157.673 61.9647 157.983 62.3261C158.292 62.6617 158.654 62.8295 159.067 62.8295H159.686V63.1781H152.174V62.7908H152.794C153.516 62.7908 154.136 62.5714 154.652 62.1325C155.194 61.6937 155.517 61.0999 155.62 60.3513L158.525 35.5297H158.912L169.716 58.8798L180.287 35.5297H180.636L183.617 60.3513C183.746 61.3839 184.263 62.1067 185.166 62.5198C185.553 62.7005 185.979 62.7908 186.444 62.7908Z" fill="#666666"/>
<path d="M215.357 62.7908H215.667V63.1781H206.954V62.7908H207.303C207.845 62.7908 208.245 62.623 208.503 62.2874C208.787 61.926 208.929 61.5904 208.929 61.2806C208.929 60.9708 208.878 60.661 208.774 60.3513L206.296 53.7683H195.841L193.246 60.39C193.143 60.6998 193.091 61.0096 193.091 61.3193C193.091 61.6033 193.221 61.926 193.479 62.2874C193.763 62.623 194.176 62.7908 194.718 62.7908H195.066V63.1781H187.283V62.7908H187.632C188.277 62.7908 188.909 62.5843 189.529 62.1712C190.149 61.7582 190.652 61.1515 191.039 60.3513L199.791 39.5182C200.746 37.4271 201.223 36.0976 201.223 35.5297H201.572L211.95 60.3513C212.311 61.1515 212.802 61.7582 213.421 62.1712C214.041 62.5843 214.686 62.7908 215.357 62.7908ZM196.306 52.6066H205.831L201.185 40.1765L196.306 52.6066Z" fill="#666666"/>
<path d="M225.499 37.2722H223.021V60.3513C223.021 61.0225 223.254 61.6033 223.718 62.0938C224.209 62.5585 224.802 62.7908 225.499 62.7908H225.964L226.003 63.1781H217.523V62.7908H218.026C218.697 62.7908 219.265 62.5585 219.73 62.0938C220.22 61.6291 220.478 61.0612 220.504 60.39V38.8986C220.478 38.2274 220.22 37.6595 219.73 37.1948C219.265 36.7043 218.697 36.459 218.026 36.459H217.523V36.0718H227.978C230.327 36.0718 232.173 36.7301 233.515 38.0467C234.858 39.3375 235.529 41.0284 235.529 43.1194C235.529 45.1847 234.883 46.9788 233.593 48.502C232.328 49.9992 230.779 50.7479 228.946 50.7479C229.333 50.9286 229.785 51.29 230.301 51.8321C230.843 52.3485 231.321 52.8906 231.734 53.4585C233.954 56.6338 235.4 58.5958 236.071 59.3444C236.742 60.0673 237.22 60.5707 237.504 60.8547C237.788 61.1128 238.097 61.371 238.433 61.6291C238.769 61.8873 239.104 62.0938 239.44 62.2487C240.188 62.6101 240.989 62.7908 241.841 62.7908V63.1781H239.711C238.601 63.1781 237.568 62.9844 236.613 62.5972C235.658 62.1842 234.935 61.7711 234.445 61.3581C233.98 60.9192 233.567 60.5061 233.205 60.1189C232.87 59.7059 231.915 58.3635 230.34 56.0917C228.765 53.8199 227.849 52.5292 227.591 52.2194C227.332 51.8838 227.061 51.5611 226.777 51.2513C225.951 50.3736 225.125 49.9347 224.299 49.9347V49.5475C224.506 49.5733 224.777 49.5862 225.112 49.5862C225.448 49.5862 225.861 49.5733 226.351 49.5475C229.553 49.47 231.566 48.1276 232.392 45.5203C232.547 45.004 232.625 44.5264 232.625 44.0875C232.625 43.6228 232.625 43.3259 232.625 43.1969C232.573 41.4672 232.121 40.0732 231.269 39.0148C230.417 37.9563 229.269 37.3884 227.823 37.3109C227.203 37.2851 226.429 37.2722 225.499 37.2722Z" fill="#666666"/>
<path d="M262.096 39.5182C262.096 38.8986 261.876 38.3694 261.437 37.9305C260.998 37.4658 260.482 37.2206 259.888 37.1948H252.531V60.39C252.557 61.0612 252.802 61.6291 253.267 62.0938C253.757 62.5585 254.338 62.7908 255.009 62.7908H255.513V63.1781H247.032V62.7908H247.536C248.207 62.7908 248.775 62.5585 249.24 62.0938C249.73 61.6291 249.988 61.0741 250.014 60.4287V37.1948H242.657C242.037 37.2206 241.508 37.4658 241.069 37.9305C240.656 38.3694 240.449 38.8986 240.449 39.5182V40.1765L240.062 40.2152V35.3361C240.449 35.491 241.121 35.6458 242.076 35.8007C243.031 35.9556 243.909 36.0331 244.709 36.0331H257.797C259.062 36.0331 260.108 35.9427 260.934 35.762C261.786 35.5555 262.302 35.4135 262.483 35.3361V40.2152L262.096 40.1765V39.5182Z" fill="#666666"/>
<path d="M284.407 62.7908C285.078 62.7908 285.646 62.5585 286.11 62.0938C286.601 61.6291 286.859 61.0612 286.885 60.39V50.3607H271.047V60.3513C271.047 61.0225 271.292 61.6033 271.783 62.0938C272.273 62.5585 272.854 62.7908 273.525 62.7908H274.029V63.1781H265.548V62.7908H266.052C266.723 62.7908 267.291 62.5585 267.756 62.0938C268.246 61.6033 268.504 61.0225 268.53 60.3513V38.8599C268.504 38.1887 268.246 37.6207 267.756 37.156C267.291 36.6914 266.723 36.459 266.052 36.459H265.548V36.0718H274.029V36.459H273.525C272.854 36.459 272.273 36.6914 271.783 37.156C271.318 37.6207 271.073 38.1887 271.047 38.8599V49.199H286.885V38.8599C286.859 37.9305 286.446 37.2335 285.646 36.7688C285.258 36.5623 284.845 36.459 284.407 36.459H283.903V36.0718H292.384V36.459H291.88C291.209 36.459 290.628 36.7043 290.138 37.1948C289.673 37.6595 289.428 38.2274 289.402 38.8986V60.3513C289.428 61.0225 289.673 61.6033 290.138 62.0938C290.628 62.5585 291.209 62.7908 291.88 62.7908H292.384V63.1781H283.903V62.7908H284.407Z" fill="#666666"/>
<path d="M120.512 76.9304C125.469 76.9304 129.481 78.4328 132.547 81.4378C135.645 84.4117 137.194 88.3305 137.194 93.1941C137.194 98.0578 135.645 101.992 132.547 104.997C129.481 107.971 125.469 109.458 120.512 109.458H104.76V108.993H105.364C106.169 108.993 106.851 108.714 107.408 108.157C107.997 107.568 108.307 106.871 108.338 106.066V80.0437C108.338 79.3002 108.028 78.6807 107.408 78.185C106.82 77.6584 106.138 77.3951 105.364 77.3951H104.806L104.76 76.9304H120.512ZM111.358 78.3244V108.064H120.512C123.114 108.064 125.407 107.444 127.389 106.205C129.403 104.966 130.952 103.231 132.036 101.001C133.151 98.7393 133.709 96.1371 133.709 93.1941C133.709 88.7332 132.485 85.1397 130.038 82.4136C127.622 79.6875 124.447 78.3244 120.512 78.3244H111.358Z" fill="#666666"/>
<path d="M142.281 109.071C142.952 109.071 143.52 108.838 143.985 108.374C144.476 107.883 144.734 107.302 144.759 106.631V84.9461C144.682 84.3265 144.411 83.8102 143.946 83.3972C143.482 82.9583 142.927 82.7389 142.281 82.7389H141.817L141.778 82.3516H153.124C153.924 82.3516 154.789 82.2742 155.718 82.1193C156.673 81.9644 157.345 81.8095 157.732 81.6546V86.5337H157.345V85.8367C157.345 85.2171 157.125 84.6879 156.686 84.2491C156.273 83.8102 155.77 83.5779 155.176 83.5521H147.276V95.5175H153.821C154.337 95.4917 154.776 95.2981 155.137 94.9367C155.499 94.5753 155.679 94.1235 155.679 93.5814V93.0392H156.067V99.1575H155.679V98.5767C155.679 98.0603 155.499 97.6215 155.137 97.2601C154.802 96.8987 154.376 96.705 153.859 96.6792H147.276V108.257H152.814C154.724 108.257 156.183 107.832 157.19 106.98C158.196 106.128 159.035 104.863 159.707 103.185H160.094L157.848 109.458H141.778V109.071H142.281Z" fill="#666666"/>
<path d="M164.166 107.87C164.088 107.509 164.049 106.812 164.049 105.779C164.049 104.747 164.243 103.649 164.63 102.488H164.979C164.953 102.772 164.94 103.056 164.94 103.34C164.94 104.914 165.418 106.231 166.373 107.289C167.328 108.322 168.593 108.838 170.168 108.838C171.794 108.838 173.124 108.348 174.156 107.367C175.215 106.386 175.744 105.16 175.744 103.688C175.744 102.191 175.24 100.977 174.234 100.048L166.799 93.1554C165.405 91.8646 164.708 90.3028 164.708 88.4699C164.708 86.637 165.314 85.0752 166.528 83.7844C167.767 82.4678 169.432 81.8095 171.523 81.8095C172.504 81.8095 173.614 81.9386 174.853 82.1967H176.363V86.9597H176.015C176.015 85.7464 175.589 84.7783 174.737 84.0555C173.911 83.3326 172.84 82.9712 171.523 82.9712C170.206 82.9712 169.096 83.4101 168.193 84.2878C167.315 85.1655 166.876 86.2627 166.876 87.5793C166.876 88.8959 167.392 90.0317 168.425 90.9869L176.054 98.0345C177.344 99.222 177.99 100.848 177.99 102.914C177.99 104.979 177.331 106.683 176.015 108.025C174.698 109.342 172.943 110 170.749 110C169.613 110 168.399 109.819 167.109 109.458C165.844 109.122 164.863 108.593 164.166 107.87Z" fill="#666666"/>
<path d="M207.908 109.071H208.217V109.458H199.505V109.071H199.853C200.395 109.071 200.795 108.903 201.054 108.567C201.338 108.206 201.48 107.87 201.48 107.56C201.48 107.251 201.428 106.941 201.325 106.631L198.846 100.048H188.391L185.797 106.67C185.693 106.98 185.642 107.289 185.642 107.599C185.642 107.883 185.771 108.206 186.029 108.567C186.313 108.903 186.726 109.071 187.268 109.071H187.617V109.458H179.833V109.071H180.182C180.827 109.071 181.46 108.864 182.079 108.451C182.699 108.038 183.202 107.431 183.589 106.631L192.341 85.798C193.296 83.7069 193.774 82.3774 193.774 81.8095H194.122L204.5 106.631C204.861 107.431 205.352 108.038 205.971 108.451C206.591 108.864 207.236 109.071 207.908 109.071ZM188.856 98.8864H198.382L193.735 86.4563L188.856 98.8864Z" fill="#666666"/>
<path d="M210.576 109.071C211.247 109.071 211.815 108.838 212.28 108.374C212.771 107.883 213.029 107.302 213.055 106.631V85.1397C213.029 84.4685 212.771 83.9006 212.28 83.4359C211.815 82.9712 211.247 82.7389 210.576 82.7389H210.073V82.3516H218.553V82.7389H218.05C217.379 82.7389 216.798 82.9712 216.307 83.4359C215.843 83.9006 215.597 84.4685 215.572 85.1397V106.631C215.572 107.302 215.817 107.883 216.307 108.374C216.798 108.838 217.379 109.071 218.05 109.071H218.553V109.458H210.073V109.071H210.576Z" fill="#666666"/>
<path d="M236.212 105.586C236.212 107.724 234.478 109.458 232.34 109.458C230.201 109.458 228.467 107.724 228.467 105.586C228.467 103.447 230.201 101.713 232.34 101.713C234.478 101.713 236.212 103.447 236.212 105.586Z" fill="#E79607"/>
<path d="M48.7926 64.9171C44.8893 62.5792 39.9839 62.2452 35.8927 64.3535C32.0102 66.3782 29.8811 70.0729 29.3384 74.3311C28.7539 78.9233 29.4428 83.9956 32.2816 87.7528C33.5131 89.381 35.1413 90.696 36.9573 91.6353C38.1262 92.2407 39.4204 92.5538 40.6519 93.0756C47.8951 96.0814 53.9902 102.072 56.2654 109.67C56.7246 111.194 56.9542 112.718 56.9751 114.283C56.9751 114.763 57.0169 113.49 56.9751 113.991C56.9542 114.116 56.9542 114.262 56.9542 114.388C56.9334 114.659 56.8707 115.285 56.9334 114.638C56.8916 114.993 56.8499 115.369 56.8081 115.724C56.8081 115.765 56.7037 116.412 56.7664 115.953C56.7246 116.204 56.6829 116.454 56.6203 116.705C55.7018 121.13 53.4266 125.179 50.0868 128.227C43.3655 134.385 32.9913 135.407 24.4539 133.341C17.5239 131.65 11.387 127.914 7.02445 122.257C4.10214 118.479 1.74342 113.949 1.32594 109.211C1.36769 109.628 1.30507 108.689 1.30507 108.752C1.24245 107.833 1.28419 109.274 1.28419 108.355C1.28419 108.355 1.28419 107.395 1.28419 107.938C1.28419 107.75 1.30507 107.541 1.30507 107.353C1.34682 106.56 1.5138 105.558 1.76429 104.556C2.32788 102.448 3.39243 100.486 4.89534 98.8994C5.73028 98.0227 6.71134 97.3756 7.73415 96.7285C9.34142 95.7057 10.9069 94.6411 12.4307 93.4931C14.4763 91.9276 16.5846 90.3621 18.4215 88.546C19.8826 87.1058 20.8011 85.4776 21.3438 83.4946C22.2413 80.1966 22.0744 76.6063 21.4899 73.2665C21.0515 70.7617 20.488 68.1734 19.4025 65.8564C19.0477 65.1049 18.6511 64.3952 18.2962 63.6646C17.8996 62.8297 17.6909 62.1617 17.6283 61.3894C17.4613 59.3229 18.004 57.1312 18.7763 55.1899C22.3666 46.2143 33.3044 44.106 41.8835 45.5463C44.6596 46.0055 47.3732 46.8614 49.9616 47.9677C50.0242 47.9259 50.0659 47.905 50.1285 47.8633C54.7207 40.6828 59.5426 33.6692 64.1348 26.4887C65.1993 24.8397 66.243 23.1906 67.3076 21.5416C67.7668 20.811 67.7668 19.6421 67.7668 18.828C67.7668 18.181 67.8712 16.5528 67.3076 16.1145C66.7648 15.697 65.8882 14.6533 65.8673 14.1106C65.8464 13.714 65.7838 11.8354 65.095 12.1485C64.4479 12.4407 64.6566 15.1334 64.6566 15.6135C64.7192 17.7009 65.2411 20.164 66.9736 21.5416C66.9736 19.7256 66.9736 17.9096 66.9736 16.1145C63.5086 21.5416 60.127 27.0314 56.4741 32.3333C54.8877 34.6294 53.3431 36.9255 51.8402 39.2633C51.4018 39.9313 50.9844 40.5993 50.546 41.2672C50.3373 41.5803 50.1703 42.0395 49.8154 42.1439C49.4188 42.2483 48.7718 41.8517 48.3752 41.6847C46.7679 41.0794 45.1397 40.5784 43.449 40.2235C40.3388 39.5347 37.1034 39.3051 33.9306 39.6391C28.8583 40.1609 23.5564 42.2065 20.3627 46.3395C18.6093 48.6147 17.5656 51.4536 16.9812 54.2506C16.2089 58.0288 16.0419 62.1617 16.8142 65.9399C17.2525 68.1107 18.505 69.885 19.2773 71.9097C19.8409 73.3918 20.1749 74.9573 20.4671 76.5228C20.6967 77.7752 20.7593 78.5893 20.3418 79.8C19.5486 82.0543 17.5656 83.6407 15.7914 85.1019C13.4535 87.0014 11.0948 88.88 8.5691 90.529C7.35843 91.3222 6.08513 92.0111 5.02058 92.9921C3.12108 94.829 1.86866 97.2712 1.15895 99.7552C-0.573561 105.683 -0.323077 112.592 1.63905 118.458C4.6866 127.538 11.8045 134.531 20.6758 137.85C30.7369 141.607 43.8664 140.793 51.5897 132.589C58.645 125.096 59.96 112.572 56.3489 103.199C54.5538 98.5445 51.4645 94.4115 47.4985 91.3849C45.7242 90.0281 43.7621 88.8592 41.7373 87.9198C40.3597 87.2936 38.8776 86.897 37.5 86.2708C35.183 85.2063 33.2209 83.432 31.9058 81.2611C31.3214 80.301 30.8413 79.2155 30.5908 78.1092C30.5491 77.9422 30.4656 77.5665 30.4656 77.5248C30.4864 77.6291 30.3821 76.7524 30.4238 77.2325C30.3821 76.8568 30.5491 77.0864 30.4238 77.2325C30.5073 77.1282 30.3194 76.8359 30.4238 77.1073C30.5073 77.3369 30.4029 77.1282 30.4447 76.982C30.3403 77.3369 30.4656 76.8985 30.4447 76.9612C31.5092 72.1394 36.0806 68.8622 41.0694 68.57C43.8038 68.403 46.4757 69.1335 48.8135 70.5321C49.231 70.7826 49.4397 67.9229 49.4397 67.7141C49.4188 67.0044 49.5441 65.3554 48.7926 64.9171Z" fill="url(#paint0_linear)"/>
<path d="M35.6213 106.017C35.2665 108.042 32.7825 111.131 30.4029 110.317C29.6724 110.067 28.8165 109.587 28.3573 108.94C28.3364 108.898 28.1903 108.606 28.1695 108.606C28.086 108.355 28.1068 108.501 28.2529 109.044C28.3156 109.587 28.3156 110.129 28.2529 110.651C28.1694 110.609 28.5452 109.294 28.6078 109.065C28.9627 107.833 29.0044 106.476 28.8374 105.203C28.7957 104.89 28.334 103.331 28 104.5C27.3112 106.942 26.8335 109.148 27.1675 111.695C27.3554 113.198 27.7728 114.429 29.0879 115.264C29.6724 115.64 30.4029 116.099 31.1126 116.057C31.9267 116.016 32.6573 115.661 33.3252 115.223C35.0995 114.054 36.1432 112.071 36.498 110.004C36.7276 108.71 36.7903 107.311 36.498 106.017C36.2893 105.141 35.8092 104.932 35.6213 106.017Z" fill="#E49206"/>
<path d="M32.3651 111.57C34.7053 111.57 36.6024 109.514 36.6024 106.977C36.6024 104.441 34.7053 102.385 32.3651 102.385C30.0248 102.385 28.1277 104.441 28.1277 106.977C28.1277 109.514 30.0248 111.57 32.3651 111.57Z" fill="#E49206"/>
<path d="M67.3702 10.5412C68.0619 10.5412 68.6226 9.98047 68.6226 9.28878C68.6226 8.59709 68.0619 8.03636 67.3702 8.03636C66.6785 8.03636 66.1178 8.59709 66.1178 9.28878C66.1178 9.98047 66.6785 10.5412 67.3702 10.5412Z" fill="url(#paint1_linear)"/>
<path d="M73.1105 2.50484C73.8021 2.50484 74.3629 1.94411 74.3629 1.25242C74.3629 0.560727 73.8021 0 73.1105 0C72.4188 0 71.858 0.560727 71.858 1.25242C71.858 1.94411 72.4188 2.50484 73.1105 2.50484Z" fill="url(#paint2_linear)"/>
<path d="M70.2925 6.36647C70.9842 6.36647 71.5449 5.80574 71.5449 5.11405C71.5449 4.42236 70.9842 3.86163 70.2925 3.86163C69.6008 3.86163 69.0401 4.42236 69.0401 5.11405C69.0401 5.80574 69.6008 6.36647 70.2925 6.36647Z" fill="url(#paint3_linear)"/>
<path d="M29.5 111.5C31.5247 107.701 32.4903 101.78 34.5151 97.9809C39.0864 89.381 43.6786 80.7602 48.2499 72.1602C53.2387 62.788 58.2067 53.4366 63.1955 44.0643C66.4309 37.9901 69.6454 31.9367 72.8808 25.8625C73.1522 25.3615 73.4862 24.8397 73.6949 24.3178C73.7575 24.1926 73.9036 24.0256 73.6532 24.2134C74.008 23.9421 74.7386 23.8586 75.1561 23.6916C75.991 23.3576 76.8051 22.9819 77.5357 22.5018C79.3099 21.3329 80.3327 18.9115 81.3347 17.1373C82.6288 14.862 83.8604 12.5659 85.0711 10.2698C85.3215 9.78975 85.572 9.30966 85.8225 8.80869C86.3652 7.76501 86.1982 6.07424 86.0521 4.94706C85.9895 4.48784 85.7181 2.92232 85.1963 3.94513C85.1754 3.98687 85.1545 4.00775 85.1545 4.02862C84.9876 4.34173 85.2172 3.88251 85.1337 4.09124C84.9458 4.44609 84.7788 4.78007 84.591 5.13493C84.0065 6.24123 83.422 7.32666 82.8376 8.41209C81.5643 10.7708 80.291 13.1504 78.809 15.3839C78.2036 16.2815 77.64 16.8659 76.659 17.3878C75.9075 17.7844 75.1143 18.0975 74.3211 18.3688C74.0706 18.4523 73.674 18.4941 73.4653 18.6819C73.2566 18.8698 73.1313 19.3081 73.0061 19.5586C70.1255 24.9858 67.2241 30.4129 64.3435 35.8401C59.4799 45.0036 54.5955 54.1671 49.732 63.3307C45.0145 72.2228 40.2762 81.0942 35.5587 89.9863C33.1165 94.5785 30.6743 99.1499 28.253 103.742C28.2112 103.805 28.1903 103.867 28.1486 103.93C27.6059 104.932 27.6476 106.289 27.7103 107.395C27.752 107.938 27.7495 109.999 28 110.5C28.0417 110.604 29.333 111.834 29.5 111.5Z" fill="url(#paint4_linear)"/>
<defs>
<linearGradient id="paint0_linear" x1="67.7744" y1="12.1134" x2="-27.3456" y2="153.024" gradientUnits="userSpaceOnUse">
<stop stop-color="#FFC20B"/>
<stop offset="1" stop-color="#DE8705"/>
</linearGradient>
<linearGradient id="paint1_linear" x1="68.6226" y1="8.03636" x2="67.3484" y2="11.5981" gradientUnits="userSpaceOnUse">
<stop stop-color="#FFC20B"/>
<stop offset="1" stop-color="#DE8705"/>
</linearGradient>
<linearGradient id="paint2_linear" x1="74.3629" y1="0" x2="73.0887" y2="3.56174" gradientUnits="userSpaceOnUse">
<stop stop-color="#FFC20B"/>
<stop offset="1" stop-color="#DE8705"/>
</linearGradient>
<linearGradient id="paint3_linear" x1="71.5449" y1="3.86163" x2="70.2707" y2="7.42338" gradientUnits="userSpaceOnUse">
<stop stop-color="#FFC20B"/>
<stop offset="1" stop-color="#DE8705"/>
</linearGradient>
<linearGradient id="paint4_linear" x1="86.1962" y1="3.60487" x2="8.74603" y2="123.283" gradientUnits="userSpaceOnUse">
<stop stop-color="#FFC20B"/>
<stop offset="1" stop-color="#DE8705"/>
</linearGradient>
</defs>
</svg>
