<svg width="290" height="140" viewBox="0 0 290 140" fill="none" xmlns="http://www.w3.org/2000/svg">
<path d="M75.1123 0.616396C66.863 13.6011 58.6138 26.5859 50.3645 39.5706C50.0736 40.0409 49.9281 40.5112 49.3879 40.5112C49.0762 40.5112 48.5983 40.1715 48.2866 40.067C47.5593 39.7796 46.8113 39.5184 46.084 39.2832C44.6502 38.8391 43.1749 38.4733 41.6996 38.2382C38.9568 37.7679 36.1724 37.6634 33.4088 38.0031C29.0244 38.5256 24.3699 40.1454 21.0037 43.8815C16.7232 48.6364 15.8089 56.8662 16.4946 63.6329C16.6401 65.0698 16.8894 66.5068 17.4089 67.8131C17.8245 68.832 18.344 69.7464 18.8219 70.7131C19.4453 72.0456 19.8401 73.5086 20.1725 74.9978C20.3388 75.7032 20.4842 76.4348 20.5881 77.1663C20.6089 77.3492 20.7128 77.6627 20.6504 77.7933C20.6297 77.5321 20.6297 77.2969 20.6504 77.0357C20.6089 77.3231 20.5465 77.5843 20.4634 77.8456C19.8401 80.0663 18.2401 81.5033 16.7648 82.7834C14.5206 84.7168 12.1934 86.5717 9.82456 88.2177C6.89471 90.2555 4.00642 91.6925 2.21942 95.5069C-0.357178 101.02 -0.440295 108.518 0.702553 114.605C1.86618 120.823 5.04538 126.153 8.84794 130.229C14.4375 136.264 22.1673 139.242 29.4192 139.869C38.7698 140.679 49.9489 137.884 55.1437 127.015C59.2371 118.42 58.9878 106.323 54.4164 98.1196C51.8606 93.5475 48.2866 90.151 44.2762 87.7736C42.7178 86.833 41.097 86.0754 39.4347 85.4483C37.7308 84.7952 36.0685 84.2204 34.5724 82.9663C32.9309 81.5816 31.4348 79.6483 30.6659 77.3492C30.5413 76.9834 30.4374 76.6177 30.3543 76.2519C30.3543 76.2519 30.2088 75.3375 30.2919 75.86C30.4166 76.6699 30.3543 75.1807 30.3127 76.2519C30.3127 76.5131 30.1257 77.1924 30.3127 76.6438C30.2088 76.9573 30.3127 76.696 30.3335 76.5393C30.4789 75.9384 30.6659 75.3375 30.9153 74.7888C33.0971 70.0338 38.0633 68.3879 42.136 68.4924C44.5256 68.5446 46.8736 69.2501 49.0138 70.5302C49.0762 70.478 49.1177 70.4519 49.1801 70.3996C57.4294 54.6977 67.0708 40.2499 75.9435 25.0967C78.4578 20.812 80.9097 16.4489 83.2369 12.0074C83.8395 10.8579 83.7356 8.9768 83.6733 7.67048C83.6525 7.40922 83.2785 4.50921 82.9045 5.21462C73.9903 22.1444 64.4111 38.4995 54.8735 54.8545C50.1359 62.9797 45.3983 71.105 40.7438 79.2825C38.3957 83.4105 36.0685 87.5646 33.7828 91.7448C32.6607 93.8087 31.5387 95.8466 30.4374 97.9105C29.3776 99.87 28.0686 101.829 27.5283 104.102C26.9257 106.689 26.6971 109.641 27.1751 112.28C27.466 113.848 28.0893 114.71 29.2322 115.389C29.9179 115.781 30.5413 116.094 31.3101 115.99C32.0997 115.859 32.827 115.467 33.5127 114.945C35.0295 113.769 35.9646 111.94 36.3594 109.746C36.6295 108.152 36.6503 106.349 36.3594 104.756C36.1516 103.606 35.7152 103.449 35.4867 104.756C35.2165 106.271 33.9906 107.63 32.9309 108.309C31.6841 109.093 30.6036 109.119 29.3569 108.413C28.9828 108.204 28.6088 107.969 28.3179 107.603C28.2348 107.499 28.1309 107.316 28.0686 107.238C27.8608 106.558 27.8815 107.029 28.0893 108.675C28.214 109.249 28.2348 109.824 28.1517 110.373C28.1309 110.503 28.1309 110.477 28.1725 110.294C28.4426 109.484 28.6296 108.779 29.0244 108.021C29.5647 106.976 30.1257 105.957 30.6867 104.912C34.7802 97.2574 39.0191 89.7069 43.2996 82.2087C51.8398 67.2645 60.6293 52.5554 69.1487 37.6112C73.9695 29.1724 78.7071 20.6552 83.2577 11.9813C83.1538 9.70833 83.0292 7.43535 82.9253 5.18849C75.8812 18.5913 67.8397 31.0796 60.1099 43.8815C58.1566 47.1211 56.2242 50.3608 54.3541 53.6527C53.5229 55.0896 52.7125 56.5527 51.9021 58.0158C51.4658 58.7995 51.0294 59.6095 50.593 60.4194C50.3853 60.8113 50.1567 61.2293 49.9489 61.6212C49.7619 61.9608 49.3879 63.0581 49.097 63.241C48.619 63.5284 47.8294 62.8491 47.3515 62.6401C46.7697 62.3788 46.1879 62.1698 45.6061 62.0131C44.3386 61.6473 43.0295 61.4644 41.7204 61.4906C39.4555 61.4906 37.1282 62.0392 35.0711 63.2671C33.201 64.3644 31.5179 66.0104 30.4997 68.2834C29.2322 71.1311 28.9621 74.5798 29.1283 77.7933C29.4192 83.6456 31.7049 88.4267 35.923 91.0393C37.336 91.9276 38.8321 92.3195 40.3282 92.9204C42.1775 93.6781 44.0061 94.6448 45.7308 95.7943C49.5749 98.3808 52.9619 102.195 55.1229 107.002C56.0164 108.988 56.5151 111.209 56.7852 113.299C56.8891 114.161 56.8268 112.358 56.7852 113.194C56.7852 113.351 56.7644 113.508 56.7644 113.665C56.806 112.646 56.806 113.273 56.7644 113.534C56.7436 113.717 56.7229 113.926 56.7021 114.109C56.619 114.814 56.806 113.508 56.6813 114.239C56.5982 114.71 56.5359 115.206 56.432 115.65C55.1644 121.503 51.4242 126.414 47.1022 129.158C43.071 131.718 38.5412 132.711 34.0737 132.946C28.9413 133.233 23.7673 132.293 18.9258 130.176C16.1414 128.949 13.357 127.381 10.9466 125.212C6.9986 121.659 3.11292 116.33 1.76228 110.347C1.65839 109.929 1.59605 109.484 1.51294 109.04C1.3467 108.048 1.55449 109.484 1.42982 108.466C1.42982 108.466 1.3467 107.394 1.38826 107.969C1.38826 107.917 1.30515 106.82 1.36748 107.551C1.28437 106.558 1.30515 108.126 1.36748 107.133C1.38826 106.793 1.42982 106.297 1.55449 105.644C2.09475 102.822 3.44539 100.314 5.25316 98.5637C6.18822 97.6493 7.26873 97.0484 8.30768 96.3691C10.4895 94.9583 12.5882 93.3384 14.6453 91.6925C16.4739 90.2294 18.5725 88.7664 19.9647 86.624C21.8348 83.7501 22.0426 79.4915 21.8972 75.9645C21.7309 72.2284 20.9829 68.1527 19.5907 64.8086C18.905 63.1888 17.5751 61.4383 17.6167 59.6095C17.679 57.0491 19.0089 53.9401 20.4011 51.9545C21.8141 49.9689 23.6426 48.5319 25.5751 47.4869C30.3958 44.9004 35.8815 44.4824 41.0347 45.2139C44.0269 45.658 46.9775 46.5202 49.8242 47.7743C49.8866 47.722 49.9281 47.6959 49.9905 47.6436C58.4268 34.1886 66.9462 20.812 75.4448 7.40922C76.0889 6.3903 75.9435 4.27407 75.8811 3.07226C75.8604 2.78487 75.5487 -0.0890127 75.1123 0.616396Z" fill="url(#paint0_linear)"/>
<path d="M75.5287 7.01525C76.8671 6.3662 79.1269 6.61583 80.4213 7.21496C81.7377 7.78912 82.4617 9.36182 82.8786 10.8097C83.2735 12.1827 83.7342 9.91101 83.7781 9.61145C83.9536 8.11364 83.9536 6.44109 83.5368 4.99321C83.076 3.37058 82.2862 1.57321 80.9259 0.724451C79.9386 0.125327 78.7539 0.000509458 77.635 0.000509458C76.9768 0.000509458 76.1431 -0.024454 75.5287 0.275108C74.7609 0.64956 74.8706 2.89627 74.8706 3.64518C74.8925 3.89481 75.0461 7.23992 75.5287 7.01525Z" fill="url(#paint1_linear)"/>
<path d="M32.4114 110.843C34.741 110.843 36.6295 108.773 36.6295 106.219C36.6295 103.665 34.741 101.594 32.4114 101.594C30.0818 101.594 28.1932 103.665 28.1932 106.219C28.1932 108.773 30.0818 110.843 32.4114 110.843Z" fill="url(#paint2_linear)"/>
<path d="M233.903 105.585C233.903 107.724 232.171 109.458 230.035 109.458C227.9 109.458 226.168 107.724 226.168 105.585C226.168 103.447 227.9 101.713 230.035 101.713C232.171 101.713 233.903 103.447 233.903 105.585Z" fill="#E79607"/>
<path d="M102.67 61.2729C102.577 60.8392 102.531 60.0027 102.531 58.7636C102.531 57.5245 102.763 56.2079 103.227 54.8138H103.645C103.614 55.1546 103.598 55.4954 103.598 55.8361C103.598 57.7258 104.171 59.3057 105.315 60.5758C106.46 61.815 107.976 62.4346 109.863 62.4346C111.812 62.4346 113.406 61.846 114.643 60.6688C115.912 59.4916 116.546 58.0201 116.546 56.2543C116.546 54.4576 115.942 53.0016 114.736 51.8864L105.826 43.6151C104.155 42.0662 103.32 40.1919 103.32 37.9925C103.32 35.793 104.047 33.9188 105.501 32.3699C106.986 30.79 108.982 30 111.487 30C112.663 30 113.993 30.1549 115.478 30.4647H117.288V36.1802H116.871C116.871 34.7242 116.36 33.5625 115.339 32.6951C114.349 31.8277 113.065 31.394 111.487 31.394C109.91 31.394 108.579 31.9207 107.496 32.9739C106.445 34.0272 105.919 35.3438 105.919 36.9237C105.919 38.5036 106.537 39.8667 107.775 41.0129L116.917 49.47C118.464 50.895 119.237 52.8467 119.237 55.325C119.237 57.8033 118.448 59.8479 116.871 61.4587C115.293 63.0386 113.189 63.8286 110.559 63.8286C109.198 63.8286 107.744 63.6117 106.197 63.1781C104.681 62.7753 103.506 62.1403 102.67 61.2729Z" fill="#666666"/>
<path d="M149.554 62.7908H149.863V63.1781H141.162V62.7908H141.51C142.051 62.7908 142.451 62.623 142.709 62.2874C142.992 61.926 143.134 61.5904 143.134 61.2806C143.134 60.9708 143.082 60.661 142.979 60.3513L140.504 53.7683H130.063L127.472 60.39C127.369 60.6998 127.317 61.0096 127.317 61.3193C127.317 61.6033 127.446 61.926 127.704 62.2874C127.987 62.623 128.4 62.7908 128.941 62.7908H129.289V63.1781H121.516V62.7908H121.864C122.509 62.7908 123.141 62.5843 123.759 62.1712C124.378 61.7582 124.881 61.1515 125.268 60.3513L134.007 39.5182C134.961 37.4271 135.438 36.0976 135.438 35.5297H135.786L146.15 60.3513C146.511 61.1515 147.001 61.7582 147.62 62.1712C148.239 62.5843 148.883 62.7908 149.554 62.7908ZM130.527 52.6066H140.04L135.4 40.1765L130.527 52.6066Z" fill="#666666"/>
<path d="M184.2 62.7908H184.819V63.1781H176.427V62.8295H177.007C177.446 62.8295 177.82 62.6617 178.129 62.3261C178.438 61.9647 178.567 61.5775 178.516 61.1644L176.775 41.6867L168.654 59.7704C167.932 61.3451 167.494 62.6617 167.339 63.7202H166.953L157.053 42.2288L155.39 61.1644C155.338 61.5775 155.467 61.9647 155.776 62.3261C156.086 62.6617 156.447 62.8295 156.859 62.8295H157.478V63.1781H149.976V62.7908H150.594C151.316 62.7908 151.935 62.5714 152.451 62.1325C152.992 61.6937 153.314 61.0999 153.417 60.3513L156.318 35.5297H156.705L167.494 58.8798L178.052 35.5297H178.4L181.377 60.3513C181.506 61.3839 182.022 62.1067 182.924 62.5198C183.311 62.7005 183.736 62.7908 184.2 62.7908Z" fill="#666666"/>
<path d="M213.075 62.7908H213.385V63.1781H204.684V62.7908H205.032C205.573 62.7908 205.973 62.623 206.231 62.2874C206.514 61.926 206.656 61.5904 206.656 61.2806C206.656 60.9708 206.604 60.661 206.501 60.3513L204.026 53.7683H193.585L190.994 60.39C190.891 60.6998 190.839 61.0096 190.839 61.3193C190.839 61.6033 190.968 61.926 191.226 62.2874C191.509 62.623 191.922 62.7908 192.463 62.7908H192.811V63.1781H185.038V62.7908H185.386C186.031 62.7908 186.662 62.5843 187.281 62.1712C187.9 61.7582 188.403 61.1515 188.789 60.3513L197.529 39.5182C198.483 37.4271 198.96 36.0976 198.96 35.5297H199.308L209.672 60.3513C210.033 61.1515 210.523 61.7582 211.142 62.1712C211.761 62.5843 212.405 62.7908 213.075 62.7908ZM194.049 52.6066H203.562L198.921 40.1765L194.049 52.6066Z" fill="#666666"/>
<path d="M223.204 37.2722H220.729V60.3513C220.729 61.0225 220.961 61.6033 221.425 62.0938C221.915 62.5585 222.508 62.7908 223.204 62.7908H223.668L223.707 63.1781H215.238V62.7908H215.741C216.411 62.7908 216.978 62.5585 217.442 62.0938C217.932 61.6291 218.19 61.0612 218.216 60.39V38.8986C218.19 38.2274 217.932 37.6595 217.442 37.1948C216.978 36.7043 216.411 36.459 215.741 36.459H215.238V36.0718H225.679C228.025 36.0718 229.869 36.7301 231.209 38.0467C232.55 39.3375 233.22 41.0284 233.22 43.1194C233.22 45.1847 232.576 46.9788 231.287 48.502C230.023 49.9992 228.477 50.7479 226.646 50.7479C227.033 50.9286 227.484 51.29 228 51.8321C228.541 52.3485 229.018 52.8906 229.43 53.4585C231.648 56.6338 233.091 58.5958 233.762 59.3444C234.432 60.0673 234.909 60.5707 235.193 60.8547C235.476 61.1128 235.786 61.371 236.121 61.6291C236.456 61.8873 236.791 62.0938 237.126 62.2487C237.874 62.6101 238.673 62.7908 239.524 62.7908V63.1781H237.397C236.288 63.1781 235.257 62.9844 234.303 62.5972C233.349 62.1842 232.627 61.7711 232.137 61.3581C231.673 60.9192 231.261 60.5061 230.9 60.1189C230.565 59.7059 229.611 58.3635 228.038 56.0917C226.466 53.8199 225.55 52.5292 225.293 52.2194C225.035 51.8838 224.764 51.5611 224.48 51.2513C223.655 50.3736 222.83 49.9347 222.005 49.9347V49.5475C222.212 49.5733 222.482 49.5862 222.818 49.5862C223.153 49.5862 223.565 49.5733 224.055 49.5475C227.252 49.47 229.263 48.1276 230.088 45.5203C230.243 45.004 230.32 44.5264 230.32 44.0875C230.32 43.6228 230.32 43.3259 230.32 43.1969C230.268 41.4672 229.817 40.0732 228.966 39.0148C228.116 37.9563 226.968 37.3884 225.525 37.3109C224.906 37.2851 224.132 37.2722 223.204 37.2722Z" fill="#666666"/>
<path d="M259.752 39.5182C259.752 38.8986 259.533 38.3694 259.095 37.9305C258.656 37.4658 258.141 37.2206 257.548 37.1948H250.2V60.39C250.226 61.0612 250.471 61.6291 250.935 62.0938C251.425 62.5585 252.005 62.7908 252.675 62.7908H253.178V63.1781H244.709V62.7908H245.211C245.882 62.7908 246.449 62.5585 246.913 62.0938C247.403 61.6291 247.661 61.0741 247.686 60.4287V37.1948H240.339C239.72 37.2206 239.191 37.4658 238.753 37.9305C238.341 38.3694 238.134 38.8986 238.134 39.5182V40.1765L237.748 40.2152V35.3361C238.134 35.491 238.805 35.6458 239.759 35.8007C240.712 35.9556 241.589 36.0331 242.388 36.0331H255.459C256.723 36.0331 257.767 35.9427 258.592 35.762C259.443 35.5555 259.958 35.4135 260.139 35.3361V40.2152L259.752 40.1765V39.5182Z" fill="#666666"/>
<path d="M282.034 62.7908C282.704 62.7908 283.271 62.5585 283.735 62.0938C284.225 61.6291 284.483 61.0612 284.508 60.39V50.3607H268.692V60.3513C268.692 61.0225 268.937 61.6033 269.426 62.0938C269.916 62.5585 270.496 62.7908 271.167 62.7908H271.669V63.1781H263.2V62.7908H263.703C264.373 62.7908 264.94 62.5585 265.404 62.0938C265.894 61.6033 266.152 61.0225 266.178 60.3513V38.8599C266.152 38.1887 265.894 37.6207 265.404 37.156C264.94 36.6914 264.373 36.459 263.703 36.459H263.2V36.0718H271.669V36.459H271.167C270.496 36.459 269.916 36.6914 269.426 37.156C268.962 37.6207 268.717 38.1887 268.692 38.8599V49.199H284.508V38.8599C284.483 37.9305 284.07 37.2335 283.271 36.7688C282.884 36.5623 282.472 36.459 282.034 36.459H281.531V36.0718H290V36.459H289.497C288.827 36.459 288.247 36.7043 287.757 37.1948C287.293 37.6595 287.048 38.2274 287.022 38.8986V60.3513C287.048 61.0225 287.293 61.6033 287.757 62.0938C288.247 62.5585 288.827 62.7908 289.497 62.7908H290V63.1781H281.531V62.7908H282.034Z" fill="#666666"/>
<path d="M118.356 76.9304C123.306 76.9304 127.312 78.4328 130.375 81.4378C133.469 84.4117 135.016 88.3305 135.016 93.1941C135.016 98.0578 133.469 101.992 130.375 104.997C127.312 107.971 123.306 109.458 118.356 109.458H102.624V108.993H103.227C104.031 108.993 104.712 108.714 105.269 108.157C105.857 107.568 106.166 106.871 106.197 106.066V80.0437C106.197 79.3002 105.888 78.6807 105.269 78.185C104.681 77.6584 104.001 77.3951 103.227 77.3951H102.67L102.624 76.9304H118.356ZM109.214 78.3244V108.064H118.356C120.954 108.064 123.244 107.444 125.224 106.205C127.235 104.966 128.782 103.231 129.864 101.001C130.978 98.7393 131.535 96.1371 131.535 93.1941C131.535 88.7332 130.313 85.1397 127.869 82.4136C125.456 79.6875 122.285 78.3244 118.356 78.3244H109.214Z" fill="#666666"/>
<path d="M140.096 109.071C140.766 109.071 141.333 108.838 141.797 108.374C142.287 107.883 142.545 107.302 142.571 106.631V84.9461C142.494 84.3265 142.223 83.8102 141.759 83.3972C141.295 82.9583 140.74 82.7389 140.096 82.7389H139.632L139.593 82.3516H150.924C151.723 82.3516 152.587 82.2742 153.515 82.1193C154.469 81.9644 155.139 81.8095 155.526 81.6546V86.5337H155.139V85.8367C155.139 85.2171 154.92 84.6879 154.482 84.2491C154.069 83.8102 153.567 83.5779 152.974 83.5521H145.085V95.5175H151.62C152.136 95.4917 152.574 95.2981 152.935 94.9367C153.296 94.5753 153.476 94.1235 153.476 93.5814V93.0392H153.863V99.1575H153.476V98.5767C153.476 98.0603 153.296 97.6215 152.935 97.2601C152.6 96.8987 152.174 96.705 151.659 96.6792H145.085V108.257H150.615C152.522 108.257 153.979 107.832 154.985 106.98C155.99 106.128 156.828 104.863 157.498 103.185H157.885L155.642 109.458H139.593V109.071H140.096Z" fill="#666666"/>
<path d="M161.951 107.87C161.874 107.509 161.835 106.812 161.835 105.779C161.835 104.747 162.029 103.649 162.415 102.488H162.763C162.738 102.772 162.725 103.056 162.725 103.34C162.725 104.914 163.202 106.231 164.156 107.289C165.11 108.322 166.373 108.838 167.945 108.838C169.57 108.838 170.897 108.348 171.929 107.367C172.986 106.386 173.514 105.16 173.514 103.688C173.514 102.191 173.012 100.977 172.006 100.048L164.581 93.1554C163.189 91.8646 162.493 90.3028 162.493 88.4699C162.493 86.637 163.099 85.0752 164.31 83.7844C165.548 82.4678 167.211 81.8095 169.299 81.8095C170.279 81.8095 171.387 81.9386 172.625 82.1967H174.133V86.9597H173.785C173.785 85.7464 173.36 84.7783 172.509 84.0555C171.684 83.3326 170.614 82.9712 169.299 82.9712C167.984 82.9712 166.876 83.4101 165.973 84.2878C165.097 85.1655 164.658 86.2627 164.658 87.5793C164.658 88.8959 165.174 90.0317 166.205 90.9869L173.824 98.0345C175.113 99.222 175.757 100.848 175.757 102.914C175.757 104.979 175.1 106.683 173.785 108.025C172.47 109.342 170.717 110 168.526 110C167.391 110 166.179 109.819 164.89 109.458C163.627 109.122 162.647 108.593 161.951 107.87Z" fill="#666666"/>
<path d="M205.636 109.071H205.945V109.458H197.244V109.071H197.592C198.133 109.071 198.533 108.903 198.791 108.567C199.074 108.206 199.216 107.87 199.216 107.56C199.216 107.251 199.164 106.941 199.061 106.631L196.586 100.048H186.145L183.554 106.67C183.451 106.98 183.399 107.289 183.399 107.599C183.399 107.883 183.528 108.206 183.786 108.567C184.07 108.903 184.482 109.071 185.023 109.071H185.371V109.458H177.598V109.071H177.946C178.591 109.071 179.223 108.864 179.841 108.451C180.46 108.038 180.963 107.431 181.35 106.631L190.089 85.798C191.043 83.7069 191.52 82.3774 191.52 81.8095H191.868L202.232 106.631C202.593 107.431 203.083 108.038 203.702 108.451C204.321 108.864 204.965 109.071 205.636 109.071ZM186.609 98.8864H196.122L191.482 86.4563L186.609 98.8864Z" fill="#666666"/>
<path d="M208.301 109.071C208.971 109.071 209.538 108.838 210.002 108.374C210.492 107.883 210.75 107.302 210.776 106.631V85.1397C210.75 84.4685 210.492 83.9006 210.002 83.4359C209.538 82.9712 208.971 82.7389 208.301 82.7389H207.798V82.3516H216.267V82.7389H215.764C215.094 82.7389 214.514 82.9712 214.024 83.4359C213.56 83.9006 213.315 84.4685 213.289 85.1397V106.631C213.289 107.302 213.534 107.883 214.024 108.374C214.514 108.838 215.094 109.071 215.764 109.071H216.267V109.458H207.798V109.071H208.301Z" fill="#666666"/>
<defs>
<linearGradient id="paint0_linear" x1="83.8891" y1="0" x2="-14.9443" y2="165.543" gradientUnits="userSpaceOnUse">
<stop stop-color="#FFC20B"/>
<stop offset="1" stop-color="#DE8705"/>
</linearGradient>
<linearGradient id="paint1_linear" x1="83.8891" y1="0" x2="-14.9443" y2="165.543" gradientUnits="userSpaceOnUse">
<stop stop-color="#FFC20B"/>
<stop offset="1" stop-color="#DE8705"/>
</linearGradient>
<linearGradient id="paint2_linear" x1="83.8891" y1="0" x2="-14.9443" y2="165.543" gradientUnits="userSpaceOnUse">
<stop stop-color="#FFC20B"/>
<stop offset="1" stop-color="#DE8705"/>
</linearGradient>
</defs>
</svg>
