<svg width="1081" height="48" viewBox="0 0 1081 48" fill="none" xmlns="http://www.w3.org/2000/svg">
<g opacity="0.5">
<path d="M1047.67 8.83999C1047.97 6.13999 1050.57 4.73999 1053.07 5.03999C1056.47 5.43999 1058.37 8.63998 1057.47 11.84C1055.57 18.44 1047.47 24.04 1040.97 25.24C1040.07 25.34 1040.57 24.24 1040.97 24.04C1044.97 21.94 1049.17 20.64 1052.37 17.24C1053.77 15.74 1055.37 13.74 1055.87 11.74C1056.77 7.83998 1050.57 3.63999 1048.77 8.73998C1048.57 8.93999 1047.57 9.43999 1047.67 8.83999Z" fill="#FEC10B"/>
<path d="M1041.47 27.6401C1045.77 27.8401 1050.77 29.9401 1053.97 32.9401C1056.47 35.2401 1058.97 39.2401 1057.87 42.8401C1056.87 45.9401 1054.27 47.7401 1050.97 47.5401C1046.77 47.2401 1044.37 43.1401 1047.07 39.6401C1047.47 39.1401 1048.67 39.1401 1048.17 40.0401C1046.17 43.9401 1051.77 47.7401 1054.87 44.8401C1056.57 43.2401 1056.37 41.1401 1055.57 39.2401C1053.17 33.0401 1046.87 30.5401 1040.97 28.5401C1040.47 28.2401 1041.07 27.5401 1041.47 27.6401Z" fill="#FEC10B"/>
<path d="M1063.87 14.9401C1062.27 17.4401 1060.47 19.8401 1058.47 22.0401C1056.67 23.8401 1054.67 26.0401 1052.17 26.9401C1051.27 27.2401 1051.27 26.2401 1051.77 25.7401C1053.77 23.9401 1056.07 22.5401 1057.97 20.5401C1059.77 18.6401 1061.37 16.6401 1062.97 14.6401C1063.27 14.1401 1064.27 14.2401 1063.87 14.9401Z" fill="#FEC10B"/>
<path d="M1052.07 25.6399C1056.57 26.6399 1063.07 30.3399 1063.67 35.4399C1063.77 36.0399 1062.67 36.7399 1062.27 36.2399C1060.67 34.3399 1059.87 32.2399 1057.97 30.5399C1056.07 28.8399 1053.77 27.7399 1051.37 26.6399C1050.87 26.3399 1051.67 25.5399 1052.07 25.6399Z" fill="#FEC10B"/>
<path d="M1068.87 20.04C1067.27 22.64 1065.07 25.74 1062.07 26.74C1061.37 26.94 1061.37 26.14 1061.77 25.84C1062.87 24.84 1064.07 24.14 1065.07 23.04C1066.07 22.04 1066.97 20.84 1067.97 19.74C1068.27 19.24 1069.37 19.34 1068.87 20.04Z" fill="#FEC10B"/>
<path d="M1062.47 25.4399C1063.97 25.8399 1065.37 26.4399 1066.57 27.4399C1067.67 28.4399 1068.87 30.0399 1068.77 31.5399C1068.77 32.0399 1067.97 32.7399 1067.47 32.2399C1066.97 31.6399 1066.77 30.9399 1066.37 30.2399C1066.07 29.6399 1065.67 29.1399 1065.17 28.6399C1064.17 27.6399 1062.87 27.0399 1061.67 26.4399C1061.07 26.2399 1061.97 25.2399 1062.47 25.4399Z" fill="#FEC10B"/>
<path d="M1068.17 25.74C1070.87 24.54 1073.97 23.54 1076.97 23.74C1078.07 23.84 1081.37 24.34 1080.97 26.04C1080.67 27.44 1078.07 28.24 1076.87 28.44C1073.87 28.84 1070.77 28.14 1068.07 26.84C1067.37 26.44 1068.37 25.44 1068.97 25.54C1070.57 25.94 1072.17 26.34 1073.77 26.64C1074.97 26.84 1076.17 26.94 1077.37 26.74C1077.87 26.64 1078.37 26.54 1078.77 26.24C1079.37 25.94 1079.47 25.84 1078.97 26.04C1078.97 25.94 1076.97 25.44 1076.97 25.44C1075.77 25.24 1074.67 25.24 1073.47 25.44C1071.67 25.64 1069.97 26.34 1068.17 26.64C1067.57 26.74 1067.77 25.94 1068.17 25.74Z" fill="#FEC10B"/>
</g>
<path d="M1028.88 27.3684C985.604 28.4737 942.186 27.6842 898.906 27.6842C857.281 27.6842 815.655 27.6842 774.167 27.8421C749.219 27.8421 724.271 27.8421 699.461 27.8421C697.669 27.8421 698.772 25 700.15 25C700.288 25 700.426 25 700.563 25C702.355 25 701.253 27.8421 699.874 27.8421C696.153 27.8421 692.569 27.8421 688.848 27.6842C687.056 27.6842 688.434 24.5263 689.95 25.3158C689.537 25.1579 689.399 25.1579 689.812 25.1579C691.466 25.1579 690.364 27.6842 689.261 27.6842C688.985 27.6842 688.985 27.6842 689.261 27.6842C687.607 28.3158 688.021 25.3158 689.537 25.3158C693.258 25.1579 696.98 25.1579 700.563 25.1579C702.355 25.1579 701.253 28 699.874 28C699.736 28 699.599 28 699.461 28C697.669 28 698.772 25.1579 700.15 25.1579C785.056 25.1579 869.961 25.3158 954.729 25.3158C979.677 25.3158 1004.49 25 1029.43 25.6316C1030.54 25.4737 1029.85 27.2105 1028.88 27.3684Z" fill="#FEC10B" fill-opacity="0.3"/>
<g opacity="0.5">
<path d="M33.3335 8.83999C33.0335 6.13999 30.4335 4.73999 27.9335 5.03999C24.5335 5.43999 22.6335 8.63998 23.5335 11.84C25.4335 18.44 33.5335 24.04 40.0335 25.24C40.9335 25.34 40.4335 24.24 40.0335 24.04C36.0335 21.94 31.8335 20.64 28.6335 17.24C27.2335 15.74 25.6335 13.74 25.1335 11.74C24.2335 7.83998 30.4335 3.63999 32.2335 8.73998C32.4335 8.93999 33.4335 9.43999 33.3335 8.83999Z" fill="#FEC10B"/>
<path d="M39.5334 27.6401C35.2334 27.8401 30.2334 29.9401 27.0334 32.9401C24.5334 35.2401 22.0334 39.2401 23.1334 42.8401C24.1334 45.9401 26.7334 47.7401 30.0334 47.5401C34.2334 47.2401 36.6334 43.1401 33.9334 39.6401C33.5334 39.1401 32.3334 39.1401 32.8334 40.0401C34.8334 43.9401 29.2334 47.7401 26.1334 44.8401C24.4334 43.2401 24.6334 41.1401 25.4334 39.2401C27.8334 33.0401 34.1334 30.5401 40.0334 28.5401C40.5334 28.2401 39.9334 27.5401 39.5334 27.6401Z" fill="#FEC10B"/>
<path d="M17.1334 14.9401C18.7334 17.4401 20.5334 19.8401 22.5334 22.0401C24.3334 23.8401 26.3334 26.0401 28.8334 26.9401C29.7334 27.2401 29.7334 26.2401 29.2334 25.7401C27.2334 23.9401 24.9334 22.5401 23.0334 20.5401C21.2334 18.6401 19.6334 16.6401 18.0334 14.6401C17.7334 14.1401 16.7334 14.2401 17.1334 14.9401Z" fill="#FEC10B"/>
<path d="M28.9335 25.6399C24.4335 26.6399 17.9335 30.3399 17.3335 35.4399C17.2335 36.0399 18.3335 36.7399 18.7335 36.2399C20.3335 34.3399 21.1335 32.2399 23.0335 30.5399C24.9335 28.8399 27.2335 27.7399 29.6335 26.6399C30.1335 26.3399 29.3335 25.5399 28.9335 25.6399Z" fill="#FEC10B"/>
<path d="M12.1334 20.04C13.7334 22.64 15.9334 25.74 18.9334 26.74C19.6334 26.94 19.6334 26.14 19.2334 25.84C18.1334 24.84 16.9334 24.14 15.9334 23.04C14.9334 22.04 14.0334 20.84 13.0334 19.74C12.7334 19.24 11.6334 19.34 12.1334 20.04Z" fill="#FEC10B"/>
<path d="M18.5334 25.4399C17.0334 25.8399 15.6334 26.4399 14.4334 27.4399C13.3334 28.4399 12.1334 30.0399 12.2334 31.5399C12.2334 32.0399 13.0334 32.7399 13.5334 32.2399C14.0334 31.6399 14.2334 30.9399 14.6334 30.2399C14.9334 29.6399 15.3334 29.1399 15.8334 28.6399C16.8334 27.6399 18.1334 27.0399 19.3334 26.4399C19.9334 26.2399 19.0334 25.2399 18.5334 25.4399Z" fill="#FEC10B"/>
<path d="M12.8334 25.74C10.1334 24.54 7.03343 23.54 4.03343 23.74C2.93343 23.84 -0.36657 24.34 0.0334303 26.04C0.33343 27.44 2.93343 28.24 4.13343 28.44C7.13343 28.84 10.2334 28.14 12.9334 26.84C13.6334 26.44 12.6334 25.44 12.0334 25.54C10.4334 25.94 8.83343 26.34 7.23343 26.64C6.03343 26.84 4.83343 26.94 3.63343 26.74C3.13343 26.64 2.63343 26.54 2.23343 26.24C1.63343 25.94 1.53343 25.84 2.03343 26.04C2.03343 25.94 4.03343 25.44 4.03343 25.44C5.23343 25.24 6.33343 25.24 7.53343 25.44C9.33343 25.64 11.0334 26.34 12.8334 26.64C13.4334 26.74 13.2334 25.94 12.8334 25.74Z" fill="#FEC10B"/>
</g>
<path d="M52.1229 27.3684C95.6558 28.4737 139.327 27.6842 182.86 27.6842C224.73 27.6842 266.599 27.6842 308.329 27.8421C333.423 27.8421 358.517 27.8421 383.472 27.8421C385.275 27.8421 384.165 25 382.779 25C382.64 25 382.502 25 382.363 25C380.561 25 381.67 27.8421 383.056 27.8421C386.8 27.8421 390.404 27.8421 394.148 27.6842C395.95 27.6842 394.563 24.5263 393.038 25.3158C393.454 25.1579 393.593 25.1579 393.177 25.1579C391.513 25.1579 392.622 27.6842 393.732 27.6842C394.009 27.6842 394.009 27.6842 393.732 27.6842C395.395 28.3158 394.979 25.3158 393.454 25.3158C389.711 25.1579 385.968 25.1579 382.363 25.1579C380.561 25.1579 381.67 28 383.056 28C383.195 28 383.334 28 383.472 28C385.275 28 384.165 25.1579 382.779 25.1579C297.377 25.1579 211.975 25.3158 126.711 25.3158C101.617 25.3158 76.6621 25 51.5683 25.6316C50.4592 25.4737 51.1524 27.2105 52.1229 27.3684Z" fill="#FEC10B" fill-opacity="0.3"/>
<rect x="455" y="24" width="173" height="14" fill="#FEC10B" fill-opacity="0.3"/>
<path d="M487.4 34.64H487.976V35H480.164V34.676H480.704C481.112 34.676 481.46 34.52 481.748 34.208C482.036 33.872 482.156 33.512 482.108 33.128L480.488 15.02L472.928 31.832C472.256 33.296 471.848 34.52 471.704 35.504H471.344L462.128 15.524L460.58 33.128C460.532 33.512 460.652 33.872 460.94 34.208C461.228 34.52 461.564 34.676 461.948 34.676H462.524V35H455.54V34.64H456.116C456.788 34.64 457.364 34.436 457.844 34.028C458.348 33.62 458.648 33.068 458.744 32.372L461.444 9.296H461.804L471.848 31.004L481.676 9.296H482L484.772 32.372C484.892 33.332 485.372 34.004 486.212 34.388C486.572 34.556 486.968 34.64 487.4 34.64ZM511.724 13.76H511.292C510.644 13.76 510.02 13.94 509.42 14.3C508.844 14.636 508.364 15.068 507.98 15.596L501.068 26.072V32.696C501.068 33.224 501.272 33.68 501.68 34.064C502.088 34.448 502.58 34.64 503.156 34.64H503.588V35H496.208V34.64H496.64C497.216 34.64 497.708 34.448 498.116 34.064C498.524 33.68 498.728 33.224 498.728 32.696V26.036L492.068 15.56C491.252 14.36 490.148 13.76 488.756 13.76H488.324V13.4H496.676V13.76H496.244C495.788 13.76 495.452 13.904 495.236 14.192C495.044 14.48 494.948 14.732 494.948 14.948C494.948 15.14 494.972 15.32 495.02 15.488L500.276 24.812L505.856 15.524C505.928 15.332 505.964 15.14 505.964 14.948C505.964 14.732 505.856 14.48 505.64 14.192C505.448 13.904 505.112 13.76 504.632 13.76H504.2V13.4H511.724V13.76ZM556.279 10.16H555.991C555.103 10.16 554.323 10.484 553.651 11.132C553.267 11.468 552.991 11.888 552.823 12.392L546.847 31.436C546.367 32.948 546.103 34.28 546.055 35.432H545.731L538.387 14.84L532.915 31.436C532.459 32.924 532.207 34.256 532.159 35.432H531.835L523.663 12.356C523.375 11.636 522.931 11.096 522.331 10.736C521.731 10.352 521.119 10.16 520.495 10.16H520.207V9.8H528.199V10.16H527.875C527.371 10.16 526.987 10.328 526.723 10.664C526.483 10.976 526.363 11.276 526.363 11.564C526.363 11.852 526.399 12.116 526.471 12.356L531.943 29.888L538.639 9.224L538.963 9.26L546.055 29.168L550.879 12.32C550.951 12.056 550.987 11.792 550.987 11.528C550.987 11.24 550.867 10.94 550.627 10.628C550.387 10.316 550.015 10.16 549.511 10.16H549.187V9.8H556.279V10.16ZM562.481 14.336C564.329 13.376 566.357 12.896 568.565 12.896C570.797 12.896 572.837 13.376 574.685 14.336C576.533 15.272 577.997 16.604 579.077 18.332C580.181 20.06 580.733 22.016 580.733 24.2C580.733 26.384 580.181 28.34 579.077 30.068C577.997 31.796 576.533 33.14 574.685 34.1C572.837 35.036 570.941 35.504 568.997 35.504C567.053 35.504 565.337 35.228 563.849 34.676C562.361 34.124 561.065 33.356 559.961 32.372C558.881 31.388 558.017 30.188 557.369 28.772C556.745 27.356 556.433 25.7 556.433 23.804C556.433 21.884 556.973 20.06 558.053 18.332C559.157 16.604 560.633 15.272 562.481 14.336ZM561.797 31.58C563.621 33.476 565.877 34.424 568.565 34.424C571.253 34.424 573.509 33.476 575.333 31.58C577.157 29.66 578.069 27.2 578.069 24.2C578.069 21.2 577.157 18.752 575.333 16.856C573.509 14.936 571.253 13.976 568.565 13.976C565.877 13.976 563.621 14.936 561.797 16.856C559.997 18.752 559.097 21.2 559.097 24.2C559.097 27.2 559.997 29.66 561.797 31.58ZM590.696 14.516H588.788V32.696C588.812 33.44 589.148 34.004 589.796 34.388C590.108 34.556 590.456 34.64 590.84 34.64H591.308L591.344 35H583.964V34.64H584.468C585.02 34.64 585.488 34.46 585.872 34.1C586.28 33.716 586.484 33.26 586.484 32.732V15.632C586.484 15.104 586.28 14.66 585.872 14.3C585.488 13.94 585.02 13.76 584.468 13.76H583.964V13.4H593C595.256 13.4 597.032 13.916 598.328 14.948C599.648 15.98 600.308 17.336 600.308 19.016C600.308 20.696 599.78 22.1 598.724 23.228C597.668 24.356 596.324 25.004 594.692 25.172C595.46 25.508 596.384 26.444 597.464 27.98C597.44 27.98 597.848 28.508 598.688 29.564C599.552 30.62 600.236 31.448 600.74 32.048C601.268 32.624 601.7 33.068 602.036 33.38C602.924 34.22 603.944 34.64 605.096 34.64V35H603.98C602.084 35 600.596 34.628 599.516 33.884C598.7 33.332 597.956 32.648 597.284 31.832C597.14 31.64 596.528 30.8 595.448 29.312C594.392 27.8 593.828 26.996 593.756 26.9C592.46 25.292 591.248 24.488 590.12 24.488V24.128C592.928 24.128 594.62 23.984 595.196 23.696C595.988 23.288 596.528 22.856 596.816 22.4C597.416 21.44 597.716 20.384 597.716 19.232C597.716 17.768 597.284 16.64 596.42 15.848C595.556 15.056 594.392 14.624 592.928 14.552C592.28 14.528 591.536 14.516 590.696 14.516ZM627.199 35H625.867C623.515 35 621.751 34.316 620.575 32.948L612.655 24.272L620.395 15.164C620.659 14.828 620.695 14.516 620.503 14.228C620.335 13.916 620.035 13.76 619.603 13.76H619.279V13.4H626.623V13.76H626.479C625.015 13.76 623.851 14.192 622.987 15.056L615.139 23.444L624.067 33.164C624.499 33.692 624.943 34.064 625.399 34.28C625.855 34.496 626.455 34.616 627.199 34.64V35ZM613.519 34.64H613.915V35H606.535V34.64H606.967C607.543 34.64 608.035 34.448 608.443 34.064C608.851 33.68 609.067 33.224 609.091 32.696V15.704C609.067 15.176 608.851 14.72 608.443 14.336C608.035 13.952 607.543 13.76 606.967 13.76H606.535V13.4H613.915V13.76H613.483C612.715 13.76 612.115 14.072 611.683 14.696C611.491 14.984 611.395 15.308 611.395 15.668V32.732C611.395 33.26 611.599 33.716 612.007 34.1C612.439 34.46 612.943 34.64 613.519 34.64Z" fill="black"/>
</svg>
