<svg width="783" height="342" viewBox="0 0 783 342" fill="none" xmlns="http://www.w3.org/2000/svg">
<path d="M278 8H196.25H5C2.79086 8 1 9.79086 1 12V329C1 331.209 2.79086 333 5 333H196.25H245.062H269.469H283M506 8H513.531H537.938H586.75H778C780.209 8 782 9.79086 782 12V170.5V329C782 331.209 780.209 333 778 333H586.75H537.938H513.531H501" stroke="#FEC10B"/>
<path d="M499.043 1.50257C498.926 0.446072 497.908 -0.101743 496.93 0.015646C495.6 0.172165 494.856 1.42431 495.208 2.67646C495.952 5.25902 499.121 7.45028 501.665 7.91984C502.017 7.95896 501.821 7.52854 501.665 7.45028C500.099 6.62856 498.456 6.11987 497.204 4.78946C496.656 4.20252 496.03 3.41993 495.834 2.63733C495.482 1.11128 497.908 -0.532169 498.613 1.46344C498.691 1.5417 499.082 1.73735 499.043 1.50257Z" fill="#FEC10B"/>
<path d="M501.469 8.85902C499.787 8.93728 497.83 9.759 496.578 10.9329C495.6 11.8329 494.622 13.3981 495.052 14.8067C495.443 16.0197 496.461 16.7241 497.752 16.6458C499.395 16.5284 500.335 14.9241 499.278 13.5546C499.122 13.3589 498.652 13.3589 498.848 13.7111C499.63 15.2371 497.439 16.7241 496.226 15.5893C495.561 14.9632 495.639 14.1415 495.952 13.3981C496.891 10.972 499.356 9.99378 501.665 9.21118C501.861 9.09379 501.626 8.81989 501.469 8.85902Z" fill="#FEC10B"/>
<path d="M492.704 3.88933C493.33 4.86757 494.035 5.80668 494.817 6.66753C495.522 7.37187 496.304 8.23272 497.283 8.58489C497.635 8.70227 497.635 8.31098 497.439 8.11533C496.656 7.411 495.757 6.86318 495.013 6.08059C494.309 5.33712 493.683 4.55453 493.057 3.77194C492.939 3.57629 492.548 3.61542 492.704 3.88933Z" fill="#FEC10B"/>
<path d="M497.321 8.07636C495.56 8.46766 493.017 9.91545 492.782 11.9111C492.743 12.1458 493.174 12.4198 493.33 12.2241C493.956 11.4806 494.269 10.6589 495.013 9.99371C495.756 9.32851 496.656 8.89808 497.595 8.46766C497.791 8.35027 497.478 8.03723 497.321 8.07636Z" fill="#FEC10B"/>
<path d="M490.747 5.88493C491.373 6.9023 492.234 8.11532 493.408 8.50662C493.682 8.58488 493.682 8.27184 493.526 8.15445C493.095 7.76316 492.626 7.48925 492.234 7.05882C491.843 6.66753 491.491 6.19797 491.099 5.76754C490.982 5.5719 490.552 5.61103 490.747 5.88493Z" fill="#FEC10B"/>
<path d="M493.252 7.99808C492.665 8.1546 492.117 8.38938 491.647 8.78068C491.217 9.17197 490.747 9.79805 490.786 10.385C490.786 10.5806 491.1 10.8545 491.295 10.6589C491.491 10.4241 491.569 10.1502 491.726 9.87631C491.843 9.64153 491.999 9.44588 492.195 9.25023C492.586 8.85894 493.095 8.62416 493.565 8.38938C493.799 8.31112 493.447 7.91982 493.252 7.99808Z" fill="#FEC10B"/>
<path d="M491.022 8.11561C489.965 7.64606 488.752 7.25476 487.578 7.33302C487.148 7.37215 485.857 7.5678 486.013 8.233C486.13 8.78082 487.148 9.09385 487.617 9.17211C488.791 9.32863 490.004 9.05472 491.061 8.54604C491.335 8.38952 490.943 7.99822 490.709 8.03735C490.083 8.19387 489.456 8.35039 488.83 8.46778C488.361 8.54604 487.891 8.58517 487.422 8.50691C487.226 8.46778 487.03 8.42865 486.874 8.31126C486.639 8.19387 486.6 8.15474 486.796 8.233C486.796 8.19387 487.578 7.99822 487.578 7.99822C488.048 7.91996 488.478 7.91996 488.948 7.99822C489.652 8.07648 490.317 8.35039 491.022 8.46778C491.256 8.50691 491.178 8.19387 491.022 8.11561Z" fill="#FEC10B"/>
<path d="M494.043 326.503C493.926 325.446 492.908 324.898 491.93 325.016C490.6 325.172 489.856 326.424 490.208 327.676C490.952 330.259 494.121 332.45 496.665 332.92C497.017 332.959 496.821 332.529 496.665 332.45C495.099 331.629 493.456 331.12 492.204 329.789C491.656 329.203 491.03 328.42 490.834 327.637C490.482 326.111 492.908 324.468 493.613 326.463C493.691 326.542 494.082 326.737 494.043 326.503Z" fill="#FEC10B"/>
<path d="M496.469 333.859C494.787 333.937 492.83 334.759 491.578 335.933C490.6 336.833 489.622 338.398 490.052 339.807C490.443 341.02 491.461 341.724 492.752 341.646C494.395 341.528 495.335 339.924 494.278 338.555C494.122 338.359 493.652 338.359 493.848 338.711C494.63 340.237 492.439 341.724 491.226 340.589C490.561 339.963 490.639 339.142 490.952 338.398C491.891 335.972 494.356 334.994 496.665 334.211C496.861 334.094 496.626 333.82 496.469 333.859Z" fill="#FEC10B"/>
<path d="M487.704 328.889C488.33 329.868 489.035 330.807 489.817 331.668C490.522 332.372 491.304 333.233 492.283 333.585C492.635 333.702 492.635 333.311 492.439 333.115C491.656 332.411 490.757 331.863 490.013 331.081C489.309 330.337 488.683 329.555 488.057 328.772C487.939 328.576 487.548 328.615 487.704 328.889Z" fill="#FEC10B"/>
<path d="M492.321 333.076C490.56 333.468 488.017 334.915 487.782 336.911C487.743 337.146 488.174 337.42 488.33 337.224C488.956 336.481 489.269 335.659 490.013 334.994C490.756 334.329 491.656 333.898 492.595 333.468C492.791 333.35 492.478 333.037 492.321 333.076Z" fill="#FEC10B"/>
<path d="M485.747 330.885C486.373 331.902 487.234 333.115 488.408 333.507C488.682 333.585 488.682 333.272 488.526 333.154C488.095 332.763 487.626 332.489 487.234 332.059C486.843 331.668 486.491 331.198 486.099 330.768C485.982 330.572 485.552 330.611 485.747 330.885Z" fill="#FEC10B"/>
<path d="M488.252 332.998C487.665 333.155 487.117 333.389 486.647 333.781C486.217 334.172 485.747 334.798 485.786 335.385C485.786 335.581 486.1 335.855 486.295 335.659C486.491 335.424 486.569 335.15 486.726 334.876C486.843 334.642 486.999 334.446 487.195 334.25C487.586 333.859 488.095 333.624 488.565 333.389C488.799 333.311 488.447 332.92 488.252 332.998Z" fill="#FEC10B"/>
<path d="M486.022 333.116C484.965 332.646 483.752 332.255 482.578 332.333C482.148 332.372 480.857 332.568 481.013 333.233C481.13 333.781 482.148 334.094 482.617 334.172C483.791 334.329 485.004 334.055 486.061 333.546C486.335 333.39 485.943 332.998 485.709 333.037C485.083 333.194 484.456 333.35 483.83 333.468C483.361 333.546 482.891 333.585 482.422 333.507C482.226 333.468 482.03 333.429 481.874 333.311C481.639 333.194 481.6 333.155 481.796 333.233C481.796 333.194 482.578 332.998 482.578 332.998C483.048 332.92 483.478 332.92 483.948 332.998C484.652 333.076 485.317 333.35 486.022 333.468C486.256 333.507 486.178 333.194 486.022 333.116Z" fill="#FEC10B"/>
<path d="M284.819 1.50257C284.936 0.446072 285.954 -0.101743 286.932 0.015646C288.262 0.172165 289.006 1.42431 288.654 2.67646C287.91 5.25902 284.741 7.45028 282.197 7.91984C281.845 7.95896 282.041 7.52854 282.197 7.45028C283.762 6.62856 285.406 6.11987 286.658 4.78946C287.206 4.20252 287.832 3.41993 288.028 2.63733C288.38 1.11128 285.954 -0.532169 285.249 1.46344C285.171 1.5417 284.78 1.73735 284.819 1.50257Z" fill="#FEC10B"/>
<path d="M282.392 8.85902C284.075 8.93728 286.032 9.759 287.284 10.9329C288.262 11.8329 289.24 13.3981 288.81 14.8067C288.418 16.0197 287.401 16.7241 286.11 16.6458C284.466 16.5284 283.527 14.9241 284.584 13.5546C284.74 13.3589 285.21 13.3589 285.014 13.7111C284.232 15.2371 286.423 16.7241 287.636 15.5893C288.301 14.9632 288.223 14.1415 287.91 13.3981C286.971 10.972 284.505 9.99378 282.197 9.21118C282.001 9.09379 282.236 8.81989 282.392 8.85902Z" fill="#FEC10B"/>
<path d="M291.157 3.88933C290.531 4.86757 289.827 5.80668 289.044 6.66753C288.34 7.37187 287.557 8.23272 286.579 8.58489C286.227 8.70227 286.227 8.31098 286.423 8.11533C287.205 7.411 288.105 6.86318 288.849 6.08059C289.553 5.33712 290.179 4.55453 290.805 3.77194C290.923 3.57629 291.314 3.61542 291.157 3.88933Z" fill="#FEC10B"/>
<path d="M286.54 8.07636C288.301 8.46766 290.844 9.91545 291.079 11.9111C291.118 12.1458 290.688 12.4198 290.531 12.2241C289.905 11.4806 289.592 10.6589 288.849 9.99371C288.105 9.32851 287.205 8.89808 286.266 8.46766C286.07 8.35027 286.383 8.03723 286.54 8.07636Z" fill="#FEC10B"/>
<path d="M293.114 5.88493C292.488 6.9023 291.627 8.11532 290.453 8.50662C290.18 8.58488 290.18 8.27184 290.336 8.15445C290.766 7.76316 291.236 7.48925 291.627 7.05882C292.019 6.66753 292.371 6.19797 292.762 5.76754C292.879 5.5719 293.31 5.61103 293.114 5.88493Z" fill="#FEC10B"/>
<path d="M290.61 7.99808C291.197 8.1546 291.745 8.38938 292.214 8.78068C292.645 9.17197 293.114 9.79805 293.075 10.385C293.075 10.5806 292.762 10.8545 292.567 10.6589C292.371 10.4241 292.293 10.1502 292.136 9.87631C292.019 9.64153 291.862 9.44588 291.667 9.25023C291.275 8.85894 290.767 8.62416 290.297 8.38938C290.062 8.31112 290.415 7.91982 290.61 7.99808Z" fill="#FEC10B"/>
<path d="M292.84 8.11561C293.897 7.64606 295.11 7.25476 296.284 7.33302C296.714 7.37215 298.005 7.5678 297.849 8.233C297.731 8.78082 296.714 9.09385 296.244 9.17211C295.071 9.32863 293.858 9.05472 292.801 8.54604C292.527 8.38952 292.918 7.99822 293.153 8.03735C293.779 8.19387 294.405 8.35039 295.031 8.46778C295.501 8.54604 295.971 8.58517 296.44 8.50691C296.636 8.46778 296.831 8.42865 296.988 8.31126C297.223 8.19387 297.262 8.15474 297.066 8.233C297.066 8.19387 296.284 7.99822 296.284 7.99822C295.814 7.91996 295.384 7.91996 294.914 7.99822C294.21 8.07648 293.544 8.35039 292.84 8.46778C292.605 8.50691 292.684 8.19387 292.84 8.11561Z" fill="#FEC10B"/>
<path d="M289.819 326.503C289.936 325.446 290.954 324.898 291.932 325.016C293.262 325.172 294.006 326.424 293.654 327.677C292.91 330.259 289.741 332.45 287.197 332.92C286.845 332.959 287.041 332.529 287.197 332.45C288.762 331.629 290.406 331.12 291.658 329.79C292.206 329.203 292.832 328.42 293.028 327.637C293.38 326.111 290.954 324.468 290.249 326.464C290.171 326.542 289.78 326.737 289.819 326.503Z" fill="#FEC10B"/>
<path d="M287.392 333.859C289.075 333.937 291.032 334.759 292.284 335.933C293.262 336.833 294.24 338.398 293.81 339.807C293.418 341.02 292.401 341.724 291.11 341.646C289.466 341.528 288.527 339.924 289.584 338.555C289.74 338.359 290.21 338.359 290.014 338.711C289.232 340.237 291.423 341.724 292.636 340.589C293.301 339.963 293.223 339.142 292.91 338.398C291.971 335.972 289.505 334.994 287.197 334.211C287.001 334.094 287.236 333.82 287.392 333.859Z" fill="#FEC10B"/>
<path d="M296.157 328.889C295.531 329.868 294.827 330.807 294.044 331.668C293.34 332.372 292.557 333.233 291.579 333.585C291.227 333.702 291.227 333.311 291.423 333.115C292.205 332.411 293.105 331.863 293.849 331.081C294.553 330.337 295.179 329.555 295.805 328.772C295.923 328.576 296.314 328.615 296.157 328.889Z" fill="#FEC10B"/>
<path d="M291.54 333.076C293.301 333.468 295.844 334.916 296.079 336.911C296.118 337.146 295.688 337.42 295.531 337.224C294.905 336.481 294.592 335.659 293.849 334.994C293.105 334.329 292.205 333.898 291.266 333.468C291.07 333.35 291.383 333.037 291.54 333.076Z" fill="#FEC10B"/>
<path d="M298.114 330.885C297.488 331.902 296.627 333.115 295.453 333.507C295.18 333.585 295.18 333.272 295.336 333.155C295.766 332.763 296.236 332.489 296.627 332.059C297.019 331.668 297.371 331.198 297.762 330.768C297.879 330.572 298.31 330.611 298.114 330.885Z" fill="#FEC10B"/>
<path d="M295.61 332.998C296.197 333.155 296.745 333.389 297.214 333.781C297.645 334.172 298.114 334.798 298.075 335.385C298.075 335.581 297.762 335.855 297.567 335.659C297.371 335.424 297.293 335.15 297.136 334.876C297.019 334.642 296.862 334.446 296.667 334.25C296.275 333.859 295.767 333.624 295.297 333.389C295.062 333.311 295.415 332.92 295.61 332.998Z" fill="#FEC10B"/>
<path d="M297.84 333.116C298.897 332.646 300.11 332.255 301.284 332.333C301.714 332.372 303.005 332.568 302.849 333.233C302.731 333.781 301.714 334.094 301.244 334.172C300.071 334.329 298.858 334.055 297.801 333.546C297.527 333.39 297.918 332.998 298.153 333.037C298.779 333.194 299.405 333.35 300.031 333.468C300.501 333.546 300.971 333.585 301.44 333.507C301.636 333.468 301.831 333.429 301.988 333.311C302.223 333.194 302.262 333.155 302.066 333.233C302.066 333.194 301.284 332.998 301.284 332.998C300.814 332.92 300.384 332.92 299.914 332.998C299.21 333.077 298.544 333.35 297.84 333.468C297.605 333.507 297.684 333.194 297.84 333.116Z" fill="#FEC10B"/>
</svg>
