<svg width="304" height="38" viewBox="0 0 304 38" fill="none" xmlns="http://www.w3.org/2000/svg">
<rect y="20" width="303" height="8" fill="#FEC10B" fill-opacity="0.3"/>
<path d="M14.756 12.804C14.756 13.6253 14.588 14.3907 14.252 15.1C13.636 16.4253 12.5533 17.3493 11.004 17.872C10.4627 18.0587 9.996 18.152 9.604 18.152C8.44667 18.152 7.448 17.9373 6.608 17.508V17.228C7.97067 17.5267 9.23067 17.3773 10.388 16.78C11.4147 16.2573 12.1147 15.3987 12.488 14.204C12.6 13.8307 12.656 13.476 12.656 13.14C12.656 12.804 12.656 12.5987 12.656 12.524C12.6187 11.2173 12.2733 10.1813 11.62 9.416C10.9667 8.632 10.052 8.24 8.876 8.24H5.656V24.956C5.67467 25.4413 5.852 25.8613 6.188 26.216C6.54267 26.552 6.96267 26.72 7.448 26.72H7.812V27H1.68V26.72H2.044C2.52933 26.72 2.94 26.552 3.276 26.216C3.63067 25.8613 3.81733 25.4413 3.836 24.956V9.304C3.78 8.83733 3.584 8.45467 3.248 8.156C2.912 7.83867 2.51067 7.68 2.044 7.68H1.708L1.68 7.4H8.988C10.78 7.4 12.1893 7.88533 13.216 8.856C14.2427 9.808 14.756 11.124 14.756 12.804ZM22.6627 11.068H21.1787V25.208C21.1974 25.7867 21.4587 26.2253 21.9627 26.524C22.2054 26.6547 22.4761 26.72 22.7747 26.72H23.1387L23.1667 27H17.4267V26.72H17.8187C18.2481 26.72 18.6121 26.58 18.9107 26.3C19.2281 26.0013 19.3867 25.6467 19.3867 25.236V11.936C19.3867 11.5253 19.2281 11.18 18.9107 10.9C18.6121 10.62 18.2481 10.48 17.8187 10.48H17.4267V10.2H24.4547C26.2094 10.2 27.5907 10.6013 28.5987 11.404C29.6254 12.2067 30.1387 13.2613 30.1387 14.568C30.1387 15.8747 29.7281 16.9667 28.9067 17.844C28.0854 18.7213 27.0401 19.2253 25.7707 19.356C26.3681 19.6173 27.0867 20.3453 27.9267 21.54C27.9081 21.54 28.2254 21.9507 28.8787 22.772C29.5507 23.5933 30.0827 24.2373 30.4747 24.704C30.8854 25.152 31.2214 25.4973 31.4827 25.74C32.1734 26.3933 32.9667 26.72 33.8627 26.72V27H32.9947C31.5201 27 30.3627 26.7107 29.5227 26.132C28.8881 25.7027 28.3094 25.1707 27.7867 24.536C27.6747 24.3867 27.1987 23.7333 26.3587 22.576C25.5374 21.4 25.0987 20.7747 25.0427 20.7C24.0347 19.4493 23.0921 18.824 22.2147 18.824V18.544C24.3987 18.544 25.7147 18.432 26.1627 18.208C26.7787 17.8907 27.1987 17.5547 27.4227 17.2C27.8894 16.4533 28.1227 15.632 28.1227 14.736C28.1227 13.5973 27.7867 12.72 27.1147 12.104C26.4427 11.488 25.5374 11.152 24.3987 11.096C23.8947 11.0773 23.3161 11.068 22.6627 11.068ZM35.3734 26.72C35.8214 26.72 36.1947 26.58 36.4934 26.3C36.8107 26.0013 36.9787 25.6467 36.9974 25.236V11.936C36.9974 11.5253 36.8387 11.18 36.5214 10.9C36.2041 10.62 35.8214 10.48 35.3734 10.48H34.9814V10.2H43.1574C43.9227 10.2 44.5947 10.144 45.1734 10.032C45.7521 9.92 46.1254 9.82667 46.2934 9.752V12.944L45.9854 12.916V12.496C45.9854 12.104 45.8547 11.768 45.5934 11.488C45.3321 11.208 44.9961 11.068 44.5854 11.068H38.7614V18.18H43.5494C43.9227 18.18 44.2027 18.068 44.3894 17.844C44.5947 17.62 44.6974 17.34 44.6974 17.004V16.64H45.0054V20.56H44.6974V20.196C44.6974 19.6733 44.5014 19.3187 44.1094 19.132C43.9601 19.076 43.8014 19.0387 43.6334 19.02H38.7614V26.132H43.1574C44.0161 26.132 44.7347 25.9827 45.3134 25.684C45.9107 25.3853 46.3587 25.0307 46.6574 24.62C46.9747 24.2093 47.2921 23.668 47.6094 22.996H47.8894L46.3494 27H34.9814V26.72H35.3734ZM67.4586 10.48H67.2346C66.8239 10.48 66.4226 10.62 66.0306 10.9C65.6386 11.1613 65.3026 11.5627 65.0226 12.104C60.9532 20.84 58.8346 25.4133 58.6666 25.824C58.3492 26.608 58.1812 27.1307 58.1626 27.392H57.9106L50.9946 12.132C50.4532 11.0307 49.7346 10.48 48.8386 10.48H48.6146V10.2H54.3546V10.48H54.1306C53.7759 10.48 53.5052 10.6107 53.3186 10.872C53.1506 11.1147 53.0666 11.3387 53.0666 11.544C53.0666 11.7493 53.0946 11.964 53.1506 12.188L58.1626 24.396L63.3146 12.244C63.4079 12.0013 63.4546 11.7773 63.4546 11.572C63.4546 11.348 63.3612 11.1147 63.1746 10.872C62.9879 10.6107 62.7079 10.48 62.3346 10.48H62.1386V10.2H67.4586V10.48ZM69.225 26.72C69.729 26.72 70.1676 26.5707 70.541 26.272C70.9143 25.9733 71.101 25.6187 71.101 25.208V11.992C71.101 11.5813 70.9143 11.2267 70.541 10.928C70.1676 10.6293 69.7196 10.48 69.197 10.48H68.833V10.2H75.161V10.48H74.797C74.293 10.48 73.8543 10.62 73.481 10.9C73.1263 11.18 72.9303 11.5253 72.893 11.936V25.236C72.9116 25.6467 73.1076 26.0013 73.481 26.3C73.8543 26.58 74.293 26.72 74.797 26.72H75.161L75.189 27H68.833V26.72H69.225ZM82.3931 10.928C83.8304 10.1813 85.4077 9.808 87.1251 9.808C88.8611 9.808 90.4477 10.1813 91.8851 10.928C93.3224 11.656 94.4611 12.692 95.3011 14.036C96.1597 15.38 96.5891 16.9013 96.5891 18.6C96.5891 20.2987 96.1597 21.82 95.3011 23.164C94.4611 24.508 93.3224 25.5533 91.8851 26.3C90.4477 27.028 88.9731 27.392 87.4611 27.392C85.9491 27.392 84.6144 27.1773 83.4571 26.748C82.2997 26.3187 81.2917 25.7213 80.4331 24.956C79.5931 24.1907 78.9211 23.2573 78.4171 22.156C77.9317 21.0547 77.6891 19.7667 77.6891 18.292C77.6891 16.7987 78.1091 15.38 78.9491 14.036C79.8077 12.692 80.9557 11.656 82.3931 10.928ZM81.8611 24.34C83.2797 25.8147 85.0344 26.552 87.1251 26.552C89.2157 26.552 90.9704 25.8147 92.3891 24.34C93.8077 22.8467 94.5171 20.9333 94.5171 18.6C94.5171 16.2667 93.8077 14.3627 92.3891 12.888C90.9704 11.3947 89.2157 10.648 87.1251 10.648C85.0344 10.648 83.2797 11.3947 81.8611 12.888C80.4611 14.3627 79.7611 16.2667 79.7611 18.6C79.7611 20.9333 80.4611 22.8467 81.8611 24.34ZM116.319 10.48H115.899C115.395 10.48 115.013 10.676 114.751 11.068C114.639 11.236 114.574 11.432 114.555 11.656V21.092C114.555 23.0333 113.93 24.5733 112.679 25.712C111.447 26.832 109.749 27.392 107.583 27.392C105.418 27.392 103.71 26.832 102.459 25.712C101.209 24.592 100.583 23.0613 100.583 21.12V11.684C100.583 11.348 100.453 11.068 100.191 10.844C99.9299 10.6013 99.6126 10.48 99.2392 10.48H98.8192V10.2H104.139V10.48H103.719C103.346 10.48 103.029 10.6013 102.767 10.844C102.506 11.068 102.375 11.348 102.375 11.684V20.784C102.375 22.5947 102.833 24.0227 103.747 25.068C104.681 26.1133 105.987 26.636 107.667 26.636C109.366 26.636 110.719 26.1413 111.727 25.152C112.754 24.1627 113.267 22.8093 113.267 21.092V11.684C113.249 11.3293 113.109 11.04 112.847 10.816C112.605 10.592 112.297 10.48 111.923 10.48H111.503V10.2H116.319V10.48ZM118.929 26.076C118.873 25.852 118.845 25.3947 118.845 24.704C118.845 24.0133 118.966 23.3133 119.209 22.604H119.545C119.526 22.772 119.517 22.94 119.517 23.108C119.517 24.116 119.843 24.9467 120.497 25.6C121.169 26.2347 122.093 26.552 123.269 26.552C124.501 26.552 125.462 26.272 126.153 25.712C126.843 25.1333 127.189 24.396 127.189 23.5C127.189 22.5853 126.853 21.8293 126.181 21.232L120.581 16.92C119.685 16.1547 119.237 15.128 119.237 13.84C119.237 13.112 119.433 12.44 119.825 11.824C120.235 11.208 120.795 10.7227 121.505 10.368C122.233 9.99467 123.082 9.808 124.053 9.808C125.023 9.808 125.882 9.892 126.629 10.06H127.553L127.609 13.112H127.301C127.301 12.328 127.03 11.7213 126.489 11.292C125.947 10.8627 125.173 10.648 124.165 10.648C123.157 10.648 122.326 10.9093 121.673 11.432C121.019 11.936 120.693 12.5987 120.693 13.42C120.693 14.2227 121.057 14.9227 121.785 15.52L127.441 19.888C128.299 20.5973 128.729 21.5867 128.729 22.856C128.729 24.1253 128.243 25.1987 127.273 26.076C126.321 26.9533 125.154 27.392 123.773 27.392C122.858 27.392 121.943 27.28 121.029 27.056C120.114 26.832 119.414 26.5053 118.929 26.076ZM165.042 7.68H164.818C164.128 7.68 163.521 7.932 162.998 8.436C162.7 8.69733 162.485 9.024 162.354 9.416L157.706 24.228C157.333 25.404 157.128 26.44 157.09 27.336H156.838L151.126 11.32L146.87 24.228C146.516 25.3853 146.32 26.4213 146.282 27.336H146.03L139.674 9.388C139.45 8.828 139.105 8.408 138.638 8.128C138.172 7.82933 137.696 7.68 137.21 7.68H136.986V7.4H143.202V7.68H142.95C142.558 7.68 142.26 7.81067 142.054 8.072C141.868 8.31467 141.774 8.548 141.774 8.772C141.774 8.996 141.802 9.20133 141.858 9.388L146.114 23.024L151.322 6.952L151.574 6.98L157.09 22.464L160.842 9.36C160.898 9.15467 160.926 8.94933 160.926 8.744C160.926 8.52 160.833 8.28667 160.646 8.044C160.46 7.80133 160.17 7.68 159.778 7.68H159.526V7.4H165.042V7.68ZM169.866 10.928C171.303 10.1813 172.88 9.808 174.598 9.808C176.334 9.808 177.92 10.1813 179.358 10.928C180.795 11.656 181.934 12.692 182.774 14.036C183.632 15.38 184.062 16.9013 184.062 18.6C184.062 20.2987 183.632 21.82 182.774 23.164C181.934 24.508 180.795 25.5533 179.358 26.3C177.92 27.028 176.446 27.392 174.934 27.392C173.422 27.392 172.087 27.1773 170.93 26.748C169.772 26.3187 168.764 25.7213 167.906 24.956C167.066 24.1907 166.394 23.2573 165.89 22.156C165.404 21.0547 165.162 19.7667 165.162 18.292C165.162 16.7987 165.582 15.38 166.422 14.036C167.28 12.692 168.428 11.656 169.866 10.928ZM169.334 24.34C170.752 25.8147 172.507 26.552 174.598 26.552C176.688 26.552 178.443 25.8147 179.862 24.34C181.28 22.8467 181.99 20.9333 181.99 18.6C181.99 16.2667 181.28 14.3627 179.862 12.888C178.443 11.3947 176.688 10.648 174.598 10.648C172.507 10.648 170.752 11.3947 169.334 12.888C167.934 14.3627 167.234 16.2667 167.234 18.6C167.234 20.9333 167.934 22.8467 169.334 24.34ZM191.811 11.068H190.327V25.208C190.346 25.7867 190.607 26.2253 191.111 26.524C191.354 26.6547 191.624 26.72 191.923 26.72H192.287L192.315 27H186.575V26.72H186.967C187.396 26.72 187.76 26.58 188.059 26.3C188.376 26.0013 188.535 25.6467 188.535 25.236V11.936C188.535 11.5253 188.376 11.18 188.059 10.9C187.76 10.62 187.396 10.48 186.967 10.48H186.575V10.2H193.603C195.358 10.2 196.739 10.6013 197.747 11.404C198.774 12.2067 199.287 13.2613 199.287 14.568C199.287 15.8747 198.876 16.9667 198.055 17.844C197.234 18.7213 196.188 19.2253 194.919 19.356C195.516 19.6173 196.235 20.3453 197.075 21.54C197.056 21.54 197.374 21.9507 198.027 22.772C198.699 23.5933 199.231 24.2373 199.623 24.704C200.034 25.152 200.37 25.4973 200.631 25.74C201.322 26.3933 202.115 26.72 203.011 26.72V27H202.143C200.668 27 199.511 26.7107 198.671 26.132C198.036 25.7027 197.458 25.1707 196.935 24.536C196.823 24.3867 196.347 23.7333 195.507 22.576C194.686 21.4 194.247 20.7747 194.191 20.7C193.183 19.4493 192.24 18.824 191.363 18.824V18.544C193.547 18.544 194.863 18.432 195.311 18.208C195.927 17.8907 196.347 17.5547 196.571 17.2C197.038 16.4533 197.271 15.632 197.271 14.736C197.271 13.5973 196.935 12.72 196.263 12.104C195.591 11.488 194.686 11.152 193.547 11.096C193.043 11.0773 192.464 11.068 191.811 11.068ZM220.202 27H219.166C217.337 27 215.965 26.468 215.05 25.404L208.89 18.656L214.91 11.572C215.115 11.3107 215.143 11.068 214.994 10.844C214.863 10.6013 214.63 10.48 214.294 10.48H214.042V10.2H219.754V10.48H219.642C218.503 10.48 217.598 10.816 216.926 11.488L210.822 18.012L217.766 25.572C218.102 25.9827 218.447 26.272 218.802 26.44C219.157 26.608 219.623 26.7013 220.202 26.72V27ZM209.562 26.72H209.87V27H204.13V26.72H204.466C204.914 26.72 205.297 26.5707 205.614 26.272C205.931 25.9733 206.099 25.6187 206.118 25.208V11.992C206.099 11.5813 205.931 11.2267 205.614 10.928C205.297 10.6293 204.914 10.48 204.466 10.48H204.13V10.2H209.87V10.48H209.534C208.937 10.48 208.47 10.7227 208.134 11.208C207.985 11.432 207.91 11.684 207.91 11.964V25.236C207.91 25.6467 208.069 26.0013 208.386 26.3C208.722 26.58 209.114 26.72 209.562 26.72ZM221.687 26.076C221.631 25.852 221.603 25.3947 221.603 24.704C221.603 24.0133 221.724 23.3133 221.967 22.604H222.303C222.284 22.772 222.275 22.94 222.275 23.108C222.275 24.116 222.601 24.9467 223.255 25.6C223.927 26.2347 224.851 26.552 226.027 26.552C227.259 26.552 228.22 26.272 228.911 25.712C229.601 25.1333 229.947 24.396 229.947 23.5C229.947 22.5853 229.611 21.8293 228.939 21.232L223.339 16.92C222.443 16.1547 221.995 15.128 221.995 13.84C221.995 13.112 222.191 12.44 222.583 11.824C222.993 11.208 223.553 10.7227 224.263 10.368C224.991 9.99467 225.84 9.808 226.811 9.808C227.781 9.808 228.64 9.892 229.387 10.06H230.311L230.367 13.112H230.059C230.059 12.328 229.788 11.7213 229.247 11.292C228.705 10.8627 227.931 10.648 226.923 10.648C225.915 10.648 225.084 10.9093 224.431 11.432C223.777 11.936 223.451 12.5987 223.451 13.42C223.451 14.2227 223.815 14.9227 224.543 15.52L230.199 19.888C231.057 20.5973 231.487 21.5867 231.487 22.856C231.487 24.1253 231.001 25.1987 230.031 26.076C229.079 26.9533 227.912 27.392 226.531 27.392C225.616 27.392 224.701 27.28 223.787 27.056C222.872 26.832 222.172 26.5053 221.687 26.076ZM246.996 26.72C247.425 26.72 247.799 26.58 248.116 26.3C248.433 26.0013 248.601 25.6467 248.62 25.236V19.132H238.288V25.236C238.307 25.6467 238.475 26.0013 238.792 26.3C239.109 26.58 239.483 26.72 239.912 26.72H240.248V27H234.536V26.72H234.872C235.32 26.72 235.693 26.5707 235.992 26.272C236.309 25.9733 236.477 25.6187 236.496 25.208V11.992C236.477 11.5813 236.309 11.2267 235.992 10.928C235.675 10.6293 235.301 10.48 234.872 10.48H234.536V10.2H240.248V10.48H239.912C239.483 10.48 239.109 10.6293 238.792 10.928C238.475 11.208 238.307 11.5533 238.288 11.964V18.292H248.62V11.992C248.62 11.5813 248.499 11.264 248.256 11.04C247.864 10.6667 247.444 10.48 246.996 10.48H246.66V10.2H252.372V10.48H252.036C251.607 10.48 251.233 10.62 250.916 10.9C250.599 11.18 250.431 11.5253 250.412 11.936V25.236C250.431 25.6467 250.552 25.9547 250.776 26.16C251.187 26.5333 251.607 26.72 252.036 26.72H252.372V27H246.66V26.72H246.996ZM259.581 10.928C261.018 10.1813 262.595 9.808 264.313 9.808C266.049 9.808 267.635 10.1813 269.073 10.928C270.51 11.656 271.649 12.692 272.489 14.036C273.347 15.38 273.777 16.9013 273.777 18.6C273.777 20.2987 273.347 21.82 272.489 23.164C271.649 24.508 270.51 25.5533 269.073 26.3C267.635 27.028 266.161 27.392 264.649 27.392C263.137 27.392 261.802 27.1773 260.645 26.748C259.487 26.3187 258.479 25.7213 257.621 24.956C256.781 24.1907 256.109 23.2573 255.605 22.156C255.119 21.0547 254.877 19.7667 254.877 18.292C254.877 16.7987 255.297 15.38 256.137 14.036C256.995 12.692 258.143 11.656 259.581 10.928ZM259.049 24.34C260.467 25.8147 262.222 26.552 264.313 26.552C266.403 26.552 268.158 25.8147 269.577 24.34C270.995 22.8467 271.705 20.9333 271.705 18.6C271.705 16.2667 270.995 14.3627 269.577 12.888C268.158 11.3947 266.403 10.648 264.313 10.648C262.222 10.648 260.467 11.3947 259.049 12.888C257.649 14.3627 256.949 16.2667 256.949 18.6C256.949 20.9333 257.649 22.8467 259.049 24.34ZM281.162 19.048C281.591 19.16 281.983 19.216 282.338 19.216C282.693 19.216 282.982 19.2067 283.206 19.188C283.43 19.1693 283.747 19.1133 284.158 19.02C284.569 18.908 284.942 18.74 285.278 18.516C286.062 18.0307 286.641 17.2653 287.014 16.22C287.145 15.8467 287.21 15.3427 287.21 14.708C287.21 13.5693 286.818 12.6733 286.034 12.02C285.25 11.3667 284.167 11.04 282.786 11.04H280.07V25.208C280.089 25.8053 280.359 26.244 280.882 26.524C281.125 26.6547 281.395 26.72 281.694 26.72H282.086V27H276.29V26.72H276.682C277.13 26.72 277.503 26.58 277.802 26.3C278.119 26.0013 278.287 25.6467 278.306 25.236V11.964C278.287 11.5347 278.119 11.18 277.802 10.9C277.503 10.62 277.13 10.48 276.682 10.48H276.29V10.2H282.842C284.802 10.2 286.351 10.6293 287.49 11.488C288.647 12.3467 289.226 13.504 289.226 14.96C289.226 16.0053 288.983 16.92 288.498 17.704C287.546 19.2347 286.071 20 284.074 20C283.085 20 282.114 19.776 281.162 19.328V19.048ZM291.851 26.076C291.795 25.852 291.767 25.3947 291.767 24.704C291.767 24.0133 291.888 23.3133 292.131 22.604H292.467C292.448 22.772 292.439 22.94 292.439 23.108C292.439 24.116 292.765 24.9467 293.419 25.6C294.091 26.2347 295.015 26.552 296.191 26.552C297.423 26.552 298.384 26.272 299.075 25.712C299.765 25.1333 300.111 24.396 300.111 23.5C300.111 22.5853 299.775 21.8293 299.103 21.232L293.503 16.92C292.607 16.1547 292.159 15.128 292.159 13.84C292.159 13.112 292.355 12.44 292.747 11.824C293.157 11.208 293.717 10.7227 294.427 10.368C295.155 9.99467 296.004 9.808 296.975 9.808C297.945 9.808 298.804 9.892 299.551 10.06H300.475L300.531 13.112H300.223C300.223 12.328 299.952 11.7213 299.411 11.292C298.869 10.8627 298.095 10.648 297.087 10.648C296.079 10.648 295.248 10.9093 294.595 11.432C293.941 11.936 293.615 12.5987 293.615 13.42C293.615 14.2227 293.979 14.9227 294.707 15.52L300.363 19.888C301.221 20.5973 301.651 21.5867 301.651 22.856C301.651 24.1253 301.165 25.1987 300.195 26.076C299.243 26.9533 298.076 27.392 296.695 27.392C295.78 27.392 294.865 27.28 293.951 27.056C293.036 26.832 292.336 26.5053 291.851 26.076Z" fill="#333333"/>
</svg>
