<svg width="32" height="26" viewBox="0 0 32 26" fill="none" xmlns="http://www.w3.org/2000/svg">
<path d="M21.7583 14.217C22.5464 14.4377 23.3346 14.5497 24.1012 14.5497C25.2851 14.5497 26.273 14.2865 27.039 13.9642C26.3005 16.5944 24.5265 21.1328 20.9926 21.6439C20.6653 21.6912 20.3971 21.9214 20.3079 22.2314L19.5355 24.919C19.4704 25.1463 19.509 25.3896 19.6422 25.5869C19.7755 25.7841 19.9896 25.9157 20.2296 25.9477C20.4905 25.9824 20.7563 26 21.0198 26C25.2616 26 29.4625 21.6925 31.2351 15.5249C32.2757 11.9065 32.5808 6.46645 30.0177 3.04235C28.5834 1.12635 26.4908 0.103199 23.7981 0.000982285C23.787 0.000656128 23.7763 0.000329971 23.7652 0.000329971C20.4428 0.000329971 17.4967 2.17726 16.6004 5.29373C16.065 7.15682 16.3071 9.1107 17.2825 10.7968C18.2475 12.4639 19.8369 13.6791 21.7583 14.217Z" fill="#FEC10B" fill-opacity="0.3"/>
<path d="M0.960762 10.7965C1.9258 12.4639 3.51517 13.6791 5.43652 14.217C6.22467 14.4377 7.01281 14.5497 7.77913 14.5497C8.96303 14.5497 9.95123 14.2865 10.7172 13.9642C9.97875 16.5944 8.20476 21.1328 4.67054 21.6439C4.34326 21.6912 4.0754 21.9214 3.98578 22.2314L3.21341 24.919C3.14829 25.1463 3.1869 25.3896 3.32015 25.5869C3.45308 25.7841 3.66723 25.9157 3.90757 25.9477C4.16805 25.9824 4.43389 26 4.69773 26C8.93953 26 13.1404 21.6925 14.9134 15.5249C15.9536 11.9065 16.2587 6.46645 13.6952 3.04169C12.2613 1.12602 10.1684 0.102543 7.47603 0.000654221C7.46495 0.000326157 7.45421 0 7.4428 0C4.12072 0 1.17425 2.17693 0.278019 5.2934C-0.256695 7.15649 -0.0143471 9.11069 0.960762 10.7965Z" fill="#FEC10B" fill-opacity="0.3"/>
</svg>
