<svg width="618" height="142" viewBox="0 0 618 142" fill="none" xmlns="http://www.w3.org/2000/svg">
<path d="M607.758 123.251C608.546 123.478 609.334 123.593 610.101 123.593C611.285 123.593 612.273 123.322 613.039 122.991C612.3 125.694 610.526 130.359 606.993 130.885C606.665 130.933 606.397 131.17 606.308 131.488L605.535 134.251C605.47 134.485 605.509 134.735 605.642 134.937C605.775 135.14 605.99 135.275 606.23 135.308C606.49 135.344 606.756 135.362 607.02 135.362C611.262 135.362 615.462 130.935 617.235 124.595C618.276 120.876 618.581 115.284 616.018 111.765C614.583 109.795 612.491 108.744 609.798 108.639C609.787 108.638 609.776 108.638 609.765 108.638C606.443 108.638 603.497 110.876 602.6 114.079C602.065 115.994 602.307 118.002 603.282 119.735C604.247 121.449 605.837 122.698 607.758 123.251Z" fill="#FEC10B" fill-opacity="0.3"/>
<path d="M586.961 119.735C587.926 121.449 589.515 122.698 591.436 123.251C592.225 123.478 593.013 123.593 593.779 123.593C594.963 123.593 595.951 123.322 596.717 122.991C595.979 125.694 594.205 130.359 590.67 130.885C590.343 130.933 590.075 131.17 589.986 131.488L589.213 134.251C589.148 134.485 589.187 134.735 589.32 134.937C589.453 135.14 589.667 135.275 589.907 135.308C590.168 135.344 590.434 135.362 590.698 135.362C594.939 135.362 599.14 130.935 600.913 124.595C601.953 120.876 602.259 115.284 599.695 111.764C598.261 109.795 596.168 108.743 593.476 108.638C593.465 108.638 593.454 108.638 593.443 108.638C590.121 108.638 587.174 110.875 586.278 114.079C585.743 115.994 585.986 118.002 586.961 119.735Z" fill="#FEC10B" fill-opacity="0.3"/>
<path d="M49.4327 49H43.5767L43.6007 48.76H43.8887C44.3047 48.76 44.6567 48.616 44.9447 48.328C45.2487 48.04 45.4087 47.688 45.4247 47.272V33.928C45.4247 33.512 45.2727 33.16 44.9687 32.872C44.6647 32.584 44.3047 32.44 43.8887 32.44H43.6007L43.5767 32.2H48.3527C50.0007 32.2 51.2807 32.568 52.1927 33.304C53.1047 34.024 53.5607 34.992 53.5607 36.208C53.5607 37.168 53.3047 37.968 52.7927 38.608C52.2807 39.232 51.6567 39.648 50.9207 39.856C52.1847 40.048 53.1847 40.568 53.9207 41.416C54.6567 42.264 55.0247 43.336 55.0247 44.632C55.0247 45.912 54.5287 46.96 53.5367 47.776C52.5607 48.592 51.1927 49 49.4327 49ZM46.9847 48.136H49.3367C49.3527 48.136 49.3687 48.136 49.3847 48.136C50.6007 48.136 51.5447 47.808 52.2167 47.152C52.8887 46.48 53.2247 45.536 53.2247 44.32C53.2247 43.632 53.1047 43.032 52.8647 42.52C52.6407 41.992 52.3527 41.576 52.0007 41.272C51.0727 40.504 49.6807 40.12 47.8247 40.12C47.8247 40.12 47.8167 40.12 47.8007 40.12V39.904C47.8167 39.904 47.8887 39.904 48.0167 39.904C48.1607 39.904 48.3607 39.888 48.6167 39.856C48.8727 39.824 49.1607 39.768 49.4807 39.688C49.8007 39.608 50.0887 39.48 50.3447 39.304C50.6007 39.128 50.8407 38.92 51.0647 38.68C51.5287 38.152 51.7607 37.368 51.7607 36.328C51.7607 35.272 51.4567 34.448 50.8487 33.856C50.2567 33.264 49.3927 32.968 48.2567 32.968H46.9847V48.136ZM57.6208 48.76C58.0048 48.76 58.3248 48.64 58.5808 48.4C58.8528 48.144 58.9968 47.84 59.0128 47.488V36.136C58.9968 35.784 58.8448 35.48 58.5568 35.224C58.2848 34.968 57.9568 34.84 57.5728 34.84H57.2848V34.6H62.2528V34.84H61.9648C61.5808 34.84 61.2448 34.968 60.9568 35.224C60.6848 35.48 60.5488 35.784 60.5488 36.136V48.256H64.2928C65.0288 48.256 65.6528 48.128 66.1648 47.872C66.6768 47.616 67.0608 47.312 67.3168 46.96C67.5888 46.608 67.8528 46.144 68.1088 45.568H68.3488L67.0288 49H57.2848V48.76H57.6208ZM69.9021 48.76C70.2861 48.76 70.6061 48.64 70.8621 48.4C71.1341 48.144 71.2781 47.84 71.2941 47.488V36.088C71.2941 35.736 71.1581 35.44 70.8861 35.2C70.6141 34.96 70.2861 34.84 69.9021 34.84H69.5661V34.6H76.5741C77.2301 34.6 77.8061 34.552 78.3021 34.456C78.7981 34.36 79.1181 34.28 79.2621 34.216V36.952L78.9981 36.928V36.568C78.9981 36.232 78.8861 35.944 78.6621 35.704C78.4381 35.464 78.1501 35.344 77.7981 35.344H72.8061V41.44H76.9101C77.2301 41.44 77.4701 41.344 77.6301 41.152C77.8061 40.96 77.8941 40.72 77.8941 40.432V40.12H78.1581V43.48H77.8941V43.168C77.8941 42.72 77.7261 42.416 77.3901 42.256C77.2621 42.208 77.1261 42.176 76.9821 42.16H72.8061V48.256H76.5741C77.3101 48.256 77.9261 48.128 78.4221 47.872C78.9341 47.616 79.3181 47.312 79.5741 46.96C79.8461 46.608 80.1181 46.144 80.3901 45.568H80.6301L79.3101 49H69.5661V48.76H69.9021ZM82.7397 48.208C82.6917 48.016 82.6677 47.624 82.6677 47.032C82.6677 46.44 82.7717 45.84 82.9797 45.232H83.2677C83.2517 45.376 83.2437 45.52 83.2437 45.664C83.2437 46.528 83.5237 47.24 84.0837 47.8C84.6597 48.344 85.4517 48.616 86.4597 48.616C87.5157 48.616 88.3397 48.376 88.9317 47.896C89.5237 47.4 89.8197 46.768 89.8197 46C89.8197 45.216 89.5317 44.568 88.9557 44.056L84.1557 40.36C83.3877 39.704 83.0037 38.824 83.0037 37.72C83.0037 37.096 83.1717 36.52 83.5077 35.992C83.8597 35.464 84.3397 35.048 84.9477 34.744C85.5717 34.424 86.2997 34.264 87.1317 34.264C87.9637 34.264 88.6997 34.336 89.3397 34.48H90.1317L90.1797 37.096H89.9157C89.9157 36.424 89.6837 35.904 89.2197 35.536C88.7557 35.168 88.0917 34.984 87.2277 34.984C86.3637 34.984 85.6517 35.208 85.0917 35.656C84.5317 36.088 84.2517 36.656 84.2517 37.36C84.2517 38.048 84.5637 38.648 85.1877 39.16L90.0357 42.904C90.7717 43.512 91.1397 44.36 91.1397 45.448C91.1397 46.536 90.7237 47.456 89.8917 48.208C89.0757 48.96 88.0757 49.336 86.8917 49.336C86.1077 49.336 85.3237 49.24 84.5397 49.048C83.7557 48.856 83.1557 48.576 82.7397 48.208ZM93.8256 48.208C93.7776 48.016 93.7536 47.624 93.7536 47.032C93.7536 46.44 93.8576 45.84 94.0656 45.232H94.3536C94.3376 45.376 94.3296 45.52 94.3296 45.664C94.3296 46.528 94.6096 47.24 95.1696 47.8C95.7456 48.344 96.5376 48.616 97.5456 48.616C98.6016 48.616 99.4256 48.376 100.018 47.896C100.61 47.4 100.906 46.768 100.906 46C100.906 45.216 100.618 44.568 100.042 44.056L95.2416 40.36C94.4736 39.704 94.0896 38.824 94.0896 37.72C94.0896 37.096 94.2576 36.52 94.5936 35.992C94.9456 35.464 95.4256 35.048 96.0336 34.744C96.6576 34.424 97.3856 34.264 98.2176 34.264C99.0496 34.264 99.7856 34.336 100.426 34.48H101.218L101.266 37.096H101.002C101.002 36.424 100.77 35.904 100.306 35.536C99.8416 35.168 99.1776 34.984 98.3136 34.984C97.4496 34.984 96.7376 35.208 96.1776 35.656C95.6176 36.088 95.3376 36.656 95.3376 37.36C95.3376 38.048 95.6496 38.648 96.2736 39.16L101.122 42.904C101.858 43.512 102.226 44.36 102.226 45.448C102.226 46.536 101.81 47.456 100.978 48.208C100.162 48.96 99.1616 49.336 97.9776 49.336C97.1936 49.336 96.4096 49.24 95.6256 49.048C94.8416 48.856 94.2416 48.576 93.8256 48.208ZM105.176 48.76C105.608 48.76 105.984 48.632 106.304 48.376C106.624 48.12 106.784 47.816 106.784 47.464V36.136C106.784 35.784 106.624 35.48 106.304 35.224C105.984 34.968 105.6 34.84 105.152 34.84H104.84V34.6H110.264V34.84H109.952C109.52 34.84 109.144 34.96 108.824 35.2C108.52 35.44 108.352 35.736 108.32 36.088V47.488C108.336 47.84 108.504 48.144 108.824 48.4C109.144 48.64 109.52 48.76 109.952 48.76H110.264L110.288 49H104.84V48.76H105.176ZM129.03 34.84C128.678 34.84 128.374 34.96 128.118 35.2C127.862 35.424 127.726 35.704 127.71 36.04V46.264C127.71 47.192 127.766 48.072 127.878 48.904L127.926 49.336H127.71L115.23 37.504V47.512C115.23 47.864 115.358 48.16 115.614 48.4C115.87 48.64 116.182 48.76 116.55 48.76H116.958V49H112.422V48.76H112.83C113.198 48.76 113.51 48.64 113.766 48.4C114.022 48.16 114.15 47.864 114.15 47.512V37.24C114.15 36.264 114.094 35.392 113.982 34.624L113.934 34.24L114.198 34.264L126.654 46V36.04C126.622 35.704 126.478 35.424 126.222 35.2C125.966 34.96 125.662 34.84 125.31 34.84H124.902V34.6H129.438V34.84H129.03ZM139.24 49.336C136.856 49.32 134.944 48.64 133.504 47.296C132.08 45.936 131.368 44.104 131.368 41.8C131.368 39.48 132.08 37.648 133.504 36.304C134.944 34.944 136.792 34.264 139.048 34.264C141.32 34.264 143.248 34.744 144.832 35.704L145.36 39.112H145.144C144.808 37.704 144.152 36.664 143.176 35.992C142.216 35.32 140.848 34.984 139.072 34.984C137.312 34.984 135.872 35.6 134.752 36.832C133.648 38.048 133.096 39.704 133.096 41.8C133.096 43.896 133.656 45.56 134.776 46.792C135.896 48.008 137.44 48.616 139.408 48.616C141.392 48.616 143.096 47.92 144.52 46.528L144.544 43.336C144.56 43.048 144.464 42.824 144.256 42.664C144.064 42.488 143.792 42.4 143.44 42.4H143.104V42.16H147.496V42.4H147.16C146.44 42.4 146.08 42.72 146.08 43.36V46.24C145.408 47.072 144.48 47.8 143.296 48.424C142.128 49.032 140.776 49.336 139.24 49.336ZM164.828 36.568C164.828 36.024 164.596 35.648 164.132 35.44C163.972 35.376 163.804 35.344 163.628 35.344H158.564V41.44H162.74C163.06 41.44 163.3 41.344 163.46 41.152C163.62 40.96 163.7 40.72 163.7 40.432V40.12H163.988V43.48H163.7V43.168C163.7 42.784 163.572 42.504 163.316 42.328C163.172 42.232 162.996 42.176 162.788 42.16H158.564V47.464C158.58 47.896 158.772 48.248 159.14 48.52C159.38 48.68 159.66 48.76 159.98 48.76H160.316V49H155.3V48.76H155.636C156.02 48.76 156.348 48.64 156.62 48.4C156.892 48.144 157.036 47.84 157.052 47.488V36.088C157.036 35.592 156.804 35.232 156.356 35.008C156.132 34.896 155.892 34.84 155.636 34.84H155.3V34.6H158.564H162.38C162.844 34.6 163.356 34.56 163.916 34.48C164.476 34.4 164.868 34.312 165.092 34.216V36.952L164.828 36.928V36.568ZM172.351 35.344H171.079V47.464C171.095 47.96 171.319 48.336 171.751 48.592C171.959 48.704 172.191 48.76 172.447 48.76H172.759L172.783 49H167.863V48.76H168.199C168.567 48.76 168.879 48.64 169.135 48.4C169.407 48.144 169.543 47.84 169.543 47.488V36.088C169.543 35.736 169.407 35.44 169.135 35.2C168.879 34.96 168.567 34.84 168.199 34.84H167.863V34.6H173.887C175.391 34.6 176.575 34.944 177.439 35.632C178.319 36.32 178.759 37.224 178.759 38.344C178.759 39.464 178.407 40.4 177.703 41.152C176.999 41.904 176.103 42.336 175.015 42.448C175.527 42.672 176.143 43.296 176.863 44.32C176.847 44.32 177.119 44.672 177.679 45.376C178.255 46.08 178.711 46.632 179.047 47.032C179.399 47.416 179.687 47.712 179.911 47.92C180.503 48.48 181.183 48.76 181.951 48.76V49H181.207C179.943 49 178.951 48.752 178.231 48.256C177.687 47.888 177.191 47.432 176.743 46.888C176.647 46.76 176.239 46.2 175.519 45.208C174.815 44.2 174.439 43.664 174.391 43.6C173.527 42.528 172.719 41.992 171.967 41.992V41.752C173.839 41.752 174.967 41.656 175.351 41.464C175.879 41.192 176.239 40.904 176.431 40.6C176.831 39.96 177.031 39.256 177.031 38.488C177.031 37.512 176.743 36.76 176.167 36.232C175.591 35.704 174.815 35.416 173.839 35.368C173.407 35.352 172.911 35.344 172.351 35.344ZM185.978 35.224C187.21 34.584 188.562 34.264 190.034 34.264C191.522 34.264 192.882 34.584 194.114 35.224C195.346 35.848 196.322 36.736 197.042 37.888C197.778 39.04 198.146 40.344 198.146 41.8C198.146 43.256 197.778 44.56 197.042 45.712C196.322 46.864 195.346 47.76 194.114 48.4C192.882 49.024 191.618 49.336 190.322 49.336C189.026 49.336 187.882 49.152 186.89 48.784C185.898 48.416 185.034 47.904 184.298 47.248C183.578 46.592 183.002 45.792 182.57 44.848C182.154 43.904 181.946 42.8 181.946 41.536C181.946 40.256 182.306 39.04 183.026 37.888C183.762 36.736 184.746 35.848 185.978 35.224ZM185.522 46.72C186.738 47.984 188.242 48.616 190.034 48.616C191.826 48.616 193.33 47.984 194.546 46.72C195.762 45.44 196.37 43.8 196.37 41.8C196.37 39.8 195.762 38.168 194.546 36.904C193.33 35.624 191.826 34.984 190.034 34.984C188.242 34.984 186.738 35.624 185.522 36.904C184.322 38.168 183.722 39.8 183.722 41.8C183.722 43.8 184.322 45.44 185.522 46.72ZM219.642 48.76H220.002V49H215.01V48.784H215.37C215.61 48.784 215.818 48.696 215.994 48.52C216.186 48.328 216.266 48.104 216.234 47.848L214.986 37.96L210.45 46.888C210.002 47.864 209.722 48.68 209.61 49.336H209.37L203.586 38.176L202.506 47.848C202.474 48.088 202.546 48.304 202.722 48.496C202.914 48.688 203.138 48.784 203.394 48.784H203.73V49H199.29V48.76H199.65C200.226 48.76 200.674 48.552 200.994 48.136C201.154 47.928 201.25 47.68 201.282 47.392L203.154 34.264H203.394L209.73 46.456L215.85 34.264H216.066L218.01 47.44C218.074 47.84 218.258 48.16 218.562 48.4C218.866 48.64 219.226 48.76 219.642 48.76ZM236.224 49.336C233.664 49.32 231.584 48.512 229.984 46.912C228.4 45.312 227.608 43.208 227.608 40.6C227.608 37.992 228.4 35.888 229.984 34.288C231.584 32.672 233.664 31.864 236.224 31.864C238.432 31.864 240.376 32.408 242.056 33.496L242.536 36.88H242.32C241.968 35.504 241.256 34.448 240.184 33.712C239.128 32.96 237.808 32.584 236.224 32.584C234.192 32.584 232.544 33.32 231.28 34.792C230.032 36.264 229.408 38.2 229.408 40.6C229.408 43 230.032 44.936 231.28 46.408C232.544 47.864 234.192 48.6 236.224 48.616C237.264 48.616 238.248 48.432 239.176 48.064C240.12 47.696 240.944 47.184 241.648 46.528V42.28C241.648 41.928 241.536 41.664 241.312 41.488C241.104 41.296 240.808 41.2 240.424 41.2H240.04V40.96H244.744V41.2H244.384C243.984 41.2 243.68 41.296 243.472 41.488C243.264 41.664 243.168 41.928 243.184 42.28V46.24C242.768 46.784 242.272 47.272 241.696 47.704C241.12 48.136 240.344 48.52 239.368 48.856C238.408 49.176 237.36 49.336 236.224 49.336ZM250.548 35.224C251.78 34.584 253.132 34.264 254.604 34.264C256.092 34.264 257.452 34.584 258.684 35.224C259.916 35.848 260.892 36.736 261.612 37.888C262.348 39.04 262.716 40.344 262.716 41.8C262.716 43.256 262.348 44.56 261.612 45.712C260.892 46.864 259.916 47.76 258.684 48.4C257.452 49.024 256.188 49.336 254.892 49.336C253.596 49.336 252.452 49.152 251.46 48.784C250.468 48.416 249.604 47.904 248.868 47.248C248.148 46.592 247.572 45.792 247.14 44.848C246.724 43.904 246.516 42.8 246.516 41.536C246.516 40.256 246.876 39.04 247.596 37.888C248.332 36.736 249.316 35.848 250.548 35.224ZM250.092 46.72C251.308 47.984 252.812 48.616 254.604 48.616C256.396 48.616 257.9 47.984 259.116 46.72C260.332 45.44 260.94 43.8 260.94 41.8C260.94 39.8 260.332 38.168 259.116 36.904C257.9 35.624 256.396 34.984 254.604 34.984C252.812 34.984 251.308 35.624 250.092 36.904C248.892 38.168 248.292 39.8 248.292 41.8C248.292 43.8 248.892 45.44 250.092 46.72ZM280.591 41.8C280.591 44.024 279.895 45.784 278.503 47.08C277.127 48.36 275.255 49 272.887 49H264.871V48.76H265.183C265.567 48.76 265.887 48.632 266.143 48.376C266.399 48.12 266.535 47.816 266.551 47.464V36.136C266.535 35.752 266.391 35.44 266.119 35.2C265.863 34.96 265.543 34.84 265.159 34.84H264.871V34.6H272.887C274.455 34.6 275.815 34.888 276.967 35.464C278.135 36.04 279.031 36.872 279.655 37.96C280.279 39.048 280.591 40.328 280.591 41.8ZM268.111 35.32V48.28H272.887C274.727 48.28 276.183 47.704 277.255 46.552C278.327 45.384 278.863 43.8 278.863 41.8C278.863 39.8 278.327 38.224 277.255 37.072C276.183 35.904 274.727 35.32 272.887 35.32H268.111ZM283.401 48.784C283.193 48.992 282.937 49.096 282.633 49.096C282.329 49.096 282.073 48.992 281.865 48.784C281.657 48.576 281.553 48.32 281.553 48.016C281.553 47.712 281.657 47.456 281.865 47.248C282.073 47.04 282.329 46.936 282.633 46.936C282.937 46.936 283.193 47.04 283.401 47.248C283.609 47.456 283.713 47.712 283.713 48.016C283.713 48.32 283.609 48.576 283.401 48.784ZM291.962 36.88C292.25 35.52 292.394 34.528 292.394 33.904C292.394 33.264 292.378 32.696 292.346 32.2L294.026 31.864C294.026 31.944 294.026 32.112 294.026 32.368C294.026 32.624 293.978 33.048 293.882 33.64C293.802 34.216 293.61 34.856 293.306 35.56C293.018 36.264 292.642 36.744 292.178 37L291.962 36.88ZM295.082 36.88C295.37 35.52 295.514 34.528 295.514 33.904C295.514 33.264 295.498 32.696 295.466 32.2L297.146 31.864C297.146 31.944 297.146 32.112 297.146 32.368C297.146 32.624 297.098 33.048 297.002 33.64C296.922 34.216 296.73 34.856 296.426 35.56C296.138 36.264 295.762 36.744 295.298 37L295.082 36.88ZM300.084 48.76C300.5 48.76 300.852 48.616 301.14 48.328C301.444 48.024 301.604 47.664 301.62 47.248V33.928C301.604 33.512 301.444 33.16 301.14 32.872C300.852 32.584 300.5 32.44 300.084 32.44H299.772V32.2H305.028V32.44H304.716C304.3 32.44 303.94 32.584 303.636 32.872C303.348 33.16 303.196 33.512 303.18 33.928V47.248C303.18 47.664 303.332 48.024 303.636 48.328C303.94 48.616 304.3 48.76 304.716 48.76H305.028V49H299.772V48.76H300.084ZM323.289 36.592C323.529 37.056 323.649 37.616 323.649 38.272C323.649 38.928 323.385 39.536 322.857 40.096C322.329 40.64 321.713 41 321.009 41.176C322.177 41.304 323.137 41.728 323.889 42.448C324.657 43.168 325.041 43.96 325.041 44.824C325.041 45.672 324.873 46.368 324.537 46.912C324.217 47.456 323.785 47.872 323.241 48.16C322.201 48.72 321.025 49 319.713 49H313.761V48.76H314.049C314.449 48.76 314.785 48.64 315.057 48.4C315.329 48.144 315.473 47.832 315.489 47.464V36.136C315.473 35.608 315.233 35.232 314.769 35.008C314.561 34.896 314.321 34.84 314.049 34.84H313.761V34.6H318.657C321.041 34.6 322.585 35.264 323.289 36.592ZM323.337 44.968C323.337 42.584 321.473 41.392 317.745 41.392V41.152C320.561 41.152 321.969 40.168 321.969 38.2C321.969 36.28 320.857 35.32 318.633 35.32H317.001V48.28H319.689C320.777 48.28 321.657 48.008 322.329 47.464C323.001 46.904 323.337 46.072 323.337 44.968ZM327.785 48.76C328.169 48.76 328.489 48.64 328.745 48.4C329.017 48.144 329.161 47.84 329.177 47.488V36.088C329.177 35.736 329.041 35.44 328.769 35.2C328.497 34.96 328.169 34.84 327.785 34.84H327.449V34.6H334.457C335.113 34.6 335.689 34.552 336.185 34.456C336.681 34.36 337.001 34.28 337.145 34.216V36.952L336.881 36.928V36.568C336.881 36.232 336.769 35.944 336.545 35.704C336.321 35.464 336.033 35.344 335.681 35.344H330.689V41.44H334.793C335.113 41.44 335.353 41.344 335.513 41.152C335.689 40.96 335.777 40.72 335.777 40.432V40.12H336.041V43.48H335.777V43.168C335.777 42.72 335.609 42.416 335.273 42.256C335.145 42.208 335.009 42.176 334.865 42.16H330.689V48.256H334.457C335.193 48.256 335.809 48.128 336.305 47.872C336.817 47.616 337.201 47.312 337.457 46.96C337.729 46.608 338.001 46.144 338.273 45.568H338.513L337.193 49H327.449V48.76H327.785ZM340.652 48.76C341.036 48.76 341.356 48.64 341.612 48.4C341.884 48.144 342.028 47.84 342.044 47.488V36.136C342.028 35.784 341.876 35.48 341.588 35.224C341.316 34.968 340.988 34.84 340.604 34.84H340.316V34.6H345.284V34.84H344.996C344.612 34.84 344.276 34.968 343.988 35.224C343.716 35.48 343.58 35.784 343.58 36.136V48.256H347.324C348.06 48.256 348.684 48.128 349.196 47.872C349.708 47.616 350.092 47.312 350.348 46.96C350.62 46.608 350.884 46.144 351.14 45.568H351.38L350.06 49H340.316V48.76H340.652ZM352.933 48.76C353.365 48.76 353.741 48.632 354.061 48.376C354.381 48.12 354.541 47.816 354.541 47.464V36.136C354.541 35.784 354.381 35.48 354.061 35.224C353.741 34.968 353.357 34.84 352.909 34.84H352.597V34.6H358.021V34.84H357.709C357.277 34.84 356.901 34.96 356.581 35.2C356.277 35.44 356.109 35.736 356.077 36.088V47.488C356.093 47.84 356.261 48.144 356.581 48.4C356.901 48.64 357.277 48.76 357.709 48.76H358.021L358.045 49H352.597V48.76H352.933ZM360.996 48.76C361.38 48.76 361.7 48.64 361.956 48.4C362.228 48.144 362.372 47.84 362.388 47.488V36.088C362.388 35.736 362.252 35.44 361.98 35.2C361.708 34.96 361.38 34.84 360.996 34.84H360.66V34.6H367.668C368.324 34.6 368.9 34.552 369.396 34.456C369.892 34.36 370.212 34.28 370.356 34.216V36.952L370.092 36.928V36.568C370.092 36.232 369.98 35.944 369.756 35.704C369.532 35.464 369.244 35.344 368.892 35.344H363.9V41.44H368.004C368.324 41.44 368.564 41.344 368.724 41.152C368.9 40.96 368.988 40.72 368.988 40.432V40.12H369.252V43.48H368.988V43.168C368.988 42.72 368.82 42.416 368.484 42.256C368.356 42.208 368.22 42.176 368.076 42.16H363.9V48.256H367.668C368.404 48.256 369.02 48.128 369.516 47.872C370.028 47.616 370.412 47.312 370.668 46.96C370.94 46.608 371.212 46.144 371.484 45.568H371.724L370.404 49H360.66V48.76H360.996ZM388.497 34.84H388.305C387.953 34.84 387.609 34.96 387.273 35.2C386.937 35.424 386.649 35.768 386.409 36.232C382.921 43.72 381.105 47.64 380.961 47.992C380.689 48.664 380.545 49.112 380.529 49.336H380.313L374.385 36.256C373.921 35.312 373.305 34.84 372.537 34.84H372.345V34.6H377.265V34.84H377.073C376.769 34.84 376.537 34.952 376.377 35.176C376.233 35.384 376.161 35.576 376.161 35.752C376.161 35.928 376.185 36.112 376.233 36.304L380.529 46.768L384.945 36.352C385.025 36.144 385.065 35.952 385.065 35.776C385.065 35.584 384.985 35.384 384.825 35.176C384.665 34.952 384.425 34.84 384.105 34.84H383.937V34.6H388.497V34.84ZM390.011 48.76C390.395 48.76 390.715 48.64 390.971 48.4C391.243 48.144 391.387 47.84 391.403 47.488V36.088C391.403 35.736 391.267 35.44 390.995 35.2C390.723 34.96 390.395 34.84 390.011 34.84H389.675V34.6H396.683C397.339 34.6 397.915 34.552 398.411 34.456C398.907 34.36 399.227 34.28 399.371 34.216V36.952L399.107 36.928V36.568C399.107 36.232 398.995 35.944 398.771 35.704C398.547 35.464 398.259 35.344 397.907 35.344H392.915V41.44H397.019C397.339 41.44 397.579 41.344 397.739 41.152C397.915 40.96 398.003 40.72 398.003 40.432V40.12H398.267V43.48H398.003V43.168C398.003 42.72 397.835 42.416 397.499 42.256C397.371 42.208 397.235 42.176 397.091 42.16H392.915V48.256H396.683C397.419 48.256 398.035 48.128 398.531 47.872C399.043 47.616 399.427 47.312 399.683 46.96C399.955 46.608 400.227 46.144 400.499 45.568H400.739L399.419 49H389.675V48.76H390.011ZM415.185 35.296V47.488C415.201 47.984 415.441 48.352 415.905 48.592C416.113 48.704 416.345 48.76 416.601 48.76H416.865V49H411.921V48.76H412.209C412.593 48.76 412.921 48.632 413.193 48.376C413.465 48.12 413.609 47.816 413.625 47.464V35.296H409.281C408.913 35.296 408.617 35.416 408.393 35.656C408.185 35.896 408.081 36.184 408.081 36.52V36.904H407.817V34.192C408.137 34.32 408.585 34.416 409.161 34.48C409.753 34.544 410.193 34.576 410.481 34.576H418.305C419.457 34.576 420.353 34.448 420.993 34.192V36.904H420.729V36.52C420.729 36.184 420.617 35.896 420.393 35.656C420.169 35.416 419.881 35.296 419.529 35.296H415.185ZM433.332 48.76C433.7 48.76 434.02 48.64 434.292 48.4C434.564 48.144 434.708 47.84 434.724 47.488V42.256H425.868V47.488C425.884 47.84 426.028 48.144 426.3 48.4C426.572 48.64 426.892 48.76 427.26 48.76H427.548V49H422.652V48.76H422.94C423.324 48.76 423.644 48.632 423.9 48.376C424.172 48.12 424.316 47.816 424.332 47.464V36.136C424.316 35.784 424.172 35.48 423.9 35.224C423.628 34.968 423.308 34.84 422.94 34.84H422.652V34.6H427.548V34.84H427.26C426.892 34.84 426.572 34.968 426.3 35.224C426.028 35.464 425.884 35.76 425.868 36.112V41.536H434.724V36.136C434.724 35.784 434.62 35.512 434.412 35.32C434.076 35 433.716 34.84 433.332 34.84H433.044V34.6H437.94V34.84H437.652C437.284 34.84 436.964 34.96 436.692 35.2C436.42 35.44 436.276 35.736 436.26 36.088V47.488C436.276 47.84 436.38 48.104 436.572 48.28C436.924 48.6 437.284 48.76 437.652 48.76H437.94V49H433.044V48.76H433.332ZM455.078 48.76H455.27V49H450.35V48.76H450.542C450.846 48.76 451.078 48.656 451.238 48.448C451.398 48.24 451.478 48.048 451.478 47.872C451.478 47.68 451.446 47.496 451.382 47.32L450.062 44.128H443.99L442.67 47.248C442.59 47.456 442.55 47.656 442.55 47.848C442.55 48.024 442.63 48.224 442.79 48.448C442.95 48.656 443.19 48.76 443.51 48.76H443.702V49H439.118V48.76H439.31C439.646 48.76 439.982 48.648 440.318 48.424C440.67 48.184 440.958 47.832 441.182 47.368C444.686 39.88 446.51 35.96 446.654 35.608C446.926 34.936 447.07 34.488 447.086 34.264H447.302L453.23 47.368C453.694 48.296 454.31 48.76 455.078 48.76ZM444.302 43.408H449.774L447.086 36.832L444.302 43.408ZM461.193 35.296V47.488C461.209 47.984 461.449 48.352 461.913 48.592C462.121 48.704 462.353 48.76 462.609 48.76H462.873V49H457.929V48.76H458.217C458.601 48.76 458.929 48.632 459.201 48.376C459.473 48.12 459.617 47.816 459.633 47.464V35.296H455.289C454.921 35.296 454.625 35.416 454.401 35.656C454.193 35.896 454.089 36.184 454.089 36.52V36.904H453.825V34.192C454.145 34.32 454.593 34.416 455.169 34.48C455.761 34.544 456.201 34.576 456.489 34.576H464.313C465.465 34.576 466.361 34.448 467.001 34.192V36.904H466.737V36.52C466.737 36.184 466.625 35.896 466.401 35.656C466.177 35.416 465.889 35.296 465.537 35.296H461.193ZM495.036 34.84H494.868C493.908 34.84 493.252 35.312 492.9 36.256L489.42 46.624C489.068 47.632 488.884 48.52 488.868 49.288H488.628L484.164 37.864L481.044 46.624C480.724 47.616 480.548 48.504 480.516 49.288H480.3L475.26 36.16C474.892 35.28 474.252 34.84 473.34 34.84H473.148V34.6H478.092V34.84H477.9C477.612 34.84 477.388 34.928 477.228 35.104C477.084 35.28 477.012 35.456 477.012 35.632C477.012 35.808 477.036 35.976 477.084 36.136L480.276 45.904L484.332 34.216L484.572 34.24L488.868 45.184L491.556 36.28C491.636 36.056 491.676 35.856 491.676 35.68C491.676 35.504 491.612 35.32 491.484 35.128C491.356 34.936 491.14 34.84 490.836 34.84H490.644V34.6H495.036V34.84ZM506.926 48.76C507.294 48.76 507.614 48.64 507.886 48.4C508.158 48.144 508.302 47.84 508.318 47.488V42.256H499.462V47.488C499.478 47.84 499.622 48.144 499.894 48.4C500.166 48.64 500.486 48.76 500.854 48.76H501.142V49H496.246V48.76H496.534C496.918 48.76 497.238 48.632 497.494 48.376C497.766 48.12 497.91 47.816 497.926 47.464V36.136C497.91 35.784 497.766 35.48 497.494 35.224C497.222 34.968 496.902 34.84 496.534 34.84H496.246V34.6H501.142V34.84H500.854C500.486 34.84 500.166 34.968 499.894 35.224C499.622 35.464 499.478 35.76 499.462 36.112V41.536H508.318V36.136C508.318 35.784 508.214 35.512 508.006 35.32C507.67 35 507.31 34.84 506.926 34.84H506.638V34.6H511.534V34.84H511.246C510.878 34.84 510.558 34.96 510.286 35.2C510.014 35.44 509.87 35.736 509.854 36.088V47.488C509.87 47.84 509.974 48.104 510.166 48.28C510.518 48.6 510.878 48.76 511.246 48.76H511.534V49H506.638V48.76H506.926ZM528.672 48.76H528.864V49H523.944V48.76H524.136C524.44 48.76 524.672 48.656 524.832 48.448C524.992 48.24 525.072 48.048 525.072 47.872C525.072 47.68 525.04 47.496 524.976 47.32L523.656 44.128H517.584L516.264 47.248C516.184 47.456 516.144 47.656 516.144 47.848C516.144 48.024 516.224 48.224 516.384 48.448C516.544 48.656 516.784 48.76 517.104 48.76H517.296V49H512.712V48.76H512.904C513.24 48.76 513.576 48.648 513.912 48.424C514.264 48.184 514.552 47.832 514.776 47.368C518.28 39.88 520.104 35.96 520.248 35.608C520.52 34.936 520.664 34.488 520.68 34.264H520.896L526.824 47.368C527.288 48.296 527.904 48.76 528.672 48.76ZM517.896 43.408H523.368L520.68 36.832L517.896 43.408ZM534.787 35.296V47.488C534.803 47.984 535.043 48.352 535.507 48.592C535.715 48.704 535.947 48.76 536.203 48.76H536.467V49H531.523V48.76H531.811C532.195 48.76 532.523 48.632 532.795 48.376C533.067 48.12 533.211 47.816 533.227 47.464V35.296H528.883C528.515 35.296 528.219 35.416 527.995 35.656C527.787 35.896 527.683 36.184 527.683 36.52V36.904H527.419V34.192C527.739 34.32 528.187 34.416 528.763 34.48C529.355 34.544 529.795 34.576 530.083 34.576H537.907C539.059 34.576 539.955 34.448 540.595 34.192V36.904H540.331V36.52C540.331 36.184 540.219 35.896 539.995 35.656C539.771 35.416 539.483 35.296 539.131 35.296H534.787ZM542.59 48.76C542.974 48.76 543.294 48.64 543.55 48.4C543.822 48.144 543.966 47.84 543.982 47.488V36.088C543.982 35.736 543.846 35.44 543.574 35.2C543.302 34.96 542.974 34.84 542.59 34.84H542.254V34.6H549.262C549.918 34.6 550.494 34.552 550.99 34.456C551.486 34.36 551.806 34.28 551.95 34.216V36.952L551.686 36.928V36.568C551.686 36.232 551.574 35.944 551.35 35.704C551.126 35.464 550.838 35.344 550.486 35.344H545.494V41.44H549.598C549.918 41.44 550.158 41.344 550.318 41.152C550.494 40.96 550.582 40.72 550.582 40.432V40.12H550.846V43.48H550.582V43.168C550.582 42.72 550.414 42.416 550.078 42.256C549.95 42.208 549.814 42.176 549.67 42.16H545.494V48.256H549.262C549.998 48.256 550.614 48.128 551.11 47.872C551.622 47.616 552.006 47.312 552.262 46.96C552.534 46.608 552.806 46.144 553.078 45.568H553.318L551.998 49H542.254V48.76H542.59ZM570.091 34.84H569.899C569.547 34.84 569.203 34.96 568.867 35.2C568.531 35.424 568.243 35.768 568.003 36.232C564.515 43.72 562.699 47.64 562.555 47.992C562.283 48.664 562.139 49.112 562.123 49.336H561.907L555.979 36.256C555.515 35.312 554.899 34.84 554.131 34.84H553.939V34.6H558.859V34.84H558.667C558.363 34.84 558.131 34.952 557.971 35.176C557.827 35.384 557.755 35.576 557.755 35.752C557.755 35.928 557.779 36.112 557.827 36.304L562.123 46.768L566.539 36.352C566.619 36.144 566.659 35.952 566.659 35.776C566.659 35.584 566.579 35.384 566.419 35.176C566.259 34.952 566.019 34.84 565.699 34.84H565.531V34.6H570.091V34.84ZM571.605 48.76C571.989 48.76 572.309 48.64 572.565 48.4C572.837 48.144 572.981 47.84 572.997 47.488V36.088C572.997 35.736 572.861 35.44 572.589 35.2C572.317 34.96 571.989 34.84 571.605 34.84H571.269V34.6H578.277C578.933 34.6 579.509 34.552 580.005 34.456C580.501 34.36 580.821 34.28 580.965 34.216V36.952L580.701 36.928V36.568C580.701 36.232 580.589 35.944 580.365 35.704C580.141 35.464 579.853 35.344 579.501 35.344H574.509V41.44H578.613C578.933 41.44 579.173 41.344 579.333 41.152C579.509 40.96 579.597 40.72 579.597 40.432V40.12H579.861V43.48H579.597V43.168C579.597 42.72 579.429 42.416 579.093 42.256C578.965 42.208 578.829 42.176 578.685 42.16H574.509V48.256H578.277C579.013 48.256 579.629 48.128 580.125 47.872C580.637 47.616 581.021 47.312 581.277 46.96C581.549 46.608 581.821 46.144 582.093 45.568H582.333L581.013 49H571.269V48.76H571.605ZM588.624 35.344H587.352V47.464C587.368 47.96 587.592 48.336 588.024 48.592C588.232 48.704 588.464 48.76 588.72 48.76H589.032L589.056 49H584.136V48.76H584.472C584.84 48.76 585.152 48.64 585.408 48.4C585.68 48.144 585.816 47.84 585.816 47.488V36.088C585.816 35.736 585.68 35.44 585.408 35.2C585.152 34.96 584.84 34.84 584.472 34.84H584.136V34.6H590.16C591.664 34.6 592.848 34.944 593.712 35.632C594.592 36.32 595.032 37.224 595.032 38.344C595.032 39.464 594.68 40.4 593.976 41.152C593.272 41.904 592.376 42.336 591.288 42.448C591.8 42.672 592.416 43.296 593.136 44.32C593.12 44.32 593.392 44.672 593.952 45.376C594.528 46.08 594.984 46.632 595.32 47.032C595.672 47.416 595.96 47.712 596.184 47.92C596.776 48.48 597.456 48.76 598.224 48.76V49H597.48C596.216 49 595.224 48.752 594.504 48.256C593.96 47.888 593.464 47.432 593.016 46.888C592.92 46.76 592.512 46.2 591.792 45.208C591.088 44.2 590.712 43.664 590.664 43.6C589.8 42.528 588.992 41.992 588.24 41.992V41.752C590.112 41.752 591.24 41.656 591.624 41.464C592.152 41.192 592.512 40.904 592.704 40.6C593.104 39.96 593.304 39.256 593.304 38.488C593.304 37.512 593.016 36.76 592.44 36.232C591.864 35.704 591.088 35.416 590.112 35.368C589.68 35.352 589.184 35.344 588.624 35.344ZM40.3583 89.336C37.9103 89.32 35.9743 88.64 34.5503 87.296C33.1423 85.952 32.4383 84.12 32.4383 81.8C32.4383 79.464 33.1423 77.624 34.5503 76.28C35.9743 74.936 37.9103 74.264 40.3583 74.264C41.3503 74.264 42.3503 74.392 43.3583 74.648C44.3663 74.904 45.2383 75.256 45.9743 75.704L46.5023 79.112H46.2863C45.5983 76.36 43.6143 74.984 40.3343 74.984C38.4303 74.984 36.9263 75.592 35.8223 76.808C34.7183 78.024 34.1663 79.688 34.1663 81.8C34.1663 83.176 34.4143 84.376 34.9103 85.4C35.4063 86.408 36.1263 87.192 37.0703 87.752C38.0143 88.312 39.1103 88.592 40.3583 88.592C41.6063 88.592 42.6943 88.408 43.6223 88.04C44.5663 87.656 45.3423 87.032 45.9503 86.168C46.5743 85.304 46.9263 84.232 47.0063 82.952H47.2223L46.9583 86.24C46.3343 87.2 45.4303 87.96 44.2463 88.52C43.0623 89.064 41.7663 89.336 40.3583 89.336ZM53.8609 75.224C55.0929 74.584 56.4449 74.264 57.9169 74.264C59.4049 74.264 60.7649 74.584 61.9969 75.224C63.2289 75.848 64.2049 76.736 64.9249 77.888C65.6609 79.04 66.0289 80.344 66.0289 81.8C66.0289 83.256 65.6609 84.56 64.9249 85.712C64.2049 86.864 63.2289 87.76 61.9969 88.4C60.7649 89.024 59.5009 89.336 58.2049 89.336C56.9089 89.336 55.7649 89.152 54.7729 88.784C53.7809 88.416 52.9169 87.904 52.1809 87.248C51.4609 86.592 50.8849 85.792 50.4529 84.848C50.0369 83.904 49.8289 82.8 49.8289 81.536C49.8289 80.256 50.1889 79.04 50.9089 77.888C51.6449 76.736 52.6289 75.848 53.8609 75.224ZM53.4049 86.72C54.6209 87.984 56.1249 88.616 57.9169 88.616C59.7089 88.616 61.2129 87.984 62.4289 86.72C63.6449 85.44 64.2529 83.8 64.2529 81.8C64.2529 79.8 63.6449 78.168 62.4289 76.904C61.2129 75.624 59.7089 74.984 57.9169 74.984C56.1249 74.984 54.6209 75.624 53.4049 76.904C52.2049 78.168 51.6049 79.8 51.6049 81.8C51.6049 83.8 52.2049 85.44 53.4049 86.72ZM87.5245 88.76H87.8845V89H82.8925V88.784H83.2525C83.4925 88.784 83.7005 88.696 83.8765 88.52C84.0685 88.328 84.1485 88.104 84.1165 87.848L82.8685 77.96L78.3325 86.888C77.8845 87.864 77.6045 88.68 77.4925 89.336H77.2525L71.4685 78.176L70.3885 87.848C70.3565 88.088 70.4285 88.304 70.6045 88.496C70.7965 88.688 71.0205 88.784 71.2765 88.784H71.6125V89H67.1725V88.76H67.5325C68.1085 88.76 68.5565 88.552 68.8765 88.136C69.0365 87.928 69.1325 87.68 69.1645 87.392L71.0365 74.264H71.2765L77.6125 86.456L83.7325 74.264H83.9485L85.8925 87.44C85.9565 87.84 86.1405 88.16 86.4445 88.4C86.7485 88.64 87.1085 88.76 87.5245 88.76ZM89.7068 88.76C90.0908 88.76 90.4108 88.64 90.6668 88.4C90.9388 88.144 91.0828 87.84 91.0988 87.488V76.088C91.0988 75.736 90.9628 75.44 90.6908 75.2C90.4188 74.96 90.0908 74.84 89.7068 74.84H89.3708V74.6H96.3788C97.0348 74.6 97.6108 74.552 98.1068 74.456C98.6028 74.36 98.9228 74.28 99.0668 74.216V76.952L98.8028 76.928V76.568C98.8028 76.232 98.6908 75.944 98.4668 75.704C98.2428 75.464 97.9548 75.344 97.6028 75.344H92.6108V81.44H96.7148C97.0348 81.44 97.2748 81.344 97.4348 81.152C97.6108 80.96 97.6988 80.72 97.6988 80.432V80.12H97.9628V83.48H97.6988V83.168C97.6988 82.72 97.5308 82.416 97.1948 82.256C97.0668 82.208 96.9308 82.176 96.7868 82.16H92.6108V88.256H96.3788C97.1148 88.256 97.7308 88.128 98.2268 87.872C98.7388 87.616 99.1228 87.312 99.3788 86.96C99.6508 86.608 99.9228 86.144 100.195 85.568H100.435L99.1148 89H89.3708V88.76H89.7068ZM102.544 88.208C102.496 88.016 102.472 87.624 102.472 87.032C102.472 86.44 102.576 85.84 102.784 85.232H103.072C103.056 85.376 103.048 85.52 103.048 85.664C103.048 86.528 103.328 87.24 103.888 87.8C104.464 88.344 105.256 88.616 106.264 88.616C107.32 88.616 108.144 88.376 108.736 87.896C109.328 87.4 109.624 86.768 109.624 86C109.624 85.216 109.336 84.568 108.76 84.056L103.96 80.36C103.192 79.704 102.808 78.824 102.808 77.72C102.808 77.096 102.976 76.52 103.312 75.992C103.664 75.464 104.144 75.048 104.752 74.744C105.376 74.424 106.104 74.264 106.936 74.264C107.768 74.264 108.504 74.336 109.144 74.48H109.936L109.984 77.096H109.72C109.72 76.424 109.488 75.904 109.024 75.536C108.56 75.168 107.896 74.984 107.032 74.984C106.168 74.984 105.456 75.208 104.896 75.656C104.336 76.088 104.056 76.656 104.056 77.36C104.056 78.048 104.368 78.648 104.992 79.16L109.84 82.904C110.576 83.512 110.944 84.36 110.944 85.448C110.944 86.536 110.528 87.456 109.696 88.208C108.88 88.96 107.88 89.336 106.696 89.336C105.912 89.336 105.128 89.24 104.344 89.048C103.56 88.856 102.96 88.576 102.544 88.208ZM134.078 88.76H134.27V89H129.35V88.76H129.542C129.846 88.76 130.078 88.656 130.238 88.448C130.398 88.24 130.478 88.048 130.478 87.872C130.478 87.68 130.446 87.496 130.382 87.32L129.062 84.128H122.99L121.67 87.248C121.59 87.456 121.55 87.656 121.55 87.848C121.55 88.024 121.63 88.224 121.79 88.448C121.95 88.656 122.19 88.76 122.51 88.76H122.702V89H118.118V88.76H118.31C118.646 88.76 118.982 88.648 119.318 88.424C119.67 88.184 119.958 87.832 120.182 87.368C123.686 79.88 125.51 75.96 125.654 75.608C125.926 74.936 126.07 74.488 126.086 74.264H126.302L132.23 87.368C132.694 88.296 133.31 88.76 134.078 88.76ZM123.302 83.408H128.774L126.086 76.832L123.302 83.408ZM140.193 75.296V87.488C140.209 87.984 140.449 88.352 140.913 88.592C141.121 88.704 141.353 88.76 141.609 88.76H141.873V89H136.929V88.76H137.217C137.601 88.76 137.929 88.632 138.201 88.376C138.473 88.12 138.617 87.816 138.633 87.464V75.296H134.289C133.921 75.296 133.625 75.416 133.401 75.656C133.193 75.896 133.089 76.184 133.089 76.52V76.904H132.825V74.192C133.145 74.32 133.593 74.416 134.169 74.48C134.761 74.544 135.201 74.576 135.489 74.576H143.313C144.465 74.576 145.361 74.448 146.001 74.192V76.904H145.737V76.52C145.737 76.184 145.625 75.896 145.401 75.656C145.177 75.416 144.889 75.296 144.537 75.296H140.193ZM168.18 88.76H168.372V89H163.452V88.76H163.644C163.948 88.76 164.18 88.656 164.34 88.448C164.5 88.24 164.58 88.048 164.58 87.872C164.58 87.68 164.548 87.496 164.484 87.32L163.164 84.128H157.092L155.772 87.248C155.692 87.456 155.652 87.656 155.652 87.848C155.652 88.024 155.732 88.224 155.892 88.448C156.052 88.656 156.292 88.76 156.612 88.76H156.804V89H152.22V88.76H152.412C152.748 88.76 153.084 88.648 153.42 88.424C153.772 88.184 154.06 87.832 154.284 87.368C157.788 79.88 159.612 75.96 159.756 75.608C160.028 74.936 160.172 74.488 160.188 74.264H160.404L166.332 87.368C166.796 88.296 167.412 88.76 168.18 88.76ZM157.404 83.408H162.876L160.188 76.832L157.404 83.408ZM179.75 82.184C180.118 82.28 180.454 82.328 180.758 82.328C181.062 82.328 181.31 82.32 181.502 82.304C181.694 82.288 181.966 82.24 182.318 82.16C182.67 82.064 182.99 81.92 183.278 81.728C183.95 81.312 184.446 80.656 184.766 79.76C184.878 79.44 184.934 79.008 184.934 78.464C184.934 77.488 184.598 76.72 183.926 76.16C183.254 75.6 182.326 75.32 181.142 75.32H178.814V87.464C178.83 87.976 179.062 88.352 179.51 88.592C179.718 88.704 179.95 88.76 180.206 88.76H180.542V89H175.574V88.76H175.91C176.294 88.76 176.614 88.64 176.87 88.4C177.142 88.144 177.286 87.84 177.302 87.488V76.112C177.286 75.744 177.142 75.44 176.87 75.2C176.614 74.96 176.294 74.84 175.91 74.84H175.574V74.6H181.19C182.87 74.6 184.198 74.968 185.174 75.704C186.166 76.44 186.662 77.432 186.662 78.68C186.662 79.576 186.454 80.36 186.038 81.032C185.222 82.344 183.958 83 182.246 83C181.398 83 180.566 82.808 179.75 82.424V82.184ZM202.047 88.76H202.239V89H197.319V88.76H197.511C197.815 88.76 198.047 88.656 198.207 88.448C198.367 88.24 198.447 88.048 198.447 87.872C198.447 87.68 198.415 87.496 198.351 87.32L197.031 84.128H190.959L189.639 87.248C189.559 87.456 189.519 87.656 189.519 87.848C189.519 88.024 189.599 88.224 189.759 88.448C189.919 88.656 190.159 88.76 190.479 88.76H190.671V89H186.087V88.76H186.279C186.615 88.76 186.951 88.648 187.287 88.424C187.639 88.184 187.927 87.832 188.151 87.368C191.655 79.88 193.479 75.96 193.623 75.608C193.895 74.936 194.039 74.488 194.055 74.264H194.271L200.199 87.368C200.663 88.296 201.279 88.76 202.047 88.76ZM191.271 83.408H196.743L194.055 76.832L191.271 83.408ZM207.929 75.344H206.657V87.464C206.673 87.96 206.897 88.336 207.329 88.592C207.537 88.704 207.769 88.76 208.025 88.76H208.337L208.361 89H203.441V88.76H203.777C204.145 88.76 204.457 88.64 204.713 88.4C204.985 88.144 205.121 87.84 205.121 87.488V76.088C205.121 75.736 204.985 75.44 204.713 75.2C204.457 74.96 204.145 74.84 203.777 74.84H203.441V74.6H209.465C210.969 74.6 212.153 74.944 213.017 75.632C213.897 76.32 214.337 77.224 214.337 78.344C214.337 79.464 213.985 80.4 213.281 81.152C212.577 81.904 211.681 82.336 210.593 82.448C211.105 82.672 211.721 83.296 212.441 84.32C212.425 84.32 212.697 84.672 213.257 85.376C213.833 86.08 214.289 86.632 214.625 87.032C214.977 87.416 215.265 87.712 215.489 87.92C216.081 88.48 216.761 88.76 217.529 88.76V89H216.785C215.521 89 214.529 88.752 213.809 88.256C213.265 87.888 212.769 87.432 212.321 86.888C212.225 86.76 211.817 86.2 211.097 85.208C210.393 84.2 210.017 83.664 209.969 83.6C209.105 82.528 208.297 81.992 207.545 81.992V81.752C209.417 81.752 210.545 81.656 210.929 81.464C211.457 81.192 211.817 80.904 212.009 80.6C212.409 79.96 212.609 79.256 212.609 78.488C212.609 77.512 212.321 76.76 211.745 76.232C211.169 75.704 210.393 75.416 209.417 75.368C208.985 75.352 208.489 75.344 207.929 75.344ZM224.287 75.296V87.488C224.303 87.984 224.543 88.352 225.007 88.592C225.215 88.704 225.447 88.76 225.703 88.76H225.967V89H221.023V88.76H221.311C221.695 88.76 222.023 88.632 222.295 88.376C222.567 88.12 222.711 87.816 222.727 87.464V75.296H218.383C218.015 75.296 217.719 75.416 217.495 75.656C217.287 75.896 217.183 76.184 217.183 76.52V76.904H216.919V74.192C217.239 74.32 217.687 74.416 218.263 74.48C218.855 74.544 219.295 74.576 219.583 74.576H227.407C228.559 74.576 229.455 74.448 230.095 74.192V76.904H229.831V76.52C229.831 76.184 229.719 75.896 229.495 75.656C229.271 75.416 228.983 75.296 228.631 75.296H224.287ZM232.09 88.76C232.522 88.76 232.898 88.632 233.218 88.376C233.538 88.12 233.698 87.816 233.698 87.464V76.136C233.698 75.784 233.538 75.48 233.218 75.224C232.898 74.968 232.514 74.84 232.066 74.84H231.754V74.6H237.178V74.84H236.866C236.434 74.84 236.058 74.96 235.738 75.2C235.434 75.44 235.266 75.736 235.234 76.088V87.488C235.25 87.84 235.418 88.144 235.738 88.4C236.058 88.64 236.434 88.76 236.866 88.76H237.178L237.202 89H231.754V88.76H232.09ZM247.265 89.336C244.817 89.32 242.881 88.64 241.457 87.296C240.049 85.952 239.345 84.12 239.345 81.8C239.345 79.464 240.049 77.624 241.457 76.28C242.881 74.936 244.817 74.264 247.265 74.264C248.257 74.264 249.257 74.392 250.265 74.648C251.273 74.904 252.145 75.256 252.881 75.704L253.409 79.112H253.193C252.505 76.36 250.521 74.984 247.241 74.984C245.337 74.984 243.833 75.592 242.729 76.808C241.625 78.024 241.073 79.688 241.073 81.8C241.073 83.176 241.321 84.376 241.817 85.4C242.313 86.408 243.033 87.192 243.977 87.752C244.921 88.312 246.017 88.592 247.265 88.592C248.513 88.592 249.601 88.408 250.529 88.04C251.473 87.656 252.249 87.032 252.857 86.168C253.481 85.304 253.833 84.232 253.913 82.952H254.129L253.865 86.24C253.241 87.2 252.337 87.96 251.153 88.52C249.969 89.064 248.673 89.336 247.265 89.336ZM271.026 74.84H270.666C270.234 74.84 269.906 75.008 269.682 75.344C269.586 75.488 269.53 75.656 269.514 75.848V83.936C269.514 85.6 268.978 86.92 267.906 87.896C266.85 88.856 265.394 89.336 263.538 89.336C261.682 89.336 260.218 88.856 259.146 87.896C258.074 86.936 257.538 85.624 257.538 83.96V75.872C257.538 75.584 257.426 75.344 257.202 75.152C256.978 74.944 256.706 74.84 256.386 74.84H256.026V74.6H260.586V74.84H260.226C259.906 74.84 259.634 74.944 259.41 75.152C259.186 75.344 259.074 75.584 259.074 75.872V83.672C259.074 85.224 259.466 86.448 260.25 87.344C261.05 88.24 262.17 88.688 263.61 88.688C265.066 88.688 266.226 88.264 267.09 87.416C267.97 86.568 268.41 85.408 268.41 83.936V75.872C268.394 75.568 268.274 75.32 268.05 75.128C267.842 74.936 267.578 74.84 267.258 74.84H266.898V74.6H271.026V74.84ZM273.527 88.76C273.911 88.76 274.231 88.64 274.487 88.4C274.759 88.144 274.903 87.84 274.919 87.488V76.136C274.903 75.784 274.751 75.48 274.463 75.224C274.191 74.968 273.863 74.84 273.479 74.84H273.191V74.6H278.159V74.84H277.871C277.487 74.84 277.151 74.968 276.863 75.224C276.591 75.48 276.455 75.784 276.455 76.136V88.256H280.199C280.935 88.256 281.559 88.128 282.071 87.872C282.583 87.616 282.967 87.312 283.223 86.96C283.495 86.608 283.759 86.144 284.015 85.568H284.255L282.935 89H273.191V88.76H273.527ZM300.578 88.76H300.77V89H295.85V88.76H296.042C296.346 88.76 296.578 88.656 296.738 88.448C296.898 88.24 296.978 88.048 296.978 87.872C296.978 87.68 296.946 87.496 296.882 87.32L295.562 84.128H289.49L288.17 87.248C288.09 87.456 288.05 87.656 288.05 87.848C288.05 88.024 288.13 88.224 288.29 88.448C288.45 88.656 288.69 88.76 289.01 88.76H289.202V89H284.618V88.76H284.81C285.146 88.76 285.482 88.648 285.818 88.424C286.17 88.184 286.458 87.832 286.682 87.368C290.186 79.88 292.01 75.96 292.154 75.608C292.426 74.936 292.57 74.488 292.586 74.264H292.802L298.73 87.368C299.194 88.296 299.81 88.76 300.578 88.76ZM289.802 83.408H295.274L292.586 76.832L289.802 83.408ZM306.46 75.344H305.188V87.464C305.204 87.96 305.428 88.336 305.86 88.592C306.068 88.704 306.3 88.76 306.556 88.76H306.868L306.892 89H301.972V88.76H302.308C302.676 88.76 302.988 88.64 303.244 88.4C303.516 88.144 303.652 87.84 303.652 87.488V76.088C303.652 75.736 303.516 75.44 303.244 75.2C302.988 74.96 302.676 74.84 302.308 74.84H301.972V74.6H307.996C309.5 74.6 310.684 74.944 311.548 75.632C312.428 76.32 312.868 77.224 312.868 78.344C312.868 79.464 312.516 80.4 311.812 81.152C311.108 81.904 310.212 82.336 309.124 82.448C309.636 82.672 310.252 83.296 310.972 84.32C310.956 84.32 311.228 84.672 311.788 85.376C312.364 86.08 312.82 86.632 313.156 87.032C313.508 87.416 313.796 87.712 314.02 87.92C314.612 88.48 315.292 88.76 316.06 88.76V89H315.316C314.052 89 313.06 88.752 312.34 88.256C311.796 87.888 311.3 87.432 310.852 86.888C310.756 86.76 310.348 86.2 309.628 85.208C308.924 84.2 308.548 83.664 308.5 83.6C307.636 82.528 306.828 81.992 306.076 81.992V81.752C307.948 81.752 309.076 81.656 309.46 81.464C309.988 81.192 310.348 80.904 310.54 80.6C310.94 79.96 311.14 79.256 311.14 78.488C311.14 77.512 310.852 76.76 310.276 76.232C309.7 75.704 308.924 75.416 307.948 75.368C307.516 75.352 307.02 75.344 306.46 75.344ZM329.427 75.296V87.488C329.443 87.984 329.683 88.352 330.147 88.592C330.355 88.704 330.587 88.76 330.843 88.76H331.107V89H326.163V88.76H326.451C326.835 88.76 327.163 88.632 327.435 88.376C327.707 88.12 327.851 87.816 327.867 87.464V75.296H323.523C323.155 75.296 322.859 75.416 322.635 75.656C322.427 75.896 322.323 76.184 322.323 76.52V76.904H322.059V74.192C322.379 74.32 322.827 74.416 323.403 74.48C323.995 74.544 324.435 74.576 324.723 74.576H332.547C333.699 74.576 334.595 74.448 335.235 74.192V76.904H334.971V76.52C334.971 76.184 334.859 75.896 334.635 75.656C334.411 75.416 334.123 75.296 333.771 75.296H329.427ZM337.23 88.76C337.662 88.76 338.038 88.632 338.358 88.376C338.678 88.12 338.838 87.816 338.838 87.464V76.136C338.838 75.784 338.678 75.48 338.358 75.224C338.038 74.968 337.654 74.84 337.206 74.84H336.894V74.6H342.318V74.84H342.006C341.574 74.84 341.198 74.96 340.878 75.2C340.574 75.44 340.406 75.736 340.374 76.088V87.488C340.39 87.84 340.558 88.144 340.878 88.4C341.198 88.64 341.574 88.76 342.006 88.76H342.318L342.342 89H336.894V88.76H337.23ZM364.181 88.76H364.541V89H359.549V88.784H359.909C360.149 88.784 360.357 88.696 360.533 88.52C360.725 88.328 360.805 88.104 360.773 87.848L359.525 77.96L354.989 86.888C354.541 87.864 354.261 88.68 354.149 89.336H353.909L348.125 78.176L347.045 87.848C347.013 88.088 347.085 88.304 347.261 88.496C347.453 88.688 347.677 88.784 347.933 88.784H348.269V89H343.829V88.76H344.189C344.765 88.76 345.213 88.552 345.533 88.136C345.693 87.928 345.789 87.68 345.821 87.392L347.693 74.264H347.933L354.269 86.456L360.389 74.264H360.605L362.549 87.44C362.613 87.84 362.797 88.16 363.101 88.4C363.405 88.64 363.765 88.76 364.181 88.76ZM366.363 88.76C366.747 88.76 367.067 88.64 367.323 88.4C367.595 88.144 367.739 87.84 367.755 87.488V76.088C367.755 75.736 367.619 75.44 367.347 75.2C367.075 74.96 366.747 74.84 366.363 74.84H366.027V74.6H373.035C373.691 74.6 374.267 74.552 374.763 74.456C375.259 74.36 375.579 74.28 375.723 74.216V76.952L375.459 76.928V76.568C375.459 76.232 375.347 75.944 375.123 75.704C374.899 75.464 374.611 75.344 374.259 75.344H369.267V81.44H373.371C373.691 81.44 373.931 81.344 374.091 81.152C374.267 80.96 374.355 80.72 374.355 80.432V80.12H374.619V83.48H374.355V83.168C374.355 82.72 374.187 82.416 373.851 82.256C373.723 82.208 373.587 82.176 373.443 82.16H369.267V88.256H373.035C373.771 88.256 374.387 88.128 374.883 87.872C375.395 87.616 375.779 87.312 376.035 86.96C376.307 86.608 376.579 86.144 376.851 85.568H377.091L375.771 89H366.027V88.76H366.363ZM385.465 88.76C385.897 88.76 386.273 88.632 386.593 88.376C386.913 88.12 387.073 87.816 387.073 87.464V76.136C387.073 75.784 386.913 75.48 386.593 75.224C386.273 74.968 385.889 74.84 385.441 74.84H385.129V74.6H390.553V74.84H390.241C389.809 74.84 389.433 74.96 389.113 75.2C388.809 75.44 388.641 75.736 388.609 76.088V87.488C388.625 87.84 388.793 88.144 389.113 88.4C389.433 88.64 389.809 88.76 390.241 88.76H390.553L390.577 89H385.129V88.76H385.465ZM393.263 88.208C393.215 88.016 393.191 87.624 393.191 87.032C393.191 86.44 393.295 85.84 393.503 85.232H393.791C393.775 85.376 393.767 85.52 393.767 85.664C393.767 86.528 394.047 87.24 394.607 87.8C395.183 88.344 395.975 88.616 396.983 88.616C398.039 88.616 398.863 88.376 399.455 87.896C400.047 87.4 400.343 86.768 400.343 86C400.343 85.216 400.055 84.568 399.479 84.056L394.679 80.36C393.911 79.704 393.527 78.824 393.527 77.72C393.527 77.096 393.695 76.52 394.031 75.992C394.383 75.464 394.863 75.048 395.471 74.744C396.095 74.424 396.823 74.264 397.655 74.264C398.487 74.264 399.223 74.336 399.863 74.48H400.655L400.703 77.096H400.439C400.439 76.424 400.207 75.904 399.743 75.536C399.279 75.168 398.615 74.984 397.751 74.984C396.887 74.984 396.175 75.208 395.615 75.656C395.055 76.088 394.775 76.656 394.775 77.36C394.775 78.048 395.087 78.648 395.711 79.16L400.559 82.904C401.295 83.512 401.663 84.36 401.663 85.448C401.663 86.536 401.247 87.456 400.415 88.208C399.599 88.96 398.599 89.336 397.415 89.336C396.631 89.336 395.847 89.24 395.063 89.048C394.279 88.856 393.679 88.576 393.263 88.208ZM424.797 88.76H424.989V89H420.069V88.76H420.261C420.565 88.76 420.797 88.656 420.957 88.448C421.117 88.24 421.197 88.048 421.197 87.872C421.197 87.68 421.165 87.496 421.101 87.32L419.781 84.128H413.709L412.389 87.248C412.309 87.456 412.269 87.656 412.269 87.848C412.269 88.024 412.349 88.224 412.509 88.448C412.669 88.656 412.909 88.76 413.229 88.76H413.421V89H408.837V88.76H409.029C409.365 88.76 409.701 88.648 410.037 88.424C410.389 88.184 410.677 87.832 410.901 87.368C414.405 79.88 416.229 75.96 416.373 75.608C416.645 74.936 416.789 74.488 416.805 74.264H417.021L422.949 87.368C423.413 88.296 424.029 88.76 424.797 88.76ZM414.021 83.408H419.493L416.805 76.832L414.021 83.408ZM441.719 76.592C441.959 77.056 442.079 77.616 442.079 78.272C442.079 78.928 441.815 79.536 441.287 80.096C440.759 80.64 440.143 81 439.439 81.176C440.607 81.304 441.567 81.728 442.319 82.448C443.087 83.168 443.471 83.96 443.471 84.824C443.471 85.672 443.303 86.368 442.967 86.912C442.647 87.456 442.215 87.872 441.671 88.16C440.631 88.72 439.455 89 438.143 89H432.191V88.76H432.479C432.879 88.76 433.215 88.64 433.487 88.4C433.759 88.144 433.903 87.832 433.919 87.464V76.136C433.903 75.608 433.663 75.232 433.199 75.008C432.991 74.896 432.751 74.84 432.479 74.84H432.191V74.6H437.087C439.471 74.6 441.015 75.264 441.719 76.592ZM441.767 84.968C441.767 82.584 439.903 81.392 436.175 81.392V81.152C438.991 81.152 440.399 80.168 440.399 78.2C440.399 76.28 439.287 75.32 437.063 75.32H435.431V88.28H438.119C439.207 88.28 440.087 88.008 440.759 87.464C441.431 86.904 441.767 86.072 441.767 84.968ZM446.215 88.76C446.599 88.76 446.919 88.64 447.175 88.4C447.447 88.144 447.591 87.84 447.607 87.488V76.136C447.591 75.784 447.439 75.48 447.151 75.224C446.879 74.968 446.551 74.84 446.167 74.84H445.879V74.6H450.847V74.84H450.559C450.175 74.84 449.839 74.968 449.551 75.224C449.279 75.48 449.143 75.784 449.143 76.136V88.256H452.887C453.623 88.256 454.247 88.128 454.759 87.872C455.271 87.616 455.655 87.312 455.911 86.96C456.183 86.608 456.447 86.144 456.703 85.568H456.943L455.623 89H445.879V88.76H446.215ZM458.496 88.76C458.88 88.76 459.2 88.64 459.456 88.4C459.728 88.144 459.872 87.84 459.888 87.488V76.088C459.888 75.736 459.752 75.44 459.48 75.2C459.208 74.96 458.88 74.84 458.496 74.84H458.16V74.6H465.168C465.824 74.6 466.4 74.552 466.896 74.456C467.392 74.36 467.712 74.28 467.856 74.216V76.952L467.592 76.928V76.568C467.592 76.232 467.48 75.944 467.256 75.704C467.032 75.464 466.744 75.344 466.392 75.344H461.4V81.44H465.504C465.824 81.44 466.064 81.344 466.224 81.152C466.4 80.96 466.488 80.72 466.488 80.432V80.12H466.752V83.48H466.488V83.168C466.488 82.72 466.32 82.416 465.984 82.256C465.856 82.208 465.72 82.176 465.576 82.16H461.4V88.256H465.168C465.904 88.256 466.52 88.128 467.016 87.872C467.528 87.616 467.912 87.312 468.168 86.96C468.44 86.608 468.712 86.144 468.984 85.568H469.224L467.904 89H458.16V88.76H458.496ZM471.333 88.208C471.285 88.016 471.261 87.624 471.261 87.032C471.261 86.44 471.365 85.84 471.573 85.232H471.861C471.845 85.376 471.837 85.52 471.837 85.664C471.837 86.528 472.117 87.24 472.677 87.8C473.253 88.344 474.045 88.616 475.053 88.616C476.109 88.616 476.933 88.376 477.525 87.896C478.117 87.4 478.413 86.768 478.413 86C478.413 85.216 478.125 84.568 477.549 84.056L472.749 80.36C471.981 79.704 471.597 78.824 471.597 77.72C471.597 77.096 471.765 76.52 472.101 75.992C472.453 75.464 472.933 75.048 473.541 74.744C474.165 74.424 474.893 74.264 475.725 74.264C476.557 74.264 477.293 74.336 477.933 74.48H478.725L478.773 77.096H478.509C478.509 76.424 478.277 75.904 477.813 75.536C477.349 75.168 476.685 74.984 475.821 74.984C474.957 74.984 474.245 75.208 473.685 75.656C473.125 76.088 472.845 76.656 472.845 77.36C472.845 78.048 473.157 78.648 473.781 79.16L478.629 82.904C479.365 83.512 479.733 84.36 479.733 85.448C479.733 86.536 479.317 87.456 478.485 88.208C477.669 88.96 476.669 89.336 475.485 89.336C474.701 89.336 473.917 89.24 473.133 89.048C472.349 88.856 471.749 88.576 471.333 88.208ZM482.419 88.208C482.371 88.016 482.347 87.624 482.347 87.032C482.347 86.44 482.451 85.84 482.659 85.232H482.947C482.931 85.376 482.923 85.52 482.923 85.664C482.923 86.528 483.203 87.24 483.763 87.8C484.339 88.344 485.131 88.616 486.139 88.616C487.195 88.616 488.019 88.376 488.611 87.896C489.203 87.4 489.499 86.768 489.499 86C489.499 85.216 489.211 84.568 488.635 84.056L483.835 80.36C483.067 79.704 482.683 78.824 482.683 77.72C482.683 77.096 482.851 76.52 483.187 75.992C483.539 75.464 484.019 75.048 484.627 74.744C485.251 74.424 485.979 74.264 486.811 74.264C487.643 74.264 488.379 74.336 489.019 74.48H489.811L489.859 77.096H489.595C489.595 76.424 489.363 75.904 488.899 75.536C488.435 75.168 487.771 74.984 486.907 74.984C486.043 74.984 485.331 75.208 484.771 75.656C484.211 76.088 483.931 76.656 483.931 77.36C483.931 78.048 484.243 78.648 484.867 79.16L489.715 82.904C490.451 83.512 490.819 84.36 490.819 85.448C490.819 86.536 490.403 87.456 489.571 88.208C488.755 88.96 487.755 89.336 486.571 89.336C485.787 89.336 485.003 89.24 484.219 89.048C483.435 88.856 482.835 88.576 482.419 88.208ZM493.769 88.76C494.201 88.76 494.577 88.632 494.897 88.376C495.217 88.12 495.377 87.816 495.377 87.464V76.136C495.377 75.784 495.217 75.48 494.897 75.224C494.577 74.968 494.193 74.84 493.745 74.84H493.433V74.6H498.857V74.84H498.545C498.113 74.84 497.737 74.96 497.417 75.2C497.113 75.44 496.945 75.736 496.913 76.088V87.488C496.929 87.84 497.097 88.144 497.417 88.4C497.737 88.64 498.113 88.76 498.545 88.76H498.857L498.881 89H493.433V88.76H493.769ZM517.624 74.84C517.272 74.84 516.968 74.96 516.712 75.2C516.456 75.424 516.32 75.704 516.304 76.04V86.264C516.304 87.192 516.36 88.072 516.472 88.904L516.52 89.336H516.304L503.824 77.504V87.512C503.824 87.864 503.952 88.16 504.208 88.4C504.464 88.64 504.776 88.76 505.144 88.76H505.552V89H501.016V88.76H501.424C501.792 88.76 502.104 88.64 502.36 88.4C502.616 88.16 502.744 87.864 502.744 87.512V77.24C502.744 76.264 502.688 75.392 502.576 74.624L502.528 74.24L502.792 74.264L515.248 86V76.04C515.216 75.704 515.072 75.424 514.816 75.2C514.56 74.96 514.256 74.84 513.904 74.84H513.496V74.6H518.032V74.84H517.624ZM527.834 89.336C525.45 89.32 523.538 88.64 522.098 87.296C520.674 85.936 519.962 84.104 519.962 81.8C519.962 79.48 520.674 77.648 522.098 76.304C523.538 74.944 525.386 74.264 527.642 74.264C529.914 74.264 531.842 74.744 533.426 75.704L533.954 79.112H533.738C533.402 77.704 532.746 76.664 531.77 75.992C530.81 75.32 529.442 74.984 527.666 74.984C525.906 74.984 524.466 75.6 523.346 76.832C522.242 78.048 521.69 79.704 521.69 81.8C521.69 83.896 522.25 85.56 523.37 86.792C524.49 88.008 526.034 88.616 528.002 88.616C529.986 88.616 531.69 87.92 533.114 86.528L533.138 83.336C533.154 83.048 533.058 82.824 532.85 82.664C532.658 82.488 532.386 82.4 532.034 82.4H531.698V82.16H536.09V82.4H535.754C535.034 82.4 534.674 82.72 534.674 83.36V86.24C534.002 87.072 533.074 87.8 531.89 88.424C530.722 89.032 529.37 89.336 527.834 89.336ZM553.422 76.568C553.422 76.024 553.19 75.648 552.726 75.44C552.566 75.376 552.398 75.344 552.222 75.344H547.158V81.44H551.334C551.654 81.44 551.894 81.344 552.054 81.152C552.214 80.96 552.294 80.72 552.294 80.432V80.12H552.582V83.48H552.294V83.168C552.294 82.784 552.166 82.504 551.91 82.328C551.766 82.232 551.59 82.176 551.382 82.16H547.158V87.464C547.174 87.896 547.366 88.248 547.734 88.52C547.974 88.68 548.254 88.76 548.574 88.76H548.91V89H543.894V88.76H544.23C544.614 88.76 544.942 88.64 545.214 88.4C545.486 88.144 545.63 87.84 545.646 87.488V76.088C545.63 75.592 545.398 75.232 544.95 75.008C544.726 74.896 544.486 74.84 544.23 74.84H543.894V74.6H547.158H550.974C551.438 74.6 551.95 74.56 552.51 74.48C553.07 74.4 553.462 74.312 553.686 74.216V76.952L553.422 76.928V76.568ZM560.945 75.344H559.673V87.464C559.689 87.96 559.913 88.336 560.345 88.592C560.553 88.704 560.785 88.76 561.041 88.76H561.353L561.377 89H556.457V88.76H556.793C557.161 88.76 557.473 88.64 557.729 88.4C558.001 88.144 558.137 87.84 558.137 87.488V76.088C558.137 75.736 558.001 75.44 557.729 75.2C557.473 74.96 557.161 74.84 556.793 74.84H556.457V74.6H562.481C563.985 74.6 565.169 74.944 566.033 75.632C566.913 76.32 567.353 77.224 567.353 78.344C567.353 79.464 567.001 80.4 566.297 81.152C565.593 81.904 564.697 82.336 563.609 82.448C564.121 82.672 564.737 83.296 565.457 84.32C565.441 84.32 565.713 84.672 566.273 85.376C566.849 86.08 567.305 86.632 567.641 87.032C567.993 87.416 568.281 87.712 568.505 87.92C569.097 88.48 569.777 88.76 570.545 88.76V89H569.801C568.537 89 567.545 88.752 566.825 88.256C566.281 87.888 565.785 87.432 565.337 86.888C565.241 86.76 564.833 86.2 564.113 85.208C563.409 84.2 563.033 83.664 562.985 83.6C562.121 82.528 561.313 81.992 560.561 81.992V81.752C562.433 81.752 563.561 81.656 563.945 81.464C564.473 81.192 564.833 80.904 565.025 80.6C565.425 79.96 565.625 79.256 565.625 78.488C565.625 77.512 565.337 76.76 564.761 76.232C564.185 75.704 563.409 75.416 562.433 75.368C562.001 75.352 561.505 75.344 560.945 75.344ZM574.572 75.224C575.804 74.584 577.156 74.264 578.628 74.264C580.116 74.264 581.476 74.584 582.708 75.224C583.94 75.848 584.916 76.736 585.636 77.888C586.372 79.04 586.74 80.344 586.74 81.8C586.74 83.256 586.372 84.56 585.636 85.712C584.916 86.864 583.94 87.76 582.708 88.4C581.476 89.024 580.212 89.336 578.916 89.336C577.62 89.336 576.476 89.152 575.484 88.784C574.492 88.416 573.628 87.904 572.892 87.248C572.172 86.592 571.596 85.792 571.164 84.848C570.748 83.904 570.54 82.8 570.54 81.536C570.54 80.256 570.9 79.04 571.62 77.888C572.356 76.736 573.34 75.848 574.572 75.224ZM574.116 86.72C575.332 87.984 576.836 88.616 578.628 88.616C580.42 88.616 581.924 87.984 583.14 86.72C584.356 85.44 584.964 83.8 584.964 81.8C584.964 79.8 584.356 78.168 583.14 76.904C581.924 75.624 580.42 74.984 578.628 74.984C576.836 74.984 575.332 75.624 574.116 76.904C572.916 78.168 572.316 79.8 572.316 81.8C572.316 83.8 572.916 85.44 574.116 86.72ZM608.235 88.76H608.595V89H603.603V88.784H603.963C604.203 88.784 604.411 88.696 604.587 88.52C604.779 88.328 604.859 88.104 604.827 87.848L603.579 77.96L599.043 86.888C598.595 87.864 598.315 88.68 598.203 89.336H597.963L592.179 78.176L591.099 87.848C591.067 88.088 591.139 88.304 591.315 88.496C591.507 88.688 591.731 88.784 591.987 88.784H592.323V89H587.883V88.76H588.243C588.819 88.76 589.267 88.552 589.587 88.136C589.747 87.928 589.843 87.68 589.875 87.392L591.747 74.264H591.987L598.323 86.456L604.443 74.264H604.659L606.603 87.44C606.667 87.84 606.851 88.16 607.155 88.4C607.459 88.64 607.819 88.76 608.235 88.76ZM296.974 129.336C294.414 129.32 292.334 128.512 290.734 126.912C289.15 125.312 288.358 123.208 288.358 120.6C288.358 117.992 289.15 115.888 290.734 114.288C292.334 112.672 294.414 111.864 296.974 111.864C299.182 111.864 301.126 112.408 302.806 113.496L303.286 116.88H303.07C302.718 115.504 302.006 114.448 300.934 113.712C299.878 112.96 298.558 112.584 296.974 112.584C294.942 112.584 293.294 113.32 292.03 114.792C290.782 116.264 290.158 118.2 290.158 120.6C290.158 123 290.782 124.936 292.03 126.408C293.294 127.864 294.942 128.6 296.974 128.616C298.014 128.616 298.998 128.432 299.926 128.064C300.87 127.696 301.694 127.184 302.398 126.528V122.28C302.398 121.928 302.286 121.664 302.062 121.488C301.854 121.296 301.558 121.2 301.174 121.2H300.79V120.96H305.494V121.2H305.134C304.734 121.2 304.43 121.296 304.222 121.488C304.014 121.664 303.918 121.928 303.934 122.28V126.24C303.518 126.784 303.022 127.272 302.446 127.704C301.87 128.136 301.094 128.52 300.118 128.856C299.158 129.176 298.11 129.336 296.974 129.336ZM311.298 115.224C312.53 114.584 313.882 114.264 315.354 114.264C316.842 114.264 318.202 114.584 319.434 115.224C320.666 115.848 321.642 116.736 322.362 117.888C323.098 119.04 323.466 120.344 323.466 121.8C323.466 123.256 323.098 124.56 322.362 125.712C321.642 126.864 320.666 127.76 319.434 128.4C318.202 129.024 316.938 129.336 315.642 129.336C314.346 129.336 313.202 129.152 312.21 128.784C311.218 128.416 310.354 127.904 309.618 127.248C308.898 126.592 308.322 125.792 307.89 124.848C307.474 123.904 307.266 122.8 307.266 121.536C307.266 120.256 307.626 119.04 308.346 117.888C309.082 116.736 310.066 115.848 311.298 115.224ZM310.842 126.72C312.058 127.984 313.562 128.616 315.354 128.616C317.146 128.616 318.65 127.984 319.866 126.72C321.082 125.44 321.69 123.8 321.69 121.8C321.69 119.8 321.082 118.168 319.866 116.904C318.65 115.624 317.146 114.984 315.354 114.984C313.562 114.984 312.058 115.624 310.842 116.904C309.642 118.168 309.042 119.8 309.042 121.8C309.042 123.8 309.642 125.44 310.842 126.72ZM341.341 121.8C341.341 124.024 340.645 125.784 339.253 127.08C337.877 128.36 336.005 129 333.637 129H325.621V128.76H325.933C326.317 128.76 326.637 128.632 326.893 128.376C327.149 128.12 327.285 127.816 327.301 127.464V116.136C327.285 115.752 327.141 115.44 326.869 115.2C326.613 114.96 326.293 114.84 325.909 114.84H325.621V114.6H333.637C335.205 114.6 336.565 114.888 337.717 115.464C338.885 116.04 339.781 116.872 340.405 117.96C341.029 119.048 341.341 120.328 341.341 121.8ZM328.861 115.32V128.28H333.637C335.477 128.28 336.933 127.704 338.005 126.552C339.077 125.384 339.613 123.8 339.613 121.8C339.613 119.8 339.077 118.224 338.005 117.072C336.933 115.904 335.477 115.32 333.637 115.32H328.861ZM344.151 128.784C343.943 128.992 343.687 129.096 343.383 129.096C343.079 129.096 342.823 128.992 342.615 128.784C342.407 128.576 342.303 128.32 342.303 128.016C342.303 127.712 342.407 127.456 342.615 127.248C342.823 127.04 343.079 126.936 343.383 126.936C343.687 126.936 343.943 127.04 344.151 127.248C344.359 127.456 344.463 127.712 344.463 128.016C344.463 128.32 344.359 128.576 344.151 128.784ZM346.712 116.88C347 115.52 347.144 114.528 347.144 113.904C347.144 113.264 347.128 112.696 347.096 112.2L348.776 111.864C348.776 111.944 348.776 112.112 348.776 112.368C348.776 112.624 348.728 113.048 348.632 113.64C348.552 114.216 348.36 114.856 348.056 115.56C347.768 116.264 347.392 116.744 346.928 117L346.712 116.88ZM349.832 116.88C350.12 115.52 350.264 114.528 350.264 113.904C350.264 113.264 350.248 112.696 350.216 112.2L351.896 111.864C351.896 111.944 351.896 112.112 351.896 112.368C351.896 112.624 351.848 113.048 351.752 113.64C351.672 114.216 351.48 114.856 351.176 115.56C350.888 116.264 350.512 116.744 350.048 117L349.832 116.88Z" fill="black"/>
<path d="M10.2417 12.749C9.45359 12.5221 8.66545 12.407 7.89879 12.407C6.71489 12.407 5.72703 12.6775 4.96104 13.0088C5.69951 10.3054 7.4735 5.64057 11.0074 5.11525C11.3347 5.06657 11.6029 4.82993 11.6921 4.51138L12.4645 1.74882C12.5296 1.5152 12.491 1.26512 12.3578 1.06238C12.2245 0.859634 12.0104 0.724359 11.7704 0.691463C11.5095 0.655882 11.2437 0.637756 10.9802 0.637756C6.73839 0.637756 2.53754 5.06523 0.764887 11.4047C-0.275676 15.1239 -0.580796 20.7155 1.98235 24.235C3.41665 26.2043 5.50918 27.256 8.20189 27.361C8.21297 27.3614 8.22371 27.3617 8.23479 27.3617C11.5572 27.3617 14.5033 25.1241 15.3996 21.9208C15.935 20.0059 15.6929 17.9976 14.7175 16.2645C13.7525 14.5509 12.1631 13.3019 10.2417 12.749Z" fill="#FEC10B" fill-opacity="0.3"/>
<path d="M31.0392 16.2648C30.0742 14.5509 28.4848 13.3019 26.5635 12.749C25.7753 12.5221 24.9872 12.407 24.2209 12.407C23.037 12.407 22.0488 12.6775 21.2828 13.0088C22.0212 10.3054 23.7952 5.64057 27.3295 5.11525C27.6567 5.06657 27.9246 4.82993 28.0142 4.51138L28.7866 1.74882C28.8517 1.5152 28.8131 1.26512 28.6798 1.06238C28.5469 0.859634 28.3328 0.724359 28.0924 0.691463C27.832 0.655882 27.5661 0.637756 27.3023 0.637756C23.0605 0.637756 18.8596 5.06523 17.0866 11.4047C16.0464 15.1239 15.7413 20.7155 18.3048 24.2356C19.7387 26.2047 21.8316 27.2566 24.524 27.3614C24.535 27.3617 24.5458 27.362 24.5572 27.362C27.8793 27.362 30.8258 25.1245 31.722 21.9212C32.2567 20.0062 32.0143 17.9976 31.0392 16.2648Z" fill="#FEC10B" fill-opacity="0.3"/>
</svg>
