<svg width="32" height="26" viewBox="0 0 32 26" fill="none" xmlns="http://www.w3.org/2000/svg">
<path d="M10.2417 11.783C9.45359 11.5623 8.66545 11.4503 7.89879 11.4503C6.71489 11.4503 5.72703 11.7135 4.96104 12.0358C5.69951 9.40559 7.4735 4.86722 11.0074 4.35614C11.3347 4.30879 11.6029 4.07855 11.6921 3.76864L12.4645 1.08095C12.5296 0.853658 12.491 0.610362 12.3578 0.413113C12.2245 0.215864 12.0104 0.0842554 11.7704 0.0522514C11.5095 0.0176348 11.2437 0 10.9802 0C6.73839 0 2.53754 4.30748 0.764887 10.4751C-0.275676 14.0935 -0.580796 19.5336 1.98235 22.9577C3.41665 24.8736 5.50918 25.8968 8.20189 25.999C8.21297 25.9993 8.22371 25.9997 8.23479 25.9997C11.5572 25.9997 14.5033 23.8227 15.3996 20.7063C15.935 18.8432 15.6929 16.8893 14.7175 15.2032C13.7525 13.5361 12.1631 12.3209 10.2417 11.783Z" fill="#FEC10B" fill-opacity="0.3"/>
<path d="M31.0392 15.2035C30.0742 13.5361 28.4848 12.3209 26.5635 11.783C25.7753 11.5623 24.9872 11.4503 24.2209 11.4503C23.037 11.4503 22.0488 11.7135 21.2828 12.0358C22.0212 9.40559 23.7952 4.86722 27.3295 4.35614C27.6567 4.30879 27.9246 4.07855 28.0142 3.76864L28.7866 1.08095C28.8517 0.853658 28.8131 0.610362 28.6798 0.413113C28.5469 0.215864 28.3328 0.0842554 28.0924 0.0522514C27.832 0.0176348 27.5661 0 27.3023 0C23.0605 0 18.8596 4.30748 17.0866 10.4751C16.0464 14.0935 15.7413 19.5336 18.3048 22.9583C19.7387 24.874 21.8316 25.8975 24.524 25.9993C24.535 25.9997 24.5458 26 24.5572 26C27.8793 26 30.8258 23.8231 31.722 20.7066C32.2567 18.8435 32.0143 16.8893 31.0392 15.2035Z" fill="#FEC10B" fill-opacity="0.3"/>
</svg>
