<svg width="94" height="38" viewBox="0 0 94 38" fill="none" xmlns="http://www.w3.org/2000/svg">
<rect y="19" width="94" height="8" fill="#FEC10B" fill-opacity="0.3"/>
<path d="M1.708 25.852C1.652 25.5907 1.624 25.0867 1.624 24.34C1.624 23.5933 1.764 22.8 2.044 21.96H2.296C2.27733 22.1653 2.268 22.3707 2.268 22.576C2.268 23.7147 2.61333 24.6667 3.304 25.432C3.99467 26.1787 4.90933 26.552 6.048 26.552C7.224 26.552 8.18533 26.1973 8.932 25.488C9.69733 24.7787 10.08 23.892 10.08 22.828C10.08 21.7453 9.716 20.868 8.988 20.196L3.612 15.212C2.604 14.2787 2.1 13.1493 2.1 11.824C2.1 10.4987 2.53867 9.36933 3.416 8.436C4.312 7.484 5.516 7.008 7.028 7.008C7.73733 7.008 8.54 7.10133 9.436 7.288H10.528V10.732H10.276C10.276 9.85467 9.968 9.15467 9.352 8.632C8.75467 8.10933 7.98 7.848 7.028 7.848C6.076 7.848 5.27333 8.16533 4.62 8.8C3.98533 9.43467 3.668 10.228 3.668 11.18C3.668 12.132 4.04133 12.9533 4.788 13.644L10.304 18.74C11.2373 19.5987 11.704 20.7747 11.704 22.268C11.704 23.7613 11.228 24.9933 10.276 25.964C9.324 26.916 8.05467 27.392 6.468 27.392C5.64667 27.392 4.76933 27.2613 3.836 27C2.92133 26.7573 2.212 26.3747 1.708 25.852ZM27.2891 26.72C27.7184 26.72 28.0917 26.58 28.4091 26.3C28.7264 26.0013 28.8944 25.6467 28.9131 25.236V19.132H18.5811V25.236C18.5997 25.6467 18.7677 26.0013 19.0851 26.3C19.4024 26.58 19.7757 26.72 20.2051 26.72H20.5411V27H14.8291V26.72H15.1651C15.6131 26.72 15.9864 26.5707 16.2851 26.272C16.6024 25.9733 16.7704 25.6187 16.7891 25.208V11.992C16.7704 11.5813 16.6024 11.2267 16.2851 10.928C15.9677 10.6293 15.5944 10.48 15.1651 10.48H14.8291V10.2H20.5411V10.48H20.2051C19.7757 10.48 19.4024 10.6293 19.0851 10.928C18.7677 11.208 18.5997 11.5533 18.5811 11.964V18.292H28.9131V11.992C28.9131 11.5813 28.7917 11.264 28.5491 11.04C28.1571 10.6667 27.7371 10.48 27.2891 10.48H26.9531V10.2H32.6651V10.48H32.3291C31.8997 10.48 31.5264 10.62 31.2091 10.9C30.8917 11.18 30.7237 11.5253 30.7051 11.936V25.236C30.7237 25.6467 30.8451 25.9547 31.0691 26.16C31.4797 26.5333 31.8997 26.72 32.3291 26.72H32.6651V27H26.9531V26.72H27.2891ZM39.8735 10.928C41.3109 10.1813 42.8882 9.808 44.6055 9.808C46.3415 9.808 47.9282 10.1813 49.3655 10.928C50.8029 11.656 51.9415 12.692 52.7815 14.036C53.6402 15.38 54.0695 16.9013 54.0695 18.6C54.0695 20.2987 53.6402 21.82 52.7815 23.164C51.9415 24.508 50.8029 25.5533 49.3655 26.3C47.9282 27.028 46.4535 27.392 44.9415 27.392C43.4295 27.392 42.0949 27.1773 40.9375 26.748C39.7802 26.3187 38.7722 25.7213 37.9135 24.956C37.0735 24.1907 36.4015 23.2573 35.8975 22.156C35.4122 21.0547 35.1695 19.7667 35.1695 18.292C35.1695 16.7987 35.5895 15.38 36.4295 14.036C37.2882 12.692 38.4362 11.656 39.8735 10.928ZM39.3415 24.34C40.7602 25.8147 42.5149 26.552 44.6055 26.552C46.6962 26.552 48.4509 25.8147 49.8695 24.34C51.2882 22.8467 51.9975 20.9333 51.9975 18.6C51.9975 16.2667 51.2882 14.3627 49.8695 12.888C48.4509 11.3947 46.6962 10.648 44.6055 10.648C42.5149 10.648 40.7602 11.3947 39.3415 12.888C37.9415 14.3627 37.2415 16.2667 37.2415 18.6C37.2415 20.9333 37.9415 22.8467 39.3415 24.34ZM80.4917 10.48H80.2957C79.1757 10.48 78.4104 11.0307 77.9997 12.132L73.9397 24.228C73.529 25.404 73.3144 26.44 73.2957 27.336H73.0157L67.8077 14.008L64.1677 24.228C63.7944 25.3853 63.589 26.4213 63.5517 27.336H63.2997L57.4197 12.02C56.9904 10.9933 56.2437 10.48 55.1797 10.48H54.9557V10.2H60.7237V10.48H60.4997C60.1637 10.48 59.9024 10.5827 59.7157 10.788C59.5477 10.9933 59.4637 11.1987 59.4637 11.404C59.4637 11.6093 59.4917 11.8053 59.5477 11.992L63.2717 23.388L68.0037 9.752L68.2837 9.78L73.2957 22.548L76.4317 12.16C76.525 11.8987 76.5717 11.6653 76.5717 11.46C76.5717 11.2547 76.497 11.04 76.3477 10.816C76.1984 10.592 75.9464 10.48 75.5917 10.48H75.3677V10.2H80.4917V10.48ZM81.9873 26.076C81.9313 25.852 81.9033 25.3947 81.9033 24.704C81.9033 24.0133 82.0246 23.3133 82.2673 22.604H82.6033C82.5846 22.772 82.5753 22.94 82.5753 23.108C82.5753 24.116 82.9019 24.9467 83.5553 25.6C84.2273 26.2347 85.1513 26.552 86.3273 26.552C87.5593 26.552 88.5206 26.272 89.2113 25.712C89.9019 25.1333 90.2473 24.396 90.2473 23.5C90.2473 22.5853 89.9113 21.8293 89.2393 21.232L83.6393 16.92C82.7433 16.1547 82.2953 15.128 82.2953 13.84C82.2953 13.112 82.4913 12.44 82.8833 11.824C83.2939 11.208 83.8539 10.7227 84.5633 10.368C85.2913 9.99467 86.1406 9.808 87.1113 9.808C88.0819 9.808 88.9406 9.892 89.6873 10.06H90.6113L90.6673 13.112H90.3593C90.3593 12.328 90.0886 11.7213 89.5473 11.292C89.0059 10.8627 88.2313 10.648 87.2233 10.648C86.2153 10.648 85.3846 10.9093 84.7313 11.432C84.0779 11.936 83.7513 12.5987 83.7513 13.42C83.7513 14.2227 84.1153 14.9227 84.8433 15.52L90.4993 19.888C91.3579 20.5973 91.7873 21.5867 91.7873 22.856C91.7873 24.1253 91.3019 25.1987 90.3313 26.076C89.3793 26.9533 88.2126 27.392 86.8313 27.392C85.9166 27.392 85.0019 27.28 84.0873 27.056C83.1726 26.832 82.4726 26.5053 81.9873 26.076Z" fill="#333333"/>
</svg>
