<svg width="102" height="102" viewBox="0 0 102 102" fill="none" xmlns="http://www.w3.org/2000/svg">
<path fill-rule="evenodd" clip-rule="evenodd" d="M0 50.9991C0 22.8333 22.8339 0 50.9997 0C79.1666 0 102 22.8333 102 50.9991C102 79.1679 79.1666 102 50.9997 102C22.8339 102 0 79.1679 0 50.9991ZM25.9814 41.7841C40.2111 37.4654 64.7983 38.2793 79.7044 47.1316C81.7547 48.352 84.4114 47.6744 85.6306 45.6191C86.8488 43.5672 86.1751 40.9127 84.1192 39.6924C66.9591 29.5059 39.8052 28.5484 23.47 33.5066C21.1833 34.2013 19.8951 36.6161 20.5875 38.9027C21.2794 41.1877 23.6959 42.4777 25.9814 41.7841ZM74.2678 61.4303C75.9625 62.4723 78.1813 61.94 79.2272 60.2431C80.2692 58.55 79.7357 56.3302 78.041 55.2865C63.7678 46.5148 42.8885 44.0465 26.0934 49.1433C24.1899 49.7231 23.1148 51.7331 23.6891 53.6393C24.2683 55.5428 26.2822 56.6173 28.1884 56.0414C42.8907 51.5785 61.8411 53.7917 74.2678 61.4303ZM73.5586 72.8396C72.7275 74.2024 70.9533 74.6293 69.5954 73.7987C58.7364 67.1618 45.0684 65.6632 28.9717 69.3397C27.4206 69.6953 25.8744 68.7235 25.521 67.1729C25.1654 65.6218 26.134 64.0756 27.6884 63.7216C45.3036 59.695 60.4135 61.4278 72.6022 68.8759C73.9611 69.7058 74.3891 71.4812 73.5586 72.8396Z" fill="#FEC10B"/>
</svg>
