<svg width="251" height="43" viewBox="0 0 251 43" fill="none" xmlns="http://www.w3.org/2000/svg">
<path d="M33.3337 3.83999C33.0337 1.13999 30.4337 -0.260015 27.9337 0.039985C24.5337 0.439985 22.6337 3.63998 23.5337 6.83998C25.4337 13.44 33.5337 19.04 40.0337 20.24C40.9337 20.34 40.4337 19.24 40.0337 19.04C36.0337 16.94 31.8337 15.64 28.6337 12.24C27.2337 10.74 25.6337 8.73998 25.1337 6.73998C24.2337 2.83998 30.4337 -1.36001 32.2337 3.73998C32.4337 3.93998 33.4337 4.43999 33.3337 3.83999Z" fill="#FEC10B"/>
<path d="M39.5337 22.64C35.2337 22.84 30.2337 24.94 27.0337 27.94C24.5337 30.24 22.0337 34.24 23.1337 37.84C24.1337 40.94 26.7337 42.74 30.0337 42.54C34.2337 42.24 36.6337 38.14 33.9337 34.64C33.5337 34.14 32.3337 34.14 32.8337 35.04C34.8337 38.94 29.2337 42.74 26.1337 39.84C24.4337 38.24 24.6337 36.14 25.4337 34.24C27.8337 28.04 34.1337 25.54 40.0337 23.54C40.5337 23.24 39.9337 22.54 39.5337 22.64Z" fill="#FEC10B"/>
<path d="M17.1336 9.94001C18.7336 12.44 20.5336 14.84 22.5336 17.04C24.3336 18.84 26.3336 21.04 28.8336 21.94C29.7336 22.24 29.7336 21.24 29.2336 20.74C27.2336 18.94 24.9336 17.54 23.0336 15.54C21.2336 13.64 19.6336 11.64 18.0336 9.64001C17.7336 9.14001 16.7336 9.24001 17.1336 9.94001Z" fill="#FEC10B"/>
<path d="M28.9337 20.64C24.4337 21.64 17.9337 25.34 17.3337 30.44C17.2337 31.04 18.3337 31.74 18.7337 31.24C20.3337 29.34 21.1337 27.24 23.0337 25.54C24.9337 23.84 27.2337 22.74 29.6337 21.64C30.1337 21.34 29.3337 20.54 28.9337 20.64Z" fill="#FEC10B"/>
<path d="M12.1337 15.04C13.7337 17.64 15.9337 20.74 18.9337 21.74C19.6337 21.94 19.6337 21.14 19.2337 20.84C18.1337 19.84 16.9337 19.14 15.9337 18.04C14.9337 17.04 14.0337 15.84 13.0337 14.74C12.7337 14.24 11.6337 14.34 12.1337 15.04Z" fill="#FEC10B"/>
<path d="M18.5336 20.44C17.0336 20.84 15.6336 21.44 14.4336 22.44C13.3336 23.44 12.1336 25.04 12.2336 26.54C12.2336 27.04 13.0336 27.74 13.5336 27.24C14.0336 26.64 14.2336 25.94 14.6336 25.24C14.9336 24.64 15.3336 24.14 15.8336 23.64C16.8336 22.64 18.1336 22.04 19.3336 21.44C19.9336 21.24 19.0336 20.24 18.5336 20.44Z" fill="#FEC10B"/>
<path d="M12.8337 20.74C10.1337 19.54 7.03366 18.54 4.03366 18.74C2.93366 18.84 -0.366339 19.34 0.0336609 21.04C0.333661 22.44 2.93366 23.24 4.13366 23.44C7.13366 23.84 10.2337 23.14 12.9337 21.84C13.6337 21.44 12.6337 20.44 12.0337 20.54C10.4337 20.94 8.83366 21.34 7.23366 21.64C6.03366 21.84 4.83366 21.94 3.63366 21.74C3.13366 21.64 2.63366 21.54 2.23366 21.24C1.63366 20.94 1.53366 20.84 2.03366 21.04C2.03366 20.94 4.03366 20.44 4.03366 20.44C5.23366 20.24 6.33366 20.24 7.53366 20.44C9.33366 20.64 11.0337 21.34 12.8337 21.64C13.4337 21.74 13.2337 20.94 12.8337 20.74Z" fill="#FEC10B"/>
<rect width="200" height="2" transform="matrix(-1 0 0 1 251 20)" fill="#FEC10B"/>
</svg>
