<svg width="1083" height="48" viewBox="0 0 1083 48" fill="none" xmlns="http://www.w3.org/2000/svg">
<rect x="455" y="25" width="175" height="14" fill="#FEC10B" fill-opacity="0.3"/>
<path d="M480.776 34.64H481.064V35H472.964V34.64H473.288C473.792 34.64 474.164 34.484 474.404 34.172C474.668 33.836 474.8 33.524 474.8 33.236C474.8 32.948 474.752 32.66 474.656 32.372L472.352 26.252H462.632L460.22 32.408C460.124 32.696 460.076 32.984 460.076 33.272C460.076 33.536 460.196 33.836 460.436 34.172C460.7 34.484 461.084 34.64 461.588 34.64H461.912V35H454.676V34.64H455C455.6 34.64 456.188 34.448 456.764 34.064C457.34 33.68 457.808 33.116 458.168 32.372L466.304 13.004C467.192 11.06 467.636 9.824 467.636 9.296H467.96L477.608 32.372C477.944 33.116 478.4 33.68 478.976 34.064C479.552 34.448 480.152 34.64 480.776 34.64ZM463.064 25.172H471.92L467.6 13.616L463.064 25.172ZM493.395 35.504C489.723 35.48 486.819 34.46 484.683 32.444C482.571 30.428 481.515 27.68 481.515 24.2C481.515 20.696 482.571 17.936 484.683 15.92C486.819 13.904 489.723 12.896 493.395 12.896C494.883 12.896 496.383 13.088 497.895 13.472C499.407 13.856 500.715 14.384 501.819 15.056L502.611 20.168H502.287C501.255 16.04 498.279 13.976 493.359 13.976C490.503 13.976 488.247 14.888 486.591 16.712C484.935 18.536 484.107 21.032 484.107 24.2C484.107 26.264 484.479 28.064 485.223 29.6C485.967 31.112 487.047 32.288 488.463 33.128C489.879 33.968 491.523 34.388 493.395 34.388C495.267 34.388 496.899 34.112 498.291 33.56C499.707 32.984 500.871 32.048 501.783 30.752C502.719 29.456 503.247 27.848 503.367 25.928H503.691L503.295 30.86C502.359 32.3 501.003 33.44 499.227 34.28C497.451 35.096 495.507 35.504 493.395 35.504ZM528.858 34.64H529.146V35H521.766V34.64H522.054C522.51 34.64 522.858 34.484 523.098 34.172C523.338 33.86 523.458 33.572 523.458 33.308C523.458 33.02 523.41 32.744 523.314 32.48L521.334 27.692H512.226L510.246 32.372C510.126 32.684 510.066 32.984 510.066 33.272C510.066 33.536 510.186 33.836 510.426 34.172C510.666 34.484 511.026 34.64 511.506 34.64H511.794V35H504.918V34.64H505.206C505.71 34.64 506.214 34.472 506.718 34.136C507.246 33.776 507.678 33.248 508.014 32.552C513.27 21.32 516.006 15.44 516.222 14.912C516.63 13.904 516.846 13.232 516.87 12.896H517.194L526.086 32.552C526.782 33.944 527.706 34.64 528.858 34.64ZM512.694 26.612H520.902L516.87 16.748L512.694 26.612ZM554.529 24.2C554.529 27.536 553.485 30.176 551.397 32.12C549.333 34.04 546.525 35 542.973 35H530.949V34.64H531.417C531.993 34.64 532.473 34.448 532.857 34.064C533.241 33.68 533.445 33.224 533.469 32.696V15.704C533.445 15.128 533.229 14.66 532.821 14.3C532.437 13.94 531.957 13.76 531.381 13.76H530.949V13.4H542.973C545.325 13.4 547.365 13.832 549.093 14.696C550.845 15.56 552.189 16.808 553.125 18.44C554.061 20.072 554.529 21.992 554.529 24.2ZM535.809 14.48V33.92H542.973C545.733 33.92 547.917 33.056 549.525 31.328C551.133 29.576 551.937 27.2 551.937 24.2C551.937 21.2 551.133 18.836 549.525 17.108C547.917 15.356 545.733 14.48 542.973 14.48H535.809ZM558.277 34.64C558.853 34.64 559.333 34.46 559.717 34.1C560.125 33.716 560.341 33.26 560.365 32.732V15.632C560.365 15.104 560.161 14.66 559.753 14.3C559.345 13.94 558.853 13.76 558.277 13.76H557.773V13.4H568.285C569.269 13.4 570.133 13.328 570.877 13.184C571.621 13.04 572.101 12.92 572.317 12.824V16.928L571.921 16.892V16.352C571.921 15.848 571.753 15.416 571.417 15.056C571.081 14.696 570.649 14.516 570.121 14.516H562.633V23.66H568.789C569.269 23.66 569.629 23.516 569.869 23.228C570.133 22.94 570.265 22.58 570.265 22.148V21.68H570.661V26.72H570.265V26.252C570.265 25.58 570.013 25.124 569.509 24.884C569.317 24.812 569.113 24.764 568.897 24.74H562.633V33.884H568.285C569.389 33.884 570.313 33.692 571.057 33.308C571.825 32.924 572.401 32.468 572.785 31.94C573.193 31.412 573.601 30.716 574.009 29.852H574.369L572.389 35H557.773V34.64H558.277ZM606.261 34.64H606.801V35H599.313V34.676H599.853C600.213 34.676 600.525 34.544 600.789 34.28C601.077 33.992 601.197 33.656 601.149 33.272L599.277 18.44L592.473 31.832C591.801 33.296 591.381 34.52 591.213 35.504H590.853L582.177 18.764L580.557 33.272C580.509 33.632 580.617 33.956 580.881 34.244C581.169 34.532 581.505 34.676 581.889 34.676H582.393V35H575.733V34.64H576.273C577.137 34.64 577.809 34.328 578.289 33.704C578.529 33.392 578.673 33.02 578.721 32.588L581.529 12.896H581.889L591.393 31.184L600.573 12.896H600.897L603.813 32.66C603.909 33.26 604.185 33.74 604.641 34.1C605.097 34.46 605.637 34.64 606.261 34.64ZM629.919 13.76H629.487C628.839 13.76 628.215 13.94 627.615 14.3C627.039 14.636 626.559 15.068 626.175 15.596L619.263 26.072V32.696C619.263 33.224 619.467 33.68 619.875 34.064C620.283 34.448 620.775 34.64 621.351 34.64H621.783V35H614.403V34.64H614.835C615.411 34.64 615.903 34.448 616.311 34.064C616.719 33.68 616.923 33.224 616.923 32.696V26.036L610.263 15.56C609.447 14.36 608.343 13.76 606.951 13.76H606.519V13.4H614.871V13.76H614.439C613.983 13.76 613.647 13.904 613.431 14.192C613.239 14.48 613.143 14.732 613.143 14.948C613.143 15.14 613.167 15.32 613.215 15.488L618.471 24.812L624.051 15.524C624.123 15.332 624.159 15.14 624.159 14.948C624.159 14.732 624.051 14.48 623.835 14.192C623.643 13.904 623.307 13.76 622.827 13.76H622.395V13.4H629.919V13.76Z" fill="black"/>
<g opacity="0.5">
<path d="M1049.67 8.83999C1049.97 6.13999 1052.57 4.73999 1055.07 5.03999C1058.47 5.43999 1060.37 8.63998 1059.47 11.84C1057.57 18.44 1049.47 24.04 1042.97 25.24C1042.07 25.34 1042.57 24.24 1042.97 24.04C1046.97 21.94 1051.17 20.64 1054.37 17.24C1055.77 15.74 1057.37 13.74 1057.87 11.74C1058.77 7.83998 1052.57 3.63999 1050.77 8.73998C1050.57 8.93999 1049.57 9.43999 1049.67 8.83999Z" fill="#FEC10B"/>
<path d="M1043.47 27.6399C1047.77 27.8399 1052.77 29.9399 1055.97 32.9399C1058.47 35.2399 1060.97 39.2399 1059.87 42.8399C1058.87 45.9399 1056.27 47.7399 1052.97 47.5399C1048.77 47.2399 1046.37 43.1399 1049.07 39.6399C1049.47 39.1399 1050.67 39.1399 1050.17 40.0399C1048.17 43.9399 1053.77 47.7399 1056.87 44.8399C1058.57 43.2399 1058.37 41.1399 1057.57 39.2399C1055.17 33.0399 1048.87 30.5399 1042.97 28.5399C1042.47 28.2399 1043.07 27.5399 1043.47 27.6399Z" fill="#FEC10B"/>
<path d="M1065.87 14.9401C1064.27 17.4401 1062.47 19.8401 1060.47 22.0401C1058.67 23.8401 1056.67 26.0401 1054.17 26.9401C1053.27 27.2401 1053.27 26.2401 1053.77 25.7401C1055.77 23.9401 1058.07 22.5401 1059.97 20.5401C1061.77 18.6401 1063.37 16.6401 1064.97 14.6401C1065.27 14.1401 1066.27 14.2401 1065.87 14.9401Z" fill="#FEC10B"/>
<path d="M1054.07 25.6399C1058.57 26.6399 1065.07 30.3399 1065.67 35.4399C1065.77 36.0399 1064.67 36.7399 1064.27 36.2399C1062.67 34.3399 1061.87 32.2399 1059.97 30.5399C1058.07 28.8399 1055.77 27.7399 1053.37 26.6399C1052.87 26.3399 1053.67 25.5399 1054.07 25.6399Z" fill="#FEC10B"/>
<path d="M1070.87 20.04C1069.27 22.64 1067.07 25.74 1064.07 26.74C1063.37 26.94 1063.37 26.14 1063.77 25.84C1064.87 24.84 1066.07 24.14 1067.07 23.04C1068.07 22.04 1068.97 20.84 1069.97 19.74C1070.27 19.24 1071.37 19.34 1070.87 20.04Z" fill="#FEC10B"/>
<path d="M1064.47 25.4399C1065.97 25.8399 1067.37 26.4399 1068.57 27.4399C1069.67 28.4399 1070.87 30.0399 1070.77 31.5399C1070.77 32.0399 1069.97 32.7399 1069.47 32.2399C1068.97 31.6399 1068.77 30.9399 1068.37 30.2399C1068.07 29.6399 1067.67 29.1399 1067.17 28.6399C1066.17 27.6399 1064.87 27.0399 1063.67 26.4399C1063.07 26.2399 1063.97 25.2399 1064.47 25.4399Z" fill="#FEC10B"/>
<path d="M1070.17 25.74C1072.87 24.54 1075.97 23.54 1078.97 23.74C1080.07 23.84 1083.37 24.34 1082.97 26.04C1082.67 27.44 1080.07 28.24 1078.87 28.44C1075.87 28.84 1072.77 28.14 1070.07 26.84C1069.37 26.44 1070.37 25.44 1070.97 25.54C1072.57 25.94 1074.17 26.34 1075.77 26.64C1076.97 26.84 1078.17 26.94 1079.37 26.74C1079.87 26.64 1080.37 26.54 1080.77 26.24C1081.37 25.94 1081.47 25.84 1080.97 26.04C1080.97 25.94 1078.97 25.44 1078.97 25.44C1077.77 25.24 1076.67 25.24 1075.47 25.44C1073.67 25.64 1071.97 26.34 1070.17 26.64C1069.57 26.74 1069.77 25.94 1070.17 25.74Z" fill="#FEC10B"/>
</g>
<path d="M1030.88 27.3684C987.604 28.4737 944.186 27.6842 900.906 27.6842C859.281 27.6842 817.655 27.6842 776.167 27.8421C751.219 27.8421 726.271 27.8421 701.461 27.8421C699.669 27.8421 700.772 25 702.15 25C702.288 25 702.426 25 702.563 25C704.355 25 703.253 27.8421 701.874 27.8421C698.153 27.8421 694.569 27.8421 690.848 27.6842C689.056 27.6842 690.434 24.5263 691.95 25.3158C691.537 25.1579 691.399 25.1579 691.812 25.1579C693.466 25.1579 692.364 27.6842 691.261 27.6842C690.985 27.6842 690.985 27.6842 691.261 27.6842C689.607 28.3158 690.021 25.3158 691.537 25.3158C695.258 25.1579 698.98 25.1579 702.563 25.1579C704.355 25.1579 703.253 28 701.874 28C701.736 28 701.599 28 701.461 28C699.669 28 700.772 25.1579 702.15 25.1579C787.056 25.1579 871.961 25.3158 956.729 25.3158C981.677 25.3158 1006.49 25 1031.43 25.6316C1032.54 25.4737 1031.85 27.2105 1030.88 27.3684Z" fill="#FEC10B" fill-opacity="0.3"/>
<g opacity="0.5">
<path d="M33.3335 8.83999C33.0335 6.13999 30.4335 4.73999 27.9335 5.03999C24.5335 5.43999 22.6335 8.63998 23.5335 11.84C25.4335 18.44 33.5335 24.04 40.0335 25.24C40.9335 25.34 40.4335 24.24 40.0335 24.04C36.0335 21.94 31.8335 20.64 28.6335 17.24C27.2335 15.74 25.6335 13.74 25.1335 11.74C24.2335 7.83998 30.4335 3.63999 32.2335 8.73998C32.4335 8.93999 33.4335 9.43999 33.3335 8.83999Z" fill="#FEC10B"/>
<path d="M39.5334 27.6401C35.2334 27.8401 30.2334 29.9401 27.0334 32.9401C24.5334 35.2401 22.0334 39.2401 23.1334 42.8401C24.1334 45.9401 26.7334 47.7401 30.0334 47.5401C34.2334 47.2401 36.6334 43.1401 33.9334 39.6401C33.5334 39.1401 32.3334 39.1401 32.8334 40.0401C34.8334 43.9401 29.2334 47.7401 26.1334 44.8401C24.4334 43.2401 24.6334 41.1401 25.4334 39.2401C27.8334 33.0401 34.1334 30.5401 40.0334 28.5401C40.5334 28.2401 39.9334 27.5401 39.5334 27.6401Z" fill="#FEC10B"/>
<path d="M17.1334 14.9401C18.7334 17.4401 20.5334 19.8401 22.5334 22.0401C24.3334 23.8401 26.3334 26.0401 28.8334 26.9401C29.7334 27.2401 29.7334 26.2401 29.2334 25.7401C27.2334 23.9401 24.9334 22.5401 23.0334 20.5401C21.2334 18.6401 19.6334 16.6401 18.0334 14.6401C17.7334 14.1401 16.7334 14.2401 17.1334 14.9401Z" fill="#FEC10B"/>
<path d="M28.9335 25.6399C24.4335 26.6399 17.9335 30.3399 17.3335 35.4399C17.2335 36.0399 18.3335 36.7399 18.7335 36.2399C20.3335 34.3399 21.1335 32.2399 23.0335 30.5399C24.9335 28.8399 27.2335 27.7399 29.6335 26.6399C30.1335 26.3399 29.3335 25.5399 28.9335 25.6399Z" fill="#FEC10B"/>
<path d="M12.1334 20.04C13.7334 22.64 15.9334 25.74 18.9334 26.74C19.6334 26.94 19.6334 26.14 19.2334 25.84C18.1334 24.84 16.9334 24.14 15.9334 23.04C14.9334 22.04 14.0334 20.84 13.0334 19.74C12.7334 19.24 11.6334 19.34 12.1334 20.04Z" fill="#FEC10B"/>
<path d="M18.5334 25.4399C17.0334 25.8399 15.6334 26.4399 14.4334 27.4399C13.3334 28.4399 12.1334 30.0399 12.2334 31.5399C12.2334 32.0399 13.0334 32.7399 13.5334 32.2399C14.0334 31.6399 14.2334 30.9399 14.6334 30.2399C14.9334 29.6399 15.3334 29.1399 15.8334 28.6399C16.8334 27.6399 18.1334 27.0399 19.3334 26.4399C19.9334 26.2399 19.0334 25.2399 18.5334 25.4399Z" fill="#FEC10B"/>
<path d="M12.8334 25.74C10.1334 24.54 7.03343 23.54 4.03343 23.74C2.93343 23.84 -0.36657 24.34 0.0334303 26.04C0.33343 27.44 2.93343 28.24 4.13343 28.44C7.13343 28.84 10.2334 28.14 12.9334 26.84C13.6334 26.44 12.6334 25.44 12.0334 25.54C10.4334 25.94 8.83343 26.34 7.23343 26.64C6.03343 26.84 4.83343 26.94 3.63343 26.74C3.13343 26.64 2.63343 26.54 2.23343 26.24C1.63343 25.94 1.53343 25.84 2.03343 26.04C2.03343 25.94 4.03343 25.44 4.03343 25.44C5.23343 25.24 6.33343 25.24 7.53343 25.44C9.33343 25.64 11.0334 26.34 12.8334 26.64C13.4334 26.74 13.2334 25.94 12.8334 25.74Z" fill="#FEC10B"/>
</g>
<path d="M52.1229 27.3684C95.6558 28.4737 139.327 27.6842 182.86 27.6842C224.73 27.6842 266.599 27.6842 308.329 27.8421C333.423 27.8421 358.517 27.8421 383.472 27.8421C385.275 27.8421 384.165 25 382.779 25C382.64 25 382.502 25 382.363 25C380.561 25 381.67 27.8421 383.056 27.8421C386.8 27.8421 390.404 27.8421 394.148 27.6842C395.95 27.6842 394.563 24.5263 393.038 25.3158C393.454 25.1579 393.593 25.1579 393.177 25.1579C391.513 25.1579 392.622 27.6842 393.732 27.6842C394.009 27.6842 394.009 27.6842 393.732 27.6842C395.395 28.3158 394.979 25.3158 393.454 25.3158C389.711 25.1579 385.968 25.1579 382.363 25.1579C380.561 25.1579 381.67 28 383.056 28C383.195 28 383.334 28 383.472 28C385.275 28 384.165 25.1579 382.779 25.1579C297.377 25.1579 211.975 25.3158 126.711 25.3158C101.617 25.3158 76.6621 25 51.5683 25.6316C50.4592 25.4737 51.1524 27.2105 52.1229 27.3684Z" fill="#FEC10B" fill-opacity="0.3"/>
</svg>
