<svg width="1054" height="48" viewBox="0 0 1054 48" fill="none" xmlns="http://www.w3.org/2000/svg">
<rect x="455" y="25" width="146" height="14" fill="#FEC10B" fill-opacity="0.3"/>
<path d="M474.692 34.64C475.316 34.64 475.844 34.424 476.276 33.992C476.732 33.56 476.972 33.032 476.996 32.408V23.084H462.272V32.372C462.272 32.996 462.5 33.536 462.956 33.992C463.412 34.424 463.952 34.64 464.576 34.64H465.044V35H457.16V34.64H457.628C458.252 34.64 458.78 34.424 459.212 33.992C459.668 33.536 459.908 32.996 459.932 32.372V12.392C459.908 11.768 459.668 11.24 459.212 10.808C458.78 10.376 458.252 10.16 457.628 10.16H457.16V9.8H465.044V10.16H464.576C463.952 10.16 463.412 10.376 462.956 10.808C462.524 11.24 462.296 11.768 462.272 12.392V22.004H476.996V12.392C476.972 11.528 476.588 10.88 475.844 10.448C475.484 10.256 475.1 10.16 474.692 10.16H474.224V9.8H482.108V10.16H481.64C481.016 10.16 480.476 10.388 480.02 10.844C479.588 11.276 479.36 11.804 479.336 12.428V32.372C479.36 32.996 479.588 33.536 480.02 33.992C480.476 34.424 481.016 34.64 481.64 34.64H482.108V35H474.224V34.64H474.692ZM486.242 34.64C486.89 34.64 487.454 34.448 487.934 34.064C488.414 33.68 488.654 33.224 488.654 32.696V15.704C488.654 15.176 488.414 14.72 487.934 14.336C487.454 13.952 486.878 13.76 486.206 13.76H485.738V13.4H493.874V13.76H493.406C492.758 13.76 492.194 13.94 491.714 14.3C491.258 14.66 491.006 15.104 490.958 15.632V32.732C490.982 33.26 491.234 33.716 491.714 34.1C492.194 34.46 492.758 34.64 493.406 34.64H493.874L493.91 35H485.738V34.64H486.242ZM504.564 14.516H502.656V32.696C502.68 33.44 503.016 34.004 503.664 34.388C503.976 34.556 504.324 34.64 504.708 34.64H505.176L505.212 35H497.832V34.64H498.336C498.888 34.64 499.356 34.46 499.74 34.1C500.148 33.716 500.352 33.26 500.352 32.732V15.632C500.352 15.104 500.148 14.66 499.74 14.3C499.356 13.94 498.888 13.76 498.336 13.76H497.832V13.4H506.868C509.124 13.4 510.9 13.916 512.196 14.948C513.516 15.98 514.176 17.336 514.176 19.016C514.176 20.696 513.648 22.1 512.592 23.228C511.536 24.356 510.192 25.004 508.56 25.172C509.328 25.508 510.252 26.444 511.332 27.98C511.308 27.98 511.716 28.508 512.556 29.564C513.42 30.62 514.104 31.448 514.608 32.048C515.136 32.624 515.568 33.068 515.904 33.38C516.792 34.22 517.812 34.64 518.964 34.64V35H517.848C515.952 35 514.464 34.628 513.384 33.884C512.568 33.332 511.824 32.648 511.152 31.832C511.008 31.64 510.396 30.8 509.316 29.312C508.26 27.8 507.696 26.996 507.624 26.9C506.328 25.292 505.116 24.488 503.988 24.488V24.128C506.796 24.128 508.488 23.984 509.064 23.696C509.856 23.288 510.396 22.856 510.684 22.4C511.284 21.44 511.584 20.384 511.584 19.232C511.584 17.768 511.152 16.64 510.288 15.848C509.424 15.056 508.26 14.624 506.796 14.552C506.148 14.528 505.404 14.516 504.564 14.516ZM520.906 34.64C521.482 34.64 521.962 34.46 522.346 34.1C522.754 33.716 522.97 33.26 522.994 32.732V15.632C522.994 15.104 522.79 14.66 522.382 14.3C521.974 13.94 521.482 13.76 520.906 13.76H520.402V13.4H530.914C531.898 13.4 532.762 13.328 533.506 13.184C534.25 13.04 534.73 12.92 534.946 12.824V16.928L534.55 16.892V16.352C534.55 15.848 534.382 15.416 534.046 15.056C533.71 14.696 533.278 14.516 532.75 14.516H525.262V23.66H531.418C531.898 23.66 532.258 23.516 532.498 23.228C532.762 22.94 532.894 22.58 532.894 22.148V21.68H533.29V26.72H532.894V26.252C532.894 25.58 532.642 25.124 532.138 24.884C531.946 24.812 531.742 24.764 531.526 24.74H525.262V33.884H530.914C532.018 33.884 532.942 33.692 533.686 33.308C534.454 32.924 535.03 32.468 535.414 31.94C535.822 31.412 536.23 30.716 536.638 29.852H536.998L535.018 35H520.402V34.64H520.906ZM579.474 34.64H580.05V35H572.238V34.676H572.778C573.186 34.676 573.534 34.52 573.822 34.208C574.11 33.872 574.23 33.512 574.182 33.128L572.562 15.02L565.002 31.832C564.33 33.296 563.922 34.52 563.778 35.504H563.418L554.202 15.524L552.654 33.128C552.606 33.512 552.726 33.872 553.014 34.208C553.302 34.52 553.638 34.676 554.022 34.676H554.598V35H547.614V34.64H548.19C548.862 34.64 549.438 34.436 549.918 34.028C550.422 33.62 550.722 33.068 550.818 32.372L553.518 9.296H553.878L563.922 31.004L573.75 9.296H574.074L576.846 32.372C576.966 33.332 577.446 34.004 578.286 34.388C578.646 34.556 579.042 34.64 579.474 34.64ZM583.062 34.64C583.638 34.64 584.118 34.46 584.502 34.1C584.91 33.716 585.126 33.26 585.15 32.732V15.632C585.15 15.104 584.946 14.66 584.538 14.3C584.13 13.94 583.638 13.76 583.062 13.76H582.558V13.4H593.07C594.054 13.4 594.918 13.328 595.662 13.184C596.406 13.04 596.886 12.92 597.102 12.824V16.928L596.706 16.892V16.352C596.706 15.848 596.538 15.416 596.202 15.056C595.866 14.696 595.434 14.516 594.906 14.516H587.418V23.66H593.574C594.054 23.66 594.414 23.516 594.654 23.228C594.918 22.94 595.05 22.58 595.05 22.148V21.68H595.446V26.72H595.05V26.252C595.05 25.58 594.798 25.124 594.294 24.884C594.102 24.812 593.898 24.764 593.682 24.74H587.418V33.884H593.07C594.174 33.884 595.098 33.692 595.842 33.308C596.61 32.924 597.186 32.468 597.57 31.94C597.978 31.412 598.386 30.716 598.794 29.852H599.154L597.174 35H582.558V34.64H583.062Z" fill="black"/>
<g opacity="0.5">
<path d="M33.3335 8.83999C33.0335 6.13999 30.4335 4.73999 27.9335 5.03999C24.5335 5.43999 22.6335 8.63998 23.5335 11.84C25.4335 18.44 33.5335 24.04 40.0335 25.24C40.9335 25.34 40.4335 24.24 40.0335 24.04C36.0335 21.94 31.8335 20.64 28.6335 17.24C27.2335 15.74 25.6335 13.74 25.1335 11.74C24.2335 7.83998 30.4335 3.63999 32.2335 8.73998C32.4335 8.93999 33.4335 9.43999 33.3335 8.83999Z" fill="#FEC10B"/>
<path d="M39.5334 27.6401C35.2334 27.8401 30.2334 29.9401 27.0334 32.9401C24.5334 35.2401 22.0334 39.2401 23.1334 42.8401C24.1334 45.9401 26.7334 47.7401 30.0334 47.5401C34.2334 47.2401 36.6334 43.1401 33.9334 39.6401C33.5334 39.1401 32.3334 39.1401 32.8334 40.0401C34.8334 43.9401 29.2334 47.7401 26.1334 44.8401C24.4334 43.2401 24.6334 41.1401 25.4334 39.2401C27.8334 33.0401 34.1334 30.5401 40.0334 28.5401C40.5334 28.2401 39.9334 27.5401 39.5334 27.6401Z" fill="#FEC10B"/>
<path d="M17.1334 14.9401C18.7334 17.4401 20.5334 19.8401 22.5334 22.0401C24.3334 23.8401 26.3334 26.0401 28.8334 26.9401C29.7334 27.2401 29.7334 26.2401 29.2334 25.7401C27.2334 23.9401 24.9334 22.5401 23.0334 20.5401C21.2334 18.6401 19.6334 16.6401 18.0334 14.6401C17.7334 14.1401 16.7334 14.2401 17.1334 14.9401Z" fill="#FEC10B"/>
<path d="M28.9335 25.6399C24.4335 26.6399 17.9335 30.3399 17.3335 35.4399C17.2335 36.0399 18.3335 36.7399 18.7335 36.2399C20.3335 34.3399 21.1335 32.2399 23.0335 30.5399C24.9335 28.8399 27.2335 27.7399 29.6335 26.6399C30.1335 26.3399 29.3335 25.5399 28.9335 25.6399Z" fill="#FEC10B"/>
<path d="M12.1334 20.04C13.7334 22.64 15.9334 25.74 18.9334 26.74C19.6334 26.94 19.6334 26.14 19.2334 25.84C18.1334 24.84 16.9334 24.14 15.9334 23.04C14.9334 22.04 14.0334 20.84 13.0334 19.74C12.7334 19.24 11.6334 19.34 12.1334 20.04Z" fill="#FEC10B"/>
<path d="M18.5334 25.4399C17.0334 25.8399 15.6334 26.4399 14.4334 27.4399C13.3334 28.4399 12.1334 30.0399 12.2334 31.5399C12.2334 32.0399 13.0334 32.7399 13.5334 32.2399C14.0334 31.6399 14.2334 30.9399 14.6334 30.2399C14.9334 29.6399 15.3334 29.1399 15.8334 28.6399C16.8334 27.6399 18.1334 27.0399 19.3334 26.4399C19.9334 26.2399 19.0334 25.2399 18.5334 25.4399Z" fill="#FEC10B"/>
<path d="M12.8334 25.74C10.1334 24.54 7.03343 23.54 4.03343 23.74C2.93343 23.84 -0.36657 24.34 0.0334303 26.04C0.33343 27.44 2.93343 28.24 4.13343 28.44C7.13343 28.84 10.2334 28.14 12.9334 26.84C13.6334 26.44 12.6334 25.44 12.0334 25.54C10.4334 25.94 8.83343 26.34 7.23343 26.64C6.03343 26.84 4.83343 26.94 3.63343 26.74C3.13343 26.64 2.63343 26.54 2.23343 26.24C1.63343 25.94 1.53343 25.84 2.03343 26.04C2.03343 25.94 4.03343 25.44 4.03343 25.44C5.23343 25.24 6.33343 25.24 7.53343 25.44C9.33343 25.64 11.0334 26.34 12.8334 26.64C13.4334 26.74 13.2334 25.94 12.8334 25.74Z" fill="#FEC10B"/>
</g>
<path d="M52.1229 27.3684C95.6558 28.4737 139.327 27.6842 182.86 27.6842C224.73 27.6842 266.599 27.6842 308.329 27.8421C333.423 27.8421 358.517 27.8421 383.472 27.8421C385.275 27.8421 384.165 25 382.779 25C382.64 25 382.502 25 382.363 25C380.561 25 381.67 27.8421 383.056 27.8421C386.8 27.8421 390.404 27.8421 394.148 27.6842C395.95 27.6842 394.563 24.5263 393.038 25.3158C393.454 25.1579 393.593 25.1579 393.177 25.1579C391.513 25.1579 392.622 27.6842 393.732 27.6842C394.009 27.6842 394.009 27.6842 393.732 27.6842C395.395 28.3158 394.979 25.3158 393.454 25.3158C389.711 25.1579 385.968 25.1579 382.363 25.1579C380.561 25.1579 381.67 28 383.056 28C383.195 28 383.334 28 383.472 28C385.275 28 384.165 25.1579 382.779 25.1579C297.377 25.1579 211.975 25.3158 126.711 25.3158C101.617 25.3158 76.6621 25 51.5683 25.6316C50.4592 25.4737 51.1524 27.2105 52.1229 27.3684Z" fill="#FEC10B" fill-opacity="0.3"/>
<g opacity="0.5">
<path d="M1020.67 8.83999C1020.97 6.13999 1023.57 4.73999 1026.07 5.03999C1029.47 5.43999 1031.37 8.63998 1030.47 11.84C1028.57 18.44 1020.47 24.04 1013.97 25.24C1013.07 25.34 1013.57 24.24 1013.97 24.04C1017.97 21.94 1022.17 20.64 1025.37 17.24C1026.77 15.74 1028.37 13.74 1028.87 11.74C1029.77 7.83998 1023.57 3.63999 1021.77 8.73998C1021.57 8.93999 1020.57 9.43999 1020.67 8.83999Z" fill="#FEC10B"/>
<path d="M1014.47 27.6401C1018.77 27.8401 1023.77 29.9401 1026.97 32.9401C1029.47 35.2401 1031.97 39.2401 1030.87 42.8401C1029.87 45.9401 1027.27 47.7401 1023.97 47.5401C1019.77 47.2401 1017.37 43.1401 1020.07 39.6401C1020.47 39.1401 1021.67 39.1401 1021.17 40.0401C1019.17 43.9401 1024.77 47.7401 1027.87 44.8401C1029.57 43.2401 1029.37 41.1401 1028.57 39.2401C1026.17 33.0401 1019.87 30.5401 1013.97 28.5401C1013.47 28.2401 1014.07 27.5401 1014.47 27.6401Z" fill="#FEC10B"/>
<path d="M1036.87 14.9401C1035.27 17.4401 1033.47 19.8401 1031.47 22.0401C1029.67 23.8401 1027.67 26.0401 1025.17 26.9401C1024.27 27.2401 1024.27 26.2401 1024.77 25.7401C1026.77 23.9401 1029.07 22.5401 1030.97 20.5401C1032.77 18.6401 1034.37 16.6401 1035.97 14.6401C1036.27 14.1401 1037.27 14.2401 1036.87 14.9401Z" fill="#FEC10B"/>
<path d="M1025.07 25.6399C1029.57 26.6399 1036.07 30.3399 1036.67 35.4399C1036.77 36.0399 1035.67 36.7399 1035.27 36.2399C1033.67 34.3399 1032.87 32.2399 1030.97 30.5399C1029.07 28.8399 1026.77 27.7399 1024.37 26.6399C1023.87 26.3399 1024.67 25.5399 1025.07 25.6399Z" fill="#FEC10B"/>
<path d="M1041.87 20.04C1040.27 22.64 1038.07 25.74 1035.07 26.74C1034.37 26.94 1034.37 26.14 1034.77 25.84C1035.87 24.84 1037.07 24.14 1038.07 23.04C1039.07 22.04 1039.97 20.84 1040.97 19.74C1041.27 19.24 1042.37 19.34 1041.87 20.04Z" fill="#FEC10B"/>
<path d="M1035.47 25.4399C1036.97 25.8399 1038.37 26.4399 1039.57 27.4399C1040.67 28.4399 1041.87 30.0399 1041.77 31.5399C1041.77 32.0399 1040.97 32.7399 1040.47 32.2399C1039.97 31.6399 1039.77 30.9399 1039.37 30.2399C1039.07 29.6399 1038.67 29.1399 1038.17 28.6399C1037.17 27.6399 1035.87 27.0399 1034.67 26.4399C1034.07 26.2399 1034.97 25.2399 1035.47 25.4399Z" fill="#FEC10B"/>
<path d="M1041.17 25.74C1043.87 24.54 1046.97 23.54 1049.97 23.74C1051.07 23.84 1054.37 24.34 1053.97 26.04C1053.67 27.44 1051.07 28.24 1049.87 28.44C1046.87 28.84 1043.77 28.14 1041.07 26.84C1040.37 26.44 1041.37 25.44 1041.97 25.54C1043.57 25.94 1045.17 26.34 1046.77 26.64C1047.97 26.84 1049.17 26.94 1050.37 26.74C1050.87 26.64 1051.37 26.54 1051.77 26.24C1052.37 25.94 1052.47 25.84 1051.97 26.04C1051.97 25.94 1049.97 25.44 1049.97 25.44C1048.77 25.24 1047.67 25.24 1046.47 25.44C1044.67 25.64 1042.97 26.34 1041.17 26.64C1040.57 26.74 1040.77 25.94 1041.17 25.74Z" fill="#FEC10B"/>
</g>
<path d="M1001.88 27.3684C958.604 28.4737 915.186 27.6842 871.906 27.6842C830.281 27.6842 788.655 27.6842 747.167 27.8421C722.219 27.8421 697.271 27.8421 672.461 27.8421C670.669 27.8421 671.772 25 673.15 25C673.288 25 673.426 25 673.563 25C675.355 25 674.253 27.8421 672.874 27.8421C669.153 27.8421 665.569 27.8421 661.848 27.6842C660.056 27.6842 661.434 24.5263 662.95 25.3158C662.537 25.1579 662.399 25.1579 662.812 25.1579C664.466 25.1579 663.364 27.6842 662.261 27.6842C661.985 27.6842 661.985 27.6842 662.261 27.6842C660.607 28.3158 661.021 25.3158 662.537 25.3158C666.258 25.1579 669.98 25.1579 673.563 25.1579C675.355 25.1579 674.253 28 672.874 28C672.736 28 672.599 28 672.461 28C670.669 28 671.772 25.1579 673.15 25.1579C758.056 25.1579 842.961 25.3158 927.729 25.3158C952.677 25.3158 977.487 25 1002.43 25.6316C1003.54 25.4737 1002.85 27.2105 1001.88 27.3684Z" fill="#FEC10B" fill-opacity="0.3"/>
</svg>
