<svg width="265" height="48" viewBox="0 0 265 48" fill="none" xmlns="http://www.w3.org/2000/svg">
<rect y="25" width="265" height="14" fill="#FEC10B" fill-opacity="0.3"/>
<path d="M10.944 35H2.16L2.196 34.64H2.628C3.252 34.64 3.78 34.424 4.212 33.992C4.668 33.56 4.908 33.032 4.932 32.408V12.392C4.932 11.768 4.704 11.24 4.248 10.808C3.792 10.376 3.252 10.16 2.628 10.16H2.196L2.16 9.8H9.324C11.796 9.8 13.716 10.352 15.084 11.456C16.452 12.536 17.136 13.988 17.136 15.812C17.136 17.252 16.752 18.452 15.984 19.412C15.216 20.348 14.28 20.972 13.176 21.284C15.072 21.572 16.572 22.352 17.676 23.624C18.78 24.896 19.332 26.504 19.332 28.448C19.332 30.368 18.588 31.94 17.1 33.164C15.636 34.388 13.584 35 10.944 35ZM7.272 33.704H10.8C10.824 33.704 10.848 33.704 10.872 33.704C12.696 33.704 14.112 33.212 15.12 32.228C16.128 31.22 16.632 29.804 16.632 27.98C16.632 26.948 16.452 26.048 16.092 25.28C15.756 24.488 15.324 23.864 14.796 23.408C13.404 22.256 11.316 21.68 8.532 21.68C8.532 21.68 8.52 21.68 8.496 21.68V21.356C8.52 21.356 8.628 21.356 8.82 21.356C9.036 21.356 9.336 21.332 9.72 21.284C10.104 21.236 10.536 21.152 11.016 21.032C11.496 20.912 11.928 20.72 12.312 20.456C12.696 20.192 13.056 19.88 13.392 19.52C14.088 18.728 14.436 17.552 14.436 15.992C14.436 14.408 13.98 13.172 13.068 12.284C12.18 11.396 10.884 10.952 9.18 10.952H7.272V33.704ZM23.2262 34.64C23.8022 34.64 24.2822 34.46 24.6662 34.1C25.0742 33.716 25.2902 33.26 25.3142 32.732V15.632C25.3142 15.104 25.1102 14.66 24.7022 14.3C24.2942 13.94 23.8022 13.76 23.2262 13.76H22.7222V13.4H33.2342C34.2182 13.4 35.0822 13.328 35.8262 13.184C36.5702 13.04 37.0502 12.92 37.2662 12.824V16.928L36.8702 16.892V16.352C36.8702 15.848 36.7022 15.416 36.3662 15.056C36.0302 14.696 35.5982 14.516 35.0702 14.516H27.5822V23.66H33.7382C34.2182 23.66 34.5782 23.516 34.8182 23.228C35.0822 22.94 35.2142 22.58 35.2142 22.148V21.68H35.6102V26.72H35.2142V26.252C35.2142 25.58 34.9622 25.124 34.4582 24.884C34.2662 24.812 34.0622 24.764 33.8462 24.74H27.5822V33.884H33.2342C34.3382 33.884 35.2622 33.692 36.0062 33.308C36.7742 32.924 37.3502 32.468 37.7342 31.94C38.1422 31.412 38.5502 30.716 38.9582 29.852H39.3182L37.3382 35H22.7222V34.64H23.2262ZM42.4825 33.812C42.4105 33.524 42.3745 32.936 42.3745 32.048C42.3745 31.16 42.5305 30.26 42.8425 29.348H43.2745C43.2505 29.564 43.2385 29.78 43.2385 29.996C43.2385 31.292 43.6585 32.36 44.4985 33.2C45.3625 34.016 46.5505 34.424 48.0625 34.424C49.6465 34.424 50.8825 34.064 51.7705 33.344C52.6585 32.6 53.1025 31.652 53.1025 30.5C53.1025 29.324 52.6705 28.352 51.8065 27.584L44.6065 22.04C43.4545 21.056 42.8785 19.736 42.8785 18.08C42.8785 17.144 43.1305 16.28 43.6345 15.488C44.1625 14.696 44.8825 14.072 45.7945 13.616C46.7305 13.136 47.8225 12.896 49.0705 12.896C50.3185 12.896 51.4225 13.004 52.3825 13.22H53.5705L53.6425 17.144H53.2465C53.2465 16.136 52.8985 15.356 52.2025 14.804C51.5065 14.252 50.5105 13.976 49.2145 13.976C47.9185 13.976 46.8505 14.312 46.0105 14.984C45.1705 15.632 44.7505 16.484 44.7505 17.54C44.7505 18.572 45.2185 19.472 46.1545 20.24L53.4265 25.856C54.5305 26.768 55.0825 28.04 55.0825 29.672C55.0825 31.304 54.4585 32.684 53.2105 33.812C51.9865 34.94 50.4865 35.504 48.7105 35.504C47.5345 35.504 46.3585 35.36 45.1825 35.072C44.0065 34.784 43.1065 34.364 42.4825 33.812ZM68.6154 14.444V32.732C68.6394 33.476 68.9994 34.028 69.6954 34.388C70.0074 34.556 70.3554 34.64 70.7394 34.64H71.1354V35H63.7194V34.64H64.1514C64.7274 34.64 65.2194 34.448 65.6274 34.064C66.0354 33.68 66.2514 33.224 66.2754 32.696V14.444H59.7594C59.2074 14.444 58.7634 14.624 58.4274 14.984C58.1154 15.344 57.9594 15.776 57.9594 16.28V16.856H57.5634V12.788C58.0434 12.98 58.7154 13.124 59.5794 13.22C60.4674 13.316 61.1274 13.364 61.5594 13.364H73.2954C75.0234 13.364 76.3674 13.172 77.3274 12.788V16.856H76.9314V16.28C76.9314 15.776 76.7634 15.344 76.4274 14.984C76.0914 14.624 75.6594 14.444 75.1314 14.444H68.6154ZM119.236 34.64H119.812V35H112V34.676H112.54C112.948 34.676 113.296 34.52 113.584 34.208C113.872 33.872 113.992 33.512 113.944 33.128L112.324 15.02L104.764 31.832C104.092 33.296 103.684 34.52 103.54 35.504H103.18L93.9639 15.524L92.4159 33.128C92.3679 33.512 92.4879 33.872 92.7759 34.208C93.0639 34.52 93.3999 34.676 93.7839 34.676H94.3599V35H87.3759V34.64H87.9519C88.6239 34.64 89.1999 34.436 89.6799 34.028C90.1839 33.62 90.4839 33.068 90.5799 32.372L93.2799 9.296H93.6399L103.684 31.004L113.512 9.296H113.836L116.608 32.372C116.728 33.332 117.208 34.004 118.048 34.388C118.408 34.556 118.804 34.64 119.236 34.64ZM127.836 14.336C129.684 13.376 131.712 12.896 133.92 12.896C136.152 12.896 138.192 13.376 140.04 14.336C141.888 15.272 143.352 16.604 144.432 18.332C145.536 20.06 146.088 22.016 146.088 24.2C146.088 26.384 145.536 28.34 144.432 30.068C143.352 31.796 141.888 33.14 140.04 34.1C138.192 35.036 136.296 35.504 134.352 35.504C132.408 35.504 130.692 35.228 129.204 34.676C127.716 34.124 126.42 33.356 125.316 32.372C124.236 31.388 123.372 30.188 122.724 28.772C122.1 27.356 121.788 25.7 121.788 23.804C121.788 21.884 122.328 20.06 123.408 18.332C124.512 16.604 125.988 15.272 127.836 14.336ZM127.152 31.58C128.976 33.476 131.232 34.424 133.92 34.424C136.608 34.424 138.864 33.476 140.688 31.58C142.512 29.66 143.424 27.2 143.424 24.2C143.424 21.2 142.512 18.752 140.688 16.856C138.864 14.936 136.608 13.976 133.92 13.976C131.232 13.976 128.976 14.936 127.152 16.856C125.352 18.752 124.452 21.2 124.452 24.2C124.452 27.2 125.352 29.66 127.152 31.58ZM178.332 34.64H178.872V35H171.384V34.676H171.924C172.284 34.676 172.596 34.544 172.86 34.28C173.148 33.992 173.268 33.656 173.22 33.272L171.348 18.44L164.544 31.832C163.872 33.296 163.452 34.52 163.284 35.504H162.924L154.248 18.764L152.628 33.272C152.58 33.632 152.688 33.956 152.952 34.244C153.24 34.532 153.576 34.676 153.96 34.676H154.464V35H147.804V34.64H148.344C149.208 34.64 149.88 34.328 150.36 33.704C150.6 33.392 150.744 33.02 150.792 32.588L153.6 12.896H153.96L163.464 31.184L172.644 12.896H172.968L175.884 32.66C175.98 33.26 176.256 33.74 176.712 34.1C177.168 34.46 177.708 34.64 178.332 34.64ZM181.605 34.64C182.181 34.64 182.661 34.46 183.045 34.1C183.453 33.716 183.669 33.26 183.693 32.732V15.632C183.693 15.104 183.489 14.66 183.081 14.3C182.673 13.94 182.181 13.76 181.605 13.76H181.101V13.4H191.613C192.597 13.4 193.461 13.328 194.205 13.184C194.949 13.04 195.429 12.92 195.645 12.824V16.928L195.249 16.892V16.352C195.249 15.848 195.081 15.416 194.745 15.056C194.409 14.696 193.977 14.516 193.449 14.516H185.961V23.66H192.117C192.597 23.66 192.957 23.516 193.197 23.228C193.461 22.94 193.593 22.58 193.593 22.148V21.68H193.989V26.72H193.593V26.252C193.593 25.58 193.341 25.124 192.837 24.884C192.645 24.812 192.441 24.764 192.225 24.74H185.961V33.884H191.613C192.717 33.884 193.641 33.692 194.385 33.308C195.153 32.924 195.729 32.468 196.113 31.94C196.521 31.412 196.929 30.716 197.337 29.852H197.697L195.717 35H181.101V34.64H181.605ZM224.945 13.76C224.417 13.76 223.961 13.94 223.577 14.3C223.193 14.636 222.989 15.056 222.965 15.56V30.896C222.965 32.288 223.049 33.608 223.217 34.856L223.289 35.504H222.965L204.245 17.756V32.768C204.245 33.296 204.437 33.74 204.821 34.1C205.205 34.46 205.673 34.64 206.225 34.64H206.837V35H200.033V34.64H200.645C201.197 34.64 201.665 34.46 202.049 34.1C202.433 33.74 202.625 33.296 202.625 32.768V17.36C202.625 15.896 202.541 14.588 202.373 13.436L202.301 12.86L202.697 12.896L221.381 30.5V15.56C221.333 15.056 221.117 14.636 220.733 14.3C220.349 13.94 219.893 13.76 219.365 13.76H218.753V13.4H225.557V13.76H224.945ZM238.42 14.444V32.732C238.444 33.476 238.804 34.028 239.5 34.388C239.812 34.556 240.16 34.64 240.544 34.64H240.94V35H233.524V34.64H233.956C234.532 34.64 235.024 34.448 235.432 34.064C235.84 33.68 236.056 33.224 236.08 32.696V14.444H229.564C229.012 14.444 228.568 14.624 228.232 14.984C227.92 15.344 227.764 15.776 227.764 16.28V16.856H227.368V12.788C227.848 12.98 228.52 13.124 229.384 13.22C230.272 13.316 230.932 13.364 231.364 13.364H243.1C244.828 13.364 246.172 13.172 247.132 12.788V16.856H246.736V16.28C246.736 15.776 246.568 15.344 246.232 14.984C245.896 14.624 245.464 14.444 244.936 14.444H238.42ZM249.729 33.812C249.657 33.524 249.621 32.936 249.621 32.048C249.621 31.16 249.777 30.26 250.089 29.348H250.521C250.497 29.564 250.485 29.78 250.485 29.996C250.485 31.292 250.905 32.36 251.745 33.2C252.609 34.016 253.797 34.424 255.309 34.424C256.893 34.424 258.129 34.064 259.017 33.344C259.905 32.6 260.349 31.652 260.349 30.5C260.349 29.324 259.917 28.352 259.053 27.584L251.853 22.04C250.701 21.056 250.125 19.736 250.125 18.08C250.125 17.144 250.377 16.28 250.881 15.488C251.409 14.696 252.129 14.072 253.041 13.616C253.977 13.136 255.069 12.896 256.317 12.896C257.565 12.896 258.669 13.004 259.629 13.22H260.817L260.889 17.144H260.493C260.493 16.136 260.145 15.356 259.449 14.804C258.753 14.252 257.757 13.976 256.461 13.976C255.165 13.976 254.097 14.312 253.257 14.984C252.417 15.632 251.997 16.484 251.997 17.54C251.997 18.572 252.465 19.472 253.401 20.24L260.673 25.856C261.777 26.768 262.329 28.04 262.329 29.672C262.329 31.304 261.705 32.684 260.457 33.812C259.233 34.94 257.733 35.504 255.957 35.504C254.781 35.504 253.605 35.36 252.429 35.072C251.253 34.784 250.353 34.364 249.729 33.812Z" fill="black"/>
</svg>
