<svg width="1083" height="48" viewBox="0 0 1083 48" fill="none" xmlns="http://www.w3.org/2000/svg">
<g opacity="0.5">
<path d="M1049.67 8.83999C1049.97 6.13999 1052.57 4.73999 1055.07 5.03999C1058.47 5.43999 1060.37 8.63998 1059.47 11.84C1057.57 18.44 1049.47 24.04 1042.97 25.24C1042.07 25.34 1042.57 24.24 1042.97 24.04C1046.97 21.94 1051.17 20.64 1054.37 17.24C1055.77 15.74 1057.37 13.74 1057.87 11.74C1058.77 7.83998 1052.57 3.63999 1050.77 8.73998C1050.57 8.93999 1049.57 9.43999 1049.67 8.83999Z" fill="#FEC10B"/>
<path d="M1043.47 27.6401C1047.77 27.8401 1052.77 29.9401 1055.97 32.9401C1058.47 35.2401 1060.97 39.2401 1059.87 42.8401C1058.87 45.9401 1056.27 47.7401 1052.97 47.5401C1048.77 47.2401 1046.37 43.1401 1049.07 39.6401C1049.47 39.1401 1050.67 39.1401 1050.17 40.0401C1048.17 43.9401 1053.77 47.7401 1056.87 44.8401C1058.57 43.2401 1058.37 41.1401 1057.57 39.2401C1055.17 33.0401 1048.87 30.5401 1042.97 28.5401C1042.47 28.2401 1043.07 27.5401 1043.47 27.6401Z" fill="#FEC10B"/>
<path d="M1065.87 14.9401C1064.27 17.4401 1062.47 19.8401 1060.47 22.0401C1058.67 23.8401 1056.67 26.0401 1054.17 26.9401C1053.27 27.2401 1053.27 26.2401 1053.77 25.7401C1055.77 23.9401 1058.07 22.5401 1059.97 20.5401C1061.77 18.6401 1063.37 16.6401 1064.97 14.6401C1065.27 14.1401 1066.27 14.2401 1065.87 14.9401Z" fill="#FEC10B"/>
<path d="M1054.07 25.6399C1058.57 26.6399 1065.07 30.3399 1065.67 35.4399C1065.77 36.0399 1064.67 36.7399 1064.27 36.2399C1062.67 34.3399 1061.87 32.2399 1059.97 30.5399C1058.07 28.8399 1055.77 27.7399 1053.37 26.6399C1052.87 26.3399 1053.67 25.5399 1054.07 25.6399Z" fill="#FEC10B"/>
<path d="M1070.87 20.0402C1069.27 22.6402 1067.07 25.7402 1064.07 26.7402C1063.37 26.9402 1063.37 26.1402 1063.77 25.8402C1064.87 24.8402 1066.07 24.1402 1067.07 23.0402C1068.07 22.0402 1068.97 20.8402 1069.97 19.7402C1070.27 19.2402 1071.37 19.3402 1070.87 20.0402Z" fill="#FEC10B"/>
<path d="M1064.47 25.4399C1065.97 25.8399 1067.37 26.4399 1068.57 27.4399C1069.67 28.4399 1070.87 30.0399 1070.77 31.5399C1070.77 32.0399 1069.97 32.7399 1069.47 32.2399C1068.97 31.6399 1068.77 30.9399 1068.37 30.2399C1068.07 29.6399 1067.67 29.1399 1067.17 28.6399C1066.17 27.6399 1064.87 27.0399 1063.67 26.4399C1063.07 26.2399 1063.97 25.2399 1064.47 25.4399Z" fill="#FEC10B"/>
<path d="M1070.17 25.74C1072.87 24.54 1075.97 23.54 1078.97 23.74C1080.07 23.84 1083.37 24.34 1082.97 26.04C1082.67 27.44 1080.07 28.24 1078.87 28.44C1075.87 28.84 1072.77 28.14 1070.07 26.84C1069.37 26.44 1070.37 25.44 1070.97 25.54C1072.57 25.94 1074.17 26.34 1075.77 26.64C1076.97 26.84 1078.17 26.94 1079.37 26.74C1079.87 26.64 1080.37 26.54 1080.77 26.24C1081.37 25.94 1081.47 25.84 1080.97 26.04C1080.97 25.94 1078.97 25.44 1078.97 25.44C1077.77 25.24 1076.67 25.24 1075.47 25.44C1073.67 25.64 1071.97 26.34 1070.17 26.64C1069.57 26.74 1069.77 25.94 1070.17 25.74Z" fill="#FEC10B"/>
</g>
<path d="M1030.88 27.3684C987.604 28.4737 944.186 27.6842 900.906 27.6842C859.281 27.6842 817.655 27.6842 776.167 27.8421C751.219 27.8421 726.271 27.8421 701.461 27.8421C699.669 27.8421 700.772 25 702.15 25C702.288 25 702.426 25 702.563 25C704.355 25 703.253 27.8421 701.874 27.8421C698.153 27.8421 694.569 27.8421 690.848 27.6842C689.056 27.6842 690.434 24.5263 691.95 25.3158C691.537 25.1579 691.399 25.1579 691.812 25.1579C693.466 25.1579 692.364 27.6842 691.261 27.6842C690.985 27.6842 690.985 27.6842 691.261 27.6842C689.607 28.3158 690.021 25.3158 691.537 25.3158C695.258 25.1579 698.98 25.1579 702.563 25.1579C704.355 25.1579 703.253 28 701.874 28C701.736 28 701.599 28 701.461 28C699.669 28 700.772 25.1579 702.15 25.1579C787.056 25.1579 871.961 25.3158 956.729 25.3158C981.677 25.3158 1006.49 25 1031.43 25.6316C1032.54 25.4737 1031.85 27.2105 1030.88 27.3684Z" fill="#FEC10B" fill-opacity="0.3"/>
<g opacity="0.5">
<path d="M33.3335 8.83999C33.0335 6.13999 30.4335 4.73999 27.9335 5.03999C24.5335 5.43999 22.6335 8.63998 23.5335 11.84C25.4335 18.44 33.5335 24.04 40.0335 25.24C40.9335 25.34 40.4335 24.24 40.0335 24.04C36.0335 21.94 31.8335 20.64 28.6335 17.24C27.2335 15.74 25.6335 13.74 25.1335 11.74C24.2335 7.83998 30.4335 3.63999 32.2335 8.73998C32.4335 8.93999 33.4335 9.43999 33.3335 8.83999Z" fill="#FEC10B"/>
<path d="M39.5334 27.6401C35.2334 27.8401 30.2334 29.9401 27.0334 32.9401C24.5334 35.2401 22.0334 39.2401 23.1334 42.8401C24.1334 45.9401 26.7334 47.7401 30.0334 47.5401C34.2334 47.2401 36.6334 43.1401 33.9334 39.6401C33.5334 39.1401 32.3334 39.1401 32.8334 40.0401C34.8334 43.9401 29.2334 47.7401 26.1334 44.8401C24.4334 43.2401 24.6334 41.1401 25.4334 39.2401C27.8334 33.0401 34.1334 30.5401 40.0334 28.5401C40.5334 28.2401 39.9334 27.5401 39.5334 27.6401Z" fill="#FEC10B"/>
<path d="M17.1334 14.9401C18.7334 17.4401 20.5334 19.8401 22.5334 22.0401C24.3334 23.8401 26.3334 26.0401 28.8334 26.9401C29.7334 27.2401 29.7334 26.2401 29.2334 25.7401C27.2334 23.9401 24.9334 22.5401 23.0334 20.5401C21.2334 18.6401 19.6334 16.6401 18.0334 14.6401C17.7334 14.1401 16.7334 14.2401 17.1334 14.9401Z" fill="#FEC10B"/>
<path d="M28.9335 25.6399C24.4335 26.6399 17.9335 30.3399 17.3335 35.4399C17.2335 36.0399 18.3335 36.7399 18.7335 36.2399C20.3335 34.3399 21.1335 32.2399 23.0335 30.5399C24.9335 28.8399 27.2335 27.7399 29.6335 26.6399C30.1335 26.3399 29.3335 25.5399 28.9335 25.6399Z" fill="#FEC10B"/>
<path d="M12.1334 20.0402C13.7334 22.6402 15.9334 25.7402 18.9334 26.7402C19.6334 26.9402 19.6334 26.1402 19.2334 25.8402C18.1334 24.8402 16.9334 24.1402 15.9334 23.0402C14.9334 22.0402 14.0334 20.8402 13.0334 19.7402C12.7334 19.2402 11.6334 19.3402 12.1334 20.0402Z" fill="#FEC10B"/>
<path d="M18.5334 25.4399C17.0334 25.8399 15.6334 26.4399 14.4334 27.4399C13.3334 28.4399 12.1334 30.0399 12.2334 31.5399C12.2334 32.0399 13.0334 32.7399 13.5334 32.2399C14.0334 31.6399 14.2334 30.9399 14.6334 30.2399C14.9334 29.6399 15.3334 29.1399 15.8334 28.6399C16.8334 27.6399 18.1334 27.0399 19.3334 26.4399C19.9334 26.2399 19.0334 25.2399 18.5334 25.4399Z" fill="#FEC10B"/>
<path d="M12.8334 25.74C10.1334 24.54 7.03343 23.54 4.03343 23.74C2.93343 23.84 -0.36657 24.34 0.0334303 26.04C0.33343 27.44 2.93343 28.24 4.13343 28.44C7.13343 28.84 10.2334 28.14 12.9334 26.84C13.6334 26.44 12.6334 25.44 12.0334 25.54C10.4334 25.94 8.83343 26.34 7.23343 26.64C6.03343 26.84 4.83343 26.94 3.63343 26.74C3.13343 26.64 2.63343 26.54 2.23343 26.24C1.63343 25.94 1.53343 25.84 2.03343 26.04C2.03343 25.94 4.03343 25.44 4.03343 25.44C5.23343 25.24 6.33343 25.24 7.53343 25.44C9.33343 25.64 11.0334 26.34 12.8334 26.64C13.4334 26.74 13.2334 25.94 12.8334 25.74Z" fill="#FEC10B"/>
</g>
<path d="M52.1229 27.3684C95.6558 28.4737 139.327 27.6842 182.86 27.6842C224.73 27.6842 266.599 27.6842 308.329 27.8421C333.423 27.8421 358.517 27.8421 383.472 27.8421C385.275 27.8421 384.165 25 382.779 25C382.64 25 382.502 25 382.363 25C380.561 25 381.67 27.8421 383.056 27.8421C386.8 27.8421 390.404 27.8421 394.148 27.6842C395.95 27.6842 394.563 24.5263 393.038 25.3158C393.454 25.1579 393.593 25.1579 393.177 25.1579C391.513 25.1579 392.622 27.6842 393.732 27.6842C394.009 27.6842 394.009 27.6842 393.732 27.6842C395.395 28.3158 394.979 25.3158 393.454 25.3158C389.711 25.1579 385.968 25.1579 382.363 25.1579C380.561 25.1579 381.67 28 383.056 28C383.195 28 383.334 28 383.472 28C385.275 28 384.165 25.1579 382.779 25.1579C297.377 25.1579 211.975 25.3158 126.711 25.3158C101.617 25.3158 76.6621 25 51.5683 25.6316C50.4592 25.4737 51.1524 27.2105 52.1229 27.3684Z" fill="#FEC10B" fill-opacity="0.3"/>
<rect x="455" y="25" width="175" height="14" fill="#FEC10B" fill-opacity="0.3"/>
<path d="M470.012 35.504C466.22 35.48 463.124 34.268 460.724 31.868C458.348 29.468 457.16 26.312 457.16 22.4C457.16 18.464 458.348 15.296 460.724 12.896C463.124 10.496 466.292 9.296 470.228 9.296C473.444 9.296 476.288 10.112 478.76 11.744L479.48 16.82H479.156C478.628 14.756 477.56 13.172 475.952 12.068C474.344 10.94 472.436 10.376 470.228 10.376C467.084 10.376 464.564 11.468 462.668 13.652C460.796 15.836 459.86 18.728 459.86 22.328C459.86 25.928 460.784 28.832 462.632 31.04C464.504 33.224 466.964 34.352 470.012 34.424C472.7 34.424 474.944 33.692 476.744 32.228C478.688 30.644 479.864 28.064 480.272 24.488H480.56L480.128 30.14C477.944 33.716 474.572 35.504 470.012 35.504ZM490.2 14.336C492.048 13.376 494.076 12.896 496.284 12.896C498.516 12.896 500.556 13.376 502.404 14.336C504.252 15.272 505.716 16.604 506.796 18.332C507.9 20.06 508.452 22.016 508.452 24.2C508.452 26.384 507.9 28.34 506.796 30.068C505.716 31.796 504.252 33.14 502.404 34.1C500.556 35.036 498.66 35.504 496.716 35.504C494.772 35.504 493.056 35.228 491.568 34.676C490.08 34.124 488.784 33.356 487.68 32.372C486.6 31.388 485.736 30.188 485.088 28.772C484.464 27.356 484.152 25.7 484.152 23.804C484.152 21.884 484.692 20.06 485.772 18.332C486.876 16.604 488.352 15.272 490.2 14.336ZM489.516 31.58C491.34 33.476 493.596 34.424 496.284 34.424C498.972 34.424 501.228 33.476 503.052 31.58C504.876 29.66 505.788 27.2 505.788 24.2C505.788 21.2 504.876 18.752 503.052 16.856C501.228 14.936 498.972 13.976 496.284 13.976C493.596 13.976 491.34 14.936 489.516 16.856C487.716 18.752 486.816 21.2 486.816 24.2C486.816 27.2 487.716 29.66 489.516 31.58ZM536.227 13.76C535.699 13.76 535.243 13.94 534.859 14.3C534.475 14.636 534.271 15.056 534.247 15.56V30.896C534.247 32.288 534.331 33.608 534.499 34.856L534.571 35.504H534.247L515.527 17.756V32.768C515.527 33.296 515.719 33.74 516.103 34.1C516.487 34.46 516.955 34.64 517.507 34.64H518.119V35H511.315V34.64H511.927C512.479 34.64 512.947 34.46 513.331 34.1C513.715 33.74 513.907 33.296 513.907 32.768V17.36C513.907 15.896 513.823 14.588 513.655 13.436L513.583 12.86L513.979 12.896L532.663 30.5V15.56C532.615 15.056 532.399 14.636 532.015 14.3C531.631 13.94 531.175 13.76 530.647 13.76H530.035V13.4H536.839V13.76H536.227ZM549.701 14.444V32.732C549.725 33.476 550.085 34.028 550.781 34.388C551.093 34.556 551.441 34.64 551.825 34.64H552.221V35H544.805V34.64H545.237C545.813 34.64 546.305 34.448 546.713 34.064C547.121 33.68 547.337 33.224 547.361 32.696V14.444H540.845C540.293 14.444 539.849 14.624 539.513 14.984C539.201 15.344 539.045 15.776 539.045 16.28V16.856H538.649V12.788C539.129 12.98 539.801 13.124 540.665 13.22C541.553 13.316 542.213 13.364 542.645 13.364H554.381C556.109 13.364 557.453 13.172 558.413 12.788V16.856H558.017V16.28C558.017 15.776 557.849 15.344 557.513 14.984C557.177 14.624 556.745 14.444 556.217 14.444H549.701ZM580.151 34.64H580.439V35H573.059V34.64H573.347C573.803 34.64 574.151 34.484 574.391 34.172C574.631 33.86 574.751 33.572 574.751 33.308C574.751 33.02 574.703 32.744 574.607 32.48L572.627 27.692H563.519L561.539 32.372C561.419 32.684 561.359 32.984 561.359 33.272C561.359 33.536 561.479 33.836 561.719 34.172C561.959 34.484 562.319 34.64 562.799 34.64H563.087V35H556.211V34.64H556.499C557.003 34.64 557.507 34.472 558.011 34.136C558.539 33.776 558.971 33.248 559.307 32.552C564.563 21.32 567.299 15.44 567.515 14.912C567.923 13.904 568.139 13.232 568.163 12.896H568.487L577.379 32.552C578.075 33.944 578.999 34.64 580.151 34.64ZM563.987 26.612H572.195L568.163 16.748L563.987 26.612ZM593.414 35.504C589.742 35.48 586.838 34.46 584.702 32.444C582.59 30.428 581.534 27.68 581.534 24.2C581.534 20.696 582.59 17.936 584.702 15.92C586.838 13.904 589.742 12.896 593.414 12.896C594.902 12.896 596.402 13.088 597.914 13.472C599.426 13.856 600.734 14.384 601.838 15.056L602.63 20.168H602.306C601.274 16.04 598.298 13.976 593.378 13.976C590.522 13.976 588.266 14.888 586.61 16.712C584.954 18.536 584.126 21.032 584.126 24.2C584.126 26.264 584.498 28.064 585.242 29.6C585.986 31.112 587.066 32.288 588.482 33.128C589.898 33.968 591.542 34.388 593.414 34.388C595.286 34.388 596.918 34.112 598.31 33.56C599.726 32.984 600.89 32.048 601.802 30.752C602.738 29.456 603.266 27.848 603.386 25.928H603.71L603.314 30.86C602.378 32.3 601.022 33.44 599.246 34.28C597.47 35.096 595.526 35.504 593.414 35.504ZM616.709 14.444V32.732C616.733 33.476 617.093 34.028 617.789 34.388C618.101 34.556 618.449 34.64 618.833 34.64H619.229V35H611.813V34.64H612.245C612.821 34.64 613.313 34.448 613.721 34.064C614.129 33.68 614.345 33.224 614.369 32.696V14.444H607.853C607.301 14.444 606.857 14.624 606.521 14.984C606.209 15.344 606.053 15.776 606.053 16.28V16.856H605.657V12.788C606.137 12.98 606.809 13.124 607.673 13.22C608.561 13.316 609.221 13.364 609.653 13.364H621.389C623.117 13.364 624.461 13.172 625.421 12.788V16.856H625.025V16.28C625.025 15.776 624.857 15.344 624.521 14.984C624.185 14.624 623.753 14.444 623.225 14.444H616.709Z" fill="black"/>
</svg>
