<svg width="1066" height="48" viewBox="0 0 1066 48" fill="none" xmlns="http://www.w3.org/2000/svg">
<rect x="455" y="25" width="158" height="14" fill="#FEC10B" fill-opacity="0.3"/>
<path d="M470.084 35.504C466.244 35.48 463.124 34.268 460.724 31.868C458.348 29.468 457.16 26.312 457.16 22.4C457.16 18.488 458.348 15.332 460.724 12.932C463.124 10.508 466.244 9.296 470.084 9.296C473.396 9.296 476.312 10.112 478.832 11.744L479.552 16.82H479.228C478.7 14.756 477.632 13.172 476.024 12.068C474.44 10.94 472.46 10.376 470.084 10.376C467.036 10.376 464.564 11.48 462.668 13.688C460.796 15.896 459.86 18.8 459.86 22.4C459.86 26 460.796 28.904 462.668 31.112C464.564 33.296 467.036 34.4 470.084 34.424C471.644 34.424 473.12 34.148 474.512 33.596C475.928 33.044 477.164 32.276 478.22 31.292V24.92C478.22 24.392 478.052 23.996 477.716 23.732C477.404 23.444 476.96 23.3 476.384 23.3H475.808V22.94H482.864V23.3H482.324C481.724 23.3 481.268 23.444 480.956 23.732C480.644 23.996 480.5 24.392 480.524 24.92V30.86C479.9 31.676 479.156 32.408 478.292 33.056C477.428 33.704 476.264 34.28 474.8 34.784C473.36 35.264 471.788 35.504 470.084 35.504ZM506.78 34.64H507.068V35H499.688V34.64H499.976C500.432 34.64 500.78 34.484 501.02 34.172C501.26 33.86 501.38 33.572 501.38 33.308C501.38 33.02 501.332 32.744 501.236 32.48L499.256 27.692H490.148L488.168 32.372C488.048 32.684 487.988 32.984 487.988 33.272C487.988 33.536 488.108 33.836 488.348 34.172C488.588 34.484 488.948 34.64 489.428 34.64H489.716V35H482.84V34.64H483.128C483.632 34.64 484.136 34.472 484.64 34.136C485.168 33.776 485.6 33.248 485.936 32.552C491.192 21.32 493.928 15.44 494.144 14.912C494.552 13.904 494.768 13.232 494.792 12.896H495.116L504.008 32.552C504.704 33.944 505.628 34.64 506.78 34.64ZM490.616 26.612H498.824L494.792 16.748L490.616 26.612ZM509.375 34.64C509.951 34.64 510.431 34.46 510.815 34.1C511.223 33.716 511.439 33.26 511.463 32.732V15.704C511.439 15.176 511.211 14.72 510.779 14.336C510.371 13.952 509.879 13.76 509.303 13.76H508.871V13.4H516.323V13.76H515.891C515.315 13.76 514.811 13.952 514.379 14.336C513.971 14.72 513.767 15.176 513.767 15.704V33.884H519.383C520.487 33.884 521.423 33.692 522.191 33.308C522.959 32.924 523.535 32.468 523.919 31.94C524.327 31.412 524.723 30.716 525.107 29.852H525.467L523.487 35H508.871V34.64H509.375ZM527.797 34.64C528.373 34.64 528.853 34.46 529.237 34.1C529.645 33.716 529.861 33.26 529.885 32.732V15.704C529.861 15.176 529.633 14.72 529.201 14.336C528.793 13.952 528.301 13.76 527.725 13.76H527.293V13.4H534.745V13.76H534.312C533.737 13.76 533.233 13.952 532.801 14.336C532.393 14.72 532.189 15.176 532.189 15.704V33.884H537.805C538.909 33.884 539.845 33.692 540.613 33.308C541.381 32.924 541.957 32.468 542.341 31.94C542.749 31.412 543.145 30.716 543.529 29.852H543.889L541.909 35H527.293V34.64H527.797ZM546.218 34.64C546.794 34.64 547.274 34.46 547.658 34.1C548.066 33.716 548.282 33.26 548.306 32.732V15.632C548.306 15.104 548.102 14.66 547.694 14.3C547.286 13.94 546.794 13.76 546.218 13.76H545.714V13.4H556.226C557.21 13.4 558.074 13.328 558.818 13.184C559.562 13.04 560.042 12.92 560.258 12.824V16.928L559.862 16.892V16.352C559.862 15.848 559.694 15.416 559.358 15.056C559.022 14.696 558.59 14.516 558.062 14.516H550.574V23.66H556.73C557.21 23.66 557.57 23.516 557.81 23.228C558.074 22.94 558.206 22.58 558.206 22.148V21.68H558.602V26.72H558.206V26.252C558.206 25.58 557.954 25.124 557.45 24.884C557.258 24.812 557.054 24.764 556.838 24.74H550.574V33.884H556.226C557.33 33.884 558.254 33.692 558.998 33.308C559.766 32.924 560.342 32.468 560.726 31.94C561.134 31.412 561.542 30.716 561.95 29.852H562.31L560.33 35H545.714V34.64H546.218ZM571.747 14.516H569.839V32.696C569.863 33.44 570.199 34.004 570.847 34.388C571.159 34.556 571.507 34.64 571.891 34.64H572.359L572.395 35H565.015V34.64H565.519C566.071 34.64 566.539 34.46 566.923 34.1C567.331 33.716 567.535 33.26 567.535 32.732V15.632C567.535 15.104 567.331 14.66 566.923 14.3C566.539 13.94 566.071 13.76 565.519 13.76H565.015V13.4H574.051C576.307 13.4 578.083 13.916 579.379 14.948C580.699 15.98 581.359 17.336 581.359 19.016C581.359 20.696 580.831 22.1 579.775 23.228C578.719 24.356 577.375 25.004 575.743 25.172C576.511 25.508 577.435 26.444 578.515 27.98C578.491 27.98 578.899 28.508 579.739 29.564C580.603 30.62 581.287 31.448 581.791 32.048C582.319 32.624 582.751 33.068 583.087 33.38C583.975 34.22 584.995 34.64 586.147 34.64V35H585.031C583.135 35 581.647 34.628 580.567 33.884C579.751 33.332 579.007 32.648 578.335 31.832C578.191 31.64 577.579 30.8 576.499 29.312C575.443 27.8 574.879 26.996 574.807 26.9C573.511 25.292 572.299 24.488 571.171 24.488V24.128C573.979 24.128 575.671 23.984 576.247 23.696C577.039 23.288 577.579 22.856 577.867 22.4C578.467 21.44 578.767 20.384 578.767 19.232C578.767 17.768 578.335 16.64 577.471 15.848C576.607 15.056 575.443 14.624 573.979 14.552C573.331 14.528 572.587 14.516 571.747 14.516ZM607.208 13.76H606.776C606.128 13.76 605.504 13.94 604.904 14.3C604.328 14.636 603.848 15.068 603.464 15.596L596.552 26.072V32.696C596.552 33.224 596.756 33.68 597.164 34.064C597.572 34.448 598.064 34.64 598.64 34.64H599.072V35H591.692V34.64H592.124C592.7 34.64 593.192 34.448 593.6 34.064C594.008 33.68 594.212 33.224 594.212 32.696V26.036L587.552 15.56C586.736 14.36 585.632 13.76 584.24 13.76H583.808V13.4H592.16V13.76H591.728C591.272 13.76 590.936 13.904 590.72 14.192C590.528 14.48 590.432 14.732 590.432 14.948C590.432 15.14 590.456 15.32 590.504 15.488L595.76 24.812L601.34 15.524C601.412 15.332 601.448 15.14 601.448 14.948C601.448 14.732 601.34 14.48 601.124 14.192C600.932 13.904 600.596 13.76 600.116 13.76H599.684V13.4H607.208V13.76Z" fill="black"/>
<g opacity="0.5">
<path d="M1032.67 8.83999C1032.97 6.13999 1035.57 4.73999 1038.07 5.03999C1041.47 5.43999 1043.37 8.63998 1042.47 11.84C1040.57 18.44 1032.47 24.04 1025.97 25.24C1025.07 25.34 1025.57 24.24 1025.97 24.04C1029.97 21.94 1034.17 20.64 1037.37 17.24C1038.77 15.74 1040.37 13.74 1040.87 11.74C1041.77 7.83998 1035.57 3.63999 1033.77 8.73998C1033.57 8.93999 1032.57 9.43999 1032.67 8.83999Z" fill="#FEC10B"/>
<path d="M1026.47 27.6401C1030.77 27.8401 1035.77 29.9401 1038.97 32.9401C1041.47 35.2401 1043.97 39.2401 1042.87 42.8401C1041.87 45.9401 1039.27 47.7401 1035.97 47.5401C1031.77 47.2401 1029.37 43.1401 1032.07 39.6401C1032.47 39.1401 1033.67 39.1401 1033.17 40.0401C1031.17 43.9401 1036.77 47.7401 1039.87 44.8401C1041.57 43.2401 1041.37 41.1401 1040.57 39.2401C1038.17 33.0401 1031.87 30.5401 1025.97 28.5401C1025.47 28.2401 1026.07 27.5401 1026.47 27.6401Z" fill="#FEC10B"/>
<path d="M1048.87 14.9401C1047.27 17.4401 1045.47 19.8401 1043.47 22.0401C1041.67 23.8401 1039.67 26.0401 1037.17 26.9401C1036.27 27.2401 1036.27 26.2401 1036.77 25.7401C1038.77 23.9401 1041.07 22.5401 1042.97 20.5401C1044.77 18.6401 1046.37 16.6401 1047.97 14.6401C1048.27 14.1401 1049.27 14.2401 1048.87 14.9401Z" fill="#FEC10B"/>
<path d="M1037.07 25.6399C1041.57 26.6399 1048.07 30.3399 1048.67 35.4399C1048.77 36.0399 1047.67 36.7399 1047.27 36.2399C1045.67 34.3399 1044.87 32.2399 1042.97 30.5399C1041.07 28.8399 1038.77 27.7399 1036.37 26.6399C1035.87 26.3399 1036.67 25.5399 1037.07 25.6399Z" fill="#FEC10B"/>
<path d="M1053.87 20.04C1052.27 22.64 1050.07 25.74 1047.07 26.74C1046.37 26.94 1046.37 26.14 1046.77 25.84C1047.87 24.84 1049.07 24.14 1050.07 23.04C1051.07 22.04 1051.97 20.84 1052.97 19.74C1053.27 19.24 1054.37 19.34 1053.87 20.04Z" fill="#FEC10B"/>
<path d="M1047.47 25.4399C1048.97 25.8399 1050.37 26.4399 1051.57 27.4399C1052.67 28.4399 1053.87 30.0399 1053.77 31.5399C1053.77 32.0399 1052.97 32.7399 1052.47 32.2399C1051.97 31.6399 1051.77 30.9399 1051.37 30.2399C1051.07 29.6399 1050.67 29.1399 1050.17 28.6399C1049.17 27.6399 1047.87 27.0399 1046.67 26.4399C1046.07 26.2399 1046.97 25.2399 1047.47 25.4399Z" fill="#FEC10B"/>
<path d="M1053.17 25.74C1055.87 24.54 1058.97 23.54 1061.97 23.74C1063.07 23.84 1066.37 24.34 1065.97 26.04C1065.67 27.44 1063.07 28.24 1061.87 28.44C1058.87 28.84 1055.77 28.14 1053.07 26.84C1052.37 26.44 1053.37 25.44 1053.97 25.54C1055.57 25.94 1057.17 26.34 1058.77 26.64C1059.97 26.84 1061.17 26.94 1062.37 26.74C1062.87 26.64 1063.37 26.54 1063.77 26.24C1064.37 25.94 1064.47 25.84 1063.97 26.04C1063.97 25.94 1061.97 25.44 1061.97 25.44C1060.77 25.24 1059.67 25.24 1058.47 25.44C1056.67 25.64 1054.97 26.34 1053.17 26.64C1052.57 26.74 1052.77 25.94 1053.17 25.74Z" fill="#FEC10B"/>
</g>
<path d="M1013.88 27.3684C970.604 28.4737 927.186 27.6842 883.906 27.6842C842.281 27.6842 800.655 27.6842 759.167 27.8421C734.219 27.8421 709.271 27.8421 684.461 27.8421C682.669 27.8421 683.772 25 685.15 25C685.288 25 685.426 25 685.563 25C687.355 25 686.253 27.8421 684.874 27.8421C681.153 27.8421 677.569 27.8421 673.848 27.6842C672.056 27.6842 673.434 24.5263 674.95 25.3158C674.537 25.1579 674.399 25.1579 674.812 25.1579C676.466 25.1579 675.364 27.6842 674.261 27.6842C673.985 27.6842 673.985 27.6842 674.261 27.6842C672.607 28.3158 673.021 25.3158 674.537 25.3158C678.258 25.1579 681.98 25.1579 685.563 25.1579C687.355 25.1579 686.253 28 684.874 28C684.736 28 684.599 28 684.461 28C682.669 28 683.772 25.1579 685.15 25.1579C770.056 25.1579 854.961 25.3158 939.729 25.3158C964.677 25.3158 989.487 25 1014.43 25.6316C1015.54 25.4737 1014.85 27.2105 1013.88 27.3684Z" fill="#FEC10B" fill-opacity="0.3"/>
<g opacity="0.5">
<path d="M33.3335 8.83999C33.0335 6.13999 30.4335 4.73999 27.9335 5.03999C24.5335 5.43999 22.6335 8.63998 23.5335 11.84C25.4335 18.44 33.5335 24.04 40.0335 25.24C40.9335 25.34 40.4335 24.24 40.0335 24.04C36.0335 21.94 31.8335 20.64 28.6335 17.24C27.2335 15.74 25.6335 13.74 25.1335 11.74C24.2335 7.83998 30.4335 3.63999 32.2335 8.73998C32.4335 8.93999 33.4335 9.43999 33.3335 8.83999Z" fill="#FEC10B"/>
<path d="M39.5334 27.6401C35.2334 27.8401 30.2334 29.9401 27.0334 32.9401C24.5334 35.2401 22.0334 39.2401 23.1334 42.8401C24.1334 45.9401 26.7334 47.7401 30.0334 47.5401C34.2334 47.2401 36.6334 43.1401 33.9334 39.6401C33.5334 39.1401 32.3334 39.1401 32.8334 40.0401C34.8334 43.9401 29.2334 47.7401 26.1334 44.8401C24.4334 43.2401 24.6334 41.1401 25.4334 39.2401C27.8334 33.0401 34.1334 30.5401 40.0334 28.5401C40.5334 28.2401 39.9334 27.5401 39.5334 27.6401Z" fill="#FEC10B"/>
<path d="M17.1334 14.9401C18.7334 17.4401 20.5334 19.8401 22.5334 22.0401C24.3334 23.8401 26.3334 26.0401 28.8334 26.9401C29.7334 27.2401 29.7334 26.2401 29.2334 25.7401C27.2334 23.9401 24.9334 22.5401 23.0334 20.5401C21.2334 18.6401 19.6334 16.6401 18.0334 14.6401C17.7334 14.1401 16.7334 14.2401 17.1334 14.9401Z" fill="#FEC10B"/>
<path d="M28.9335 25.6399C24.4335 26.6399 17.9335 30.3399 17.3335 35.4399C17.2335 36.0399 18.3335 36.7399 18.7335 36.2399C20.3335 34.3399 21.1335 32.2399 23.0335 30.5399C24.9335 28.8399 27.2335 27.7399 29.6335 26.6399C30.1335 26.3399 29.3335 25.5399 28.9335 25.6399Z" fill="#FEC10B"/>
<path d="M12.1334 20.04C13.7334 22.64 15.9334 25.74 18.9334 26.74C19.6334 26.94 19.6334 26.14 19.2334 25.84C18.1334 24.84 16.9334 24.14 15.9334 23.04C14.9334 22.04 14.0334 20.84 13.0334 19.74C12.7334 19.24 11.6334 19.34 12.1334 20.04Z" fill="#FEC10B"/>
<path d="M18.5334 25.4399C17.0334 25.8399 15.6334 26.4399 14.4334 27.4399C13.3334 28.4399 12.1334 30.0399 12.2334 31.5399C12.2334 32.0399 13.0334 32.7399 13.5334 32.2399C14.0334 31.6399 14.2334 30.9399 14.6334 30.2399C14.9334 29.6399 15.3334 29.1399 15.8334 28.6399C16.8334 27.6399 18.1334 27.0399 19.3334 26.4399C19.9334 26.2399 19.0334 25.2399 18.5334 25.4399Z" fill="#FEC10B"/>
<path d="M12.8334 25.74C10.1334 24.54 7.03343 23.54 4.03343 23.74C2.93343 23.84 -0.36657 24.34 0.0334303 26.04C0.33343 27.44 2.93343 28.24 4.13343 28.44C7.13343 28.84 10.2334 28.14 12.9334 26.84C13.6334 26.44 12.6334 25.44 12.0334 25.54C10.4334 25.94 8.83343 26.34 7.23343 26.64C6.03343 26.84 4.83343 26.94 3.63343 26.74C3.13343 26.64 2.63343 26.54 2.23343 26.24C1.63343 25.94 1.53343 25.84 2.03343 26.04C2.03343 25.94 4.03343 25.44 4.03343 25.44C5.23343 25.24 6.33343 25.24 7.53343 25.44C9.33343 25.64 11.0334 26.34 12.8334 26.64C13.4334 26.74 13.2334 25.94 12.8334 25.74Z" fill="#FEC10B"/>
</g>
<path d="M52.1229 27.3684C95.6558 28.4737 139.327 27.6842 182.86 27.6842C224.73 27.6842 266.599 27.6842 308.329 27.8421C333.423 27.8421 358.517 27.8421 383.472 27.8421C385.275 27.8421 384.165 25 382.779 25C382.64 25 382.502 25 382.363 25C380.561 25 381.67 27.8421 383.056 27.8421C386.8 27.8421 390.404 27.8421 394.148 27.6842C395.95 27.6842 394.563 24.5263 393.038 25.3158C393.454 25.1579 393.593 25.1579 393.177 25.1579C391.513 25.1579 392.622 27.6842 393.732 27.6842C394.009 27.6842 394.009 27.6842 393.732 27.6842C395.395 28.3158 394.979 25.3158 393.454 25.3158C389.711 25.1579 385.968 25.1579 382.363 25.1579C380.561 25.1579 381.67 28 383.056 28C383.195 28 383.334 28 383.472 28C385.275 28 384.165 25.1579 382.779 25.1579C297.377 25.1579 211.975 25.3158 126.711 25.3158C101.617 25.3158 76.6621 25 51.5683 25.6316C50.4592 25.4737 51.1524 27.2105 52.1229 27.3684Z" fill="#FEC10B" fill-opacity="0.3"/>
</svg>
