<svg width="251" height="43" viewBox="0 0 251 43" fill="none" xmlns="http://www.w3.org/2000/svg">
<path d="M217.666 3.83999C217.966 1.13999 220.566 -0.260015 223.066 0.039985C226.466 0.439985 228.366 3.63998 227.466 6.83998C225.566 13.44 217.466 19.04 210.966 20.24C210.066 20.34 210.566 19.24 210.966 19.04C214.966 16.94 219.166 15.64 222.366 12.24C223.766 10.74 225.366 8.73998 225.866 6.73998C226.766 2.83998 220.566 -1.36001 218.766 3.73998C218.566 3.93998 217.566 4.43999 217.666 3.83999Z" fill="#FEC10B"/>
<path d="M211.466 22.64C215.766 22.84 220.766 24.94 223.966 27.94C226.466 30.24 228.966 34.24 227.866 37.84C226.866 40.94 224.266 42.74 220.966 42.54C216.766 42.24 214.366 38.14 217.066 34.64C217.466 34.14 218.666 34.14 218.166 35.04C216.166 38.94 221.766 42.74 224.866 39.84C226.566 38.24 226.366 36.14 225.566 34.24C223.166 28.04 216.866 25.54 210.966 23.54C210.466 23.24 211.066 22.54 211.466 22.64Z" fill="#FEC10B"/>
<path d="M233.866 9.94001C232.266 12.44 230.466 14.84 228.466 17.04C226.666 18.84 224.666 21.04 222.166 21.94C221.266 22.24 221.266 21.24 221.766 20.74C223.766 18.94 226.066 17.54 227.966 15.54C229.766 13.64 231.366 11.64 232.966 9.64001C233.266 9.14001 234.266 9.24001 233.866 9.94001Z" fill="#FEC10B"/>
<path d="M222.066 20.64C226.566 21.64 233.066 25.34 233.666 30.44C233.766 31.04 232.666 31.74 232.266 31.24C230.666 29.34 229.866 27.24 227.966 25.54C226.066 23.84 223.766 22.74 221.366 21.64C220.866 21.34 221.666 20.54 222.066 20.64Z" fill="#FEC10B"/>
<path d="M238.866 15.04C237.266 17.64 235.066 20.74 232.066 21.74C231.366 21.94 231.366 21.14 231.766 20.84C232.866 19.84 234.066 19.14 235.066 18.04C236.066 17.04 236.966 15.84 237.966 14.74C238.266 14.24 239.366 14.34 238.866 15.04Z" fill="#FEC10B"/>
<path d="M232.466 20.44C233.966 20.84 235.366 21.44 236.566 22.44C237.666 23.44 238.866 25.04 238.766 26.54C238.766 27.04 237.966 27.74 237.466 27.24C236.966 26.64 236.766 25.94 236.366 25.24C236.066 24.64 235.666 24.14 235.166 23.64C234.166 22.64 232.866 22.04 231.666 21.44C231.066 21.24 231.966 20.24 232.466 20.44Z" fill="#FEC10B"/>
<path d="M238.166 20.74C240.866 19.54 243.966 18.54 246.966 18.74C248.066 18.84 251.366 19.34 250.966 21.04C250.666 22.44 248.066 23.24 246.866 23.44C243.866 23.84 240.766 23.14 238.066 21.84C237.366 21.44 238.366 20.44 238.966 20.54C240.566 20.94 242.166 21.34 243.766 21.64C244.966 21.84 246.166 21.94 247.366 21.74C247.866 21.64 248.366 21.54 248.766 21.24C249.366 20.94 249.466 20.84 248.966 21.04C248.966 20.94 246.966 20.44 246.966 20.44C245.766 20.24 244.666 20.24 243.466 20.44C241.666 20.64 239.966 21.34 238.166 21.64C237.566 21.74 237.766 20.94 238.166 20.74Z" fill="#FEC10B"/>
<rect y="20" width="200" height="2" fill="#FEC10B"/>
</svg>
