<svg width="171" height="43" viewBox="0 0 171 43" fill="none" xmlns="http://www.w3.org/2000/svg">
<path d="M137.204 3.83999C137.504 1.13999 140.104 -0.260015 142.604 0.039985C146.004 0.439985 147.904 3.63998 147.004 6.83998C145.104 13.44 137.004 19.04 130.504 20.24C129.604 20.34 130.104 19.24 130.504 19.04C134.504 16.94 138.704 15.64 141.904 12.24C143.304 10.74 144.904 8.73998 145.404 6.73998C146.304 2.83998 140.104 -1.36001 138.304 3.73998C138.104 3.93998 137.104 4.43999 137.204 3.83999Z" fill="#FEC10B"/>
<path d="M131.004 22.64C135.304 22.84 140.304 24.94 143.504 27.94C146.004 30.24 148.504 34.24 147.404 37.84C146.404 40.94 143.804 42.74 140.504 42.54C136.304 42.24 133.904 38.14 136.604 34.64C137.004 34.14 138.204 34.14 137.704 35.04C135.704 38.94 141.304 42.74 144.404 39.84C146.104 38.24 145.904 36.14 145.104 34.24C142.704 28.04 136.404 25.54 130.504 23.54C130.004 23.24 130.604 22.54 131.004 22.64Z" fill="#FEC10B"/>
<path d="M153.404 9.94001C151.804 12.44 150.004 14.84 148.004 17.04C146.204 18.84 144.204 21.04 141.704 21.94C140.804 22.24 140.804 21.24 141.304 20.74C143.304 18.94 145.604 17.54 147.504 15.54C149.304 13.64 150.904 11.64 152.504 9.64001C152.804 9.14001 153.804 9.24001 153.404 9.94001Z" fill="#FEC10B"/>
<path d="M141.604 20.64C146.104 21.64 152.604 25.34 153.204 30.44C153.304 31.04 152.204 31.74 151.804 31.24C150.204 29.34 149.404 27.24 147.504 25.54C145.604 23.84 143.304 22.74 140.904 21.64C140.404 21.34 141.204 20.54 141.604 20.64Z" fill="#FEC10B"/>
<path d="M158.404 15.04C156.804 17.64 154.604 20.74 151.604 21.74C150.904 21.94 150.904 21.14 151.304 20.84C152.404 19.84 153.604 19.14 154.604 18.04C155.604 17.04 156.504 15.84 157.504 14.74C157.804 14.24 158.904 14.34 158.404 15.04Z" fill="#FEC10B"/>
<path d="M152.004 20.44C153.504 20.84 154.904 21.44 156.104 22.44C157.204 23.44 158.404 25.04 158.304 26.54C158.304 27.04 157.504 27.74 157.004 27.24C156.504 26.64 156.304 25.94 155.904 25.24C155.604 24.64 155.204 24.14 154.704 23.64C153.704 22.64 152.404 22.04 151.204 21.44C150.604 21.24 151.504 20.24 152.004 20.44Z" fill="#FEC10B"/>
<path d="M157.704 20.74C160.404 19.54 163.504 18.54 166.504 18.74C167.604 18.84 170.904 19.34 170.504 21.04C170.204 22.44 167.604 23.24 166.404 23.44C163.404 23.84 160.304 23.14 157.604 21.84C156.904 21.44 157.904 20.44 158.504 20.54C160.104 20.94 161.704 21.34 163.304 21.64C164.504 21.84 165.704 21.94 166.904 21.74C167.404 21.64 167.904 21.54 168.304 21.24C168.904 20.94 169.004 20.84 168.504 21.04C168.504 20.94 166.504 20.44 166.504 20.44C165.304 20.24 164.204 20.24 163.004 20.44C161.204 20.64 159.504 21.34 157.704 21.64C157.104 21.74 157.304 20.94 157.704 20.74Z" fill="#FEC10B"/>
<rect y="20" width="120" height="2" fill="#FEC10B"/>
</svg>
