<svg width="32" height="32" viewBox="0 0 32 32" fill="none" xmlns="http://www.w3.org/2000/svg">
<path d="M15.75 0C7.05234 0 0 7.05234 0 15.75C0 24.4477 7.05234 31.5 15.75 31.5C24.4477 31.5 31.5 24.4477 31.5 15.75C31.5 7.05234 24.4477 0 15.75 0ZM23.3191 11.8723C23.3297 12.0375 23.3297 12.2098 23.3297 12.3785C23.3297 17.5395 19.3992 23.4844 12.2168 23.4844C10.002 23.4844 7.94883 22.841 6.21914 21.7336C6.53555 21.7688 6.83789 21.7828 7.16133 21.7828C8.98945 21.7828 10.6699 21.1641 12.0094 20.1164C10.2938 20.0813 8.85234 18.9563 8.36016 17.4094C8.96133 17.4973 9.50273 17.4973 10.1215 17.3391C9.2381 17.1596 8.44409 16.6798 7.87435 15.9813C7.30462 15.2827 6.99429 14.4085 6.99609 13.507V13.4578C7.51289 13.7496 8.12109 13.9289 8.75742 13.9535C8.22249 13.597 7.7838 13.114 7.48023 12.5474C7.17667 11.9807 7.01762 11.3479 7.01719 10.7051C7.01719 9.97734 7.20703 9.31289 7.54805 8.73633C8.52856 9.94337 9.7521 10.9306 11.1391 11.6338C12.5262 12.337 14.0457 12.7405 15.5988 12.818C15.0469 10.1637 17.0297 8.01562 19.4133 8.01562C20.5383 8.01562 21.5508 8.48672 22.2645 9.24609C23.1469 9.08086 23.9906 8.75039 24.743 8.30742C24.4512 9.21094 23.8395 9.97383 23.0273 10.4555C23.8148 10.3711 24.5742 10.1531 25.2773 9.84727C24.7465 10.6277 24.082 11.3203 23.3191 11.8723V11.8723Z" fill="#FEC10B"/>
</svg>
