<svg width="328" height="38" viewBox="0 0 328 38" fill="none" xmlns="http://www.w3.org/2000/svg">
<rect y="20" width="328" height="8" fill="#FEC10B" fill-opacity="0.3"/>
<path d="M20.58 7.68H20.132C19.74 7.68 19.3947 7.81067 19.096 8.072C18.816 8.31467 18.6667 8.62267 18.648 8.996V20.084C18.648 22.268 17.9573 24.032 16.576 25.376C15.1947 26.72 13.356 27.392 11.06 27.392C8.764 27.392 6.89733 26.7293 5.46 25.404C4.04133 24.06 3.332 22.296 3.332 20.112V9.08C3.332 8.52 3.08933 8.10933 2.604 7.848C2.38 7.736 2.128 7.68 1.848 7.68H1.4V7.4H7.084V7.68H6.636C6.22533 7.68 5.88 7.81067 5.6 8.072C5.32 8.31467 5.17067 8.632 5.152 9.024V19.72C5.152 21.7547 5.69333 23.3973 6.776 24.648C7.87733 25.8987 9.34267 26.524 11.172 26.524C13.0013 26.524 14.4853 25.936 15.624 24.76C16.7627 23.5653 17.332 22.0067 17.332 20.084V9.024C17.3133 8.632 17.164 8.31467 16.884 8.072C16.604 7.81067 16.2587 7.68 15.848 7.68H15.4V7.4H20.58V7.68ZM27.6854 19.048C28.1148 19.16 28.5068 19.216 28.8614 19.216C29.2161 19.216 29.5054 19.2067 29.7294 19.188C29.9534 19.1693 30.2708 19.1133 30.6814 19.02C31.0921 18.908 31.4654 18.74 31.8014 18.516C32.5854 18.0307 33.1641 17.2653 33.5374 16.22C33.6681 15.8467 33.7334 15.3427 33.7334 14.708C33.7334 13.5693 33.3414 12.6733 32.5574 12.02C31.7734 11.3667 30.6908 11.04 29.3094 11.04H26.5934V25.208C26.6121 25.8053 26.8828 26.244 27.4054 26.524C27.6481 26.6547 27.9188 26.72 28.2174 26.72H28.6094V27H22.8134V26.72H23.2054C23.6534 26.72 24.0268 26.58 24.3254 26.3C24.6428 26.0013 24.8108 25.6467 24.8294 25.236V11.964C24.8108 11.5347 24.6428 11.18 24.3254 10.9C24.0268 10.62 23.6534 10.48 23.2054 10.48H22.8134V10.2H29.3654C31.3254 10.2 32.8748 10.6293 34.0134 11.488C35.1708 12.3467 35.7494 13.504 35.7494 14.96C35.7494 16.0053 35.5068 16.92 35.0214 17.704C34.0694 19.2347 32.5948 20 30.5974 20C29.6081 20 28.6374 19.776 27.6854 19.328V19.048ZM47.5267 27.392C44.6707 27.3733 42.4121 26.58 40.7507 25.012C39.1081 23.444 38.2867 21.3067 38.2867 18.6C38.2867 15.8747 39.1081 13.728 40.7507 12.16C42.4121 10.592 44.6707 9.808 47.5267 9.808C48.6841 9.808 49.8507 9.95733 51.0267 10.256C52.2027 10.5547 53.2201 10.9653 54.0787 11.488L54.6947 15.464H54.4427C53.6401 12.2533 51.3254 10.648 47.4987 10.648C45.2774 10.648 43.5227 11.3573 42.2347 12.776C40.9467 14.1947 40.3027 16.136 40.3027 18.6C40.3027 20.2053 40.5921 21.6053 41.1707 22.8C41.7494 23.976 42.5894 24.8907 43.6907 25.544C44.7921 26.1973 46.0707 26.524 47.5267 26.524C48.9827 26.524 50.2521 26.3093 51.3347 25.88C52.4361 25.432 53.3414 24.704 54.0507 23.696C54.7787 22.688 55.1894 21.4373 55.2827 19.944H55.5347L55.2267 23.78C54.4987 24.9 53.4441 25.7867 52.0627 26.44C50.6814 27.0747 49.1694 27.392 47.5267 27.392ZM63.2798 10.928C64.7171 10.1813 66.2944 9.808 68.0118 9.808C69.7478 9.808 71.3344 10.1813 72.7718 10.928C74.2091 11.656 75.3478 12.692 76.1878 14.036C77.0464 15.38 77.4758 16.9013 77.4758 18.6C77.4758 20.2987 77.0464 21.82 76.1878 23.164C75.3478 24.508 74.2091 25.5533 72.7718 26.3C71.3344 27.028 69.8598 27.392 68.3478 27.392C66.8358 27.392 65.5011 27.1773 64.3438 26.748C63.1864 26.3187 62.1784 25.7213 61.3198 24.956C60.4798 24.1907 59.8078 23.2573 59.3038 22.156C58.8184 21.0547 58.5758 19.7667 58.5758 18.292C58.5758 16.7987 58.9958 15.38 59.8358 14.036C60.6944 12.692 61.8424 11.656 63.2798 10.928ZM62.7478 24.34C64.1664 25.8147 65.9211 26.552 68.0118 26.552C70.1024 26.552 71.8571 25.8147 73.2758 24.34C74.6944 22.8467 75.4038 20.9333 75.4038 18.6C75.4038 16.2667 74.6944 14.3627 73.2758 12.888C71.8571 11.3947 70.1024 10.648 68.0118 10.648C65.9211 10.648 64.1664 11.3947 62.7478 12.888C61.3478 14.3627 60.6478 16.2667 60.6478 18.6C60.6478 20.9333 61.3478 22.8467 62.7478 24.34ZM102.554 26.72H102.974V27H97.1499V26.748H97.5699C97.8499 26.748 98.0926 26.6453 98.2979 26.44C98.5219 26.216 98.6153 25.9547 98.5779 25.656L97.1219 14.12L91.8299 24.536C91.3073 25.6747 90.9806 26.6267 90.8499 27.392H90.5699L83.8219 14.372L82.5619 25.656C82.5246 25.936 82.6086 26.188 82.8139 26.412C83.0379 26.636 83.2993 26.748 83.5979 26.748H83.9899V27H78.8099V26.72H79.2299C79.9019 26.72 80.4246 26.4773 80.7979 25.992C80.9846 25.7493 81.0966 25.46 81.1339 25.124L83.3179 9.808H83.5979L90.9899 24.032L98.1299 9.808H98.3819L100.65 25.18C100.725 25.6467 100.939 26.02 101.294 26.3C101.649 26.58 102.069 26.72 102.554 26.72ZM105.1 26.72C105.604 26.72 106.043 26.5707 106.416 26.272C106.789 25.9733 106.976 25.6187 106.976 25.208V11.992C106.976 11.5813 106.789 11.2267 106.416 10.928C106.043 10.6293 105.595 10.48 105.072 10.48H104.708V10.2H111.036V10.48H110.672C110.168 10.48 109.729 10.62 109.356 10.9C109.001 11.18 108.805 11.5253 108.768 11.936V25.236C108.787 25.6467 108.983 26.0013 109.356 26.3C109.729 26.58 110.168 26.72 110.672 26.72H111.036L111.064 27H104.708V26.72H105.1ZM132.93 10.48C132.52 10.48 132.165 10.62 131.866 10.9C131.568 11.1613 131.409 11.488 131.39 11.88V23.808C131.39 24.8907 131.456 25.9173 131.586 26.888L131.642 27.392H131.39L116.83 13.588V25.264C116.83 25.6747 116.98 26.02 117.278 26.3C117.577 26.58 117.941 26.72 118.37 26.72H118.846V27H113.554V26.72H114.03C114.46 26.72 114.824 26.58 115.122 26.3C115.421 26.02 115.57 25.6747 115.57 25.264V13.28C115.57 12.1413 115.505 11.124 115.374 10.228L115.318 9.78L115.626 9.808L130.158 23.5V11.88C130.121 11.488 129.953 11.1613 129.654 10.9C129.356 10.62 129.001 10.48 128.59 10.48H128.114V10.2H133.406V10.48H132.93ZM144.842 27.392C142.06 27.3733 139.83 26.58 138.15 25.012C136.488 23.4253 135.658 21.288 135.658 18.6C135.658 15.8933 136.488 13.756 138.15 12.188C139.83 10.6013 141.986 9.808 144.618 9.808C147.268 9.808 149.518 10.368 151.366 11.488L151.982 15.464H151.73C151.338 13.8213 150.572 12.608 149.434 11.824C148.314 11.04 146.718 10.648 144.646 10.648C142.592 10.648 140.912 11.3667 139.606 12.804C138.318 14.2227 137.674 16.1547 137.674 18.6C137.674 21.0453 138.327 22.9867 139.634 24.424C140.94 25.8427 142.742 26.552 145.038 26.552C147.352 26.552 149.34 25.74 151.002 24.116L151.03 20.392C151.048 20.056 150.936 19.7947 150.694 19.608C150.47 19.4027 150.152 19.3 149.742 19.3H149.35V19.02H154.474V19.3H154.082C153.242 19.3 152.822 19.6733 152.822 20.42V23.78C152.038 24.7507 150.955 25.6 149.574 26.328C148.211 27.0373 146.634 27.392 144.842 27.392ZM189.843 7.68H189.619C188.928 7.68 188.322 7.932 187.799 8.436C187.5 8.69733 187.286 9.024 187.155 9.416L182.507 24.228C182.134 25.404 181.928 26.44 181.891 27.336H181.639L175.927 11.32L171.671 24.228C171.316 25.3853 171.12 26.4213 171.083 27.336H170.831L164.475 9.388C164.251 8.828 163.906 8.408 163.439 8.128C162.972 7.82933 162.496 7.68 162.011 7.68H161.787V7.4H168.003V7.68H167.751C167.359 7.68 167.06 7.81067 166.855 8.072C166.668 8.31467 166.575 8.548 166.575 8.772C166.575 8.996 166.603 9.20133 166.659 9.388L170.915 23.024L176.123 6.952L176.375 6.98L181.891 22.464L185.643 9.36C185.699 9.15467 185.727 8.94933 185.727 8.744C185.727 8.52 185.634 8.28667 185.447 8.044C185.26 7.80133 184.971 7.68 184.579 7.68H184.327V7.4H189.843V7.68ZM194.667 10.928C196.104 10.1813 197.681 9.808 199.399 9.808C201.135 9.808 202.721 10.1813 204.159 10.928C205.596 11.656 206.735 12.692 207.575 14.036C208.433 15.38 208.863 16.9013 208.863 18.6C208.863 20.2987 208.433 21.82 207.575 23.164C206.735 24.508 205.596 25.5533 204.159 26.3C202.721 27.028 201.247 27.392 199.735 27.392C198.223 27.392 196.888 27.1773 195.731 26.748C194.573 26.3187 193.565 25.7213 192.707 24.956C191.867 24.1907 191.195 23.2573 190.691 22.156C190.205 21.0547 189.963 19.7667 189.963 18.292C189.963 16.7987 190.383 15.38 191.223 14.036C192.081 12.692 193.229 11.656 194.667 10.928ZM194.135 24.34C195.553 25.8147 197.308 26.552 199.399 26.552C201.489 26.552 203.244 25.8147 204.663 24.34C206.081 22.8467 206.791 20.9333 206.791 18.6C206.791 16.2667 206.081 14.3627 204.663 12.888C203.244 11.3947 201.489 10.648 199.399 10.648C197.308 10.648 195.553 11.3947 194.135 12.888C192.735 14.3627 192.035 16.2667 192.035 18.6C192.035 20.9333 192.735 22.8467 194.135 24.34ZM216.612 11.068H215.128V25.208C215.147 25.7867 215.408 26.2253 215.912 26.524C216.155 26.6547 216.425 26.72 216.724 26.72H217.088L217.116 27H211.376V26.72H211.768C212.197 26.72 212.561 26.58 212.86 26.3C213.177 26.0013 213.336 25.6467 213.336 25.236V11.936C213.336 11.5253 213.177 11.18 212.86 10.9C212.561 10.62 212.197 10.48 211.768 10.48H211.376V10.2H218.404C220.159 10.2 221.54 10.6013 222.548 11.404C223.575 12.2067 224.088 13.2613 224.088 14.568C224.088 15.8747 223.677 16.9667 222.856 17.844C222.035 18.7213 220.989 19.2253 219.72 19.356C220.317 19.6173 221.036 20.3453 221.876 21.54C221.857 21.54 222.175 21.9507 222.828 22.772C223.5 23.5933 224.032 24.2373 224.424 24.704C224.835 25.152 225.171 25.4973 225.432 25.74C226.123 26.3933 226.916 26.72 227.812 26.72V27H226.944C225.469 27 224.312 26.7107 223.472 26.132C222.837 25.7027 222.259 25.1707 221.736 24.536C221.624 24.3867 221.148 23.7333 220.308 22.576C219.487 21.4 219.048 20.7747 218.992 20.7C217.984 19.4493 217.041 18.824 216.164 18.824V18.544C218.348 18.544 219.664 18.432 220.112 18.208C220.728 17.8907 221.148 17.5547 221.372 17.2C221.839 16.4533 222.072 15.632 222.072 14.736C222.072 13.5973 221.736 12.72 221.064 12.104C220.392 11.488 219.487 11.152 218.348 11.096C217.844 11.0773 217.265 11.068 216.612 11.068ZM245.003 27H243.967C242.137 27 240.765 26.468 239.851 25.404L233.691 18.656L239.711 11.572C239.916 11.3107 239.944 11.068 239.795 10.844C239.664 10.6013 239.431 10.48 239.095 10.48H238.843V10.2H244.555V10.48H244.443C243.304 10.48 242.399 10.816 241.727 11.488L235.623 18.012L242.567 25.572C242.903 25.9827 243.248 26.272 243.603 26.44C243.957 26.608 244.424 26.7013 245.003 26.72V27ZM234.363 26.72H234.671V27H228.931V26.72H229.267C229.715 26.72 230.097 26.5707 230.415 26.272C230.732 25.9733 230.9 25.6187 230.919 25.208V11.992C230.9 11.5813 230.732 11.2267 230.415 10.928C230.097 10.6293 229.715 10.48 229.267 10.48H228.931V10.2H234.671V10.48H234.335C233.737 10.48 233.271 10.7227 232.935 11.208C232.785 11.432 232.711 11.684 232.711 11.964V25.236C232.711 25.6467 232.869 26.0013 233.187 26.3C233.523 26.58 233.915 26.72 234.363 26.72ZM246.487 26.076C246.431 25.852 246.403 25.3947 246.403 24.704C246.403 24.0133 246.525 23.3133 246.767 22.604H247.103C247.085 22.772 247.075 22.94 247.075 23.108C247.075 24.116 247.402 24.9467 248.055 25.6C248.727 26.2347 249.651 26.552 250.827 26.552C252.059 26.552 253.021 26.272 253.711 25.712C254.402 25.1333 254.747 24.396 254.747 23.5C254.747 22.5853 254.411 21.8293 253.739 21.232L248.139 16.92C247.243 16.1547 246.795 15.128 246.795 13.84C246.795 13.112 246.991 12.44 247.383 11.824C247.794 11.208 248.354 10.7227 249.063 10.368C249.791 9.99467 250.641 9.808 251.611 9.808C252.582 9.808 253.441 9.892 254.187 10.06H255.111L255.167 13.112H254.859C254.859 12.328 254.589 11.7213 254.047 11.292C253.506 10.8627 252.731 10.648 251.723 10.648C250.715 10.648 249.885 10.9093 249.231 11.432C248.578 11.936 248.251 12.5987 248.251 13.42C248.251 14.2227 248.615 14.9227 249.343 15.52L254.999 19.888C255.858 20.5973 256.287 21.5867 256.287 22.856C256.287 24.1253 255.802 25.1987 254.831 26.076C253.879 26.9533 252.713 27.392 251.331 27.392C250.417 27.392 249.502 27.28 248.587 27.056C247.673 26.832 246.973 26.5053 246.487 26.076ZM271.797 26.72C272.226 26.72 272.6 26.58 272.917 26.3C273.234 26.0013 273.402 25.6467 273.421 25.236V19.132H263.089V25.236C263.108 25.6467 263.276 26.0013 263.593 26.3C263.91 26.58 264.284 26.72 264.713 26.72H265.049V27H259.337V26.72H259.673C260.121 26.72 260.494 26.5707 260.793 26.272C261.11 25.9733 261.278 25.6187 261.297 25.208V11.992C261.278 11.5813 261.11 11.2267 260.793 10.928C260.476 10.6293 260.102 10.48 259.673 10.48H259.337V10.2H265.049V10.48H264.713C264.284 10.48 263.91 10.6293 263.593 10.928C263.276 11.208 263.108 11.5533 263.089 11.964V18.292H273.421V11.992C273.421 11.5813 273.3 11.264 273.057 11.04C272.665 10.6667 272.245 10.48 271.797 10.48H271.461V10.2H277.173V10.48H276.837C276.408 10.48 276.034 10.62 275.717 10.9C275.4 11.18 275.232 11.5253 275.213 11.936V25.236C275.232 25.6467 275.353 25.9547 275.577 26.16C275.988 26.5333 276.408 26.72 276.837 26.72H277.173V27H271.461V26.72H271.797ZM284.381 10.928C285.819 10.1813 287.396 9.808 289.113 9.808C290.849 9.808 292.436 10.1813 293.873 10.928C295.311 11.656 296.449 12.692 297.289 14.036C298.148 15.38 298.577 16.9013 298.577 18.6C298.577 20.2987 298.148 21.82 297.289 23.164C296.449 24.508 295.311 25.5533 293.873 26.3C292.436 27.028 290.961 27.392 289.449 27.392C287.937 27.392 286.603 27.1773 285.445 26.748C284.288 26.3187 283.28 25.7213 282.421 24.956C281.581 24.1907 280.909 23.2573 280.405 22.156C279.92 21.0547 279.677 19.7667 279.677 18.292C279.677 16.7987 280.097 15.38 280.937 14.036C281.796 12.692 282.944 11.656 284.381 10.928ZM283.849 24.34C285.268 25.8147 287.023 26.552 289.113 26.552C291.204 26.552 292.959 25.8147 294.377 24.34C295.796 22.8467 296.505 20.9333 296.505 18.6C296.505 16.2667 295.796 14.3627 294.377 12.888C292.959 11.3947 291.204 10.648 289.113 10.648C287.023 10.648 285.268 11.3947 283.849 12.888C282.449 14.3627 281.749 16.2667 281.749 18.6C281.749 20.9333 282.449 22.8467 283.849 24.34ZM305.963 19.048C306.392 19.16 306.784 19.216 307.139 19.216C307.493 19.216 307.783 19.2067 308.007 19.188C308.231 19.1693 308.548 19.1133 308.959 19.02C309.369 18.908 309.743 18.74 310.079 18.516C310.863 18.0307 311.441 17.2653 311.815 16.22C311.945 15.8467 312.011 15.3427 312.011 14.708C312.011 13.5693 311.619 12.6733 310.835 12.02C310.051 11.3667 308.968 11.04 307.587 11.04H304.871V25.208C304.889 25.8053 305.16 26.244 305.683 26.524C305.925 26.6547 306.196 26.72 306.495 26.72H306.887V27H301.091V26.72H301.483C301.931 26.72 302.304 26.58 302.603 26.3C302.92 26.0013 303.088 25.6467 303.107 25.236V11.964C303.088 11.5347 302.92 11.18 302.603 10.9C302.304 10.62 301.931 10.48 301.483 10.48H301.091V10.2H307.643C309.603 10.2 311.152 10.6293 312.291 11.488C313.448 12.3467 314.027 13.504 314.027 14.96C314.027 16.0053 313.784 16.92 313.299 17.704C312.347 19.2347 310.872 20 308.875 20C307.885 20 306.915 19.776 305.963 19.328V19.048ZM316.651 26.076C316.595 25.852 316.567 25.3947 316.567 24.704C316.567 24.0133 316.689 23.3133 316.931 22.604H317.267C317.249 22.772 317.239 22.94 317.239 23.108C317.239 24.116 317.566 24.9467 318.219 25.6C318.891 26.2347 319.815 26.552 320.991 26.552C322.223 26.552 323.185 26.272 323.875 25.712C324.566 25.1333 324.911 24.396 324.911 23.5C324.911 22.5853 324.575 21.8293 323.903 21.232L318.303 16.92C317.407 16.1547 316.959 15.128 316.959 13.84C316.959 13.112 317.155 12.44 317.547 11.824C317.958 11.208 318.518 10.7227 319.227 10.368C319.955 9.99467 320.805 9.808 321.775 9.808C322.746 9.808 323.605 9.892 324.351 10.06H325.275L325.331 13.112H325.023C325.023 12.328 324.753 11.7213 324.211 11.292C323.67 10.8627 322.895 10.648 321.887 10.648C320.879 10.648 320.049 10.9093 319.395 11.432C318.742 11.936 318.415 12.5987 318.415 13.42C318.415 14.2227 318.779 14.9227 319.507 15.52L325.163 19.888C326.022 20.5973 326.451 21.5867 326.451 22.856C326.451 24.1253 325.966 25.1987 324.995 26.076C324.043 26.9533 322.877 27.392 321.495 27.392C320.581 27.392 319.666 27.28 318.751 27.056C317.837 26.832 317.137 26.5053 316.651 26.076Z" fill="#333333"/>
</svg>
