<svg width="102" height="102" viewBox="0 0 102 102" fill="none" xmlns="http://www.w3.org/2000/svg">
<path fill-rule="evenodd" clip-rule="evenodd" d="M102 51C102 79.1665 79.1665 102 51 102C22.8335 102 0 79.1665 0 51C0 22.8335 22.8335 0 51 0C79.1665 0 102 22.8335 102 51ZM68.8549 64.4504V43.7482L68.8495 43.7319V22.9591C68.8495 22.6899 68.8332 22.4208 68.806 22.1516C68.6918 21.018 67.9116 20.3111 66.7942 20.409C66.0757 20.46 65.355 20.602 64.6437 20.7422L64.3883 20.7923C63.1703 21.0329 61.9563 21.277 60.7424 21.521C59.5286 21.765 58.3148 22.0089 57.097 22.2495L48.8705 23.9214C46.5921 24.3706 44.3237 24.8297 42.0482 25.2903L40.8996 25.5227C40.6234 25.5815 40.3458 25.6376 40.0678 25.6939C39.4074 25.8274 38.7453 25.9614 38.0967 26.1317C37.1071 26.3736 36.3704 26.969 36.1148 28.0021C36.017 28.4425 35.9599 28.8938 35.9599 29.3478V62.0852C35.8892 63.5016 35.166 64.3797 33.7795 64.676L30.664 65.3122C29.2911 65.5949 27.9454 65.8912 26.6432 66.4295C23.3021 67.8459 21.9564 71.0185 22.4674 73.9628C23.0601 77.3746 25.95 79.6827 29.4189 79.5549C30.7429 79.5118 32.0563 79.3026 33.3283 78.9324C35.7342 78.2391 37.5176 76.7793 38.5235 74.4576C39.1298 73.0439 39.301 71.5432 39.301 70.0126C39.3078 65.2986 39.3078 60.5839 39.3078 55.8688C39.3078 51.1537 39.3078 46.4383 39.3146 41.7229C39.3146 41.6713 39.3131 41.6195 39.3116 41.5675C39.3086 41.4633 39.3055 41.3587 39.3146 41.2553C39.3581 40.2086 39.7115 39.7546 40.7174 39.4719C40.7562 39.4719 40.8013 39.4581 40.8441 39.4449C40.8643 39.4388 40.884 39.4327 40.9023 39.4284L54.3104 36.7234C57.0589 36.1579 59.8183 35.606 62.5804 35.0677C63.1459 34.9535 63.7114 34.853 64.2931 34.8258C64.8586 34.7986 65.2555 35.1248 65.3969 35.6767C65.457 35.8938 65.4899 36.1175 65.4948 36.3427V56.0798C65.4948 56.3055 65.4812 56.5474 65.4241 56.773C65.2256 57.8088 64.5759 58.4178 63.57 58.6434C62.7134 58.8405 61.8514 59.0202 60.9874 59.2004C60.4803 59.3061 59.9726 59.412 59.4649 59.5216C58.2062 59.7771 56.9448 60.1169 55.7839 60.6824C54.4398 61.3241 53.3435 62.3893 52.6633 63.7143C51.9831 65.0393 51.7566 66.551 52.0186 68.0172C52.3046 69.6468 53.1799 71.1144 54.4777 72.1405C55.7756 73.1667 57.4055 73.6798 59.0571 73.5822C60.3705 73.5307 61.673 73.3217 62.9366 72.9596C65.2175 72.3072 66.9166 70.9614 67.9632 68.8246C68.6429 67.4517 68.8549 65.9646 68.8549 64.4504Z" fill="#FEC10B"/>
</svg>
