<svg width="1196" height="48" viewBox="0 0 1196 48" fill="none" xmlns="http://www.w3.org/2000/svg">
<path d="M1162.67 8.83999C1162.97 6.13999 1165.57 4.73999 1168.07 5.03999C1171.47 5.43999 1173.37 8.63998 1172.47 11.84C1170.57 18.44 1162.47 24.04 1155.97 25.24C1155.07 25.34 1155.57 24.24 1155.97 24.04C1159.97 21.94 1164.17 20.64 1167.37 17.24C1168.77 15.74 1170.37 13.74 1170.87 11.74C1171.77 7.83998 1165.57 3.63999 1163.77 8.73998C1163.57 8.93999 1162.57 9.43999 1162.67 8.83999Z" fill="#FEC10B" fill-opacity="0.3"/>
<path d="M1156.47 27.64C1160.77 27.84 1165.77 29.94 1168.97 32.94C1171.47 35.24 1173.97 39.24 1172.87 42.84C1171.87 45.94 1169.27 47.74 1165.97 47.54C1161.77 47.24 1159.37 43.14 1162.07 39.64C1162.47 39.14 1163.67 39.14 1163.17 40.04C1161.17 43.94 1166.77 47.74 1169.87 44.84C1171.57 43.24 1171.37 41.14 1170.57 39.24C1168.17 33.04 1161.87 30.54 1155.97 28.54C1155.47 28.24 1156.07 27.54 1156.47 27.64Z" fill="#FEC10B" fill-opacity="0.3"/>
<path d="M1178.87 14.94C1177.27 17.44 1175.47 19.84 1173.47 22.04C1171.67 23.84 1169.67 26.04 1167.17 26.94C1166.27 27.24 1166.27 26.24 1166.77 25.74C1168.77 23.94 1171.07 22.54 1172.97 20.54C1174.77 18.64 1176.37 16.64 1177.97 14.64C1178.27 14.14 1179.27 14.24 1178.87 14.94Z" fill="#FEC10B" fill-opacity="0.3"/>
<path d="M1167.07 25.64C1171.57 26.64 1178.07 30.34 1178.67 35.44C1178.77 36.04 1177.67 36.74 1177.27 36.24C1175.67 34.34 1174.87 32.24 1172.97 30.54C1171.07 28.84 1168.77 27.74 1166.37 26.64C1165.87 26.34 1166.67 25.54 1167.07 25.64Z" fill="#FEC10B" fill-opacity="0.3"/>
<path d="M1183.87 20.04C1182.27 22.64 1180.07 25.74 1177.07 26.74C1176.37 26.94 1176.37 26.14 1176.77 25.84C1177.87 24.84 1179.07 24.14 1180.07 23.04C1181.07 22.04 1181.97 20.84 1182.97 19.74C1183.27 19.24 1184.37 19.34 1183.87 20.04Z" fill="#FEC10B" fill-opacity="0.3"/>
<path d="M1177.47 25.44C1178.97 25.84 1180.37 26.44 1181.57 27.44C1182.67 28.44 1183.87 30.04 1183.77 31.54C1183.77 32.04 1182.97 32.74 1182.47 32.24C1181.97 31.64 1181.77 30.94 1181.37 30.24C1181.07 29.64 1180.67 29.14 1180.17 28.64C1179.17 27.64 1177.87 27.04 1176.67 26.44C1176.07 26.24 1176.97 25.24 1177.47 25.44Z" fill="#FEC10B" fill-opacity="0.3"/>
<path d="M1183.17 25.74C1185.87 24.54 1188.97 23.54 1191.97 23.74C1193.07 23.84 1196.37 24.34 1195.97 26.04C1195.67 27.44 1193.07 28.24 1191.87 28.44C1188.87 28.84 1185.77 28.14 1183.07 26.84C1182.37 26.44 1183.37 25.44 1183.97 25.54C1185.57 25.94 1187.17 26.34 1188.77 26.64C1189.97 26.84 1191.17 26.94 1192.37 26.74C1192.87 26.64 1193.37 26.54 1193.77 26.24C1194.37 25.94 1194.47 25.84 1193.97 26.04C1193.97 25.94 1191.97 25.44 1191.97 25.44C1190.77 25.24 1189.67 25.24 1188.47 25.44C1186.67 25.64 1184.97 26.34 1183.17 26.64C1182.57 26.74 1182.77 25.94 1183.17 25.74Z" fill="#FEC10B" fill-opacity="0.3"/>
<path d="M1143.76 27.3684C1095.67 28.4737 1047.43 27.6842 999.34 27.6842C953.089 27.6842 906.839 27.6842 860.741 27.8421C833.021 27.8421 805.301 27.8421 777.734 27.8421C775.743 27.8421 776.968 25 778.5 25C778.653 25 778.806 25 778.959 25C780.95 25 779.725 27.8421 778.194 27.8421C774.059 27.8421 770.077 27.8421 765.942 27.6842C763.951 27.6842 765.482 24.5263 767.167 25.3158C766.707 25.1579 766.554 25.1579 767.014 25.1579C768.852 25.1579 767.626 27.6842 766.401 27.6842C766.095 27.6842 766.095 27.6842 766.401 27.6842C764.563 28.3158 765.023 25.3158 766.707 25.3158C770.842 25.1579 774.977 25.1579 778.959 25.1579C780.95 25.1579 779.725 28 778.194 28C778.04 28 777.887 28 777.734 28C775.743 28 776.968 25.1579 778.5 25.1579C872.84 25.1579 967.179 25.3158 1061.37 25.3158C1089.09 25.3158 1116.65 25 1144.37 25.6316C1145.6 25.4737 1144.83 27.2105 1143.76 27.3684Z" fill="#FEC10B" fill-opacity="0.3"/>
<path d="M33.3334 8.83999C33.0334 6.13999 30.4334 4.73999 27.9334 5.03999C24.5334 5.43999 22.6334 8.63998 23.5334 11.84C25.4334 18.44 33.5334 24.04 40.0334 25.24C40.9334 25.34 40.4334 24.24 40.0334 24.04C36.0334 21.94 31.8334 20.64 28.6334 17.24C27.2334 15.74 25.6334 13.74 25.1334 11.74C24.2334 7.83998 30.4334 3.63999 32.2334 8.73998C32.4334 8.93999 33.4334 9.43999 33.3334 8.83999Z" fill="#FEC10B" fill-opacity="0.3"/>
<path d="M39.5334 27.64C35.2334 27.84 30.2334 29.94 27.0334 32.94C24.5334 35.24 22.0334 39.24 23.1334 42.84C24.1334 45.94 26.7334 47.74 30.0334 47.54C34.2334 47.24 36.6334 43.14 33.9334 39.64C33.5334 39.14 32.3334 39.14 32.8334 40.04C34.8334 43.94 29.2334 47.74 26.1334 44.84C24.4334 43.24 24.6334 41.14 25.4334 39.24C27.8334 33.04 34.1334 30.54 40.0334 28.54C40.5334 28.24 39.9334 27.54 39.5334 27.64Z" fill="#FEC10B" fill-opacity="0.3"/>
<path d="M17.1334 14.94C18.7334 17.44 20.5334 19.84 22.5334 22.04C24.3334 23.84 26.3334 26.04 28.8334 26.94C29.7334 27.24 29.7334 26.24 29.2334 25.74C27.2334 23.94 24.9334 22.54 23.0334 20.54C21.2334 18.64 19.6334 16.64 18.0334 14.64C17.7334 14.14 16.7334 14.24 17.1334 14.94Z" fill="#FEC10B" fill-opacity="0.3"/>
<path d="M28.9334 25.64C24.4334 26.64 17.9334 30.34 17.3334 35.44C17.2334 36.04 18.3334 36.74 18.7334 36.24C20.3334 34.34 21.1334 32.24 23.0334 30.54C24.9334 28.84 27.2334 27.74 29.6334 26.64C30.1334 26.34 29.3334 25.54 28.9334 25.64Z" fill="#FEC10B" fill-opacity="0.3"/>
<path d="M12.1334 20.04C13.7334 22.64 15.9334 25.74 18.9334 26.74C19.6334 26.94 19.6334 26.14 19.2334 25.84C18.1334 24.84 16.9334 24.14 15.9334 23.04C14.9334 22.04 14.0334 20.84 13.0334 19.74C12.7334 19.24 11.6334 19.34 12.1334 20.04Z" fill="#FEC10B" fill-opacity="0.3"/>
<path d="M18.5334 25.44C17.0334 25.84 15.6334 26.44 14.4334 27.44C13.3334 28.44 12.1334 30.04 12.2334 31.54C12.2334 32.04 13.0334 32.74 13.5334 32.24C14.0334 31.64 14.2334 30.94 14.6334 30.24C14.9334 29.64 15.3334 29.14 15.8334 28.64C16.8334 27.64 18.1334 27.04 19.3334 26.44C19.9334 26.24 19.0334 25.24 18.5334 25.44Z" fill="#FEC10B" fill-opacity="0.3"/>
<path d="M12.8334 25.74C10.1334 24.54 7.03343 23.54 4.03343 23.74C2.93343 23.84 -0.36657 24.34 0.0334303 26.04C0.33343 27.44 2.93343 28.24 4.13343 28.44C7.13343 28.84 10.2334 28.14 12.9334 26.84C13.6334 26.44 12.6334 25.44 12.0334 25.54C10.4334 25.94 8.83343 26.34 7.23343 26.64C6.03343 26.84 4.83343 26.94 3.63343 26.74C3.13343 26.64 2.63343 26.54 2.23343 26.24C1.63343 25.94 1.53343 25.84 2.03343 26.04C2.03343 25.94 4.03343 25.44 4.03343 25.44C5.23343 25.24 6.33343 25.24 7.53343 25.44C9.33343 25.64 11.0334 26.34 12.8334 26.64C13.4334 26.74 13.2334 25.94 12.8334 25.74Z" fill="#FEC10B" fill-opacity="0.3"/>
<path d="M52.2404 27.3684C100.329 28.4737 148.571 27.6842 196.66 27.6842C242.911 27.6842 289.161 27.6842 335.259 27.8421C362.979 27.8421 390.699 27.8421 418.266 27.8421C420.257 27.8421 419.032 25 417.5 25C417.347 25 417.194 25 417.041 25C415.05 25 416.275 27.8421 417.806 27.8421C421.941 27.8421 425.923 27.8421 430.058 27.6842C432.049 27.6842 430.518 24.5263 428.833 25.3158C429.293 25.1579 429.446 25.1579 428.986 25.1579C427.148 25.1579 428.374 27.6842 429.599 27.6842C429.905 27.6842 429.905 27.6842 429.599 27.6842C431.437 28.3158 430.977 25.3158 429.293 25.3158C425.158 25.1579 421.023 25.1579 417.041 25.1579C415.05 25.1579 416.275 28 417.806 28C417.96 28 418.113 28 418.266 28C420.257 28 419.032 25.1579 417.5 25.1579C323.16 25.1579 228.821 25.3158 134.634 25.3158C106.914 25.3158 79.3477 25 51.6278 25.6316C50.4026 25.4737 51.1683 27.2105 52.2404 27.3684Z" fill="#FEC10B" fill-opacity="0.3"/>
<rect x="491" y="25" width="214" height="14" fill="#FEC10B" fill-opacity="0.3"/>
<path d="M527.084 10.16H526.796C525.908 10.16 525.128 10.484 524.456 11.132C524.072 11.468 523.796 11.888 523.628 12.392L517.652 31.436C517.172 32.948 516.908 34.28 516.86 35.432H516.536L509.192 14.84L503.72 31.436C503.264 32.924 503.012 34.256 502.964 35.432H502.64L494.468 12.356C494.18 11.636 493.736 11.096 493.136 10.736C492.536 10.352 491.924 10.16 491.3 10.16H491.012V9.8H499.004V10.16H498.68C498.176 10.16 497.792 10.328 497.528 10.664C497.288 10.976 497.168 11.276 497.168 11.564C497.168 11.852 497.204 12.116 497.276 12.356L502.748 29.888L509.444 9.224L509.768 9.26L516.86 29.168L521.684 12.32C521.756 12.056 521.792 11.792 521.792 11.528C521.792 11.24 521.672 10.94 521.432 10.628C521.192 10.316 520.82 10.16 520.316 10.16H519.992V9.8H527.084V10.16ZM533.286 14.336C535.134 13.376 537.162 12.896 539.37 12.896C541.602 12.896 543.642 13.376 545.49 14.336C547.338 15.272 548.802 16.604 549.882 18.332C550.986 20.06 551.538 22.016 551.538 24.2C551.538 26.384 550.986 28.34 549.882 30.068C548.802 31.796 547.338 33.14 545.49 34.1C543.642 35.036 541.746 35.504 539.802 35.504C537.858 35.504 536.142 35.228 534.654 34.676C533.166 34.124 531.87 33.356 530.766 32.372C529.686 31.388 528.822 30.188 528.174 28.772C527.55 27.356 527.238 25.7 527.238 23.804C527.238 21.884 527.778 20.06 528.858 18.332C529.962 16.604 531.438 15.272 533.286 14.336ZM532.602 31.58C534.426 33.476 536.682 34.424 539.37 34.424C542.058 34.424 544.314 33.476 546.138 31.58C547.962 29.66 548.874 27.2 548.874 24.2C548.874 21.2 547.962 18.752 546.138 16.856C544.314 14.936 542.058 13.976 539.37 13.976C536.682 13.976 534.426 14.936 532.602 16.856C530.802 18.752 529.902 21.2 529.902 24.2C529.902 27.2 530.802 29.66 532.602 31.58ZM561.501 14.516H559.593V32.696C559.617 33.44 559.953 34.004 560.601 34.388C560.913 34.556 561.261 34.64 561.645 34.64H562.113L562.149 35H554.769V34.64H555.273C555.825 34.64 556.293 34.46 556.677 34.1C557.085 33.716 557.289 33.26 557.289 32.732V15.632C557.289 15.104 557.085 14.66 556.677 14.3C556.293 13.94 555.825 13.76 555.273 13.76H554.769V13.4H563.805C566.061 13.4 567.837 13.916 569.133 14.948C570.453 15.98 571.113 17.336 571.113 19.016C571.113 20.696 570.585 22.1 569.529 23.228C568.473 24.356 567.129 25.004 565.497 25.172C566.265 25.508 567.189 26.444 568.269 27.98C568.245 27.98 568.653 28.508 569.493 29.564C570.357 30.62 571.041 31.448 571.545 32.048C572.073 32.624 572.505 33.068 572.841 33.38C573.729 34.22 574.749 34.64 575.901 34.64V35H574.785C572.889 35 571.401 34.628 570.321 33.884C569.505 33.332 568.761 32.648 568.089 31.832C567.945 31.64 567.333 30.8 566.253 29.312C565.197 27.8 564.633 26.996 564.561 26.9C563.265 25.292 562.053 24.488 560.925 24.488V24.128C563.733 24.128 565.425 23.984 566.001 23.696C566.793 23.288 567.333 22.856 567.621 22.4C568.221 21.44 568.521 20.384 568.521 19.232C568.521 17.768 568.089 16.64 567.225 15.848C566.361 15.056 565.197 14.624 563.733 14.552C563.085 14.528 562.341 14.516 561.501 14.516ZM598.003 35H596.671C594.319 35 592.555 34.316 591.379 32.948L583.459 24.272L591.199 15.164C591.463 14.828 591.499 14.516 591.307 14.228C591.139 13.916 590.839 13.76 590.407 13.76H590.083V13.4H597.427V13.76H597.283C595.819 13.76 594.655 14.192 593.791 15.056L585.943 23.444L594.871 33.164C595.303 33.692 595.747 34.064 596.203 34.28C596.659 34.496 597.259 34.616 598.003 34.64V35ZM584.323 34.64H584.719V35H577.339V34.64H577.771C578.347 34.64 578.839 34.448 579.247 34.064C579.655 33.68 579.871 33.224 579.895 32.696V15.704C579.871 15.176 579.655 14.72 579.247 14.336C578.839 13.952 578.347 13.76 577.771 13.76H577.339V13.4H584.719V13.76H584.287C583.519 13.76 582.919 14.072 582.487 14.696C582.295 14.984 582.199 15.308 582.199 15.668V32.732C582.199 33.26 582.403 33.716 582.811 34.1C583.243 34.46 583.747 34.64 584.323 34.64ZM599.912 33.812C599.84 33.524 599.804 32.936 599.804 32.048C599.804 31.16 599.96 30.26 600.272 29.348H600.704C600.68 29.564 600.668 29.78 600.668 29.996C600.668 31.292 601.088 32.36 601.928 33.2C602.792 34.016 603.98 34.424 605.492 34.424C607.076 34.424 608.312 34.064 609.2 33.344C610.088 32.6 610.532 31.652 610.532 30.5C610.532 29.324 610.1 28.352 609.236 27.584L602.036 22.04C600.884 21.056 600.308 19.736 600.308 18.08C600.308 17.144 600.56 16.28 601.064 15.488C601.592 14.696 602.312 14.072 603.224 13.616C604.16 13.136 605.252 12.896 606.5 12.896C607.748 12.896 608.852 13.004 609.812 13.22H611L611.072 17.144H610.676C610.676 16.136 610.328 15.356 609.632 14.804C608.936 14.252 607.94 13.976 606.644 13.976C605.348 13.976 604.28 14.312 603.44 14.984C602.6 15.632 602.18 16.484 602.18 17.54C602.18 18.572 602.648 19.472 603.584 20.24L610.856 25.856C611.96 26.768 612.512 28.04 612.512 29.672C612.512 31.304 611.888 32.684 610.64 33.812C609.416 34.94 607.916 35.504 606.14 35.504C604.964 35.504 603.788 35.36 602.612 35.072C601.436 34.784 600.536 34.364 599.912 33.812ZM632.453 34.64C633.005 34.64 633.485 34.46 633.893 34.1C634.301 33.716 634.517 33.26 634.541 32.732V24.884H621.257V32.732C621.281 33.26 621.497 33.716 621.905 34.1C622.313 34.46 622.793 34.64 623.345 34.64H623.777V35H616.433V34.64H616.865C617.441 34.64 617.921 34.448 618.305 34.064C618.713 33.68 618.929 33.224 618.953 32.696V15.704C618.929 15.176 618.713 14.72 618.305 14.336C617.897 13.952 617.417 13.76 616.865 13.76H616.433V13.4H623.777V13.76H623.345C622.793 13.76 622.313 13.952 621.905 14.336C621.497 14.696 621.281 15.14 621.257 15.668V23.804H634.541V15.704C634.541 15.176 634.385 14.768 634.073 14.48C633.569 14 633.029 13.76 632.453 13.76H632.021V13.4H639.365V13.76H638.933C638.381 13.76 637.901 13.94 637.493 14.3C637.085 14.66 636.869 15.104 636.845 15.632V32.732C636.869 33.26 637.025 33.656 637.313 33.92C637.841 34.4 638.381 34.64 638.933 34.64H639.365V35H632.021V34.64H632.453ZM648.633 14.336C650.481 13.376 652.509 12.896 654.717 12.896C656.949 12.896 658.989 13.376 660.837 14.336C662.685 15.272 664.149 16.604 665.229 18.332C666.333 20.06 666.885 22.016 666.885 24.2C666.885 26.384 666.333 28.34 665.229 30.068C664.149 31.796 662.685 33.14 660.837 34.1C658.989 35.036 657.093 35.504 655.149 35.504C653.205 35.504 651.489 35.228 650.001 34.676C648.513 34.124 647.217 33.356 646.113 32.372C645.033 31.388 644.169 30.188 643.521 28.772C642.897 27.356 642.585 25.7 642.585 23.804C642.585 21.884 643.125 20.06 644.205 18.332C645.309 16.604 646.785 15.272 648.633 14.336ZM647.949 31.58C649.773 33.476 652.029 34.424 654.717 34.424C657.405 34.424 659.661 33.476 661.485 31.58C663.309 29.66 664.221 27.2 664.221 24.2C664.221 21.2 663.309 18.752 661.485 16.856C659.661 14.936 657.405 13.976 654.717 13.976C652.029 13.976 649.773 14.936 647.949 16.856C646.149 18.752 645.249 21.2 645.249 24.2C645.249 27.2 646.149 29.66 647.949 31.58ZM676.381 24.776C676.933 24.92 677.437 24.992 677.893 24.992C678.349 24.992 678.721 24.98 679.009 24.956C679.297 24.932 679.705 24.86 680.233 24.74C680.761 24.596 681.241 24.38 681.673 24.092C682.681 23.468 683.425 22.484 683.905 21.14C684.073 20.66 684.157 20.012 684.157 19.196C684.157 17.732 683.653 16.58 682.645 15.74C681.637 14.9 680.245 14.48 678.469 14.48H674.977V32.696C675.001 33.464 675.349 34.028 676.021 34.388C676.333 34.556 676.681 34.64 677.065 34.64H677.569V35H670.117V34.64H670.621C671.197 34.64 671.677 34.46 672.061 34.1C672.469 33.716 672.685 33.26 672.709 32.732V15.668C672.685 15.116 672.469 14.66 672.061 14.3C671.677 13.94 671.197 13.76 670.621 13.76H670.117V13.4H678.541C681.061 13.4 683.053 13.952 684.517 15.056C686.005 16.16 686.749 17.648 686.749 19.52C686.749 20.864 686.437 22.04 685.813 23.048C684.589 25.016 682.693 26 680.125 26C678.853 26 677.605 25.712 676.381 25.136V24.776ZM690.123 33.812C690.051 33.524 690.015 32.936 690.015 32.048C690.015 31.16 690.171 30.26 690.483 29.348H690.915C690.891 29.564 690.879 29.78 690.879 29.996C690.879 31.292 691.299 32.36 692.139 33.2C693.003 34.016 694.191 34.424 695.703 34.424C697.287 34.424 698.523 34.064 699.411 33.344C700.299 32.6 700.743 31.652 700.743 30.5C700.743 29.324 700.311 28.352 699.447 27.584L692.247 22.04C691.095 21.056 690.519 19.736 690.519 18.08C690.519 17.144 690.771 16.28 691.275 15.488C691.803 14.696 692.523 14.072 693.435 13.616C694.371 13.136 695.463 12.896 696.711 12.896C697.959 12.896 699.063 13.004 700.023 13.22H701.211L701.283 17.144H700.887C700.887 16.136 700.539 15.356 699.843 14.804C699.147 14.252 698.151 13.976 696.855 13.976C695.559 13.976 694.491 14.312 693.651 14.984C692.811 15.632 692.391 16.484 692.391 17.54C692.391 18.572 692.859 19.472 693.795 20.24L701.067 25.856C702.171 26.768 702.723 28.04 702.723 29.672C702.723 31.304 702.099 32.684 700.851 33.812C699.627 34.94 698.127 35.504 696.351 35.504C695.175 35.504 693.999 35.36 692.823 35.072C691.647 34.784 690.747 34.364 690.123 33.812Z" fill="#333333"/>
</svg>
