<svg width="481" height="342" viewBox="0 0 481 342" fill="none" xmlns="http://www.w3.org/2000/svg">
<path d="M353 8H476C478.209 8 480 9.79086 480 12V170.5V329C480 331.209 478.209 333 476 333H360.25H350M130 8H5C2.79086 8 1 9.79086 1 12V329.015C1 331.218 2.78157 333.007 4.98473 333.015L132 333.5" stroke="#FEC10B"/>
<path d="M346.043 1.50257C345.926 0.446072 344.908 -0.101743 343.93 0.015646C342.6 0.172165 341.856 1.42431 342.208 2.67646C342.952 5.25902 346.121 7.45028 348.665 7.91984C349.017 7.95896 348.821 7.52854 348.665 7.45028C347.099 6.62856 345.456 6.11987 344.204 4.78946C343.656 4.20252 343.03 3.41993 342.834 2.63733C342.482 1.11128 344.908 -0.532169 345.613 1.46344C345.691 1.5417 346.082 1.73735 346.043 1.50257Z" fill="#FEC10B"/>
<path d="M348.469 8.85889C346.786 8.93715 344.83 9.75888 343.577 10.9328C342.599 11.8327 341.621 13.3979 342.051 14.8066C342.443 16.0196 343.46 16.724 344.751 16.6457C346.395 16.5283 347.334 14.924 346.277 13.5545C346.121 13.3588 345.651 13.3588 345.847 13.711C346.63 15.237 344.438 16.724 343.225 15.5892C342.56 14.9631 342.638 14.1414 342.951 13.3979C343.89 10.9719 346.356 9.99365 348.664 9.21106C348.86 9.09367 348.625 8.81976 348.469 8.85889Z" fill="#FEC10B"/>
<path d="M339.704 3.88933C340.33 4.86757 341.035 5.80668 341.817 6.66753C342.522 7.37187 343.304 8.23272 344.283 8.58489C344.635 8.70227 344.635 8.31098 344.439 8.11533C343.656 7.411 342.757 6.86318 342.013 6.08059C341.309 5.33712 340.683 4.55453 340.057 3.77194C339.939 3.57629 339.548 3.61542 339.704 3.88933Z" fill="#FEC10B"/>
<path d="M344.321 8.07624C342.56 8.46753 340.016 9.91533 339.782 11.9109C339.742 12.1457 340.173 12.4196 340.329 12.224C340.955 11.4805 341.268 10.6588 342.012 9.99359C342.755 9.32839 343.655 8.89796 344.595 8.46753C344.79 8.35014 344.477 8.03711 344.321 8.07624Z" fill="#FEC10B"/>
<path d="M337.747 5.88493C338.373 6.9023 339.234 8.11532 340.408 8.50662C340.682 8.58488 340.682 8.27184 340.525 8.15445C340.095 7.76316 339.625 7.48925 339.234 7.05882C338.843 6.66753 338.491 6.19797 338.099 5.76754C337.982 5.5719 337.551 5.61103 337.747 5.88493Z" fill="#FEC10B"/>
<path d="M340.252 7.99808C339.665 8.1546 339.117 8.38938 338.647 8.78068C338.217 9.17197 337.747 9.79805 337.786 10.385C337.786 10.5806 338.1 10.8545 338.295 10.6589C338.491 10.4241 338.569 10.1502 338.726 9.87631C338.843 9.64153 338.999 9.44588 339.195 9.25023C339.586 8.85894 340.095 8.62416 340.565 8.38938C340.799 8.31112 340.447 7.91982 340.252 7.99808Z" fill="#FEC10B"/>
<path d="M338.022 8.11561C336.965 7.64606 335.752 7.25476 334.578 7.33302C334.148 7.37215 332.857 7.5678 333.013 8.233C333.13 8.78082 334.148 9.09385 334.617 9.17211C335.791 9.32863 337.004 9.05472 338.061 8.54604C338.335 8.38952 337.943 7.99822 337.709 8.03735C337.083 8.19387 336.456 8.35039 335.83 8.46778C335.361 8.54604 334.891 8.58517 334.422 8.50691C334.226 8.46778 334.03 8.42865 333.874 8.31126C333.639 8.19387 333.6 8.15474 333.796 8.233C333.796 8.19387 334.578 7.99822 334.578 7.99822C335.048 7.91996 335.478 7.91996 335.948 7.99822C336.652 8.07648 337.317 8.35039 338.022 8.46778C338.256 8.50691 338.178 8.19387 338.022 8.11561Z" fill="#FEC10B"/>
<path d="M343.043 326.503C342.926 325.446 341.908 324.898 340.93 325.016C339.6 325.172 338.856 326.424 339.208 327.676C339.952 330.259 343.121 332.45 345.665 332.92C346.017 332.959 345.821 332.529 345.665 332.45C344.099 331.629 342.456 331.12 341.204 329.789C340.656 329.203 340.03 328.42 339.834 327.637C339.482 326.111 341.908 324.468 342.613 326.463C342.691 326.542 343.082 326.737 343.043 326.503Z" fill="#FEC10B"/>
<path d="M345.469 333.859C343.786 333.937 341.83 334.759 340.577 335.933C339.599 336.833 338.621 338.398 339.051 339.807C339.443 341.02 340.46 341.724 341.751 341.646C343.395 341.528 344.334 339.924 343.277 338.555C343.121 338.359 342.651 338.359 342.847 338.711C343.63 340.237 341.438 341.724 340.225 340.589C339.56 339.963 339.638 339.141 339.951 338.398C340.89 335.972 343.356 334.994 345.664 334.211C345.86 334.094 345.625 333.82 345.469 333.859Z" fill="#FEC10B"/>
<path d="M336.704 328.889C337.33 329.868 338.035 330.807 338.817 331.668C339.522 332.372 340.304 333.233 341.283 333.585C341.635 333.702 341.635 333.311 341.439 333.115C340.656 332.411 339.757 331.863 339.013 331.081C338.309 330.337 337.683 329.555 337.057 328.772C336.939 328.576 336.548 328.615 336.704 328.889Z" fill="#FEC10B"/>
<path d="M341.321 333.076C339.56 333.468 337.016 334.915 336.782 336.911C336.742 337.146 337.173 337.42 337.329 337.224C337.955 336.481 338.268 335.659 339.012 334.994C339.755 334.328 340.655 333.898 341.595 333.468C341.79 333.35 341.477 333.037 341.321 333.076Z" fill="#FEC10B"/>
<path d="M334.747 330.885C335.373 331.902 336.234 333.115 337.408 333.507C337.682 333.585 337.682 333.272 337.525 333.154C337.095 332.763 336.625 332.489 336.234 332.059C335.843 331.668 335.491 331.198 335.099 330.768C334.982 330.572 334.551 330.611 334.747 330.885Z" fill="#FEC10B"/>
<path d="M337.252 332.998C336.665 333.155 336.117 333.389 335.647 333.781C335.217 334.172 334.747 334.798 334.786 335.385C334.786 335.581 335.1 335.855 335.295 335.659C335.491 335.424 335.569 335.15 335.726 334.876C335.843 334.642 335.999 334.446 336.195 334.25C336.586 333.859 337.095 333.624 337.565 333.389C337.799 333.311 337.447 332.92 337.252 332.998Z" fill="#FEC10B"/>
<path d="M335.022 333.116C333.965 332.646 332.752 332.255 331.578 332.333C331.148 332.372 329.857 332.568 330.013 333.233C330.13 333.781 331.148 334.094 331.617 334.172C332.791 334.329 334.004 334.055 335.061 333.546C335.335 333.39 334.943 332.998 334.709 333.037C334.083 333.194 333.456 333.35 332.83 333.468C332.361 333.546 331.891 333.585 331.422 333.507C331.226 333.468 331.03 333.429 330.874 333.311C330.639 333.194 330.6 333.155 330.796 333.233C330.796 333.194 331.578 332.998 331.578 332.998C332.048 332.92 332.478 332.92 332.948 332.998C333.652 333.076 334.317 333.35 335.022 333.468C335.256 333.507 335.178 333.194 335.022 333.116Z" fill="#FEC10B"/>
<path d="M136.819 1.50257C136.936 0.446072 137.954 -0.101743 138.932 0.015646C140.262 0.172165 141.006 1.42431 140.654 2.67646C139.91 5.25902 136.741 7.45028 134.197 7.91984C133.845 7.95896 134.041 7.52854 134.197 7.45028C135.762 6.62856 137.406 6.11987 138.658 4.78946C139.206 4.20252 139.832 3.41993 140.028 2.63733C140.38 1.11128 137.954 -0.532169 137.249 1.46344C137.171 1.5417 136.78 1.73735 136.819 1.50257Z" fill="#FEC10B"/>
<path d="M134.391 8.85902C136.074 8.93728 138.03 9.759 139.282 10.9329C140.26 11.8329 141.239 13.3981 140.808 14.8067C140.417 16.0197 139.4 16.7241 138.108 16.6458C136.465 16.5284 135.526 14.9241 136.582 13.5546C136.739 13.3589 137.208 13.3589 137.013 13.7111C136.23 15.2371 138.421 16.7241 139.634 15.5893C140.3 14.9632 140.221 14.1415 139.908 13.3981C138.969 10.972 136.504 9.99378 134.195 9.21118C134 9.09379 134.234 8.81989 134.391 8.85902Z" fill="#FEC10B"/>
<path d="M143.157 3.88933C142.531 4.86757 141.827 5.80668 141.044 6.66753C140.34 7.37187 139.557 8.23272 138.579 8.58489C138.227 8.70227 138.227 8.31098 138.423 8.11533C139.205 7.411 140.105 6.86318 140.849 6.08059C141.553 5.33712 142.179 4.55453 142.805 3.77194C142.923 3.57629 143.314 3.61542 143.157 3.88933Z" fill="#FEC10B"/>
<path d="M138.54 8.07636C140.301 8.46766 142.845 9.91545 143.08 11.9111C143.119 12.1458 142.688 12.4198 142.532 12.2241C141.906 11.4806 141.593 10.6589 140.849 9.99371C140.106 9.32851 139.206 8.89808 138.267 8.46766C138.071 8.35027 138.384 8.03723 138.54 8.07636Z" fill="#FEC10B"/>
<path d="M145.114 5.88493C144.488 6.9023 143.627 8.11532 142.453 8.50662C142.18 8.58488 142.18 8.27184 142.336 8.15445C142.766 7.76316 143.236 7.48925 143.627 7.05882C144.019 6.66753 144.371 6.19797 144.762 5.76754C144.879 5.5719 145.31 5.61103 145.114 5.88493Z" fill="#FEC10B"/>
<path d="M142.61 7.99808C143.197 8.1546 143.745 8.38938 144.214 8.78068C144.645 9.17197 145.114 9.79805 145.075 10.385C145.075 10.5806 144.762 10.8545 144.567 10.6589C144.371 10.4241 144.293 10.1502 144.136 9.87631C144.019 9.64153 143.862 9.44588 143.667 9.25023C143.275 8.85894 142.767 8.62416 142.297 8.38938C142.062 8.31112 142.415 7.91982 142.61 7.99808Z" fill="#FEC10B"/>
<path d="M144.84 8.11561C145.897 7.64606 147.11 7.25476 148.284 7.33302C148.714 7.37215 150.005 7.5678 149.849 8.233C149.731 8.78082 148.714 9.09385 148.244 9.17211C147.071 9.32863 145.858 9.05472 144.801 8.54604C144.527 8.38952 144.918 7.99822 145.153 8.03735C145.779 8.19387 146.405 8.35039 147.031 8.46778C147.501 8.54604 147.971 8.58517 148.44 8.50691C148.636 8.46778 148.831 8.42865 148.988 8.31126C149.223 8.19387 149.262 8.15474 149.066 8.233C149.066 8.19387 148.284 7.99822 148.284 7.99822C147.814 7.91996 147.384 7.91996 146.914 7.99822C146.21 8.07648 145.544 8.35039 144.84 8.46778C144.605 8.50691 144.684 8.19387 144.84 8.11561Z" fill="#FEC10B"/>
<path d="M138.819 326.503C138.936 325.446 139.954 324.898 140.932 325.016C142.262 325.172 143.006 326.424 142.654 327.677C141.91 330.259 138.741 332.45 136.197 332.92C135.845 332.959 136.041 332.529 136.197 332.45C137.762 331.629 139.406 331.12 140.658 329.79C141.206 329.203 141.832 328.42 142.028 327.637C142.38 326.111 139.954 324.468 139.249 326.464C139.171 326.542 138.78 326.737 138.819 326.503Z" fill="#FEC10B"/>
<path d="M136.391 333.859C138.074 333.937 140.03 334.759 141.282 335.933C142.26 336.833 143.239 338.398 142.808 339.807C142.417 341.02 141.4 341.724 140.108 341.646C138.465 341.528 137.526 339.924 138.582 338.555C138.739 338.359 139.208 338.359 139.013 338.711C138.23 340.237 140.421 341.724 141.634 340.589C142.3 339.963 142.221 339.142 141.908 338.398C140.969 335.972 138.504 334.994 136.195 334.211C136 334.094 136.234 333.82 136.391 333.859Z" fill="#FEC10B"/>
<path d="M145.157 328.889C144.531 329.868 143.827 330.807 143.044 331.668C142.34 332.372 141.557 333.233 140.579 333.585C140.227 333.702 140.227 333.311 140.423 333.115C141.205 332.411 142.105 331.863 142.849 331.081C143.553 330.337 144.179 329.555 144.805 328.772C144.923 328.576 145.314 328.615 145.157 328.889Z" fill="#FEC10B"/>
<path d="M140.54 333.076C142.301 333.468 144.845 334.916 145.08 336.911C145.119 337.146 144.688 337.42 144.532 337.224C143.906 336.481 143.593 335.659 142.849 334.994C142.106 334.329 141.206 333.898 140.267 333.468C140.071 333.35 140.384 333.037 140.54 333.076Z" fill="#FEC10B"/>
<path d="M147.114 330.885C146.488 331.902 145.627 333.115 144.453 333.507C144.18 333.585 144.18 333.272 144.336 333.155C144.766 332.763 145.236 332.489 145.627 332.059C146.019 331.668 146.371 331.198 146.762 330.768C146.879 330.572 147.31 330.611 147.114 330.885Z" fill="#FEC10B"/>
<path d="M144.61 332.998C145.197 333.155 145.745 333.389 146.214 333.781C146.645 334.172 147.114 334.798 147.075 335.385C147.075 335.581 146.762 335.855 146.567 335.659C146.371 335.424 146.293 335.15 146.136 334.876C146.019 334.642 145.862 334.446 145.667 334.25C145.275 333.859 144.767 333.624 144.297 333.389C144.062 333.311 144.415 332.92 144.61 332.998Z" fill="#FEC10B"/>
<path d="M146.84 333.116C147.897 332.646 149.11 332.255 150.284 332.333C150.714 332.372 152.005 332.568 151.849 333.233C151.731 333.781 150.714 334.094 150.244 334.172C149.071 334.329 147.858 334.055 146.801 333.546C146.527 333.39 146.918 332.998 147.153 333.037C147.779 333.194 148.405 333.35 149.031 333.468C149.501 333.546 149.971 333.585 150.44 333.507C150.636 333.468 150.831 333.429 150.988 333.311C151.223 333.194 151.262 333.155 151.066 333.233C151.066 333.194 150.284 332.998 150.284 332.998C149.814 332.92 149.384 332.92 148.914 332.998C148.21 333.077 147.544 333.35 146.84 333.468C146.605 333.507 146.684 333.194 146.84 333.116Z" fill="#FEC10B"/>
</svg>
