<svg width="102" height="102" viewBox="0 0 102 102" fill="none" xmlns="http://www.w3.org/2000/svg">
<path fill-rule="evenodd" clip-rule="evenodd" d="M51 0C22.8335 0 0 22.8335 0 51C0 79.1666 22.8335 102 51 102C79.1665 102 102 79.1666 102 51C102 22.8335 79.1665 0 51 0ZM72.26 33.463C74.6008 34.1053 76.4442 35.9978 77.0698 38.4012C78.2066 42.7571 78.2066 51.8456 78.2066 51.8456C78.2066 51.8456 78.2066 60.9339 77.0698 65.2901C76.4442 67.6935 74.6008 69.586 72.26 70.2287C68.0181 71.3957 51.0066 71.3957 51.0066 71.3957C51.0066 71.3957 33.9952 71.3957 29.7529 70.2287C27.4122 69.586 25.5688 67.6935 24.9432 65.2901C23.8066 60.9339 23.8066 51.8456 23.8066 51.8456C23.8066 51.8456 23.8066 42.7571 24.9432 38.4012C25.5688 35.9978 27.4122 34.1053 29.7529 33.463C33.9952 32.2956 51.0066 32.2956 51.0066 32.2956C51.0066 32.2956 68.0181 32.2956 72.26 33.463Z" fill="#FEC10B"/>
<path d="M45.896 61.199V44.199L59.5027 52.6993L45.896 61.199Z" fill="#FEC10B"/>
</svg>
